M48
; DRILL file {KiCad (5.1.5)-3} date 2020/6/11 13:52:06
; FORMAT={-:-/ absolute / inch / decimal}
; #@! TF.CreationDate,2020-06-11T13:52:06+08:00
; #@! TF.GenerationSoftware,Kicad,Pcbnew,(5.1.5)-3
; #@! TF.FileFunction,Plated,1,4,PTH
FMAT,2
INCH
T1C0.0100
T2C0.0160
T3C0.0236
T4C0.0394
%
G90
G05
T1
X3.153Y-4.5613
X3.1687Y-3.6557
X3.1924Y-3.6754
X3.3065Y-3.6754
X3.3262Y-3.6557
X3.3302Y-4.7817
X3.3302Y-4.8093
X3.3498Y-3.6361
X3.3498Y-3.8329
X3.3813Y-4.2778
X3.4128Y-4.7502
X3.4207Y-4.2778
X3.4246Y-4.6951
X3.4286Y-4.9746
X3.4404Y-4.7502
X3.4443Y-4.6754
X3.4561Y-4.9746
X3.5113Y-4.9746
X3.5191Y-3.5691
X3.5349Y-4.1912
X3.5405Y-3.5888
X3.5506Y-4.4038
X3.5506Y-4.4904
X3.5506Y-4.514
X3.5506Y-4.5376
X3.5506Y-4.5613
X3.5517Y-4.5857
X3.5546Y-4.8369
X3.5861Y-4.8369
X3.59Y-4.9589
X3.5939Y-3.5494
X3.5939Y-3.8723
X3.6011Y-4.4628
X3.6136Y-3.6124
X3.6136Y-3.8487
X3.6176Y-4.5928
X3.6176Y-4.8369
X3.6294Y-4.9195
X3.6372Y-4.5376
X3.6491Y-4.8369
X3.6491Y-4.9707
X3.6569Y-4.4865
X3.6652Y-4.9195
X3.6766Y-4.5928
X3.6766Y-4.9707
X3.6806Y-4.8369
X3.6963Y-4.6439
X3.7109Y-4.8369
X3.712Y-3.5691
X3.716Y-4.5376
X3.718Y-4.1439
X3.7192Y-4.1991
X3.7349Y-4.5928
X3.7475Y-5.0967
X3.7475Y-5.1243
X3.7514Y-4.6912
X3.7596Y-4.8369
X3.7711Y-4.6439
X3.779Y-3.7581
X3.779Y-3.8683
X3.779Y-4.8132
X3.7908Y-4.5928
X3.7987Y-3.8093
X3.7987Y-4.8369
X3.8105Y-4.6912
X3.8183Y-3.9353
X3.8223Y-4.8132
X3.8302Y-4.6439
X3.8341Y-3.7581
X3.8341Y-3.8683
X3.8384Y-4.8369
X3.8459Y-4.9274
X3.8538Y-3.8093
X3.8577Y-3.6754
X3.8617Y-4.5376
X3.8617Y-4.5928
X3.8656Y-4.8367
X3.8735Y-3.9353
X3.8813Y-4.6912
X3.8813Y-4.9262
X3.8892Y-3.8683
X3.902Y-4.8376
X3.905Y-4.6439
X3.9089Y-3.5691
X3.9089Y-3.8093
X3.9128Y-3.6754
X3.9246Y-3.7581
X3.9246Y-4.5928
X3.9443Y-3.9353
X3.9443Y-4.6912
X3.9561Y-3.7109
X3.964Y-3.8683
X3.964Y-4.5061
X3.964Y-4.6361
X3.964Y-4.7463
X3.9837Y-4.1557
X4.0113Y-3.9353
X4.0152Y-3.7109
X4.0309Y-3.8093
X4.0509Y-4.2699
X4.053Y-4.7444
X4.053Y-4.7674
X4.0739Y-4.2699
X4.1215Y-3.8093
X4.1215Y-4.4496
X4.1215Y-4.6085
X4.1215Y-4.6951
X4.1215Y-4.7345
X4.1412Y-3.9353
X4.1609Y-3.8683
X4.1727Y-4.5455
X4.1766Y-4.6951
X4.1806Y-3.8093
X4.2002Y-3.9353
X4.2002Y-4.4983
X4.2199Y-3.8683
X4.2278Y-4.5455
X4.2396Y-3.8093
X4.2593Y-3.9353
X4.2593Y-4.499
X4.279Y-3.8683
X4.2829Y-4.5455
X4.2987Y-3.8093
X4.3152Y-4.14
X4.3152Y-4.1872
X4.3183Y-4.4983
X4.3341Y-3.8683
X4.342Y-4.5455
X4.3538Y-3.8093
X4.3538Y-4.451
X4.3853Y-3.9353
X4.3853Y-4.4983
X4.405Y-4.1636
X4.405Y-4.1872
X4.4246Y-3.8683
X4.4246Y-4.3841
X4.4443Y-3.9353
X4.4443Y-4.451
X4.464Y-3.8093
X4.464Y-4.3487
X4.4837Y-3.8683
X4.4837Y-4.4983
X4.5026Y-3.9353
X4.5026Y-4.3841
X4.5191Y-3.8093
X4.5191Y-4.5455
X4.5388Y-3.8683
X4.5388Y-4.451
T2
X2.968Y-4.4077
X2.968Y-4.5337
X3.0191Y-4.0061
X3.0467Y-4.9589
X3.0703Y-4.3723
X3.0743Y-4.3211
X3.0821Y-4.7896
X3.0861Y-3.4274
X3.1057Y-4.3644
X3.1057Y-4.8565
X3.2002Y-4.8369
X3.2239Y-4.6439
X3.2317Y-4.7227
X3.2869Y-4.4983
X3.3026Y-4.1833
X3.3223Y-4.4313
X3.338Y-4.0101
X3.3774Y-3.6124
X3.3774Y-3.6991
X3.4089Y-4.1754
X3.4168Y-4.6479
X3.4207Y-4.2109
X3.4207Y-4.325
X3.4207Y-4.3841
X3.4207Y-4.5455
X3.4365Y-5.1124
X3.4443Y-4.8369
X3.4522Y-4.4353
X3.4601Y-3.4274
X3.5069Y-4.1798
X3.5467Y-3.451
X3.5821Y-5.0691
X3.716Y-5.0376
X3.8144Y-3.5258
X3.8892Y-4.7542
X4.0073Y-3.5691
X4.0585Y-3.5691
X4.0703Y-4.0376
X4.1Y-4.2857
X4.1727Y-3.5691
X4.1884Y-4.7306
X4.3026Y-3.4865
X4.3302Y-3.5691
X4.401Y-3.4865
X4.4798Y-3.5652
X4.5073Y-4.8211
X4.5309Y-3.5652
X4.5664Y-4.0888
X4.5664Y-4.325
X4.5821Y-3.4865
T3
X2.994Y-4.8093
X2.994Y-5.0061
T4
X4.288Y-4.9569
X4.388Y-4.9569
X4.688Y-3.5569
X4.688Y-3.6569
X4.688Y-3.7569
X4.688Y-3.8569
X4.688Y-3.9569
X4.688Y-4.0569
X4.688Y-4.1569
X4.688Y-4.2569
X4.688Y-4.3569
X4.688Y-4.4569
X4.688Y-4.5569
X4.688Y-4.6569
X4.688Y-4.7569
X4.688Y-4.8569
X4.688Y-4.9569
X2.888Y-5.1569
X2.988Y-5.1569
X3.088Y-5.1569
X3.188Y-5.1569
X3.288Y-5.1569
X3.388Y-5.1569
X3.488Y-5.1569
X3.588Y-5.1569
X3.688Y-5.1569
X3.788Y-5.1569
X3.888Y-5.1569
X3.988Y-5.1569
X4.088Y-5.1569
X4.188Y-5.1569
X4.288Y-5.1569
X4.388Y-5.1569
X4.488Y-5.1569
X4.588Y-5.1569
X4.688Y-5.1569
X2.888Y-3.3569
X2.988Y-3.3569
X3.088Y-3.3569
X3.188Y-3.3569
X3.288Y-3.3569
X3.388Y-3.3569
X3.488Y-3.3569
X3.588Y-3.3569
X3.688Y-3.3569
X3.788Y-3.3569
X3.888Y-3.3569
X3.988Y-3.3569
X4.088Y-3.3569
X4.188Y-3.3569
X4.288Y-3.3569
X4.388Y-3.3569
X4.488Y-3.3569
X4.588Y-3.3569
X4.688Y-3.3569
T3
G00X2.8799Y-4.7699
M15
G01X2.8956Y-4.7699
M16
G05
G00X2.8956Y-5.0455
M15
G01X2.8799Y-5.0455
M16
G05
T0
M30
