G04 #@! TF.GenerationSoftware,KiCad,Pcbnew,(5.1.5)-3*
G04 #@! TF.CreationDate,2020-06-11T13:52:00+08:00*
G04 #@! TF.ProjectId,imx233-core,696d7832-3333-42d6-936f-72652e6b6963,rev?*
G04 #@! TF.SameCoordinates,Original*
G04 #@! TF.FileFunction,Soldermask,Top*
G04 #@! TF.FilePolarity,Negative*
%FSLAX46Y46*%
G04 Gerber Fmt 4.6, Leading zero omitted, Abs format (unit mm)*
G04 Created by KiCad (PCBNEW (5.1.5)-3) date 2020-06-11 13:52:00*
%MOMM*%
%LPD*%
G04 APERTURE LIST*
%ADD10C,0.100000*%
G04 APERTURE END LIST*
D10*
G36*
X119189512Y-130089927D02*
G01*
X119338812Y-130119624D01*
X119502784Y-130187544D01*
X119650354Y-130286147D01*
X119775853Y-130411646D01*
X119874456Y-130559216D01*
X119942376Y-130723188D01*
X119977000Y-130897259D01*
X119977000Y-131074741D01*
X119942376Y-131248812D01*
X119874456Y-131412784D01*
X119775853Y-131560354D01*
X119650354Y-131685853D01*
X119502784Y-131784456D01*
X119338812Y-131852376D01*
X119189512Y-131882073D01*
X119164742Y-131887000D01*
X118987258Y-131887000D01*
X118962488Y-131882073D01*
X118813188Y-131852376D01*
X118649216Y-131784456D01*
X118501646Y-131685853D01*
X118376147Y-131560354D01*
X118277544Y-131412784D01*
X118209624Y-131248812D01*
X118175000Y-131074741D01*
X118175000Y-130897259D01*
X118209624Y-130723188D01*
X118277544Y-130559216D01*
X118376147Y-130411646D01*
X118501646Y-130286147D01*
X118649216Y-130187544D01*
X118813188Y-130119624D01*
X118962488Y-130089927D01*
X118987258Y-130085000D01*
X119164742Y-130085000D01*
X119189512Y-130089927D01*
G37*
G36*
X96329512Y-130089927D02*
G01*
X96478812Y-130119624D01*
X96642784Y-130187544D01*
X96790354Y-130286147D01*
X96915853Y-130411646D01*
X97014456Y-130559216D01*
X97082376Y-130723188D01*
X97117000Y-130897259D01*
X97117000Y-131074741D01*
X97082376Y-131248812D01*
X97014456Y-131412784D01*
X96915853Y-131560354D01*
X96790354Y-131685853D01*
X96642784Y-131784456D01*
X96478812Y-131852376D01*
X96329512Y-131882073D01*
X96304742Y-131887000D01*
X96127258Y-131887000D01*
X96102488Y-131882073D01*
X95953188Y-131852376D01*
X95789216Y-131784456D01*
X95641646Y-131685853D01*
X95516147Y-131560354D01*
X95417544Y-131412784D01*
X95349624Y-131248812D01*
X95315000Y-131074741D01*
X95315000Y-130897259D01*
X95349624Y-130723188D01*
X95417544Y-130559216D01*
X95516147Y-130411646D01*
X95641646Y-130286147D01*
X95789216Y-130187544D01*
X95953188Y-130119624D01*
X96102488Y-130089927D01*
X96127258Y-130085000D01*
X96304742Y-130085000D01*
X96329512Y-130089927D01*
G37*
G36*
X88709512Y-130089927D02*
G01*
X88858812Y-130119624D01*
X89022784Y-130187544D01*
X89170354Y-130286147D01*
X89295853Y-130411646D01*
X89394456Y-130559216D01*
X89462376Y-130723188D01*
X89497000Y-130897259D01*
X89497000Y-131074741D01*
X89462376Y-131248812D01*
X89394456Y-131412784D01*
X89295853Y-131560354D01*
X89170354Y-131685853D01*
X89022784Y-131784456D01*
X88858812Y-131852376D01*
X88709512Y-131882073D01*
X88684742Y-131887000D01*
X88507258Y-131887000D01*
X88482488Y-131882073D01*
X88333188Y-131852376D01*
X88169216Y-131784456D01*
X88021646Y-131685853D01*
X87896147Y-131560354D01*
X87797544Y-131412784D01*
X87729624Y-131248812D01*
X87695000Y-131074741D01*
X87695000Y-130897259D01*
X87729624Y-130723188D01*
X87797544Y-130559216D01*
X87896147Y-130411646D01*
X88021646Y-130286147D01*
X88169216Y-130187544D01*
X88333188Y-130119624D01*
X88482488Y-130089927D01*
X88507258Y-130085000D01*
X88684742Y-130085000D01*
X88709512Y-130089927D01*
G37*
G36*
X86169512Y-130089927D02*
G01*
X86318812Y-130119624D01*
X86482784Y-130187544D01*
X86630354Y-130286147D01*
X86755853Y-130411646D01*
X86854456Y-130559216D01*
X86922376Y-130723188D01*
X86957000Y-130897259D01*
X86957000Y-131074741D01*
X86922376Y-131248812D01*
X86854456Y-131412784D01*
X86755853Y-131560354D01*
X86630354Y-131685853D01*
X86482784Y-131784456D01*
X86318812Y-131852376D01*
X86169512Y-131882073D01*
X86144742Y-131887000D01*
X85967258Y-131887000D01*
X85942488Y-131882073D01*
X85793188Y-131852376D01*
X85629216Y-131784456D01*
X85481646Y-131685853D01*
X85356147Y-131560354D01*
X85257544Y-131412784D01*
X85189624Y-131248812D01*
X85155000Y-131074741D01*
X85155000Y-130897259D01*
X85189624Y-130723188D01*
X85257544Y-130559216D01*
X85356147Y-130411646D01*
X85481646Y-130286147D01*
X85629216Y-130187544D01*
X85793188Y-130119624D01*
X85942488Y-130089927D01*
X85967258Y-130085000D01*
X86144742Y-130085000D01*
X86169512Y-130089927D01*
G37*
G36*
X83629512Y-130089927D02*
G01*
X83778812Y-130119624D01*
X83942784Y-130187544D01*
X84090354Y-130286147D01*
X84215853Y-130411646D01*
X84314456Y-130559216D01*
X84382376Y-130723188D01*
X84417000Y-130897259D01*
X84417000Y-131074741D01*
X84382376Y-131248812D01*
X84314456Y-131412784D01*
X84215853Y-131560354D01*
X84090354Y-131685853D01*
X83942784Y-131784456D01*
X83778812Y-131852376D01*
X83629512Y-131882073D01*
X83604742Y-131887000D01*
X83427258Y-131887000D01*
X83402488Y-131882073D01*
X83253188Y-131852376D01*
X83089216Y-131784456D01*
X82941646Y-131685853D01*
X82816147Y-131560354D01*
X82717544Y-131412784D01*
X82649624Y-131248812D01*
X82615000Y-131074741D01*
X82615000Y-130897259D01*
X82649624Y-130723188D01*
X82717544Y-130559216D01*
X82816147Y-130411646D01*
X82941646Y-130286147D01*
X83089216Y-130187544D01*
X83253188Y-130119624D01*
X83402488Y-130089927D01*
X83427258Y-130085000D01*
X83604742Y-130085000D01*
X83629512Y-130089927D01*
G37*
G36*
X81089512Y-130089927D02*
G01*
X81238812Y-130119624D01*
X81402784Y-130187544D01*
X81550354Y-130286147D01*
X81675853Y-130411646D01*
X81774456Y-130559216D01*
X81842376Y-130723188D01*
X81877000Y-130897259D01*
X81877000Y-131074741D01*
X81842376Y-131248812D01*
X81774456Y-131412784D01*
X81675853Y-131560354D01*
X81550354Y-131685853D01*
X81402784Y-131784456D01*
X81238812Y-131852376D01*
X81089512Y-131882073D01*
X81064742Y-131887000D01*
X80887258Y-131887000D01*
X80862488Y-131882073D01*
X80713188Y-131852376D01*
X80549216Y-131784456D01*
X80401646Y-131685853D01*
X80276147Y-131560354D01*
X80177544Y-131412784D01*
X80109624Y-131248812D01*
X80075000Y-131074741D01*
X80075000Y-130897259D01*
X80109624Y-130723188D01*
X80177544Y-130559216D01*
X80276147Y-130411646D01*
X80401646Y-130286147D01*
X80549216Y-130187544D01*
X80713188Y-130119624D01*
X80862488Y-130089927D01*
X80887258Y-130085000D01*
X81064742Y-130085000D01*
X81089512Y-130089927D01*
G37*
G36*
X78549512Y-130089927D02*
G01*
X78698812Y-130119624D01*
X78862784Y-130187544D01*
X79010354Y-130286147D01*
X79135853Y-130411646D01*
X79234456Y-130559216D01*
X79302376Y-130723188D01*
X79337000Y-130897259D01*
X79337000Y-131074741D01*
X79302376Y-131248812D01*
X79234456Y-131412784D01*
X79135853Y-131560354D01*
X79010354Y-131685853D01*
X78862784Y-131784456D01*
X78698812Y-131852376D01*
X78549512Y-131882073D01*
X78524742Y-131887000D01*
X78347258Y-131887000D01*
X78322488Y-131882073D01*
X78173188Y-131852376D01*
X78009216Y-131784456D01*
X77861646Y-131685853D01*
X77736147Y-131560354D01*
X77637544Y-131412784D01*
X77569624Y-131248812D01*
X77535000Y-131074741D01*
X77535000Y-130897259D01*
X77569624Y-130723188D01*
X77637544Y-130559216D01*
X77736147Y-130411646D01*
X77861646Y-130286147D01*
X78009216Y-130187544D01*
X78173188Y-130119624D01*
X78322488Y-130089927D01*
X78347258Y-130085000D01*
X78524742Y-130085000D01*
X78549512Y-130089927D01*
G37*
G36*
X76009512Y-130089927D02*
G01*
X76158812Y-130119624D01*
X76322784Y-130187544D01*
X76470354Y-130286147D01*
X76595853Y-130411646D01*
X76694456Y-130559216D01*
X76762376Y-130723188D01*
X76797000Y-130897259D01*
X76797000Y-131074741D01*
X76762376Y-131248812D01*
X76694456Y-131412784D01*
X76595853Y-131560354D01*
X76470354Y-131685853D01*
X76322784Y-131784456D01*
X76158812Y-131852376D01*
X76009512Y-131882073D01*
X75984742Y-131887000D01*
X75807258Y-131887000D01*
X75782488Y-131882073D01*
X75633188Y-131852376D01*
X75469216Y-131784456D01*
X75321646Y-131685853D01*
X75196147Y-131560354D01*
X75097544Y-131412784D01*
X75029624Y-131248812D01*
X74995000Y-131074741D01*
X74995000Y-130897259D01*
X75029624Y-130723188D01*
X75097544Y-130559216D01*
X75196147Y-130411646D01*
X75321646Y-130286147D01*
X75469216Y-130187544D01*
X75633188Y-130119624D01*
X75782488Y-130089927D01*
X75807258Y-130085000D01*
X75984742Y-130085000D01*
X76009512Y-130089927D01*
G37*
G36*
X74257000Y-131887000D02*
G01*
X72455000Y-131887000D01*
X72455000Y-130085000D01*
X74257000Y-130085000D01*
X74257000Y-131887000D01*
G37*
G36*
X91249512Y-130089927D02*
G01*
X91398812Y-130119624D01*
X91562784Y-130187544D01*
X91710354Y-130286147D01*
X91835853Y-130411646D01*
X91934456Y-130559216D01*
X92002376Y-130723188D01*
X92037000Y-130897259D01*
X92037000Y-131074741D01*
X92002376Y-131248812D01*
X91934456Y-131412784D01*
X91835853Y-131560354D01*
X91710354Y-131685853D01*
X91562784Y-131784456D01*
X91398812Y-131852376D01*
X91249512Y-131882073D01*
X91224742Y-131887000D01*
X91047258Y-131887000D01*
X91022488Y-131882073D01*
X90873188Y-131852376D01*
X90709216Y-131784456D01*
X90561646Y-131685853D01*
X90436147Y-131560354D01*
X90337544Y-131412784D01*
X90269624Y-131248812D01*
X90235000Y-131074741D01*
X90235000Y-130897259D01*
X90269624Y-130723188D01*
X90337544Y-130559216D01*
X90436147Y-130411646D01*
X90561646Y-130286147D01*
X90709216Y-130187544D01*
X90873188Y-130119624D01*
X91022488Y-130089927D01*
X91047258Y-130085000D01*
X91224742Y-130085000D01*
X91249512Y-130089927D01*
G37*
G36*
X98869512Y-130089927D02*
G01*
X99018812Y-130119624D01*
X99182784Y-130187544D01*
X99330354Y-130286147D01*
X99455853Y-130411646D01*
X99554456Y-130559216D01*
X99622376Y-130723188D01*
X99657000Y-130897259D01*
X99657000Y-131074741D01*
X99622376Y-131248812D01*
X99554456Y-131412784D01*
X99455853Y-131560354D01*
X99330354Y-131685853D01*
X99182784Y-131784456D01*
X99018812Y-131852376D01*
X98869512Y-131882073D01*
X98844742Y-131887000D01*
X98667258Y-131887000D01*
X98642488Y-131882073D01*
X98493188Y-131852376D01*
X98329216Y-131784456D01*
X98181646Y-131685853D01*
X98056147Y-131560354D01*
X97957544Y-131412784D01*
X97889624Y-131248812D01*
X97855000Y-131074741D01*
X97855000Y-130897259D01*
X97889624Y-130723188D01*
X97957544Y-130559216D01*
X98056147Y-130411646D01*
X98181646Y-130286147D01*
X98329216Y-130187544D01*
X98493188Y-130119624D01*
X98642488Y-130089927D01*
X98667258Y-130085000D01*
X98844742Y-130085000D01*
X98869512Y-130089927D01*
G37*
G36*
X93789512Y-130089927D02*
G01*
X93938812Y-130119624D01*
X94102784Y-130187544D01*
X94250354Y-130286147D01*
X94375853Y-130411646D01*
X94474456Y-130559216D01*
X94542376Y-130723188D01*
X94577000Y-130897259D01*
X94577000Y-131074741D01*
X94542376Y-131248812D01*
X94474456Y-131412784D01*
X94375853Y-131560354D01*
X94250354Y-131685853D01*
X94102784Y-131784456D01*
X93938812Y-131852376D01*
X93789512Y-131882073D01*
X93764742Y-131887000D01*
X93587258Y-131887000D01*
X93562488Y-131882073D01*
X93413188Y-131852376D01*
X93249216Y-131784456D01*
X93101646Y-131685853D01*
X92976147Y-131560354D01*
X92877544Y-131412784D01*
X92809624Y-131248812D01*
X92775000Y-131074741D01*
X92775000Y-130897259D01*
X92809624Y-130723188D01*
X92877544Y-130559216D01*
X92976147Y-130411646D01*
X93101646Y-130286147D01*
X93249216Y-130187544D01*
X93413188Y-130119624D01*
X93562488Y-130089927D01*
X93587258Y-130085000D01*
X93764742Y-130085000D01*
X93789512Y-130089927D01*
G37*
G36*
X116649512Y-130089927D02*
G01*
X116798812Y-130119624D01*
X116962784Y-130187544D01*
X117110354Y-130286147D01*
X117235853Y-130411646D01*
X117334456Y-130559216D01*
X117402376Y-130723188D01*
X117437000Y-130897259D01*
X117437000Y-131074741D01*
X117402376Y-131248812D01*
X117334456Y-131412784D01*
X117235853Y-131560354D01*
X117110354Y-131685853D01*
X116962784Y-131784456D01*
X116798812Y-131852376D01*
X116649512Y-131882073D01*
X116624742Y-131887000D01*
X116447258Y-131887000D01*
X116422488Y-131882073D01*
X116273188Y-131852376D01*
X116109216Y-131784456D01*
X115961646Y-131685853D01*
X115836147Y-131560354D01*
X115737544Y-131412784D01*
X115669624Y-131248812D01*
X115635000Y-131074741D01*
X115635000Y-130897259D01*
X115669624Y-130723188D01*
X115737544Y-130559216D01*
X115836147Y-130411646D01*
X115961646Y-130286147D01*
X116109216Y-130187544D01*
X116273188Y-130119624D01*
X116422488Y-130089927D01*
X116447258Y-130085000D01*
X116624742Y-130085000D01*
X116649512Y-130089927D01*
G37*
G36*
X114109512Y-130089927D02*
G01*
X114258812Y-130119624D01*
X114422784Y-130187544D01*
X114570354Y-130286147D01*
X114695853Y-130411646D01*
X114794456Y-130559216D01*
X114862376Y-130723188D01*
X114897000Y-130897259D01*
X114897000Y-131074741D01*
X114862376Y-131248812D01*
X114794456Y-131412784D01*
X114695853Y-131560354D01*
X114570354Y-131685853D01*
X114422784Y-131784456D01*
X114258812Y-131852376D01*
X114109512Y-131882073D01*
X114084742Y-131887000D01*
X113907258Y-131887000D01*
X113882488Y-131882073D01*
X113733188Y-131852376D01*
X113569216Y-131784456D01*
X113421646Y-131685853D01*
X113296147Y-131560354D01*
X113197544Y-131412784D01*
X113129624Y-131248812D01*
X113095000Y-131074741D01*
X113095000Y-130897259D01*
X113129624Y-130723188D01*
X113197544Y-130559216D01*
X113296147Y-130411646D01*
X113421646Y-130286147D01*
X113569216Y-130187544D01*
X113733188Y-130119624D01*
X113882488Y-130089927D01*
X113907258Y-130085000D01*
X114084742Y-130085000D01*
X114109512Y-130089927D01*
G37*
G36*
X111569512Y-130089927D02*
G01*
X111718812Y-130119624D01*
X111882784Y-130187544D01*
X112030354Y-130286147D01*
X112155853Y-130411646D01*
X112254456Y-130559216D01*
X112322376Y-130723188D01*
X112357000Y-130897259D01*
X112357000Y-131074741D01*
X112322376Y-131248812D01*
X112254456Y-131412784D01*
X112155853Y-131560354D01*
X112030354Y-131685853D01*
X111882784Y-131784456D01*
X111718812Y-131852376D01*
X111569512Y-131882073D01*
X111544742Y-131887000D01*
X111367258Y-131887000D01*
X111342488Y-131882073D01*
X111193188Y-131852376D01*
X111029216Y-131784456D01*
X110881646Y-131685853D01*
X110756147Y-131560354D01*
X110657544Y-131412784D01*
X110589624Y-131248812D01*
X110555000Y-131074741D01*
X110555000Y-130897259D01*
X110589624Y-130723188D01*
X110657544Y-130559216D01*
X110756147Y-130411646D01*
X110881646Y-130286147D01*
X111029216Y-130187544D01*
X111193188Y-130119624D01*
X111342488Y-130089927D01*
X111367258Y-130085000D01*
X111544742Y-130085000D01*
X111569512Y-130089927D01*
G37*
G36*
X106489512Y-130089927D02*
G01*
X106638812Y-130119624D01*
X106802784Y-130187544D01*
X106950354Y-130286147D01*
X107075853Y-130411646D01*
X107174456Y-130559216D01*
X107242376Y-130723188D01*
X107277000Y-130897259D01*
X107277000Y-131074741D01*
X107242376Y-131248812D01*
X107174456Y-131412784D01*
X107075853Y-131560354D01*
X106950354Y-131685853D01*
X106802784Y-131784456D01*
X106638812Y-131852376D01*
X106489512Y-131882073D01*
X106464742Y-131887000D01*
X106287258Y-131887000D01*
X106262488Y-131882073D01*
X106113188Y-131852376D01*
X105949216Y-131784456D01*
X105801646Y-131685853D01*
X105676147Y-131560354D01*
X105577544Y-131412784D01*
X105509624Y-131248812D01*
X105475000Y-131074741D01*
X105475000Y-130897259D01*
X105509624Y-130723188D01*
X105577544Y-130559216D01*
X105676147Y-130411646D01*
X105801646Y-130286147D01*
X105949216Y-130187544D01*
X106113188Y-130119624D01*
X106262488Y-130089927D01*
X106287258Y-130085000D01*
X106464742Y-130085000D01*
X106489512Y-130089927D01*
G37*
G36*
X103949512Y-130089927D02*
G01*
X104098812Y-130119624D01*
X104262784Y-130187544D01*
X104410354Y-130286147D01*
X104535853Y-130411646D01*
X104634456Y-130559216D01*
X104702376Y-130723188D01*
X104737000Y-130897259D01*
X104737000Y-131074741D01*
X104702376Y-131248812D01*
X104634456Y-131412784D01*
X104535853Y-131560354D01*
X104410354Y-131685853D01*
X104262784Y-131784456D01*
X104098812Y-131852376D01*
X103949512Y-131882073D01*
X103924742Y-131887000D01*
X103747258Y-131887000D01*
X103722488Y-131882073D01*
X103573188Y-131852376D01*
X103409216Y-131784456D01*
X103261646Y-131685853D01*
X103136147Y-131560354D01*
X103037544Y-131412784D01*
X102969624Y-131248812D01*
X102935000Y-131074741D01*
X102935000Y-130897259D01*
X102969624Y-130723188D01*
X103037544Y-130559216D01*
X103136147Y-130411646D01*
X103261646Y-130286147D01*
X103409216Y-130187544D01*
X103573188Y-130119624D01*
X103722488Y-130089927D01*
X103747258Y-130085000D01*
X103924742Y-130085000D01*
X103949512Y-130089927D01*
G37*
G36*
X101409512Y-130089927D02*
G01*
X101558812Y-130119624D01*
X101722784Y-130187544D01*
X101870354Y-130286147D01*
X101995853Y-130411646D01*
X102094456Y-130559216D01*
X102162376Y-130723188D01*
X102197000Y-130897259D01*
X102197000Y-131074741D01*
X102162376Y-131248812D01*
X102094456Y-131412784D01*
X101995853Y-131560354D01*
X101870354Y-131685853D01*
X101722784Y-131784456D01*
X101558812Y-131852376D01*
X101409512Y-131882073D01*
X101384742Y-131887000D01*
X101207258Y-131887000D01*
X101182488Y-131882073D01*
X101033188Y-131852376D01*
X100869216Y-131784456D01*
X100721646Y-131685853D01*
X100596147Y-131560354D01*
X100497544Y-131412784D01*
X100429624Y-131248812D01*
X100395000Y-131074741D01*
X100395000Y-130897259D01*
X100429624Y-130723188D01*
X100497544Y-130559216D01*
X100596147Y-130411646D01*
X100721646Y-130286147D01*
X100869216Y-130187544D01*
X101033188Y-130119624D01*
X101182488Y-130089927D01*
X101207258Y-130085000D01*
X101384742Y-130085000D01*
X101409512Y-130089927D01*
G37*
G36*
X109029512Y-130089927D02*
G01*
X109178812Y-130119624D01*
X109342784Y-130187544D01*
X109490354Y-130286147D01*
X109615853Y-130411646D01*
X109714456Y-130559216D01*
X109782376Y-130723188D01*
X109817000Y-130897259D01*
X109817000Y-131074741D01*
X109782376Y-131248812D01*
X109714456Y-131412784D01*
X109615853Y-131560354D01*
X109490354Y-131685853D01*
X109342784Y-131784456D01*
X109178812Y-131852376D01*
X109029512Y-131882073D01*
X109004742Y-131887000D01*
X108827258Y-131887000D01*
X108802488Y-131882073D01*
X108653188Y-131852376D01*
X108489216Y-131784456D01*
X108341646Y-131685853D01*
X108216147Y-131560354D01*
X108117544Y-131412784D01*
X108049624Y-131248812D01*
X108015000Y-131074741D01*
X108015000Y-130897259D01*
X108049624Y-130723188D01*
X108117544Y-130559216D01*
X108216147Y-130411646D01*
X108341646Y-130286147D01*
X108489216Y-130187544D01*
X108653188Y-130119624D01*
X108802488Y-130089927D01*
X108827258Y-130085000D01*
X109004742Y-130085000D01*
X109029512Y-130089927D01*
G37*
G36*
X85270468Y-128559565D02*
G01*
X85309138Y-128571296D01*
X85344777Y-128590346D01*
X85376017Y-128615983D01*
X85401654Y-128647223D01*
X85420704Y-128682862D01*
X85432435Y-128721532D01*
X85437000Y-128767888D01*
X85437000Y-129419112D01*
X85432435Y-129465468D01*
X85420704Y-129504138D01*
X85401654Y-129539777D01*
X85376017Y-129571017D01*
X85344777Y-129596654D01*
X85309138Y-129615704D01*
X85270468Y-129627435D01*
X85224112Y-129632000D01*
X84147888Y-129632000D01*
X84101532Y-129627435D01*
X84062862Y-129615704D01*
X84027223Y-129596654D01*
X83995983Y-129571017D01*
X83970346Y-129539777D01*
X83951296Y-129504138D01*
X83939565Y-129465468D01*
X83935000Y-129419112D01*
X83935000Y-128767888D01*
X83939565Y-128721532D01*
X83951296Y-128682862D01*
X83970346Y-128647223D01*
X83995983Y-128615983D01*
X84027223Y-128590346D01*
X84062862Y-128571296D01*
X84101532Y-128559565D01*
X84147888Y-128555000D01*
X85224112Y-128555000D01*
X85270468Y-128559565D01*
G37*
G36*
X93765591Y-128259085D02*
G01*
X93799569Y-128269393D01*
X93830890Y-128286134D01*
X93858339Y-128308661D01*
X93880866Y-128336110D01*
X93897607Y-128367431D01*
X93907915Y-128401409D01*
X93912000Y-128442890D01*
X93912000Y-129044110D01*
X93907915Y-129085591D01*
X93897607Y-129119569D01*
X93880866Y-129150890D01*
X93858339Y-129178339D01*
X93830890Y-129200866D01*
X93799569Y-129217607D01*
X93765591Y-129227915D01*
X93724110Y-129232000D01*
X93047890Y-129232000D01*
X93006409Y-129227915D01*
X92972431Y-129217607D01*
X92941110Y-129200866D01*
X92913661Y-129178339D01*
X92891134Y-129150890D01*
X92874393Y-129119569D01*
X92864085Y-129085591D01*
X92860000Y-129044110D01*
X92860000Y-128442890D01*
X92864085Y-128401409D01*
X92874393Y-128367431D01*
X92891134Y-128336110D01*
X92913661Y-128308661D01*
X92941110Y-128286134D01*
X92972431Y-128269393D01*
X93006409Y-128259085D01*
X93047890Y-128255000D01*
X93724110Y-128255000D01*
X93765591Y-128259085D01*
G37*
G36*
X96365591Y-128259085D02*
G01*
X96399569Y-128269393D01*
X96430890Y-128286134D01*
X96458339Y-128308661D01*
X96480866Y-128336110D01*
X96497607Y-128367431D01*
X96507915Y-128401409D01*
X96512000Y-128442890D01*
X96512000Y-129044110D01*
X96507915Y-129085591D01*
X96497607Y-129119569D01*
X96480866Y-129150890D01*
X96458339Y-129178339D01*
X96430890Y-129200866D01*
X96399569Y-129217607D01*
X96365591Y-129227915D01*
X96324110Y-129232000D01*
X95647890Y-129232000D01*
X95606409Y-129227915D01*
X95572431Y-129217607D01*
X95541110Y-129200866D01*
X95513661Y-129178339D01*
X95491134Y-129150890D01*
X95474393Y-129119569D01*
X95464085Y-129085591D01*
X95460000Y-129044110D01*
X95460000Y-128442890D01*
X95464085Y-128401409D01*
X95474393Y-128367431D01*
X95491134Y-128336110D01*
X95513661Y-128308661D01*
X95541110Y-128286134D01*
X95572431Y-128269393D01*
X95606409Y-128259085D01*
X95647890Y-128255000D01*
X96324110Y-128255000D01*
X96365591Y-128259085D01*
G37*
G36*
X86765591Y-128259085D02*
G01*
X86799569Y-128269393D01*
X86830890Y-128286134D01*
X86858339Y-128308661D01*
X86880866Y-128336110D01*
X86897607Y-128367431D01*
X86907915Y-128401409D01*
X86912000Y-128442890D01*
X86912000Y-129044110D01*
X86907915Y-129085591D01*
X86897607Y-129119569D01*
X86880866Y-129150890D01*
X86858339Y-129178339D01*
X86830890Y-129200866D01*
X86799569Y-129217607D01*
X86765591Y-129227915D01*
X86724110Y-129232000D01*
X86047890Y-129232000D01*
X86006409Y-129227915D01*
X85972431Y-129217607D01*
X85941110Y-129200866D01*
X85913661Y-129178339D01*
X85891134Y-129150890D01*
X85874393Y-129119569D01*
X85864085Y-129085591D01*
X85860000Y-129044110D01*
X85860000Y-128442890D01*
X85864085Y-128401409D01*
X85874393Y-128367431D01*
X85891134Y-128336110D01*
X85913661Y-128308661D01*
X85941110Y-128286134D01*
X85972431Y-128269393D01*
X86006409Y-128259085D01*
X86047890Y-128255000D01*
X86724110Y-128255000D01*
X86765591Y-128259085D01*
G37*
G36*
X88165591Y-128259085D02*
G01*
X88199569Y-128269393D01*
X88230890Y-128286134D01*
X88258339Y-128308661D01*
X88280866Y-128336110D01*
X88297607Y-128367431D01*
X88307915Y-128401409D01*
X88312000Y-128442890D01*
X88312000Y-129044110D01*
X88307915Y-129085591D01*
X88297607Y-129119569D01*
X88280866Y-129150890D01*
X88258339Y-129178339D01*
X88230890Y-129200866D01*
X88199569Y-129217607D01*
X88165591Y-129227915D01*
X88124110Y-129232000D01*
X87447890Y-129232000D01*
X87406409Y-129227915D01*
X87372431Y-129217607D01*
X87341110Y-129200866D01*
X87313661Y-129178339D01*
X87291134Y-129150890D01*
X87274393Y-129119569D01*
X87264085Y-129085591D01*
X87260000Y-129044110D01*
X87260000Y-128442890D01*
X87264085Y-128401409D01*
X87274393Y-128367431D01*
X87291134Y-128336110D01*
X87313661Y-128308661D01*
X87341110Y-128286134D01*
X87372431Y-128269393D01*
X87406409Y-128259085D01*
X87447890Y-128255000D01*
X88124110Y-128255000D01*
X88165591Y-128259085D01*
G37*
G36*
X89565591Y-128259085D02*
G01*
X89599569Y-128269393D01*
X89630890Y-128286134D01*
X89658339Y-128308661D01*
X89680866Y-128336110D01*
X89697607Y-128367431D01*
X89707915Y-128401409D01*
X89712000Y-128442890D01*
X89712000Y-129044110D01*
X89707915Y-129085591D01*
X89697607Y-129119569D01*
X89680866Y-129150890D01*
X89658339Y-129178339D01*
X89630890Y-129200866D01*
X89599569Y-129217607D01*
X89565591Y-129227915D01*
X89524110Y-129232000D01*
X88847890Y-129232000D01*
X88806409Y-129227915D01*
X88772431Y-129217607D01*
X88741110Y-129200866D01*
X88713661Y-129178339D01*
X88691134Y-129150890D01*
X88674393Y-129119569D01*
X88664085Y-129085591D01*
X88660000Y-129044110D01*
X88660000Y-128442890D01*
X88664085Y-128401409D01*
X88674393Y-128367431D01*
X88691134Y-128336110D01*
X88713661Y-128308661D01*
X88741110Y-128286134D01*
X88772431Y-128269393D01*
X88806409Y-128259085D01*
X88847890Y-128255000D01*
X89524110Y-128255000D01*
X89565591Y-128259085D01*
G37*
G36*
X92365591Y-128259085D02*
G01*
X92399569Y-128269393D01*
X92430890Y-128286134D01*
X92458339Y-128308661D01*
X92480866Y-128336110D01*
X92497607Y-128367431D01*
X92507915Y-128401409D01*
X92512000Y-128442890D01*
X92512000Y-129044110D01*
X92507915Y-129085591D01*
X92497607Y-129119569D01*
X92480866Y-129150890D01*
X92458339Y-129178339D01*
X92430890Y-129200866D01*
X92399569Y-129217607D01*
X92365591Y-129227915D01*
X92324110Y-129232000D01*
X91647890Y-129232000D01*
X91606409Y-129227915D01*
X91572431Y-129217607D01*
X91541110Y-129200866D01*
X91513661Y-129178339D01*
X91491134Y-129150890D01*
X91474393Y-129119569D01*
X91464085Y-129085591D01*
X91460000Y-129044110D01*
X91460000Y-128442890D01*
X91464085Y-128401409D01*
X91474393Y-128367431D01*
X91491134Y-128336110D01*
X91513661Y-128308661D01*
X91541110Y-128286134D01*
X91572431Y-128269393D01*
X91606409Y-128259085D01*
X91647890Y-128255000D01*
X92324110Y-128255000D01*
X92365591Y-128259085D01*
G37*
G36*
X73603217Y-127507240D02*
G01*
X73676118Y-127514420D01*
X73761360Y-127540278D01*
X73798836Y-127551646D01*
X73911925Y-127612094D01*
X74011054Y-127693446D01*
X74092406Y-127792575D01*
X74152854Y-127905664D01*
X74152855Y-127905668D01*
X74190080Y-128028382D01*
X74202649Y-128156000D01*
X74190080Y-128283618D01*
X74162540Y-128374404D01*
X74152854Y-128406336D01*
X74092406Y-128519425D01*
X74011054Y-128618554D01*
X73911925Y-128699906D01*
X73798836Y-128760354D01*
X73773999Y-128767888D01*
X73676118Y-128797580D01*
X73612355Y-128803860D01*
X73580474Y-128807000D01*
X73116526Y-128807000D01*
X73084645Y-128803860D01*
X73020882Y-128797580D01*
X72923001Y-128767888D01*
X72898164Y-128760354D01*
X72785075Y-128699906D01*
X72685946Y-128618554D01*
X72604594Y-128519425D01*
X72544146Y-128406336D01*
X72534460Y-128374404D01*
X72506920Y-128283618D01*
X72494351Y-128156000D01*
X72506920Y-128028382D01*
X72544145Y-127905668D01*
X72544146Y-127905664D01*
X72604594Y-127792575D01*
X72685946Y-127693446D01*
X72785075Y-127612094D01*
X72898164Y-127551646D01*
X72935640Y-127540278D01*
X73020882Y-127514420D01*
X73093783Y-127507240D01*
X73116526Y-127505000D01*
X73580474Y-127505000D01*
X73603217Y-127507240D01*
G37*
G36*
X85270468Y-126684565D02*
G01*
X85309138Y-126696296D01*
X85344777Y-126715346D01*
X85376017Y-126740983D01*
X85401654Y-126772223D01*
X85420704Y-126807862D01*
X85432435Y-126846532D01*
X85437000Y-126892888D01*
X85437000Y-127544112D01*
X85432435Y-127590468D01*
X85420704Y-127629138D01*
X85401654Y-127664777D01*
X85376017Y-127696017D01*
X85344777Y-127721654D01*
X85309138Y-127740704D01*
X85270468Y-127752435D01*
X85224112Y-127757000D01*
X84147888Y-127757000D01*
X84101532Y-127752435D01*
X84062862Y-127740704D01*
X84027223Y-127721654D01*
X83995983Y-127696017D01*
X83970346Y-127664777D01*
X83951296Y-127629138D01*
X83939565Y-127590468D01*
X83935000Y-127544112D01*
X83935000Y-126892888D01*
X83939565Y-126846532D01*
X83951296Y-126807862D01*
X83970346Y-126772223D01*
X83995983Y-126740983D01*
X84027223Y-126715346D01*
X84062862Y-126696296D01*
X84101532Y-126684565D01*
X84147888Y-126680000D01*
X85224112Y-126680000D01*
X85270468Y-126684565D01*
G37*
G36*
X76209221Y-126626174D02*
G01*
X76309495Y-126667709D01*
X76334913Y-126684693D01*
X76399742Y-126728010D01*
X76476490Y-126804758D01*
X76493877Y-126830780D01*
X76536791Y-126895005D01*
X76578326Y-126995279D01*
X76599500Y-127101730D01*
X76599500Y-127210270D01*
X76578326Y-127316721D01*
X76536791Y-127416995D01*
X76536790Y-127416996D01*
X76476490Y-127507242D01*
X76399742Y-127583990D01*
X76397540Y-127585461D01*
X76309495Y-127644291D01*
X76209221Y-127685826D01*
X76102770Y-127707000D01*
X75994230Y-127707000D01*
X75887779Y-127685826D01*
X75787505Y-127644291D01*
X75699460Y-127585461D01*
X75697258Y-127583990D01*
X75620510Y-127507242D01*
X75560210Y-127416996D01*
X75560209Y-127416995D01*
X75518674Y-127316721D01*
X75497500Y-127210270D01*
X75497500Y-127101730D01*
X75518674Y-126995279D01*
X75560209Y-126895005D01*
X75603123Y-126830780D01*
X75620510Y-126804758D01*
X75697258Y-126728010D01*
X75762087Y-126684693D01*
X75787505Y-126667709D01*
X75887779Y-126626174D01*
X75994230Y-126605000D01*
X76102770Y-126605000D01*
X76209221Y-126626174D01*
G37*
G36*
X86765591Y-126684085D02*
G01*
X86799569Y-126694393D01*
X86830890Y-126711134D01*
X86858339Y-126733661D01*
X86880866Y-126761110D01*
X86897607Y-126792431D01*
X86907915Y-126826409D01*
X86912000Y-126867890D01*
X86912000Y-127469110D01*
X86907915Y-127510591D01*
X86897607Y-127544569D01*
X86880866Y-127575890D01*
X86858339Y-127603339D01*
X86830890Y-127625866D01*
X86799569Y-127642607D01*
X86765591Y-127652915D01*
X86724110Y-127657000D01*
X86047890Y-127657000D01*
X86006409Y-127652915D01*
X85972431Y-127642607D01*
X85941110Y-127625866D01*
X85913661Y-127603339D01*
X85891134Y-127575890D01*
X85874393Y-127544569D01*
X85864085Y-127510591D01*
X85860000Y-127469110D01*
X85860000Y-126867890D01*
X85864085Y-126826409D01*
X85874393Y-126792431D01*
X85891134Y-126761110D01*
X85913661Y-126733661D01*
X85941110Y-126711134D01*
X85972431Y-126694393D01*
X86006409Y-126684085D01*
X86047890Y-126680000D01*
X86724110Y-126680000D01*
X86765591Y-126684085D01*
G37*
G36*
X96365591Y-126684085D02*
G01*
X96399569Y-126694393D01*
X96430890Y-126711134D01*
X96458339Y-126733661D01*
X96480866Y-126761110D01*
X96497607Y-126792431D01*
X96507915Y-126826409D01*
X96512000Y-126867890D01*
X96512000Y-127469110D01*
X96507915Y-127510591D01*
X96497607Y-127544569D01*
X96480866Y-127575890D01*
X96458339Y-127603339D01*
X96430890Y-127625866D01*
X96399569Y-127642607D01*
X96365591Y-127652915D01*
X96324110Y-127657000D01*
X95647890Y-127657000D01*
X95606409Y-127652915D01*
X95572431Y-127642607D01*
X95541110Y-127625866D01*
X95513661Y-127603339D01*
X95491134Y-127575890D01*
X95474393Y-127544569D01*
X95464085Y-127510591D01*
X95460000Y-127469110D01*
X95460000Y-126867890D01*
X95464085Y-126826409D01*
X95474393Y-126792431D01*
X95491134Y-126761110D01*
X95513661Y-126733661D01*
X95541110Y-126711134D01*
X95572431Y-126694393D01*
X95606409Y-126684085D01*
X95647890Y-126680000D01*
X96324110Y-126680000D01*
X96365591Y-126684085D01*
G37*
G36*
X93765591Y-126684085D02*
G01*
X93799569Y-126694393D01*
X93830890Y-126711134D01*
X93858339Y-126733661D01*
X93880866Y-126761110D01*
X93897607Y-126792431D01*
X93907915Y-126826409D01*
X93912000Y-126867890D01*
X93912000Y-127469110D01*
X93907915Y-127510591D01*
X93897607Y-127544569D01*
X93880866Y-127575890D01*
X93858339Y-127603339D01*
X93830890Y-127625866D01*
X93799569Y-127642607D01*
X93765591Y-127652915D01*
X93724110Y-127657000D01*
X93047890Y-127657000D01*
X93006409Y-127652915D01*
X92972431Y-127642607D01*
X92941110Y-127625866D01*
X92913661Y-127603339D01*
X92891134Y-127575890D01*
X92874393Y-127544569D01*
X92864085Y-127510591D01*
X92860000Y-127469110D01*
X92860000Y-126867890D01*
X92864085Y-126826409D01*
X92874393Y-126792431D01*
X92891134Y-126761110D01*
X92913661Y-126733661D01*
X92941110Y-126711134D01*
X92972431Y-126694393D01*
X93006409Y-126684085D01*
X93047890Y-126680000D01*
X93724110Y-126680000D01*
X93765591Y-126684085D01*
G37*
G36*
X89565591Y-126684085D02*
G01*
X89599569Y-126694393D01*
X89630890Y-126711134D01*
X89658339Y-126733661D01*
X89680866Y-126761110D01*
X89697607Y-126792431D01*
X89707915Y-126826409D01*
X89712000Y-126867890D01*
X89712000Y-127469110D01*
X89707915Y-127510591D01*
X89697607Y-127544569D01*
X89680866Y-127575890D01*
X89658339Y-127603339D01*
X89630890Y-127625866D01*
X89599569Y-127642607D01*
X89565591Y-127652915D01*
X89524110Y-127657000D01*
X88847890Y-127657000D01*
X88806409Y-127652915D01*
X88772431Y-127642607D01*
X88741110Y-127625866D01*
X88713661Y-127603339D01*
X88691134Y-127575890D01*
X88674393Y-127544569D01*
X88664085Y-127510591D01*
X88660000Y-127469110D01*
X88660000Y-126867890D01*
X88664085Y-126826409D01*
X88674393Y-126792431D01*
X88691134Y-126761110D01*
X88713661Y-126733661D01*
X88741110Y-126711134D01*
X88772431Y-126694393D01*
X88806409Y-126684085D01*
X88847890Y-126680000D01*
X89524110Y-126680000D01*
X89565591Y-126684085D01*
G37*
G36*
X92365591Y-126684085D02*
G01*
X92399569Y-126694393D01*
X92430890Y-126711134D01*
X92458339Y-126733661D01*
X92480866Y-126761110D01*
X92497607Y-126792431D01*
X92507915Y-126826409D01*
X92512000Y-126867890D01*
X92512000Y-127469110D01*
X92507915Y-127510591D01*
X92497607Y-127544569D01*
X92480866Y-127575890D01*
X92458339Y-127603339D01*
X92430890Y-127625866D01*
X92399569Y-127642607D01*
X92365591Y-127652915D01*
X92324110Y-127657000D01*
X91647890Y-127657000D01*
X91606409Y-127652915D01*
X91572431Y-127642607D01*
X91541110Y-127625866D01*
X91513661Y-127603339D01*
X91491134Y-127575890D01*
X91474393Y-127544569D01*
X91464085Y-127510591D01*
X91460000Y-127469110D01*
X91460000Y-126867890D01*
X91464085Y-126826409D01*
X91474393Y-126792431D01*
X91491134Y-126761110D01*
X91513661Y-126733661D01*
X91541110Y-126711134D01*
X91572431Y-126694393D01*
X91606409Y-126684085D01*
X91647890Y-126680000D01*
X92324110Y-126680000D01*
X92365591Y-126684085D01*
G37*
G36*
X88165591Y-126684085D02*
G01*
X88199569Y-126694393D01*
X88230890Y-126711134D01*
X88258339Y-126733661D01*
X88280866Y-126761110D01*
X88297607Y-126792431D01*
X88307915Y-126826409D01*
X88312000Y-126867890D01*
X88312000Y-127469110D01*
X88307915Y-127510591D01*
X88297607Y-127544569D01*
X88280866Y-127575890D01*
X88258339Y-127603339D01*
X88230890Y-127625866D01*
X88199569Y-127642607D01*
X88165591Y-127652915D01*
X88124110Y-127657000D01*
X87447890Y-127657000D01*
X87406409Y-127652915D01*
X87372431Y-127642607D01*
X87341110Y-127625866D01*
X87313661Y-127603339D01*
X87291134Y-127575890D01*
X87274393Y-127544569D01*
X87264085Y-127510591D01*
X87260000Y-127469110D01*
X87260000Y-126867890D01*
X87264085Y-126826409D01*
X87274393Y-126792431D01*
X87291134Y-126761110D01*
X87313661Y-126733661D01*
X87341110Y-126711134D01*
X87372431Y-126694393D01*
X87406409Y-126684085D01*
X87447890Y-126680000D01*
X88124110Y-126680000D01*
X88165591Y-126684085D01*
G37*
G36*
X119977000Y-126807000D02*
G01*
X118175000Y-126807000D01*
X118175000Y-125005000D01*
X119977000Y-125005000D01*
X119977000Y-126807000D01*
G37*
G36*
X111569512Y-125009927D02*
G01*
X111718812Y-125039624D01*
X111882784Y-125107544D01*
X112030354Y-125206147D01*
X112155853Y-125331646D01*
X112254456Y-125479216D01*
X112322376Y-125643188D01*
X112357000Y-125817259D01*
X112357000Y-125994741D01*
X112322376Y-126168812D01*
X112254456Y-126332784D01*
X112155853Y-126480354D01*
X112030354Y-126605853D01*
X111882784Y-126704456D01*
X111718812Y-126772376D01*
X111569512Y-126802073D01*
X111544742Y-126807000D01*
X111367258Y-126807000D01*
X111342488Y-126802073D01*
X111193188Y-126772376D01*
X111029216Y-126704456D01*
X110881646Y-126605853D01*
X110756147Y-126480354D01*
X110657544Y-126332784D01*
X110589624Y-126168812D01*
X110555000Y-125994741D01*
X110555000Y-125817259D01*
X110589624Y-125643188D01*
X110657544Y-125479216D01*
X110756147Y-125331646D01*
X110881646Y-125206147D01*
X111029216Y-125107544D01*
X111193188Y-125039624D01*
X111342488Y-125009927D01*
X111367258Y-125005000D01*
X111544742Y-125005000D01*
X111569512Y-125009927D01*
G37*
G36*
X109817000Y-126807000D02*
G01*
X108015000Y-126807000D01*
X108015000Y-125005000D01*
X109817000Y-125005000D01*
X109817000Y-126807000D01*
G37*
G36*
X76774500Y-126207000D02*
G01*
X75322500Y-126207000D01*
X75322500Y-123105000D01*
X76774500Y-123105000D01*
X76774500Y-126207000D01*
G37*
G36*
X100037000Y-124551000D02*
G01*
X87315000Y-124551000D01*
X87315000Y-123449000D01*
X100037000Y-123449000D01*
X100037000Y-124551000D01*
G37*
G36*
X109240591Y-123334085D02*
G01*
X109274569Y-123344393D01*
X109305890Y-123361134D01*
X109333339Y-123383661D01*
X109355866Y-123411110D01*
X109372607Y-123442431D01*
X109382915Y-123476409D01*
X109387000Y-123517890D01*
X109387000Y-124194110D01*
X109382915Y-124235591D01*
X109372607Y-124269569D01*
X109355866Y-124300890D01*
X109333339Y-124328339D01*
X109305890Y-124350866D01*
X109274569Y-124367607D01*
X109240591Y-124377915D01*
X109199110Y-124382000D01*
X108597890Y-124382000D01*
X108556409Y-124377915D01*
X108522431Y-124367607D01*
X108491110Y-124350866D01*
X108463661Y-124328339D01*
X108441134Y-124300890D01*
X108424393Y-124269569D01*
X108414085Y-124235591D01*
X108410000Y-124194110D01*
X108410000Y-123517890D01*
X108414085Y-123476409D01*
X108424393Y-123442431D01*
X108441134Y-123411110D01*
X108463661Y-123383661D01*
X108491110Y-123361134D01*
X108522431Y-123344393D01*
X108556409Y-123334085D01*
X108597890Y-123330000D01*
X109199110Y-123330000D01*
X109240591Y-123334085D01*
G37*
G36*
X112240591Y-123334085D02*
G01*
X112274569Y-123344393D01*
X112305890Y-123361134D01*
X112333339Y-123383661D01*
X112355866Y-123411110D01*
X112372607Y-123442431D01*
X112382915Y-123476409D01*
X112387000Y-123517890D01*
X112387000Y-124194110D01*
X112382915Y-124235591D01*
X112372607Y-124269569D01*
X112355866Y-124300890D01*
X112333339Y-124328339D01*
X112305890Y-124350866D01*
X112274569Y-124367607D01*
X112240591Y-124377915D01*
X112199110Y-124382000D01*
X111597890Y-124382000D01*
X111556409Y-124377915D01*
X111522431Y-124367607D01*
X111491110Y-124350866D01*
X111463661Y-124328339D01*
X111441134Y-124300890D01*
X111424393Y-124269569D01*
X111414085Y-124235591D01*
X111410000Y-124194110D01*
X111410000Y-123517890D01*
X111414085Y-123476409D01*
X111424393Y-123442431D01*
X111441134Y-123411110D01*
X111463661Y-123383661D01*
X111491110Y-123361134D01*
X111522431Y-123344393D01*
X111556409Y-123334085D01*
X111597890Y-123330000D01*
X112199110Y-123330000D01*
X112240591Y-123334085D01*
G37*
G36*
X110815591Y-123334085D02*
G01*
X110849569Y-123344393D01*
X110880890Y-123361134D01*
X110908339Y-123383661D01*
X110930866Y-123411110D01*
X110947607Y-123442431D01*
X110957915Y-123476409D01*
X110962000Y-123517890D01*
X110962000Y-124194110D01*
X110957915Y-124235591D01*
X110947607Y-124269569D01*
X110930866Y-124300890D01*
X110908339Y-124328339D01*
X110880890Y-124350866D01*
X110849569Y-124367607D01*
X110815591Y-124377915D01*
X110774110Y-124382000D01*
X110172890Y-124382000D01*
X110131409Y-124377915D01*
X110097431Y-124367607D01*
X110066110Y-124350866D01*
X110038661Y-124328339D01*
X110016134Y-124300890D01*
X109999393Y-124269569D01*
X109989085Y-124235591D01*
X109985000Y-124194110D01*
X109985000Y-123517890D01*
X109989085Y-123476409D01*
X109999393Y-123442431D01*
X110016134Y-123411110D01*
X110038661Y-123383661D01*
X110066110Y-123361134D01*
X110097431Y-123344393D01*
X110131409Y-123334085D01*
X110172890Y-123330000D01*
X110774110Y-123330000D01*
X110815591Y-123334085D01*
G37*
G36*
X113815591Y-123334085D02*
G01*
X113849569Y-123344393D01*
X113880890Y-123361134D01*
X113908339Y-123383661D01*
X113930866Y-123411110D01*
X113947607Y-123442431D01*
X113957915Y-123476409D01*
X113962000Y-123517890D01*
X113962000Y-124194110D01*
X113957915Y-124235591D01*
X113947607Y-124269569D01*
X113930866Y-124300890D01*
X113908339Y-124328339D01*
X113880890Y-124350866D01*
X113849569Y-124367607D01*
X113815591Y-124377915D01*
X113774110Y-124382000D01*
X113172890Y-124382000D01*
X113131409Y-124377915D01*
X113097431Y-124367607D01*
X113066110Y-124350866D01*
X113038661Y-124328339D01*
X113016134Y-124300890D01*
X112999393Y-124269569D01*
X112989085Y-124235591D01*
X112985000Y-124194110D01*
X112985000Y-123517890D01*
X112989085Y-123476409D01*
X112999393Y-123442431D01*
X113016134Y-123411110D01*
X113038661Y-123383661D01*
X113066110Y-123361134D01*
X113097431Y-123344393D01*
X113131409Y-123334085D01*
X113172890Y-123330000D01*
X113774110Y-123330000D01*
X113815591Y-123334085D01*
G37*
G36*
X119189512Y-122469927D02*
G01*
X119338812Y-122499624D01*
X119502784Y-122567544D01*
X119650354Y-122666147D01*
X119775853Y-122791646D01*
X119874456Y-122939216D01*
X119942376Y-123103188D01*
X119977000Y-123277259D01*
X119977000Y-123454741D01*
X119942376Y-123628812D01*
X119874456Y-123792784D01*
X119775853Y-123940354D01*
X119650354Y-124065853D01*
X119502784Y-124164456D01*
X119338812Y-124232376D01*
X119189512Y-124262073D01*
X119164742Y-124267000D01*
X118987258Y-124267000D01*
X118962488Y-124262073D01*
X118813188Y-124232376D01*
X118649216Y-124164456D01*
X118501646Y-124065853D01*
X118376147Y-123940354D01*
X118277544Y-123792784D01*
X118209624Y-123628812D01*
X118175000Y-123454741D01*
X118175000Y-123277259D01*
X118209624Y-123103188D01*
X118277544Y-122939216D01*
X118376147Y-122791646D01*
X118501646Y-122666147D01*
X118649216Y-122567544D01*
X118813188Y-122499624D01*
X118962488Y-122469927D01*
X118987258Y-122465000D01*
X119164742Y-122465000D01*
X119189512Y-122469927D01*
G37*
G36*
X109240591Y-121934085D02*
G01*
X109274569Y-121944393D01*
X109305890Y-121961134D01*
X109333339Y-121983661D01*
X109355866Y-122011110D01*
X109372607Y-122042431D01*
X109382915Y-122076409D01*
X109387000Y-122117890D01*
X109387000Y-122794110D01*
X109382915Y-122835591D01*
X109372607Y-122869569D01*
X109355866Y-122900890D01*
X109333339Y-122928339D01*
X109305890Y-122950866D01*
X109274569Y-122967607D01*
X109240591Y-122977915D01*
X109199110Y-122982000D01*
X108597890Y-122982000D01*
X108556409Y-122977915D01*
X108522431Y-122967607D01*
X108491110Y-122950866D01*
X108463661Y-122928339D01*
X108441134Y-122900890D01*
X108424393Y-122869569D01*
X108414085Y-122835591D01*
X108410000Y-122794110D01*
X108410000Y-122117890D01*
X108414085Y-122076409D01*
X108424393Y-122042431D01*
X108441134Y-122011110D01*
X108463661Y-121983661D01*
X108491110Y-121961134D01*
X108522431Y-121944393D01*
X108556409Y-121934085D01*
X108597890Y-121930000D01*
X109199110Y-121930000D01*
X109240591Y-121934085D01*
G37*
G36*
X112240591Y-121934085D02*
G01*
X112274569Y-121944393D01*
X112305890Y-121961134D01*
X112333339Y-121983661D01*
X112355866Y-122011110D01*
X112372607Y-122042431D01*
X112382915Y-122076409D01*
X112387000Y-122117890D01*
X112387000Y-122794110D01*
X112382915Y-122835591D01*
X112372607Y-122869569D01*
X112355866Y-122900890D01*
X112333339Y-122928339D01*
X112305890Y-122950866D01*
X112274569Y-122967607D01*
X112240591Y-122977915D01*
X112199110Y-122982000D01*
X111597890Y-122982000D01*
X111556409Y-122977915D01*
X111522431Y-122967607D01*
X111491110Y-122950866D01*
X111463661Y-122928339D01*
X111441134Y-122900890D01*
X111424393Y-122869569D01*
X111414085Y-122835591D01*
X111410000Y-122794110D01*
X111410000Y-122117890D01*
X111414085Y-122076409D01*
X111424393Y-122042431D01*
X111441134Y-122011110D01*
X111463661Y-121983661D01*
X111491110Y-121961134D01*
X111522431Y-121944393D01*
X111556409Y-121934085D01*
X111597890Y-121930000D01*
X112199110Y-121930000D01*
X112240591Y-121934085D01*
G37*
G36*
X113815591Y-121934085D02*
G01*
X113849569Y-121944393D01*
X113880890Y-121961134D01*
X113908339Y-121983661D01*
X113930866Y-122011110D01*
X113947607Y-122042431D01*
X113957915Y-122076409D01*
X113962000Y-122117890D01*
X113962000Y-122794110D01*
X113957915Y-122835591D01*
X113947607Y-122869569D01*
X113930866Y-122900890D01*
X113908339Y-122928339D01*
X113880890Y-122950866D01*
X113849569Y-122967607D01*
X113815591Y-122977915D01*
X113774110Y-122982000D01*
X113172890Y-122982000D01*
X113131409Y-122977915D01*
X113097431Y-122967607D01*
X113066110Y-122950866D01*
X113038661Y-122928339D01*
X113016134Y-122900890D01*
X112999393Y-122869569D01*
X112989085Y-122835591D01*
X112985000Y-122794110D01*
X112985000Y-122117890D01*
X112989085Y-122076409D01*
X112999393Y-122042431D01*
X113016134Y-122011110D01*
X113038661Y-121983661D01*
X113066110Y-121961134D01*
X113097431Y-121944393D01*
X113131409Y-121934085D01*
X113172890Y-121930000D01*
X113774110Y-121930000D01*
X113815591Y-121934085D01*
G37*
G36*
X110815591Y-121934085D02*
G01*
X110849569Y-121944393D01*
X110880890Y-121961134D01*
X110908339Y-121983661D01*
X110930866Y-122011110D01*
X110947607Y-122042431D01*
X110957915Y-122076409D01*
X110962000Y-122117890D01*
X110962000Y-122794110D01*
X110957915Y-122835591D01*
X110947607Y-122869569D01*
X110930866Y-122900890D01*
X110908339Y-122928339D01*
X110880890Y-122950866D01*
X110849569Y-122967607D01*
X110815591Y-122977915D01*
X110774110Y-122982000D01*
X110172890Y-122982000D01*
X110131409Y-122977915D01*
X110097431Y-122967607D01*
X110066110Y-122950866D01*
X110038661Y-122928339D01*
X110016134Y-122900890D01*
X109999393Y-122869569D01*
X109989085Y-122835591D01*
X109985000Y-122794110D01*
X109985000Y-122117890D01*
X109989085Y-122076409D01*
X109999393Y-122042431D01*
X110016134Y-122011110D01*
X110038661Y-121983661D01*
X110066110Y-121961134D01*
X110097431Y-121944393D01*
X110131409Y-121934085D01*
X110172890Y-121930000D01*
X110774110Y-121930000D01*
X110815591Y-121934085D01*
G37*
G36*
X76209221Y-121626174D02*
G01*
X76309495Y-121667709D01*
X76309496Y-121667710D01*
X76399742Y-121728010D01*
X76476490Y-121804758D01*
X76476491Y-121804760D01*
X76536791Y-121895005D01*
X76578326Y-121995279D01*
X76599500Y-122101730D01*
X76599500Y-122210270D01*
X76578326Y-122316721D01*
X76536791Y-122416995D01*
X76536790Y-122416996D01*
X76476490Y-122507242D01*
X76399742Y-122583990D01*
X76354312Y-122614345D01*
X76309495Y-122644291D01*
X76209221Y-122685826D01*
X76102770Y-122707000D01*
X75994230Y-122707000D01*
X75887779Y-122685826D01*
X75787505Y-122644291D01*
X75742688Y-122614345D01*
X75697258Y-122583990D01*
X75620510Y-122507242D01*
X75560210Y-122416996D01*
X75560209Y-122416995D01*
X75518674Y-122316721D01*
X75497500Y-122210270D01*
X75497500Y-122101730D01*
X75518674Y-121995279D01*
X75560209Y-121895005D01*
X75620509Y-121804760D01*
X75620510Y-121804758D01*
X75697258Y-121728010D01*
X75787504Y-121667710D01*
X75787505Y-121667709D01*
X75887779Y-121626174D01*
X75994230Y-121605000D01*
X76102770Y-121605000D01*
X76209221Y-121626174D01*
G37*
G36*
X81695468Y-120909565D02*
G01*
X81734138Y-120921296D01*
X81769777Y-120940346D01*
X81801017Y-120965983D01*
X81826654Y-120997223D01*
X81845704Y-121032862D01*
X81857435Y-121071532D01*
X81862000Y-121117888D01*
X81862000Y-122194112D01*
X81857435Y-122240468D01*
X81845704Y-122279138D01*
X81826654Y-122314777D01*
X81801017Y-122346017D01*
X81769777Y-122371654D01*
X81734138Y-122390704D01*
X81695468Y-122402435D01*
X81649112Y-122407000D01*
X80997888Y-122407000D01*
X80951532Y-122402435D01*
X80912862Y-122390704D01*
X80877223Y-122371654D01*
X80845983Y-122346017D01*
X80820346Y-122314777D01*
X80801296Y-122279138D01*
X80789565Y-122240468D01*
X80785000Y-122194112D01*
X80785000Y-121117888D01*
X80789565Y-121071532D01*
X80801296Y-121032862D01*
X80820346Y-120997223D01*
X80845983Y-120965983D01*
X80877223Y-120940346D01*
X80912862Y-120921296D01*
X80951532Y-120909565D01*
X80997888Y-120905000D01*
X81649112Y-120905000D01*
X81695468Y-120909565D01*
G37*
G36*
X79820468Y-120909565D02*
G01*
X79859138Y-120921296D01*
X79894777Y-120940346D01*
X79926017Y-120965983D01*
X79951654Y-120997223D01*
X79970704Y-121032862D01*
X79982435Y-121071532D01*
X79987000Y-121117888D01*
X79987000Y-122194112D01*
X79982435Y-122240468D01*
X79970704Y-122279138D01*
X79951654Y-122314777D01*
X79926017Y-122346017D01*
X79894777Y-122371654D01*
X79859138Y-122390704D01*
X79820468Y-122402435D01*
X79774112Y-122407000D01*
X79122888Y-122407000D01*
X79076532Y-122402435D01*
X79037862Y-122390704D01*
X79002223Y-122371654D01*
X78970983Y-122346017D01*
X78945346Y-122314777D01*
X78926296Y-122279138D01*
X78914565Y-122240468D01*
X78910000Y-122194112D01*
X78910000Y-121117888D01*
X78914565Y-121071532D01*
X78926296Y-121032862D01*
X78945346Y-120997223D01*
X78970983Y-120965983D01*
X79002223Y-120940346D01*
X79037862Y-120921296D01*
X79076532Y-120909565D01*
X79122888Y-120905000D01*
X79774112Y-120905000D01*
X79820468Y-120909565D01*
G37*
G36*
X102227000Y-122361000D02*
G01*
X101125000Y-122361000D01*
X101125000Y-109639000D01*
X102227000Y-109639000D01*
X102227000Y-122361000D01*
G37*
G36*
X86227000Y-122361000D02*
G01*
X85125000Y-122361000D01*
X85125000Y-109639000D01*
X86227000Y-109639000D01*
X86227000Y-122361000D01*
G37*
G36*
X73612355Y-120508140D02*
G01*
X73676118Y-120514420D01*
X73755670Y-120538552D01*
X73798836Y-120551646D01*
X73911925Y-120612094D01*
X74011054Y-120693446D01*
X74092406Y-120792575D01*
X74152854Y-120905664D01*
X74162540Y-120937596D01*
X74190080Y-121028382D01*
X74202649Y-121156000D01*
X74190080Y-121283618D01*
X74189539Y-121285401D01*
X74152854Y-121406336D01*
X74092406Y-121519425D01*
X74011054Y-121618554D01*
X73911925Y-121699906D01*
X73798836Y-121760354D01*
X73766904Y-121770040D01*
X73676118Y-121797580D01*
X73612355Y-121803860D01*
X73580474Y-121807000D01*
X73116526Y-121807000D01*
X73084645Y-121803860D01*
X73020882Y-121797580D01*
X72930096Y-121770040D01*
X72898164Y-121760354D01*
X72785075Y-121699906D01*
X72685946Y-121618554D01*
X72604594Y-121519425D01*
X72544146Y-121406336D01*
X72507461Y-121285401D01*
X72506920Y-121283618D01*
X72494351Y-121156000D01*
X72506920Y-121028382D01*
X72534460Y-120937596D01*
X72544146Y-120905664D01*
X72604594Y-120792575D01*
X72685946Y-120693446D01*
X72785075Y-120612094D01*
X72898164Y-120551646D01*
X72941330Y-120538552D01*
X73020882Y-120514420D01*
X73084645Y-120508140D01*
X73116526Y-120505000D01*
X73580474Y-120505000D01*
X73612355Y-120508140D01*
G37*
G36*
X119189512Y-119929927D02*
G01*
X119338812Y-119959624D01*
X119502784Y-120027544D01*
X119650354Y-120126147D01*
X119775853Y-120251646D01*
X119874456Y-120399216D01*
X119942376Y-120563188D01*
X119977000Y-120737259D01*
X119977000Y-120914741D01*
X119942376Y-121088812D01*
X119874456Y-121252784D01*
X119775853Y-121400354D01*
X119650354Y-121525853D01*
X119502784Y-121624456D01*
X119338812Y-121692376D01*
X119189512Y-121722073D01*
X119164742Y-121727000D01*
X118987258Y-121727000D01*
X118962488Y-121722073D01*
X118813188Y-121692376D01*
X118649216Y-121624456D01*
X118501646Y-121525853D01*
X118376147Y-121400354D01*
X118277544Y-121252784D01*
X118209624Y-121088812D01*
X118175000Y-120914741D01*
X118175000Y-120737259D01*
X118209624Y-120563188D01*
X118277544Y-120399216D01*
X118376147Y-120251646D01*
X118501646Y-120126147D01*
X118649216Y-120027544D01*
X118813188Y-119959624D01*
X118962488Y-119929927D01*
X118987258Y-119925000D01*
X119164742Y-119925000D01*
X119189512Y-119929927D01*
G37*
G36*
X105915591Y-120434085D02*
G01*
X105949569Y-120444393D01*
X105980890Y-120461134D01*
X106008339Y-120483661D01*
X106030866Y-120511110D01*
X106047607Y-120542431D01*
X106057915Y-120576409D01*
X106062000Y-120617890D01*
X106062000Y-121294110D01*
X106057915Y-121335591D01*
X106047607Y-121369569D01*
X106030866Y-121400890D01*
X106008339Y-121428339D01*
X105980890Y-121450866D01*
X105949569Y-121467607D01*
X105915591Y-121477915D01*
X105874110Y-121482000D01*
X105272890Y-121482000D01*
X105231409Y-121477915D01*
X105197431Y-121467607D01*
X105166110Y-121450866D01*
X105138661Y-121428339D01*
X105116134Y-121400890D01*
X105099393Y-121369569D01*
X105089085Y-121335591D01*
X105085000Y-121294110D01*
X105085000Y-120617890D01*
X105089085Y-120576409D01*
X105099393Y-120542431D01*
X105116134Y-120511110D01*
X105138661Y-120483661D01*
X105166110Y-120461134D01*
X105197431Y-120444393D01*
X105231409Y-120434085D01*
X105272890Y-120430000D01*
X105874110Y-120430000D01*
X105915591Y-120434085D01*
G37*
G36*
X104340591Y-120434085D02*
G01*
X104374569Y-120444393D01*
X104405890Y-120461134D01*
X104433339Y-120483661D01*
X104455866Y-120511110D01*
X104472607Y-120542431D01*
X104482915Y-120576409D01*
X104487000Y-120617890D01*
X104487000Y-121294110D01*
X104482915Y-121335591D01*
X104472607Y-121369569D01*
X104455866Y-121400890D01*
X104433339Y-121428339D01*
X104405890Y-121450866D01*
X104374569Y-121467607D01*
X104340591Y-121477915D01*
X104299110Y-121482000D01*
X103697890Y-121482000D01*
X103656409Y-121477915D01*
X103622431Y-121467607D01*
X103591110Y-121450866D01*
X103563661Y-121428339D01*
X103541134Y-121400890D01*
X103524393Y-121369569D01*
X103514085Y-121335591D01*
X103510000Y-121294110D01*
X103510000Y-120617890D01*
X103514085Y-120576409D01*
X103524393Y-120542431D01*
X103541134Y-120511110D01*
X103563661Y-120483661D01*
X103591110Y-120461134D01*
X103622431Y-120444393D01*
X103656409Y-120434085D01*
X103697890Y-120430000D01*
X104299110Y-120430000D01*
X104340591Y-120434085D01*
G37*
G36*
X81315591Y-119434085D02*
G01*
X81349569Y-119444393D01*
X81380890Y-119461134D01*
X81408339Y-119483661D01*
X81430866Y-119511110D01*
X81447607Y-119542431D01*
X81457915Y-119576409D01*
X81462000Y-119617890D01*
X81462000Y-120294110D01*
X81457915Y-120335591D01*
X81447607Y-120369569D01*
X81430866Y-120400890D01*
X81408339Y-120428339D01*
X81380890Y-120450866D01*
X81349569Y-120467607D01*
X81315591Y-120477915D01*
X81274110Y-120482000D01*
X80672890Y-120482000D01*
X80631409Y-120477915D01*
X80597431Y-120467607D01*
X80566110Y-120450866D01*
X80538661Y-120428339D01*
X80516134Y-120400890D01*
X80499393Y-120369569D01*
X80489085Y-120335591D01*
X80485000Y-120294110D01*
X80485000Y-119617890D01*
X80489085Y-119576409D01*
X80499393Y-119542431D01*
X80516134Y-119511110D01*
X80538661Y-119483661D01*
X80566110Y-119461134D01*
X80597431Y-119444393D01*
X80631409Y-119434085D01*
X80672890Y-119430000D01*
X81274110Y-119430000D01*
X81315591Y-119434085D01*
G37*
G36*
X79740591Y-119434085D02*
G01*
X79774569Y-119444393D01*
X79805890Y-119461134D01*
X79833339Y-119483661D01*
X79855866Y-119511110D01*
X79872607Y-119542431D01*
X79882915Y-119576409D01*
X79887000Y-119617890D01*
X79887000Y-120294110D01*
X79882915Y-120335591D01*
X79872607Y-120369569D01*
X79855866Y-120400890D01*
X79833339Y-120428339D01*
X79805890Y-120450866D01*
X79774569Y-120467607D01*
X79740591Y-120477915D01*
X79699110Y-120482000D01*
X79097890Y-120482000D01*
X79056409Y-120477915D01*
X79022431Y-120467607D01*
X78991110Y-120450866D01*
X78963661Y-120428339D01*
X78941134Y-120400890D01*
X78924393Y-120369569D01*
X78914085Y-120335591D01*
X78910000Y-120294110D01*
X78910000Y-119617890D01*
X78914085Y-119576409D01*
X78924393Y-119542431D01*
X78941134Y-119511110D01*
X78963661Y-119483661D01*
X78991110Y-119461134D01*
X79022431Y-119444393D01*
X79056409Y-119434085D01*
X79097890Y-119430000D01*
X79699110Y-119430000D01*
X79740591Y-119434085D01*
G37*
G36*
X76787000Y-119807000D02*
G01*
X75485000Y-119807000D01*
X75485000Y-118305000D01*
X76787000Y-118305000D01*
X76787000Y-119807000D01*
G37*
G36*
X78487000Y-119807000D02*
G01*
X77185000Y-119807000D01*
X77185000Y-118305000D01*
X78487000Y-118305000D01*
X78487000Y-119807000D01*
G37*
G36*
X119189512Y-117389927D02*
G01*
X119338812Y-117419624D01*
X119502784Y-117487544D01*
X119650354Y-117586147D01*
X119775853Y-117711646D01*
X119874456Y-117859216D01*
X119942376Y-118023188D01*
X119977000Y-118197259D01*
X119977000Y-118374741D01*
X119942376Y-118548812D01*
X119874456Y-118712784D01*
X119775853Y-118860354D01*
X119650354Y-118985853D01*
X119502784Y-119084456D01*
X119338812Y-119152376D01*
X119189512Y-119182073D01*
X119164742Y-119187000D01*
X118987258Y-119187000D01*
X118962488Y-119182073D01*
X118813188Y-119152376D01*
X118649216Y-119084456D01*
X118501646Y-118985853D01*
X118376147Y-118860354D01*
X118277544Y-118712784D01*
X118209624Y-118548812D01*
X118175000Y-118374741D01*
X118175000Y-118197259D01*
X118209624Y-118023188D01*
X118277544Y-117859216D01*
X118376147Y-117711646D01*
X118501646Y-117586147D01*
X118649216Y-117487544D01*
X118813188Y-117419624D01*
X118962488Y-117389927D01*
X118987258Y-117385000D01*
X119164742Y-117385000D01*
X119189512Y-117389927D01*
G37*
G36*
X81315591Y-117434085D02*
G01*
X81349569Y-117444393D01*
X81380890Y-117461134D01*
X81408339Y-117483661D01*
X81430866Y-117511110D01*
X81447607Y-117542431D01*
X81457915Y-117576409D01*
X81462000Y-117617890D01*
X81462000Y-118294110D01*
X81457915Y-118335591D01*
X81447607Y-118369569D01*
X81430866Y-118400890D01*
X81408339Y-118428339D01*
X81380890Y-118450866D01*
X81349569Y-118467607D01*
X81315591Y-118477915D01*
X81274110Y-118482000D01*
X80672890Y-118482000D01*
X80631409Y-118477915D01*
X80597431Y-118467607D01*
X80566110Y-118450866D01*
X80538661Y-118428339D01*
X80516134Y-118400890D01*
X80499393Y-118369569D01*
X80489085Y-118335591D01*
X80485000Y-118294110D01*
X80485000Y-117617890D01*
X80489085Y-117576409D01*
X80499393Y-117542431D01*
X80516134Y-117511110D01*
X80538661Y-117483661D01*
X80566110Y-117461134D01*
X80597431Y-117444393D01*
X80631409Y-117434085D01*
X80672890Y-117430000D01*
X81274110Y-117430000D01*
X81315591Y-117434085D01*
G37*
G36*
X79740591Y-117434085D02*
G01*
X79774569Y-117444393D01*
X79805890Y-117461134D01*
X79833339Y-117483661D01*
X79855866Y-117511110D01*
X79872607Y-117542431D01*
X79882915Y-117576409D01*
X79887000Y-117617890D01*
X79887000Y-118294110D01*
X79882915Y-118335591D01*
X79872607Y-118369569D01*
X79855866Y-118400890D01*
X79833339Y-118428339D01*
X79805890Y-118450866D01*
X79774569Y-118467607D01*
X79740591Y-118477915D01*
X79699110Y-118482000D01*
X79097890Y-118482000D01*
X79056409Y-118477915D01*
X79022431Y-118467607D01*
X78991110Y-118450866D01*
X78963661Y-118428339D01*
X78941134Y-118400890D01*
X78924393Y-118369569D01*
X78914085Y-118335591D01*
X78910000Y-118294110D01*
X78910000Y-117617890D01*
X78914085Y-117576409D01*
X78924393Y-117542431D01*
X78941134Y-117511110D01*
X78963661Y-117483661D01*
X78991110Y-117461134D01*
X79022431Y-117444393D01*
X79056409Y-117434085D01*
X79097890Y-117430000D01*
X79699110Y-117430000D01*
X79740591Y-117434085D01*
G37*
G36*
X76787000Y-117607000D02*
G01*
X75485000Y-117607000D01*
X75485000Y-116105000D01*
X76787000Y-116105000D01*
X76787000Y-117607000D01*
G37*
G36*
X78487000Y-117607000D02*
G01*
X77185000Y-117607000D01*
X77185000Y-116105000D01*
X78487000Y-116105000D01*
X78487000Y-117607000D01*
G37*
G36*
X79740591Y-116034085D02*
G01*
X79774569Y-116044393D01*
X79805890Y-116061134D01*
X79833339Y-116083661D01*
X79855866Y-116111110D01*
X79872607Y-116142431D01*
X79882915Y-116176409D01*
X79887000Y-116217890D01*
X79887000Y-116894110D01*
X79882915Y-116935591D01*
X79872607Y-116969569D01*
X79855866Y-117000890D01*
X79833339Y-117028339D01*
X79805890Y-117050866D01*
X79774569Y-117067607D01*
X79740591Y-117077915D01*
X79699110Y-117082000D01*
X79097890Y-117082000D01*
X79056409Y-117077915D01*
X79022431Y-117067607D01*
X78991110Y-117050866D01*
X78963661Y-117028339D01*
X78941134Y-117000890D01*
X78924393Y-116969569D01*
X78914085Y-116935591D01*
X78910000Y-116894110D01*
X78910000Y-116217890D01*
X78914085Y-116176409D01*
X78924393Y-116142431D01*
X78941134Y-116111110D01*
X78963661Y-116083661D01*
X78991110Y-116061134D01*
X79022431Y-116044393D01*
X79056409Y-116034085D01*
X79097890Y-116030000D01*
X79699110Y-116030000D01*
X79740591Y-116034085D01*
G37*
G36*
X81315591Y-116034085D02*
G01*
X81349569Y-116044393D01*
X81380890Y-116061134D01*
X81408339Y-116083661D01*
X81430866Y-116111110D01*
X81447607Y-116142431D01*
X81457915Y-116176409D01*
X81462000Y-116217890D01*
X81462000Y-116894110D01*
X81457915Y-116935591D01*
X81447607Y-116969569D01*
X81430866Y-117000890D01*
X81408339Y-117028339D01*
X81380890Y-117050866D01*
X81349569Y-117067607D01*
X81315591Y-117077915D01*
X81274110Y-117082000D01*
X80672890Y-117082000D01*
X80631409Y-117077915D01*
X80597431Y-117067607D01*
X80566110Y-117050866D01*
X80538661Y-117028339D01*
X80516134Y-117000890D01*
X80499393Y-116969569D01*
X80489085Y-116935591D01*
X80485000Y-116894110D01*
X80485000Y-116217890D01*
X80489085Y-116176409D01*
X80499393Y-116142431D01*
X80516134Y-116111110D01*
X80538661Y-116083661D01*
X80566110Y-116061134D01*
X80597431Y-116044393D01*
X80631409Y-116034085D01*
X80672890Y-116030000D01*
X81274110Y-116030000D01*
X81315591Y-116034085D01*
G37*
G36*
X119189512Y-114849927D02*
G01*
X119338812Y-114879624D01*
X119502784Y-114947544D01*
X119650354Y-115046147D01*
X119775853Y-115171646D01*
X119874456Y-115319216D01*
X119942376Y-115483188D01*
X119971248Y-115628339D01*
X119975729Y-115650866D01*
X119977000Y-115657259D01*
X119977000Y-115834741D01*
X119942376Y-116008812D01*
X119874456Y-116172784D01*
X119775853Y-116320354D01*
X119650354Y-116445853D01*
X119502784Y-116544456D01*
X119338812Y-116612376D01*
X119189512Y-116642073D01*
X119164742Y-116647000D01*
X118987258Y-116647000D01*
X118962488Y-116642073D01*
X118813188Y-116612376D01*
X118649216Y-116544456D01*
X118501646Y-116445853D01*
X118376147Y-116320354D01*
X118277544Y-116172784D01*
X118209624Y-116008812D01*
X118175000Y-115834741D01*
X118175000Y-115657259D01*
X118176272Y-115650866D01*
X118180752Y-115628339D01*
X118209624Y-115483188D01*
X118277544Y-115319216D01*
X118376147Y-115171646D01*
X118501646Y-115046147D01*
X118649216Y-114947544D01*
X118813188Y-114879624D01*
X118962488Y-114849927D01*
X118987258Y-114845000D01*
X119164742Y-114845000D01*
X119189512Y-114849927D01*
G37*
G36*
X79740591Y-114634085D02*
G01*
X79774569Y-114644393D01*
X79805890Y-114661134D01*
X79833339Y-114683661D01*
X79855866Y-114711110D01*
X79872607Y-114742431D01*
X79882915Y-114776409D01*
X79887000Y-114817890D01*
X79887000Y-115494110D01*
X79882915Y-115535591D01*
X79872607Y-115569569D01*
X79855866Y-115600890D01*
X79833339Y-115628339D01*
X79805890Y-115650866D01*
X79774569Y-115667607D01*
X79740591Y-115677915D01*
X79699110Y-115682000D01*
X79097890Y-115682000D01*
X79056409Y-115677915D01*
X79022431Y-115667607D01*
X78991110Y-115650866D01*
X78963661Y-115628339D01*
X78941134Y-115600890D01*
X78924393Y-115569569D01*
X78914085Y-115535591D01*
X78910000Y-115494110D01*
X78910000Y-114817890D01*
X78914085Y-114776409D01*
X78924393Y-114742431D01*
X78941134Y-114711110D01*
X78963661Y-114683661D01*
X78991110Y-114661134D01*
X79022431Y-114644393D01*
X79056409Y-114634085D01*
X79097890Y-114630000D01*
X79699110Y-114630000D01*
X79740591Y-114634085D01*
G37*
G36*
X81315591Y-114634085D02*
G01*
X81349569Y-114644393D01*
X81380890Y-114661134D01*
X81408339Y-114683661D01*
X81430866Y-114711110D01*
X81447607Y-114742431D01*
X81457915Y-114776409D01*
X81462000Y-114817890D01*
X81462000Y-115494110D01*
X81457915Y-115535591D01*
X81447607Y-115569569D01*
X81430866Y-115600890D01*
X81408339Y-115628339D01*
X81380890Y-115650866D01*
X81349569Y-115667607D01*
X81315591Y-115677915D01*
X81274110Y-115682000D01*
X80672890Y-115682000D01*
X80631409Y-115677915D01*
X80597431Y-115667607D01*
X80566110Y-115650866D01*
X80538661Y-115628339D01*
X80516134Y-115600890D01*
X80499393Y-115569569D01*
X80489085Y-115535591D01*
X80485000Y-115494110D01*
X80485000Y-114817890D01*
X80489085Y-114776409D01*
X80499393Y-114742431D01*
X80516134Y-114711110D01*
X80538661Y-114683661D01*
X80566110Y-114661134D01*
X80597431Y-114644393D01*
X80631409Y-114634085D01*
X80672890Y-114630000D01*
X81274110Y-114630000D01*
X81315591Y-114634085D01*
G37*
G36*
X78315591Y-114634085D02*
G01*
X78349569Y-114644393D01*
X78380890Y-114661134D01*
X78408339Y-114683661D01*
X78430866Y-114711110D01*
X78447607Y-114742431D01*
X78457915Y-114776409D01*
X78462000Y-114817890D01*
X78462000Y-115494110D01*
X78457915Y-115535591D01*
X78447607Y-115569569D01*
X78430866Y-115600890D01*
X78408339Y-115628339D01*
X78380890Y-115650866D01*
X78349569Y-115667607D01*
X78315591Y-115677915D01*
X78274110Y-115682000D01*
X77672890Y-115682000D01*
X77631409Y-115677915D01*
X77597431Y-115667607D01*
X77566110Y-115650866D01*
X77538661Y-115628339D01*
X77516134Y-115600890D01*
X77499393Y-115569569D01*
X77489085Y-115535591D01*
X77485000Y-115494110D01*
X77485000Y-114817890D01*
X77489085Y-114776409D01*
X77499393Y-114742431D01*
X77516134Y-114711110D01*
X77538661Y-114683661D01*
X77566110Y-114661134D01*
X77597431Y-114644393D01*
X77631409Y-114634085D01*
X77672890Y-114630000D01*
X78274110Y-114630000D01*
X78315591Y-114634085D01*
G37*
G36*
X76740591Y-114634085D02*
G01*
X76774569Y-114644393D01*
X76805890Y-114661134D01*
X76833339Y-114683661D01*
X76855866Y-114711110D01*
X76872607Y-114742431D01*
X76882915Y-114776409D01*
X76887000Y-114817890D01*
X76887000Y-115494110D01*
X76882915Y-115535591D01*
X76872607Y-115569569D01*
X76855866Y-115600890D01*
X76833339Y-115628339D01*
X76805890Y-115650866D01*
X76774569Y-115667607D01*
X76740591Y-115677915D01*
X76699110Y-115682000D01*
X76097890Y-115682000D01*
X76056409Y-115677915D01*
X76022431Y-115667607D01*
X75991110Y-115650866D01*
X75963661Y-115628339D01*
X75941134Y-115600890D01*
X75924393Y-115569569D01*
X75914085Y-115535591D01*
X75910000Y-115494110D01*
X75910000Y-114817890D01*
X75914085Y-114776409D01*
X75924393Y-114742431D01*
X75941134Y-114711110D01*
X75963661Y-114683661D01*
X75991110Y-114661134D01*
X76022431Y-114644393D01*
X76056409Y-114634085D01*
X76097890Y-114630000D01*
X76699110Y-114630000D01*
X76740591Y-114634085D01*
G37*
G36*
X78295468Y-112809565D02*
G01*
X78334138Y-112821296D01*
X78369777Y-112840346D01*
X78401017Y-112865983D01*
X78426654Y-112897223D01*
X78445704Y-112932862D01*
X78457435Y-112971532D01*
X78462000Y-113017888D01*
X78462000Y-114094112D01*
X78457435Y-114140468D01*
X78445704Y-114179138D01*
X78426654Y-114214777D01*
X78401017Y-114246017D01*
X78369777Y-114271654D01*
X78334138Y-114290704D01*
X78295468Y-114302435D01*
X78249112Y-114307000D01*
X77597888Y-114307000D01*
X77551532Y-114302435D01*
X77512862Y-114290704D01*
X77477223Y-114271654D01*
X77445983Y-114246017D01*
X77420346Y-114214777D01*
X77401296Y-114179138D01*
X77389565Y-114140468D01*
X77385000Y-114094112D01*
X77385000Y-113017888D01*
X77389565Y-112971532D01*
X77401296Y-112932862D01*
X77420346Y-112897223D01*
X77445983Y-112865983D01*
X77477223Y-112840346D01*
X77512862Y-112821296D01*
X77551532Y-112809565D01*
X77597888Y-112805000D01*
X78249112Y-112805000D01*
X78295468Y-112809565D01*
G37*
G36*
X76420468Y-112809565D02*
G01*
X76459138Y-112821296D01*
X76494777Y-112840346D01*
X76526017Y-112865983D01*
X76551654Y-112897223D01*
X76570704Y-112932862D01*
X76582435Y-112971532D01*
X76587000Y-113017888D01*
X76587000Y-114094112D01*
X76582435Y-114140468D01*
X76570704Y-114179138D01*
X76551654Y-114214777D01*
X76526017Y-114246017D01*
X76494777Y-114271654D01*
X76459138Y-114290704D01*
X76420468Y-114302435D01*
X76374112Y-114307000D01*
X75722888Y-114307000D01*
X75676532Y-114302435D01*
X75637862Y-114290704D01*
X75602223Y-114271654D01*
X75570983Y-114246017D01*
X75545346Y-114214777D01*
X75526296Y-114179138D01*
X75514565Y-114140468D01*
X75510000Y-114094112D01*
X75510000Y-113017888D01*
X75514565Y-112971532D01*
X75526296Y-112932862D01*
X75545346Y-112897223D01*
X75570983Y-112865983D01*
X75602223Y-112840346D01*
X75637862Y-112821296D01*
X75676532Y-112809565D01*
X75722888Y-112805000D01*
X76374112Y-112805000D01*
X76420468Y-112809565D01*
G37*
G36*
X81315591Y-113234085D02*
G01*
X81349569Y-113244393D01*
X81380890Y-113261134D01*
X81408339Y-113283661D01*
X81430866Y-113311110D01*
X81447607Y-113342431D01*
X81457915Y-113376409D01*
X81462000Y-113417890D01*
X81462000Y-114094110D01*
X81457915Y-114135591D01*
X81447607Y-114169569D01*
X81430866Y-114200890D01*
X81408339Y-114228339D01*
X81380890Y-114250866D01*
X81349569Y-114267607D01*
X81315591Y-114277915D01*
X81274110Y-114282000D01*
X80672890Y-114282000D01*
X80631409Y-114277915D01*
X80597431Y-114267607D01*
X80566110Y-114250866D01*
X80538661Y-114228339D01*
X80516134Y-114200890D01*
X80499393Y-114169569D01*
X80489085Y-114135591D01*
X80485000Y-114094110D01*
X80485000Y-113417890D01*
X80489085Y-113376409D01*
X80499393Y-113342431D01*
X80516134Y-113311110D01*
X80538661Y-113283661D01*
X80566110Y-113261134D01*
X80597431Y-113244393D01*
X80631409Y-113234085D01*
X80672890Y-113230000D01*
X81274110Y-113230000D01*
X81315591Y-113234085D01*
G37*
G36*
X79740591Y-113234085D02*
G01*
X79774569Y-113244393D01*
X79805890Y-113261134D01*
X79833339Y-113283661D01*
X79855866Y-113311110D01*
X79872607Y-113342431D01*
X79882915Y-113376409D01*
X79887000Y-113417890D01*
X79887000Y-114094110D01*
X79882915Y-114135591D01*
X79872607Y-114169569D01*
X79855866Y-114200890D01*
X79833339Y-114228339D01*
X79805890Y-114250866D01*
X79774569Y-114267607D01*
X79740591Y-114277915D01*
X79699110Y-114282000D01*
X79097890Y-114282000D01*
X79056409Y-114277915D01*
X79022431Y-114267607D01*
X78991110Y-114250866D01*
X78963661Y-114228339D01*
X78941134Y-114200890D01*
X78924393Y-114169569D01*
X78914085Y-114135591D01*
X78910000Y-114094110D01*
X78910000Y-113417890D01*
X78914085Y-113376409D01*
X78924393Y-113342431D01*
X78941134Y-113311110D01*
X78963661Y-113283661D01*
X78991110Y-113261134D01*
X79022431Y-113244393D01*
X79056409Y-113234085D01*
X79097890Y-113230000D01*
X79699110Y-113230000D01*
X79740591Y-113234085D01*
G37*
G36*
X119189512Y-112309927D02*
G01*
X119338812Y-112339624D01*
X119502784Y-112407544D01*
X119650354Y-112506147D01*
X119775853Y-112631646D01*
X119874456Y-112779216D01*
X119942376Y-112943188D01*
X119977000Y-113117259D01*
X119977000Y-113294741D01*
X119942376Y-113468812D01*
X119874456Y-113632784D01*
X119775853Y-113780354D01*
X119650354Y-113905853D01*
X119502784Y-114004456D01*
X119338812Y-114072376D01*
X119189512Y-114102073D01*
X119164742Y-114107000D01*
X118987258Y-114107000D01*
X118962488Y-114102073D01*
X118813188Y-114072376D01*
X118649216Y-114004456D01*
X118501646Y-113905853D01*
X118376147Y-113780354D01*
X118277544Y-113632784D01*
X118209624Y-113468812D01*
X118175000Y-113294741D01*
X118175000Y-113117259D01*
X118209624Y-112943188D01*
X118277544Y-112779216D01*
X118376147Y-112631646D01*
X118501646Y-112506147D01*
X118649216Y-112407544D01*
X118813188Y-112339624D01*
X118962488Y-112309927D01*
X118987258Y-112305000D01*
X119164742Y-112305000D01*
X119189512Y-112309927D01*
G37*
G36*
X81315591Y-111434085D02*
G01*
X81349569Y-111444393D01*
X81380890Y-111461134D01*
X81408339Y-111483661D01*
X81430866Y-111511110D01*
X81447607Y-111542431D01*
X81457915Y-111576409D01*
X81462000Y-111617890D01*
X81462000Y-112294110D01*
X81457915Y-112335591D01*
X81447607Y-112369569D01*
X81430866Y-112400890D01*
X81408339Y-112428339D01*
X81380890Y-112450866D01*
X81349569Y-112467607D01*
X81315591Y-112477915D01*
X81274110Y-112482000D01*
X80672890Y-112482000D01*
X80631409Y-112477915D01*
X80597431Y-112467607D01*
X80566110Y-112450866D01*
X80538661Y-112428339D01*
X80516134Y-112400890D01*
X80499393Y-112369569D01*
X80489085Y-112335591D01*
X80485000Y-112294110D01*
X80485000Y-111617890D01*
X80489085Y-111576409D01*
X80499393Y-111542431D01*
X80516134Y-111511110D01*
X80538661Y-111483661D01*
X80566110Y-111461134D01*
X80597431Y-111444393D01*
X80631409Y-111434085D01*
X80672890Y-111430000D01*
X81274110Y-111430000D01*
X81315591Y-111434085D01*
G37*
G36*
X76753091Y-111434085D02*
G01*
X76787069Y-111444393D01*
X76818390Y-111461134D01*
X76845839Y-111483661D01*
X76868366Y-111511110D01*
X76885107Y-111542431D01*
X76895415Y-111576409D01*
X76899500Y-111617890D01*
X76899500Y-112294110D01*
X76895415Y-112335591D01*
X76885107Y-112369569D01*
X76868366Y-112400890D01*
X76845839Y-112428339D01*
X76818390Y-112450866D01*
X76787069Y-112467607D01*
X76753091Y-112477915D01*
X76711610Y-112482000D01*
X76110390Y-112482000D01*
X76068909Y-112477915D01*
X76034931Y-112467607D01*
X76003610Y-112450866D01*
X75976161Y-112428339D01*
X75953634Y-112400890D01*
X75936893Y-112369569D01*
X75926585Y-112335591D01*
X75922500Y-112294110D01*
X75922500Y-111617890D01*
X75926585Y-111576409D01*
X75936893Y-111542431D01*
X75953634Y-111511110D01*
X75976161Y-111483661D01*
X76003610Y-111461134D01*
X76034931Y-111444393D01*
X76068909Y-111434085D01*
X76110390Y-111430000D01*
X76711610Y-111430000D01*
X76753091Y-111434085D01*
G37*
G36*
X79740591Y-111434085D02*
G01*
X79774569Y-111444393D01*
X79805890Y-111461134D01*
X79833339Y-111483661D01*
X79855866Y-111511110D01*
X79872607Y-111542431D01*
X79882915Y-111576409D01*
X79887000Y-111617890D01*
X79887000Y-112294110D01*
X79882915Y-112335591D01*
X79872607Y-112369569D01*
X79855866Y-112400890D01*
X79833339Y-112428339D01*
X79805890Y-112450866D01*
X79774569Y-112467607D01*
X79740591Y-112477915D01*
X79699110Y-112482000D01*
X79097890Y-112482000D01*
X79056409Y-112477915D01*
X79022431Y-112467607D01*
X78991110Y-112450866D01*
X78963661Y-112428339D01*
X78941134Y-112400890D01*
X78924393Y-112369569D01*
X78914085Y-112335591D01*
X78910000Y-112294110D01*
X78910000Y-111617890D01*
X78914085Y-111576409D01*
X78924393Y-111542431D01*
X78941134Y-111511110D01*
X78963661Y-111483661D01*
X78991110Y-111461134D01*
X79022431Y-111444393D01*
X79056409Y-111434085D01*
X79097890Y-111430000D01*
X79699110Y-111430000D01*
X79740591Y-111434085D01*
G37*
G36*
X78328091Y-111434085D02*
G01*
X78362069Y-111444393D01*
X78393390Y-111461134D01*
X78420839Y-111483661D01*
X78443366Y-111511110D01*
X78460107Y-111542431D01*
X78470415Y-111576409D01*
X78474500Y-111617890D01*
X78474500Y-112294110D01*
X78470415Y-112335591D01*
X78460107Y-112369569D01*
X78443366Y-112400890D01*
X78420839Y-112428339D01*
X78393390Y-112450866D01*
X78362069Y-112467607D01*
X78328091Y-112477915D01*
X78286610Y-112482000D01*
X77685390Y-112482000D01*
X77643909Y-112477915D01*
X77609931Y-112467607D01*
X77578610Y-112450866D01*
X77551161Y-112428339D01*
X77528634Y-112400890D01*
X77511893Y-112369569D01*
X77501585Y-112335591D01*
X77497500Y-112294110D01*
X77497500Y-111617890D01*
X77501585Y-111576409D01*
X77511893Y-111542431D01*
X77528634Y-111511110D01*
X77551161Y-111483661D01*
X77578610Y-111461134D01*
X77609931Y-111444393D01*
X77643909Y-111434085D01*
X77685390Y-111430000D01*
X78286610Y-111430000D01*
X78328091Y-111434085D01*
G37*
G36*
X119189512Y-109769927D02*
G01*
X119338812Y-109799624D01*
X119502784Y-109867544D01*
X119650354Y-109966147D01*
X119775853Y-110091646D01*
X119874456Y-110239216D01*
X119942376Y-110403188D01*
X119977000Y-110577259D01*
X119977000Y-110754741D01*
X119942376Y-110928812D01*
X119874456Y-111092784D01*
X119775853Y-111240354D01*
X119650354Y-111365853D01*
X119502784Y-111464456D01*
X119338812Y-111532376D01*
X119194906Y-111561000D01*
X119164742Y-111567000D01*
X118987258Y-111567000D01*
X118957094Y-111561000D01*
X118813188Y-111532376D01*
X118649216Y-111464456D01*
X118501646Y-111365853D01*
X118376147Y-111240354D01*
X118277544Y-111092784D01*
X118209624Y-110928812D01*
X118175000Y-110754741D01*
X118175000Y-110577259D01*
X118209624Y-110403188D01*
X118277544Y-110239216D01*
X118376147Y-110091646D01*
X118501646Y-109966147D01*
X118649216Y-109867544D01*
X118813188Y-109799624D01*
X118962488Y-109769927D01*
X118987258Y-109765000D01*
X119164742Y-109765000D01*
X119189512Y-109769927D01*
G37*
G36*
X77287000Y-110809000D02*
G01*
X76285000Y-110809000D01*
X76285000Y-109507000D01*
X77287000Y-109507000D01*
X77287000Y-110809000D01*
G37*
G36*
X80587000Y-110809000D02*
G01*
X79585000Y-110809000D01*
X79585000Y-109507000D01*
X80587000Y-109507000D01*
X80587000Y-110809000D01*
G37*
G36*
X114765591Y-108359085D02*
G01*
X114799569Y-108369393D01*
X114830890Y-108386134D01*
X114858339Y-108408661D01*
X114880866Y-108436110D01*
X114897607Y-108467431D01*
X114907915Y-108501409D01*
X114912000Y-108542890D01*
X114912000Y-109144110D01*
X114907915Y-109185591D01*
X114897607Y-109219569D01*
X114880866Y-109250890D01*
X114858339Y-109278339D01*
X114830890Y-109300866D01*
X114799569Y-109317607D01*
X114765591Y-109327915D01*
X114724110Y-109332000D01*
X114047890Y-109332000D01*
X114006409Y-109327915D01*
X113972431Y-109317607D01*
X113941110Y-109300866D01*
X113913661Y-109278339D01*
X113891134Y-109250890D01*
X113874393Y-109219569D01*
X113864085Y-109185591D01*
X113860000Y-109144110D01*
X113860000Y-108542890D01*
X113864085Y-108501409D01*
X113874393Y-108467431D01*
X113891134Y-108436110D01*
X113913661Y-108408661D01*
X113941110Y-108386134D01*
X113972431Y-108369393D01*
X114006409Y-108359085D01*
X114047890Y-108355000D01*
X114724110Y-108355000D01*
X114765591Y-108359085D01*
G37*
G36*
X108565591Y-108359085D02*
G01*
X108599569Y-108369393D01*
X108630890Y-108386134D01*
X108658339Y-108408661D01*
X108680866Y-108436110D01*
X108697607Y-108467431D01*
X108707915Y-108501409D01*
X108712000Y-108542890D01*
X108712000Y-109144110D01*
X108707915Y-109185591D01*
X108697607Y-109219569D01*
X108680866Y-109250890D01*
X108658339Y-109278339D01*
X108630890Y-109300866D01*
X108599569Y-109317607D01*
X108565591Y-109327915D01*
X108524110Y-109332000D01*
X107847890Y-109332000D01*
X107806409Y-109327915D01*
X107772431Y-109317607D01*
X107741110Y-109300866D01*
X107713661Y-109278339D01*
X107691134Y-109250890D01*
X107674393Y-109219569D01*
X107664085Y-109185591D01*
X107660000Y-109144110D01*
X107660000Y-108542890D01*
X107664085Y-108501409D01*
X107674393Y-108467431D01*
X107691134Y-108436110D01*
X107713661Y-108408661D01*
X107741110Y-108386134D01*
X107772431Y-108369393D01*
X107806409Y-108359085D01*
X107847890Y-108355000D01*
X108524110Y-108355000D01*
X108565591Y-108359085D01*
G37*
G36*
X105765591Y-108359085D02*
G01*
X105799569Y-108369393D01*
X105830890Y-108386134D01*
X105858339Y-108408661D01*
X105880866Y-108436110D01*
X105897607Y-108467431D01*
X105907915Y-108501409D01*
X105912000Y-108542890D01*
X105912000Y-109144110D01*
X105907915Y-109185591D01*
X105897607Y-109219569D01*
X105880866Y-109250890D01*
X105858339Y-109278339D01*
X105830890Y-109300866D01*
X105799569Y-109317607D01*
X105765591Y-109327915D01*
X105724110Y-109332000D01*
X105047890Y-109332000D01*
X105006409Y-109327915D01*
X104972431Y-109317607D01*
X104941110Y-109300866D01*
X104913661Y-109278339D01*
X104891134Y-109250890D01*
X104874393Y-109219569D01*
X104864085Y-109185591D01*
X104860000Y-109144110D01*
X104860000Y-108542890D01*
X104864085Y-108501409D01*
X104874393Y-108467431D01*
X104891134Y-108436110D01*
X104913661Y-108408661D01*
X104941110Y-108386134D01*
X104972431Y-108369393D01*
X105006409Y-108359085D01*
X105047890Y-108355000D01*
X105724110Y-108355000D01*
X105765591Y-108359085D01*
G37*
G36*
X116165591Y-108359085D02*
G01*
X116199569Y-108369393D01*
X116230890Y-108386134D01*
X116258339Y-108408661D01*
X116280866Y-108436110D01*
X116297607Y-108467431D01*
X116307915Y-108501409D01*
X116312000Y-108542890D01*
X116312000Y-109144110D01*
X116307915Y-109185591D01*
X116297607Y-109219569D01*
X116280866Y-109250890D01*
X116258339Y-109278339D01*
X116230890Y-109300866D01*
X116199569Y-109317607D01*
X116165591Y-109327915D01*
X116124110Y-109332000D01*
X115447890Y-109332000D01*
X115406409Y-109327915D01*
X115372431Y-109317607D01*
X115341110Y-109300866D01*
X115313661Y-109278339D01*
X115291134Y-109250890D01*
X115274393Y-109219569D01*
X115264085Y-109185591D01*
X115260000Y-109144110D01*
X115260000Y-108542890D01*
X115264085Y-108501409D01*
X115274393Y-108467431D01*
X115291134Y-108436110D01*
X115313661Y-108408661D01*
X115341110Y-108386134D01*
X115372431Y-108369393D01*
X115406409Y-108359085D01*
X115447890Y-108355000D01*
X116124110Y-108355000D01*
X116165591Y-108359085D01*
G37*
G36*
X111765591Y-108359085D02*
G01*
X111799569Y-108369393D01*
X111830890Y-108386134D01*
X111858339Y-108408661D01*
X111880866Y-108436110D01*
X111897607Y-108467431D01*
X111907915Y-108501409D01*
X111912000Y-108542890D01*
X111912000Y-109144110D01*
X111907915Y-109185591D01*
X111897607Y-109219569D01*
X111880866Y-109250890D01*
X111858339Y-109278339D01*
X111830890Y-109300866D01*
X111799569Y-109317607D01*
X111765591Y-109327915D01*
X111724110Y-109332000D01*
X111047890Y-109332000D01*
X111006409Y-109327915D01*
X110972431Y-109317607D01*
X110941110Y-109300866D01*
X110913661Y-109278339D01*
X110891134Y-109250890D01*
X110874393Y-109219569D01*
X110864085Y-109185591D01*
X110860000Y-109144110D01*
X110860000Y-108542890D01*
X110864085Y-108501409D01*
X110874393Y-108467431D01*
X110891134Y-108436110D01*
X110913661Y-108408661D01*
X110941110Y-108386134D01*
X110972431Y-108369393D01*
X111006409Y-108359085D01*
X111047890Y-108355000D01*
X111724110Y-108355000D01*
X111765591Y-108359085D01*
G37*
G36*
X113265591Y-108359085D02*
G01*
X113299569Y-108369393D01*
X113330890Y-108386134D01*
X113358339Y-108408661D01*
X113380866Y-108436110D01*
X113397607Y-108467431D01*
X113407915Y-108501409D01*
X113412000Y-108542890D01*
X113412000Y-109144110D01*
X113407915Y-109185591D01*
X113397607Y-109219569D01*
X113380866Y-109250890D01*
X113358339Y-109278339D01*
X113330890Y-109300866D01*
X113299569Y-109317607D01*
X113265591Y-109327915D01*
X113224110Y-109332000D01*
X112547890Y-109332000D01*
X112506409Y-109327915D01*
X112472431Y-109317607D01*
X112441110Y-109300866D01*
X112413661Y-109278339D01*
X112391134Y-109250890D01*
X112374393Y-109219569D01*
X112364085Y-109185591D01*
X112360000Y-109144110D01*
X112360000Y-108542890D01*
X112364085Y-108501409D01*
X112374393Y-108467431D01*
X112391134Y-108436110D01*
X112413661Y-108408661D01*
X112441110Y-108386134D01*
X112472431Y-108369393D01*
X112506409Y-108359085D01*
X112547890Y-108355000D01*
X113224110Y-108355000D01*
X113265591Y-108359085D01*
G37*
G36*
X107165591Y-108359085D02*
G01*
X107199569Y-108369393D01*
X107230890Y-108386134D01*
X107258339Y-108408661D01*
X107280866Y-108436110D01*
X107297607Y-108467431D01*
X107307915Y-108501409D01*
X107312000Y-108542890D01*
X107312000Y-109144110D01*
X107307915Y-109185591D01*
X107297607Y-109219569D01*
X107280866Y-109250890D01*
X107258339Y-109278339D01*
X107230890Y-109300866D01*
X107199569Y-109317607D01*
X107165591Y-109327915D01*
X107124110Y-109332000D01*
X106447890Y-109332000D01*
X106406409Y-109327915D01*
X106372431Y-109317607D01*
X106341110Y-109300866D01*
X106313661Y-109278339D01*
X106291134Y-109250890D01*
X106274393Y-109219569D01*
X106264085Y-109185591D01*
X106260000Y-109144110D01*
X106260000Y-108542890D01*
X106264085Y-108501409D01*
X106274393Y-108467431D01*
X106291134Y-108436110D01*
X106313661Y-108408661D01*
X106341110Y-108386134D01*
X106372431Y-108369393D01*
X106406409Y-108359085D01*
X106447890Y-108355000D01*
X107124110Y-108355000D01*
X107165591Y-108359085D01*
G37*
G36*
X109965591Y-108359085D02*
G01*
X109999569Y-108369393D01*
X110030890Y-108386134D01*
X110058339Y-108408661D01*
X110080866Y-108436110D01*
X110097607Y-108467431D01*
X110107915Y-108501409D01*
X110112000Y-108542890D01*
X110112000Y-109144110D01*
X110107915Y-109185591D01*
X110097607Y-109219569D01*
X110080866Y-109250890D01*
X110058339Y-109278339D01*
X110030890Y-109300866D01*
X109999569Y-109317607D01*
X109965591Y-109327915D01*
X109924110Y-109332000D01*
X109247890Y-109332000D01*
X109206409Y-109327915D01*
X109172431Y-109317607D01*
X109141110Y-109300866D01*
X109113661Y-109278339D01*
X109091134Y-109250890D01*
X109074393Y-109219569D01*
X109064085Y-109185591D01*
X109060000Y-109144110D01*
X109060000Y-108542890D01*
X109064085Y-108501409D01*
X109074393Y-108467431D01*
X109091134Y-108436110D01*
X109113661Y-108408661D01*
X109141110Y-108386134D01*
X109172431Y-108369393D01*
X109206409Y-108359085D01*
X109247890Y-108355000D01*
X109924110Y-108355000D01*
X109965591Y-108359085D01*
G37*
G36*
X119189512Y-107229927D02*
G01*
X119338812Y-107259624D01*
X119502784Y-107327544D01*
X119650354Y-107426147D01*
X119775853Y-107551646D01*
X119874456Y-107699216D01*
X119942376Y-107863188D01*
X119977000Y-108037259D01*
X119977000Y-108214741D01*
X119942376Y-108388812D01*
X119874456Y-108552784D01*
X119775853Y-108700354D01*
X119650354Y-108825853D01*
X119502784Y-108924456D01*
X119338812Y-108992376D01*
X119189512Y-109022073D01*
X119164742Y-109027000D01*
X118987258Y-109027000D01*
X118962488Y-109022073D01*
X118813188Y-108992376D01*
X118649216Y-108924456D01*
X118501646Y-108825853D01*
X118376147Y-108700354D01*
X118277544Y-108552784D01*
X118209624Y-108388812D01*
X118175000Y-108214741D01*
X118175000Y-108037259D01*
X118209624Y-107863188D01*
X118277544Y-107699216D01*
X118376147Y-107551646D01*
X118501646Y-107426147D01*
X118649216Y-107327544D01*
X118813188Y-107259624D01*
X118962488Y-107229927D01*
X118987258Y-107225000D01*
X119164742Y-107225000D01*
X119189512Y-107229927D01*
G37*
G36*
X100037000Y-108551000D02*
G01*
X87315000Y-108551000D01*
X87315000Y-107449000D01*
X100037000Y-107449000D01*
X100037000Y-108551000D01*
G37*
G36*
X80541000Y-108547000D02*
G01*
X76839000Y-108547000D01*
X76839000Y-106945000D01*
X80541000Y-106945000D01*
X80541000Y-108547000D01*
G37*
G36*
X102740591Y-106734085D02*
G01*
X102774569Y-106744393D01*
X102805890Y-106761134D01*
X102833339Y-106783661D01*
X102855866Y-106811110D01*
X102872607Y-106842431D01*
X102882915Y-106876409D01*
X102887000Y-106917890D01*
X102887000Y-107594110D01*
X102882915Y-107635591D01*
X102872607Y-107669569D01*
X102855866Y-107700890D01*
X102833339Y-107728339D01*
X102805890Y-107750866D01*
X102774569Y-107767607D01*
X102740591Y-107777915D01*
X102699110Y-107782000D01*
X102097890Y-107782000D01*
X102056409Y-107777915D01*
X102022431Y-107767607D01*
X101991110Y-107750866D01*
X101963661Y-107728339D01*
X101941134Y-107700890D01*
X101924393Y-107669569D01*
X101914085Y-107635591D01*
X101910000Y-107594110D01*
X101910000Y-106917890D01*
X101914085Y-106876409D01*
X101924393Y-106842431D01*
X101941134Y-106811110D01*
X101963661Y-106783661D01*
X101991110Y-106761134D01*
X102022431Y-106744393D01*
X102056409Y-106734085D01*
X102097890Y-106730000D01*
X102699110Y-106730000D01*
X102740591Y-106734085D01*
G37*
G36*
X104315591Y-106734085D02*
G01*
X104349569Y-106744393D01*
X104380890Y-106761134D01*
X104408339Y-106783661D01*
X104430866Y-106811110D01*
X104447607Y-106842431D01*
X104457915Y-106876409D01*
X104462000Y-106917890D01*
X104462000Y-107594110D01*
X104457915Y-107635591D01*
X104447607Y-107669569D01*
X104430866Y-107700890D01*
X104408339Y-107728339D01*
X104380890Y-107750866D01*
X104349569Y-107767607D01*
X104315591Y-107777915D01*
X104274110Y-107782000D01*
X103672890Y-107782000D01*
X103631409Y-107777915D01*
X103597431Y-107767607D01*
X103566110Y-107750866D01*
X103538661Y-107728339D01*
X103516134Y-107700890D01*
X103499393Y-107669569D01*
X103489085Y-107635591D01*
X103485000Y-107594110D01*
X103485000Y-106917890D01*
X103489085Y-106876409D01*
X103499393Y-106842431D01*
X103516134Y-106811110D01*
X103538661Y-106783661D01*
X103566110Y-106761134D01*
X103597431Y-106744393D01*
X103631409Y-106734085D01*
X103672890Y-106730000D01*
X104274110Y-106730000D01*
X104315591Y-106734085D01*
G37*
G36*
X105765591Y-106784085D02*
G01*
X105799569Y-106794393D01*
X105830890Y-106811134D01*
X105858339Y-106833661D01*
X105880866Y-106861110D01*
X105897607Y-106892431D01*
X105907915Y-106926409D01*
X105912000Y-106967890D01*
X105912000Y-107569110D01*
X105907915Y-107610591D01*
X105897607Y-107644569D01*
X105880866Y-107675890D01*
X105858339Y-107703339D01*
X105830890Y-107725866D01*
X105799569Y-107742607D01*
X105765591Y-107752915D01*
X105724110Y-107757000D01*
X105047890Y-107757000D01*
X105006409Y-107752915D01*
X104972431Y-107742607D01*
X104941110Y-107725866D01*
X104913661Y-107703339D01*
X104891134Y-107675890D01*
X104874393Y-107644569D01*
X104864085Y-107610591D01*
X104860000Y-107569110D01*
X104860000Y-106967890D01*
X104864085Y-106926409D01*
X104874393Y-106892431D01*
X104891134Y-106861110D01*
X104913661Y-106833661D01*
X104941110Y-106811134D01*
X104972431Y-106794393D01*
X105006409Y-106784085D01*
X105047890Y-106780000D01*
X105724110Y-106780000D01*
X105765591Y-106784085D01*
G37*
G36*
X108565591Y-106784085D02*
G01*
X108599569Y-106794393D01*
X108630890Y-106811134D01*
X108658339Y-106833661D01*
X108680866Y-106861110D01*
X108697607Y-106892431D01*
X108707915Y-106926409D01*
X108712000Y-106967890D01*
X108712000Y-107569110D01*
X108707915Y-107610591D01*
X108697607Y-107644569D01*
X108680866Y-107675890D01*
X108658339Y-107703339D01*
X108630890Y-107725866D01*
X108599569Y-107742607D01*
X108565591Y-107752915D01*
X108524110Y-107757000D01*
X107847890Y-107757000D01*
X107806409Y-107752915D01*
X107772431Y-107742607D01*
X107741110Y-107725866D01*
X107713661Y-107703339D01*
X107691134Y-107675890D01*
X107674393Y-107644569D01*
X107664085Y-107610591D01*
X107660000Y-107569110D01*
X107660000Y-106967890D01*
X107664085Y-106926409D01*
X107674393Y-106892431D01*
X107691134Y-106861110D01*
X107713661Y-106833661D01*
X107741110Y-106811134D01*
X107772431Y-106794393D01*
X107806409Y-106784085D01*
X107847890Y-106780000D01*
X108524110Y-106780000D01*
X108565591Y-106784085D01*
G37*
G36*
X114765591Y-106784085D02*
G01*
X114799569Y-106794393D01*
X114830890Y-106811134D01*
X114858339Y-106833661D01*
X114880866Y-106861110D01*
X114897607Y-106892431D01*
X114907915Y-106926409D01*
X114912000Y-106967890D01*
X114912000Y-107569110D01*
X114907915Y-107610591D01*
X114897607Y-107644569D01*
X114880866Y-107675890D01*
X114858339Y-107703339D01*
X114830890Y-107725866D01*
X114799569Y-107742607D01*
X114765591Y-107752915D01*
X114724110Y-107757000D01*
X114047890Y-107757000D01*
X114006409Y-107752915D01*
X113972431Y-107742607D01*
X113941110Y-107725866D01*
X113913661Y-107703339D01*
X113891134Y-107675890D01*
X113874393Y-107644569D01*
X113864085Y-107610591D01*
X113860000Y-107569110D01*
X113860000Y-106967890D01*
X113864085Y-106926409D01*
X113874393Y-106892431D01*
X113891134Y-106861110D01*
X113913661Y-106833661D01*
X113941110Y-106811134D01*
X113972431Y-106794393D01*
X114006409Y-106784085D01*
X114047890Y-106780000D01*
X114724110Y-106780000D01*
X114765591Y-106784085D01*
G37*
G36*
X109965591Y-106784085D02*
G01*
X109999569Y-106794393D01*
X110030890Y-106811134D01*
X110058339Y-106833661D01*
X110080866Y-106861110D01*
X110097607Y-106892431D01*
X110107915Y-106926409D01*
X110112000Y-106967890D01*
X110112000Y-107569110D01*
X110107915Y-107610591D01*
X110097607Y-107644569D01*
X110080866Y-107675890D01*
X110058339Y-107703339D01*
X110030890Y-107725866D01*
X109999569Y-107742607D01*
X109965591Y-107752915D01*
X109924110Y-107757000D01*
X109247890Y-107757000D01*
X109206409Y-107752915D01*
X109172431Y-107742607D01*
X109141110Y-107725866D01*
X109113661Y-107703339D01*
X109091134Y-107675890D01*
X109074393Y-107644569D01*
X109064085Y-107610591D01*
X109060000Y-107569110D01*
X109060000Y-106967890D01*
X109064085Y-106926409D01*
X109074393Y-106892431D01*
X109091134Y-106861110D01*
X109113661Y-106833661D01*
X109141110Y-106811134D01*
X109172431Y-106794393D01*
X109206409Y-106784085D01*
X109247890Y-106780000D01*
X109924110Y-106780000D01*
X109965591Y-106784085D01*
G37*
G36*
X107165591Y-106784085D02*
G01*
X107199569Y-106794393D01*
X107230890Y-106811134D01*
X107258339Y-106833661D01*
X107280866Y-106861110D01*
X107297607Y-106892431D01*
X107307915Y-106926409D01*
X107312000Y-106967890D01*
X107312000Y-107569110D01*
X107307915Y-107610591D01*
X107297607Y-107644569D01*
X107280866Y-107675890D01*
X107258339Y-107703339D01*
X107230890Y-107725866D01*
X107199569Y-107742607D01*
X107165591Y-107752915D01*
X107124110Y-107757000D01*
X106447890Y-107757000D01*
X106406409Y-107752915D01*
X106372431Y-107742607D01*
X106341110Y-107725866D01*
X106313661Y-107703339D01*
X106291134Y-107675890D01*
X106274393Y-107644569D01*
X106264085Y-107610591D01*
X106260000Y-107569110D01*
X106260000Y-106967890D01*
X106264085Y-106926409D01*
X106274393Y-106892431D01*
X106291134Y-106861110D01*
X106313661Y-106833661D01*
X106341110Y-106811134D01*
X106372431Y-106794393D01*
X106406409Y-106784085D01*
X106447890Y-106780000D01*
X107124110Y-106780000D01*
X107165591Y-106784085D01*
G37*
G36*
X113265591Y-106784085D02*
G01*
X113299569Y-106794393D01*
X113330890Y-106811134D01*
X113358339Y-106833661D01*
X113380866Y-106861110D01*
X113397607Y-106892431D01*
X113407915Y-106926409D01*
X113412000Y-106967890D01*
X113412000Y-107569110D01*
X113407915Y-107610591D01*
X113397607Y-107644569D01*
X113380866Y-107675890D01*
X113358339Y-107703339D01*
X113330890Y-107725866D01*
X113299569Y-107742607D01*
X113265591Y-107752915D01*
X113224110Y-107757000D01*
X112547890Y-107757000D01*
X112506409Y-107752915D01*
X112472431Y-107742607D01*
X112441110Y-107725866D01*
X112413661Y-107703339D01*
X112391134Y-107675890D01*
X112374393Y-107644569D01*
X112364085Y-107610591D01*
X112360000Y-107569110D01*
X112360000Y-106967890D01*
X112364085Y-106926409D01*
X112374393Y-106892431D01*
X112391134Y-106861110D01*
X112413661Y-106833661D01*
X112441110Y-106811134D01*
X112472431Y-106794393D01*
X112506409Y-106784085D01*
X112547890Y-106780000D01*
X113224110Y-106780000D01*
X113265591Y-106784085D01*
G37*
G36*
X111765591Y-106784085D02*
G01*
X111799569Y-106794393D01*
X111830890Y-106811134D01*
X111858339Y-106833661D01*
X111880866Y-106861110D01*
X111897607Y-106892431D01*
X111907915Y-106926409D01*
X111912000Y-106967890D01*
X111912000Y-107569110D01*
X111907915Y-107610591D01*
X111897607Y-107644569D01*
X111880866Y-107675890D01*
X111858339Y-107703339D01*
X111830890Y-107725866D01*
X111799569Y-107742607D01*
X111765591Y-107752915D01*
X111724110Y-107757000D01*
X111047890Y-107757000D01*
X111006409Y-107752915D01*
X110972431Y-107742607D01*
X110941110Y-107725866D01*
X110913661Y-107703339D01*
X110891134Y-107675890D01*
X110874393Y-107644569D01*
X110864085Y-107610591D01*
X110860000Y-107569110D01*
X110860000Y-106967890D01*
X110864085Y-106926409D01*
X110874393Y-106892431D01*
X110891134Y-106861110D01*
X110913661Y-106833661D01*
X110941110Y-106811134D01*
X110972431Y-106794393D01*
X111006409Y-106784085D01*
X111047890Y-106780000D01*
X111724110Y-106780000D01*
X111765591Y-106784085D01*
G37*
G36*
X116165591Y-106784085D02*
G01*
X116199569Y-106794393D01*
X116230890Y-106811134D01*
X116258339Y-106833661D01*
X116280866Y-106861110D01*
X116297607Y-106892431D01*
X116307915Y-106926409D01*
X116312000Y-106967890D01*
X116312000Y-107569110D01*
X116307915Y-107610591D01*
X116297607Y-107644569D01*
X116280866Y-107675890D01*
X116258339Y-107703339D01*
X116230890Y-107725866D01*
X116199569Y-107742607D01*
X116165591Y-107752915D01*
X116124110Y-107757000D01*
X115447890Y-107757000D01*
X115406409Y-107752915D01*
X115372431Y-107742607D01*
X115341110Y-107725866D01*
X115313661Y-107703339D01*
X115291134Y-107675890D01*
X115274393Y-107644569D01*
X115264085Y-107610591D01*
X115260000Y-107569110D01*
X115260000Y-106967890D01*
X115264085Y-106926409D01*
X115274393Y-106892431D01*
X115291134Y-106861110D01*
X115313661Y-106833661D01*
X115341110Y-106811134D01*
X115372431Y-106794393D01*
X115406409Y-106784085D01*
X115447890Y-106780000D01*
X116124110Y-106780000D01*
X116165591Y-106784085D01*
G37*
G36*
X119189512Y-104689927D02*
G01*
X119338812Y-104719624D01*
X119502784Y-104787544D01*
X119650354Y-104886147D01*
X119775853Y-105011646D01*
X119874456Y-105159216D01*
X119942376Y-105323188D01*
X119964696Y-105435401D01*
X119976949Y-105497000D01*
X119977000Y-105497259D01*
X119977000Y-105674741D01*
X119942376Y-105848812D01*
X119874456Y-106012784D01*
X119775853Y-106160354D01*
X119650354Y-106285853D01*
X119502784Y-106384456D01*
X119338812Y-106452376D01*
X119189512Y-106482073D01*
X119164742Y-106487000D01*
X118987258Y-106487000D01*
X118962488Y-106482073D01*
X118813188Y-106452376D01*
X118649216Y-106384456D01*
X118501646Y-106285853D01*
X118376147Y-106160354D01*
X118277544Y-106012784D01*
X118209624Y-105848812D01*
X118175000Y-105674741D01*
X118175000Y-105497259D01*
X118175052Y-105497000D01*
X118187304Y-105435401D01*
X118209624Y-105323188D01*
X118277544Y-105159216D01*
X118376147Y-105011646D01*
X118501646Y-104886147D01*
X118649216Y-104787544D01*
X118813188Y-104719624D01*
X118962488Y-104689927D01*
X118987258Y-104685000D01*
X119164742Y-104685000D01*
X119189512Y-104689927D01*
G37*
G36*
X82670468Y-104959565D02*
G01*
X82709138Y-104971296D01*
X82744777Y-104990346D01*
X82776017Y-105015983D01*
X82801654Y-105047223D01*
X82820704Y-105082862D01*
X82832435Y-105121532D01*
X82837000Y-105167888D01*
X82837000Y-105819112D01*
X82832435Y-105865468D01*
X82820704Y-105904138D01*
X82801654Y-105939777D01*
X82776017Y-105971017D01*
X82744777Y-105996654D01*
X82709138Y-106015704D01*
X82670468Y-106027435D01*
X82624112Y-106032000D01*
X81547888Y-106032000D01*
X81501532Y-106027435D01*
X81462862Y-106015704D01*
X81427223Y-105996654D01*
X81395983Y-105971017D01*
X81370346Y-105939777D01*
X81351296Y-105904138D01*
X81339565Y-105865468D01*
X81335000Y-105819112D01*
X81335000Y-105167888D01*
X81339565Y-105121532D01*
X81351296Y-105082862D01*
X81370346Y-105047223D01*
X81395983Y-105015983D01*
X81427223Y-104990346D01*
X81462862Y-104971296D01*
X81501532Y-104959565D01*
X81547888Y-104955000D01*
X82624112Y-104955000D01*
X82670468Y-104959565D01*
G37*
G36*
X89765591Y-104659085D02*
G01*
X89799569Y-104669393D01*
X89830890Y-104686134D01*
X89858339Y-104708661D01*
X89880866Y-104736110D01*
X89897607Y-104767431D01*
X89907915Y-104801409D01*
X89912000Y-104842890D01*
X89912000Y-105444110D01*
X89907915Y-105485591D01*
X89897607Y-105519569D01*
X89880866Y-105550890D01*
X89858339Y-105578339D01*
X89830890Y-105600866D01*
X89799569Y-105617607D01*
X89765591Y-105627915D01*
X89724110Y-105632000D01*
X89047890Y-105632000D01*
X89006409Y-105627915D01*
X88972431Y-105617607D01*
X88941110Y-105600866D01*
X88913661Y-105578339D01*
X88891134Y-105550890D01*
X88874393Y-105519569D01*
X88864085Y-105485591D01*
X88860000Y-105444110D01*
X88860000Y-104842890D01*
X88864085Y-104801409D01*
X88874393Y-104767431D01*
X88891134Y-104736110D01*
X88913661Y-104708661D01*
X88941110Y-104686134D01*
X88972431Y-104669393D01*
X89006409Y-104659085D01*
X89047890Y-104655000D01*
X89724110Y-104655000D01*
X89765591Y-104659085D01*
G37*
G36*
X86965591Y-104659085D02*
G01*
X86999569Y-104669393D01*
X87030890Y-104686134D01*
X87058339Y-104708661D01*
X87080866Y-104736110D01*
X87097607Y-104767431D01*
X87107915Y-104801409D01*
X87112000Y-104842890D01*
X87112000Y-105444110D01*
X87107915Y-105485591D01*
X87097607Y-105519569D01*
X87080866Y-105550890D01*
X87058339Y-105578339D01*
X87030890Y-105600866D01*
X86999569Y-105617607D01*
X86965591Y-105627915D01*
X86924110Y-105632000D01*
X86247890Y-105632000D01*
X86206409Y-105627915D01*
X86172431Y-105617607D01*
X86141110Y-105600866D01*
X86113661Y-105578339D01*
X86091134Y-105550890D01*
X86074393Y-105519569D01*
X86064085Y-105485591D01*
X86060000Y-105444110D01*
X86060000Y-104842890D01*
X86064085Y-104801409D01*
X86074393Y-104767431D01*
X86091134Y-104736110D01*
X86113661Y-104708661D01*
X86141110Y-104686134D01*
X86172431Y-104669393D01*
X86206409Y-104659085D01*
X86247890Y-104655000D01*
X86924110Y-104655000D01*
X86965591Y-104659085D01*
G37*
G36*
X88365591Y-104659085D02*
G01*
X88399569Y-104669393D01*
X88430890Y-104686134D01*
X88458339Y-104708661D01*
X88480866Y-104736110D01*
X88497607Y-104767431D01*
X88507915Y-104801409D01*
X88512000Y-104842890D01*
X88512000Y-105444110D01*
X88507915Y-105485591D01*
X88497607Y-105519569D01*
X88480866Y-105550890D01*
X88458339Y-105578339D01*
X88430890Y-105600866D01*
X88399569Y-105617607D01*
X88365591Y-105627915D01*
X88324110Y-105632000D01*
X87647890Y-105632000D01*
X87606409Y-105627915D01*
X87572431Y-105617607D01*
X87541110Y-105600866D01*
X87513661Y-105578339D01*
X87491134Y-105550890D01*
X87474393Y-105519569D01*
X87464085Y-105485591D01*
X87460000Y-105444110D01*
X87460000Y-104842890D01*
X87464085Y-104801409D01*
X87474393Y-104767431D01*
X87491134Y-104736110D01*
X87513661Y-104708661D01*
X87541110Y-104686134D01*
X87572431Y-104669393D01*
X87606409Y-104659085D01*
X87647890Y-104655000D01*
X88324110Y-104655000D01*
X88365591Y-104659085D01*
G37*
G36*
X85565591Y-104659085D02*
G01*
X85599569Y-104669393D01*
X85630890Y-104686134D01*
X85658339Y-104708661D01*
X85680866Y-104736110D01*
X85697607Y-104767431D01*
X85707915Y-104801409D01*
X85712000Y-104842890D01*
X85712000Y-105444110D01*
X85707915Y-105485591D01*
X85697607Y-105519569D01*
X85680866Y-105550890D01*
X85658339Y-105578339D01*
X85630890Y-105600866D01*
X85599569Y-105617607D01*
X85565591Y-105627915D01*
X85524110Y-105632000D01*
X84847890Y-105632000D01*
X84806409Y-105627915D01*
X84772431Y-105617607D01*
X84741110Y-105600866D01*
X84713661Y-105578339D01*
X84691134Y-105550890D01*
X84674393Y-105519569D01*
X84664085Y-105485591D01*
X84660000Y-105444110D01*
X84660000Y-104842890D01*
X84664085Y-104801409D01*
X84674393Y-104767431D01*
X84691134Y-104736110D01*
X84713661Y-104708661D01*
X84741110Y-104686134D01*
X84772431Y-104669393D01*
X84806409Y-104659085D01*
X84847890Y-104655000D01*
X85524110Y-104655000D01*
X85565591Y-104659085D01*
G37*
G36*
X84165591Y-104659085D02*
G01*
X84199569Y-104669393D01*
X84230890Y-104686134D01*
X84258339Y-104708661D01*
X84280866Y-104736110D01*
X84297607Y-104767431D01*
X84307915Y-104801409D01*
X84312000Y-104842890D01*
X84312000Y-105444110D01*
X84307915Y-105485591D01*
X84297607Y-105519569D01*
X84280866Y-105550890D01*
X84258339Y-105578339D01*
X84230890Y-105600866D01*
X84199569Y-105617607D01*
X84165591Y-105627915D01*
X84124110Y-105632000D01*
X83447890Y-105632000D01*
X83406409Y-105627915D01*
X83372431Y-105617607D01*
X83341110Y-105600866D01*
X83313661Y-105578339D01*
X83291134Y-105550890D01*
X83274393Y-105519569D01*
X83264085Y-105485591D01*
X83260000Y-105444110D01*
X83260000Y-104842890D01*
X83264085Y-104801409D01*
X83274393Y-104767431D01*
X83291134Y-104736110D01*
X83313661Y-104708661D01*
X83341110Y-104686134D01*
X83372431Y-104669393D01*
X83406409Y-104659085D01*
X83447890Y-104655000D01*
X84124110Y-104655000D01*
X84165591Y-104659085D01*
G37*
G36*
X80541000Y-105497000D02*
G01*
X76839000Y-105497000D01*
X76839000Y-103895000D01*
X80541000Y-103895000D01*
X80541000Y-105497000D01*
G37*
G36*
X115336000Y-104697000D02*
G01*
X94114000Y-104697000D01*
X94114000Y-102995000D01*
X115336000Y-102995000D01*
X115336000Y-104697000D01*
G37*
G36*
X82670468Y-103084565D02*
G01*
X82709138Y-103096296D01*
X82744777Y-103115346D01*
X82776017Y-103140983D01*
X82801654Y-103172223D01*
X82820704Y-103207862D01*
X82832435Y-103246532D01*
X82837000Y-103292888D01*
X82837000Y-103944112D01*
X82832435Y-103990468D01*
X82820704Y-104029138D01*
X82801654Y-104064777D01*
X82776017Y-104096017D01*
X82744777Y-104121654D01*
X82709138Y-104140704D01*
X82670468Y-104152435D01*
X82624112Y-104157000D01*
X81547888Y-104157000D01*
X81501532Y-104152435D01*
X81462862Y-104140704D01*
X81427223Y-104121654D01*
X81395983Y-104096017D01*
X81370346Y-104064777D01*
X81351296Y-104029138D01*
X81339565Y-103990468D01*
X81335000Y-103944112D01*
X81335000Y-103292888D01*
X81339565Y-103246532D01*
X81351296Y-103207862D01*
X81370346Y-103172223D01*
X81395983Y-103140983D01*
X81427223Y-103115346D01*
X81462862Y-103096296D01*
X81501532Y-103084565D01*
X81547888Y-103080000D01*
X82624112Y-103080000D01*
X82670468Y-103084565D01*
G37*
G36*
X84165591Y-103084085D02*
G01*
X84199569Y-103094393D01*
X84230890Y-103111134D01*
X84258339Y-103133661D01*
X84280866Y-103161110D01*
X84297607Y-103192431D01*
X84307915Y-103226409D01*
X84312000Y-103267890D01*
X84312000Y-103869110D01*
X84307915Y-103910591D01*
X84297607Y-103944569D01*
X84280866Y-103975890D01*
X84258339Y-104003339D01*
X84230890Y-104025866D01*
X84199569Y-104042607D01*
X84165591Y-104052915D01*
X84124110Y-104057000D01*
X83447890Y-104057000D01*
X83406409Y-104052915D01*
X83372431Y-104042607D01*
X83341110Y-104025866D01*
X83313661Y-104003339D01*
X83291134Y-103975890D01*
X83274393Y-103944569D01*
X83264085Y-103910591D01*
X83260000Y-103869110D01*
X83260000Y-103267890D01*
X83264085Y-103226409D01*
X83274393Y-103192431D01*
X83291134Y-103161110D01*
X83313661Y-103133661D01*
X83341110Y-103111134D01*
X83372431Y-103094393D01*
X83406409Y-103084085D01*
X83447890Y-103080000D01*
X84124110Y-103080000D01*
X84165591Y-103084085D01*
G37*
G36*
X88365591Y-103084085D02*
G01*
X88399569Y-103094393D01*
X88430890Y-103111134D01*
X88458339Y-103133661D01*
X88480866Y-103161110D01*
X88497607Y-103192431D01*
X88507915Y-103226409D01*
X88512000Y-103267890D01*
X88512000Y-103869110D01*
X88507915Y-103910591D01*
X88497607Y-103944569D01*
X88480866Y-103975890D01*
X88458339Y-104003339D01*
X88430890Y-104025866D01*
X88399569Y-104042607D01*
X88365591Y-104052915D01*
X88324110Y-104057000D01*
X87647890Y-104057000D01*
X87606409Y-104052915D01*
X87572431Y-104042607D01*
X87541110Y-104025866D01*
X87513661Y-104003339D01*
X87491134Y-103975890D01*
X87474393Y-103944569D01*
X87464085Y-103910591D01*
X87460000Y-103869110D01*
X87460000Y-103267890D01*
X87464085Y-103226409D01*
X87474393Y-103192431D01*
X87491134Y-103161110D01*
X87513661Y-103133661D01*
X87541110Y-103111134D01*
X87572431Y-103094393D01*
X87606409Y-103084085D01*
X87647890Y-103080000D01*
X88324110Y-103080000D01*
X88365591Y-103084085D01*
G37*
G36*
X86965591Y-103084085D02*
G01*
X86999569Y-103094393D01*
X87030890Y-103111134D01*
X87058339Y-103133661D01*
X87080866Y-103161110D01*
X87097607Y-103192431D01*
X87107915Y-103226409D01*
X87112000Y-103267890D01*
X87112000Y-103869110D01*
X87107915Y-103910591D01*
X87097607Y-103944569D01*
X87080866Y-103975890D01*
X87058339Y-104003339D01*
X87030890Y-104025866D01*
X86999569Y-104042607D01*
X86965591Y-104052915D01*
X86924110Y-104057000D01*
X86247890Y-104057000D01*
X86206409Y-104052915D01*
X86172431Y-104042607D01*
X86141110Y-104025866D01*
X86113661Y-104003339D01*
X86091134Y-103975890D01*
X86074393Y-103944569D01*
X86064085Y-103910591D01*
X86060000Y-103869110D01*
X86060000Y-103267890D01*
X86064085Y-103226409D01*
X86074393Y-103192431D01*
X86091134Y-103161110D01*
X86113661Y-103133661D01*
X86141110Y-103111134D01*
X86172431Y-103094393D01*
X86206409Y-103084085D01*
X86247890Y-103080000D01*
X86924110Y-103080000D01*
X86965591Y-103084085D01*
G37*
G36*
X85565591Y-103084085D02*
G01*
X85599569Y-103094393D01*
X85630890Y-103111134D01*
X85658339Y-103133661D01*
X85680866Y-103161110D01*
X85697607Y-103192431D01*
X85707915Y-103226409D01*
X85712000Y-103267890D01*
X85712000Y-103869110D01*
X85707915Y-103910591D01*
X85697607Y-103944569D01*
X85680866Y-103975890D01*
X85658339Y-104003339D01*
X85630890Y-104025866D01*
X85599569Y-104042607D01*
X85565591Y-104052915D01*
X85524110Y-104057000D01*
X84847890Y-104057000D01*
X84806409Y-104052915D01*
X84772431Y-104042607D01*
X84741110Y-104025866D01*
X84713661Y-104003339D01*
X84691134Y-103975890D01*
X84674393Y-103944569D01*
X84664085Y-103910591D01*
X84660000Y-103869110D01*
X84660000Y-103267890D01*
X84664085Y-103226409D01*
X84674393Y-103192431D01*
X84691134Y-103161110D01*
X84713661Y-103133661D01*
X84741110Y-103111134D01*
X84772431Y-103094393D01*
X84806409Y-103084085D01*
X84847890Y-103080000D01*
X85524110Y-103080000D01*
X85565591Y-103084085D01*
G37*
G36*
X89765591Y-103084085D02*
G01*
X89799569Y-103094393D01*
X89830890Y-103111134D01*
X89858339Y-103133661D01*
X89880866Y-103161110D01*
X89897607Y-103192431D01*
X89907915Y-103226409D01*
X89912000Y-103267890D01*
X89912000Y-103869110D01*
X89907915Y-103910591D01*
X89897607Y-103944569D01*
X89880866Y-103975890D01*
X89858339Y-104003339D01*
X89830890Y-104025866D01*
X89799569Y-104042607D01*
X89765591Y-104052915D01*
X89724110Y-104057000D01*
X89047890Y-104057000D01*
X89006409Y-104052915D01*
X88972431Y-104042607D01*
X88941110Y-104025866D01*
X88913661Y-104003339D01*
X88891134Y-103975890D01*
X88874393Y-103944569D01*
X88864085Y-103910591D01*
X88860000Y-103869110D01*
X88860000Y-103267890D01*
X88864085Y-103226409D01*
X88874393Y-103192431D01*
X88891134Y-103161110D01*
X88913661Y-103133661D01*
X88941110Y-103111134D01*
X88972431Y-103094393D01*
X89006409Y-103084085D01*
X89047890Y-103080000D01*
X89724110Y-103080000D01*
X89765591Y-103084085D01*
G37*
G36*
X119189512Y-102149927D02*
G01*
X119338812Y-102179624D01*
X119502784Y-102247544D01*
X119650354Y-102346147D01*
X119775853Y-102471646D01*
X119874456Y-102619216D01*
X119942376Y-102783188D01*
X119972073Y-102932488D01*
X119977000Y-102957258D01*
X119977000Y-103134742D01*
X119973659Y-103151539D01*
X119942376Y-103308812D01*
X119874456Y-103472784D01*
X119775853Y-103620354D01*
X119650354Y-103745853D01*
X119502784Y-103844456D01*
X119338812Y-103912376D01*
X119189512Y-103942073D01*
X119164742Y-103947000D01*
X118987258Y-103947000D01*
X118962488Y-103942073D01*
X118813188Y-103912376D01*
X118649216Y-103844456D01*
X118501646Y-103745853D01*
X118376147Y-103620354D01*
X118277544Y-103472784D01*
X118209624Y-103308812D01*
X118178341Y-103151539D01*
X118175000Y-103134742D01*
X118175000Y-102957258D01*
X118179927Y-102932488D01*
X118209624Y-102783188D01*
X118277544Y-102619216D01*
X118376147Y-102471646D01*
X118501646Y-102346147D01*
X118649216Y-102247544D01*
X118813188Y-102179624D01*
X118962488Y-102149927D01*
X118987258Y-102145000D01*
X119164742Y-102145000D01*
X119189512Y-102149927D01*
G37*
G36*
X77737000Y-103507000D02*
G01*
X75635000Y-103507000D01*
X75635000Y-102205000D01*
X77737000Y-102205000D01*
X77737000Y-103507000D01*
G37*
G36*
X87087000Y-102707000D02*
G01*
X85485000Y-102707000D01*
X85485000Y-101005000D01*
X87087000Y-101005000D01*
X87087000Y-102707000D01*
G37*
G36*
X119189512Y-99609927D02*
G01*
X119338812Y-99639624D01*
X119502784Y-99707544D01*
X119650354Y-99806147D01*
X119775853Y-99931646D01*
X119874456Y-100079216D01*
X119942376Y-100243188D01*
X119977000Y-100417259D01*
X119977000Y-100594741D01*
X119942376Y-100768812D01*
X119874456Y-100932784D01*
X119775853Y-101080354D01*
X119650354Y-101205853D01*
X119502784Y-101304456D01*
X119338812Y-101372376D01*
X119189512Y-101402073D01*
X119164742Y-101407000D01*
X118987258Y-101407000D01*
X118962488Y-101402073D01*
X118813188Y-101372376D01*
X118649216Y-101304456D01*
X118501646Y-101205853D01*
X118376147Y-101080354D01*
X118277544Y-100932784D01*
X118209624Y-100768812D01*
X118175000Y-100594741D01*
X118175000Y-100417259D01*
X118209624Y-100243188D01*
X118277544Y-100079216D01*
X118376147Y-99931646D01*
X118501646Y-99806147D01*
X118649216Y-99707544D01*
X118813188Y-99639624D01*
X118962488Y-99609927D01*
X118987258Y-99605000D01*
X119164742Y-99605000D01*
X119189512Y-99609927D01*
G37*
G36*
X76523142Y-97274242D02*
G01*
X76671101Y-97335529D01*
X76804255Y-97424499D01*
X76917501Y-97537745D01*
X77006471Y-97670899D01*
X77067758Y-97818858D01*
X77099000Y-97975925D01*
X77099000Y-98136075D01*
X77067758Y-98293142D01*
X77006471Y-98441101D01*
X76917501Y-98574255D01*
X76804255Y-98687501D01*
X76671101Y-98776471D01*
X76523142Y-98837758D01*
X76366075Y-98869000D01*
X76205925Y-98869000D01*
X76048858Y-98837758D01*
X75900899Y-98776471D01*
X75767745Y-98687501D01*
X75654499Y-98574255D01*
X75565529Y-98441101D01*
X75504242Y-98293142D01*
X75473000Y-98136075D01*
X75473000Y-97975925D01*
X75504242Y-97818858D01*
X75565529Y-97670899D01*
X75654499Y-97537745D01*
X75767745Y-97424499D01*
X75900899Y-97335529D01*
X76048858Y-97274242D01*
X76205925Y-97243000D01*
X76366075Y-97243000D01*
X76523142Y-97274242D01*
G37*
G36*
X119189512Y-97069927D02*
G01*
X119338812Y-97099624D01*
X119502784Y-97167544D01*
X119650354Y-97266147D01*
X119775853Y-97391646D01*
X119874456Y-97539216D01*
X119942376Y-97703188D01*
X119977000Y-97877259D01*
X119977000Y-98054741D01*
X119942376Y-98228812D01*
X119874456Y-98392784D01*
X119775853Y-98540354D01*
X119650354Y-98665853D01*
X119502784Y-98764456D01*
X119338812Y-98832376D01*
X119189512Y-98862073D01*
X119164742Y-98867000D01*
X118987258Y-98867000D01*
X118962488Y-98862073D01*
X118813188Y-98832376D01*
X118649216Y-98764456D01*
X118501646Y-98665853D01*
X118376147Y-98540354D01*
X118277544Y-98392784D01*
X118209624Y-98228812D01*
X118175000Y-98054741D01*
X118175000Y-97877259D01*
X118209624Y-97703188D01*
X118277544Y-97539216D01*
X118376147Y-97391646D01*
X118501646Y-97266147D01*
X118649216Y-97167544D01*
X118813188Y-97099624D01*
X118962488Y-97069927D01*
X118987258Y-97065000D01*
X119164742Y-97065000D01*
X119189512Y-97069927D01*
G37*
G36*
X87937000Y-97657000D02*
G01*
X86235000Y-97657000D01*
X86235000Y-96855000D01*
X87937000Y-96855000D01*
X87937000Y-97657000D01*
G37*
G36*
X87937000Y-96557000D02*
G01*
X86235000Y-96557000D01*
X86235000Y-95755000D01*
X87937000Y-95755000D01*
X87937000Y-96557000D01*
G37*
G36*
X119189512Y-94529927D02*
G01*
X119338812Y-94559624D01*
X119502784Y-94627544D01*
X119650354Y-94726147D01*
X119775853Y-94851646D01*
X119874456Y-94999216D01*
X119942376Y-95163188D01*
X119977000Y-95337259D01*
X119977000Y-95514741D01*
X119942376Y-95688812D01*
X119874456Y-95852784D01*
X119775853Y-96000354D01*
X119650354Y-96125853D01*
X119502784Y-96224456D01*
X119338812Y-96292376D01*
X119189512Y-96322073D01*
X119164742Y-96327000D01*
X118987258Y-96327000D01*
X118962488Y-96322073D01*
X118813188Y-96292376D01*
X118649216Y-96224456D01*
X118501646Y-96125853D01*
X118376147Y-96000354D01*
X118277544Y-95852784D01*
X118209624Y-95688812D01*
X118175000Y-95514741D01*
X118175000Y-95337259D01*
X118209624Y-95163188D01*
X118277544Y-94999216D01*
X118376147Y-94851646D01*
X118501646Y-94726147D01*
X118649216Y-94627544D01*
X118813188Y-94559624D01*
X118962488Y-94529927D01*
X118987258Y-94525000D01*
X119164742Y-94525000D01*
X119189512Y-94529927D01*
G37*
G36*
X87937000Y-95457000D02*
G01*
X86235000Y-95457000D01*
X86235000Y-94655000D01*
X87937000Y-94655000D01*
X87937000Y-95457000D01*
G37*
G36*
X89540591Y-93434085D02*
G01*
X89574569Y-93444393D01*
X89605890Y-93461134D01*
X89633339Y-93483661D01*
X89655866Y-93511110D01*
X89672607Y-93542431D01*
X89682915Y-93576409D01*
X89687000Y-93617890D01*
X89687000Y-94294110D01*
X89682915Y-94335591D01*
X89672607Y-94369569D01*
X89655866Y-94400890D01*
X89633339Y-94428339D01*
X89605890Y-94450866D01*
X89574569Y-94467607D01*
X89540591Y-94477915D01*
X89499110Y-94482000D01*
X88897890Y-94482000D01*
X88856409Y-94477915D01*
X88822431Y-94467607D01*
X88791110Y-94450866D01*
X88763661Y-94428339D01*
X88741134Y-94400890D01*
X88724393Y-94369569D01*
X88714085Y-94335591D01*
X88710000Y-94294110D01*
X88710000Y-93617890D01*
X88714085Y-93576409D01*
X88724393Y-93542431D01*
X88741134Y-93511110D01*
X88763661Y-93483661D01*
X88791110Y-93461134D01*
X88822431Y-93444393D01*
X88856409Y-93434085D01*
X88897890Y-93430000D01*
X89499110Y-93430000D01*
X89540591Y-93434085D01*
G37*
G36*
X91115591Y-93434085D02*
G01*
X91149569Y-93444393D01*
X91180890Y-93461134D01*
X91208339Y-93483661D01*
X91230866Y-93511110D01*
X91247607Y-93542431D01*
X91257915Y-93576409D01*
X91262000Y-93617890D01*
X91262000Y-94294110D01*
X91257915Y-94335591D01*
X91247607Y-94369569D01*
X91230866Y-94400890D01*
X91208339Y-94428339D01*
X91180890Y-94450866D01*
X91149569Y-94467607D01*
X91115591Y-94477915D01*
X91074110Y-94482000D01*
X90472890Y-94482000D01*
X90431409Y-94477915D01*
X90397431Y-94467607D01*
X90366110Y-94450866D01*
X90338661Y-94428339D01*
X90316134Y-94400890D01*
X90299393Y-94369569D01*
X90289085Y-94335591D01*
X90285000Y-94294110D01*
X90285000Y-93617890D01*
X90289085Y-93576409D01*
X90299393Y-93542431D01*
X90316134Y-93511110D01*
X90338661Y-93483661D01*
X90366110Y-93461134D01*
X90397431Y-93444393D01*
X90431409Y-93434085D01*
X90472890Y-93430000D01*
X91074110Y-93430000D01*
X91115591Y-93434085D01*
G37*
G36*
X87937000Y-94357000D02*
G01*
X86235000Y-94357000D01*
X86235000Y-93555000D01*
X87937000Y-93555000D01*
X87937000Y-94357000D01*
G37*
G36*
X119189512Y-91989927D02*
G01*
X119338812Y-92019624D01*
X119502784Y-92087544D01*
X119650354Y-92186147D01*
X119775853Y-92311646D01*
X119874456Y-92459216D01*
X119942376Y-92623188D01*
X119977000Y-92797259D01*
X119977000Y-92974741D01*
X119942376Y-93148812D01*
X119874456Y-93312784D01*
X119775853Y-93460354D01*
X119650354Y-93585853D01*
X119502784Y-93684456D01*
X119338812Y-93752376D01*
X119189512Y-93782073D01*
X119164742Y-93787000D01*
X118987258Y-93787000D01*
X118962488Y-93782073D01*
X118813188Y-93752376D01*
X118649216Y-93684456D01*
X118501646Y-93585853D01*
X118376147Y-93460354D01*
X118277544Y-93312784D01*
X118209624Y-93148812D01*
X118175000Y-92974741D01*
X118175000Y-92797259D01*
X118209624Y-92623188D01*
X118277544Y-92459216D01*
X118376147Y-92311646D01*
X118501646Y-92186147D01*
X118649216Y-92087544D01*
X118813188Y-92019624D01*
X118962488Y-91989927D01*
X118987258Y-91985000D01*
X119164742Y-91985000D01*
X119189512Y-91989927D01*
G37*
G36*
X87937000Y-93257000D02*
G01*
X86235000Y-93257000D01*
X86235000Y-92455000D01*
X87937000Y-92455000D01*
X87937000Y-93257000D01*
G37*
G36*
X115336000Y-92937000D02*
G01*
X94114000Y-92937000D01*
X94114000Y-91235000D01*
X115336000Y-91235000D01*
X115336000Y-92937000D01*
G37*
G36*
X87937000Y-92157000D02*
G01*
X86235000Y-92157000D01*
X86235000Y-91355000D01*
X87937000Y-91355000D01*
X87937000Y-92157000D01*
G37*
G36*
X119189512Y-89449927D02*
G01*
X119338812Y-89479624D01*
X119502784Y-89547544D01*
X119650354Y-89646147D01*
X119775853Y-89771646D01*
X119874456Y-89919216D01*
X119942376Y-90083188D01*
X119977000Y-90257259D01*
X119977000Y-90434741D01*
X119942376Y-90608812D01*
X119874456Y-90772784D01*
X119775853Y-90920354D01*
X119650354Y-91045853D01*
X119502784Y-91144456D01*
X119338812Y-91212376D01*
X119189512Y-91242073D01*
X119164742Y-91247000D01*
X118987258Y-91247000D01*
X118962488Y-91242073D01*
X118813188Y-91212376D01*
X118649216Y-91144456D01*
X118501646Y-91045853D01*
X118376147Y-90920354D01*
X118277544Y-90772784D01*
X118209624Y-90608812D01*
X118175000Y-90434741D01*
X118175000Y-90257259D01*
X118209624Y-90083188D01*
X118277544Y-89919216D01*
X118376147Y-89771646D01*
X118501646Y-89646147D01*
X118649216Y-89547544D01*
X118813188Y-89479624D01*
X118962488Y-89449927D01*
X118987258Y-89445000D01*
X119164742Y-89445000D01*
X119189512Y-89449927D01*
G37*
G36*
X87937000Y-91057000D02*
G01*
X86235000Y-91057000D01*
X86235000Y-90255000D01*
X87937000Y-90255000D01*
X87937000Y-91057000D01*
G37*
G36*
X76523142Y-89274242D02*
G01*
X76671101Y-89335529D01*
X76804255Y-89424499D01*
X76917501Y-89537745D01*
X77006471Y-89670899D01*
X77067758Y-89818858D01*
X77099000Y-89975925D01*
X77099000Y-90136075D01*
X77067758Y-90293142D01*
X77006471Y-90441101D01*
X76917501Y-90574255D01*
X76804255Y-90687501D01*
X76671101Y-90776471D01*
X76523142Y-90837758D01*
X76366075Y-90869000D01*
X76205925Y-90869000D01*
X76048858Y-90837758D01*
X75900899Y-90776471D01*
X75767745Y-90687501D01*
X75654499Y-90574255D01*
X75565529Y-90441101D01*
X75504242Y-90293142D01*
X75473000Y-90136075D01*
X75473000Y-89975925D01*
X75504242Y-89818858D01*
X75565529Y-89670899D01*
X75654499Y-89537745D01*
X75767745Y-89424499D01*
X75900899Y-89335529D01*
X76048858Y-89274242D01*
X76205925Y-89243000D01*
X76366075Y-89243000D01*
X76523142Y-89274242D01*
G37*
G36*
X103453091Y-89034085D02*
G01*
X103487069Y-89044393D01*
X103518390Y-89061134D01*
X103545839Y-89083661D01*
X103568366Y-89111110D01*
X103585107Y-89142431D01*
X103595415Y-89176409D01*
X103599500Y-89217890D01*
X103599500Y-89894110D01*
X103595415Y-89935591D01*
X103585107Y-89969569D01*
X103568366Y-90000890D01*
X103545839Y-90028339D01*
X103518390Y-90050866D01*
X103487069Y-90067607D01*
X103453091Y-90077915D01*
X103411610Y-90082000D01*
X102810390Y-90082000D01*
X102768909Y-90077915D01*
X102734931Y-90067607D01*
X102703610Y-90050866D01*
X102676161Y-90028339D01*
X102653634Y-90000890D01*
X102636893Y-89969569D01*
X102626585Y-89935591D01*
X102622500Y-89894110D01*
X102622500Y-89217890D01*
X102626585Y-89176409D01*
X102636893Y-89142431D01*
X102653634Y-89111110D01*
X102676161Y-89083661D01*
X102703610Y-89061134D01*
X102734931Y-89044393D01*
X102768909Y-89034085D01*
X102810390Y-89030000D01*
X103411610Y-89030000D01*
X103453091Y-89034085D01*
G37*
G36*
X109240591Y-89034085D02*
G01*
X109274569Y-89044393D01*
X109305890Y-89061134D01*
X109333339Y-89083661D01*
X109355866Y-89111110D01*
X109372607Y-89142431D01*
X109382915Y-89176409D01*
X109387000Y-89217890D01*
X109387000Y-89894110D01*
X109382915Y-89935591D01*
X109372607Y-89969569D01*
X109355866Y-90000890D01*
X109333339Y-90028339D01*
X109305890Y-90050866D01*
X109274569Y-90067607D01*
X109240591Y-90077915D01*
X109199110Y-90082000D01*
X108597890Y-90082000D01*
X108556409Y-90077915D01*
X108522431Y-90067607D01*
X108491110Y-90050866D01*
X108463661Y-90028339D01*
X108441134Y-90000890D01*
X108424393Y-89969569D01*
X108414085Y-89935591D01*
X108410000Y-89894110D01*
X108410000Y-89217890D01*
X108414085Y-89176409D01*
X108424393Y-89142431D01*
X108441134Y-89111110D01*
X108463661Y-89083661D01*
X108491110Y-89061134D01*
X108522431Y-89044393D01*
X108556409Y-89034085D01*
X108597890Y-89030000D01*
X109199110Y-89030000D01*
X109240591Y-89034085D01*
G37*
G36*
X116715591Y-89034085D02*
G01*
X116749569Y-89044393D01*
X116780890Y-89061134D01*
X116808339Y-89083661D01*
X116830866Y-89111110D01*
X116847607Y-89142431D01*
X116857915Y-89176409D01*
X116862000Y-89217890D01*
X116862000Y-89894110D01*
X116857915Y-89935591D01*
X116847607Y-89969569D01*
X116830866Y-90000890D01*
X116808339Y-90028339D01*
X116780890Y-90050866D01*
X116749569Y-90067607D01*
X116715591Y-90077915D01*
X116674110Y-90082000D01*
X116072890Y-90082000D01*
X116031409Y-90077915D01*
X115997431Y-90067607D01*
X115966110Y-90050866D01*
X115938661Y-90028339D01*
X115916134Y-90000890D01*
X115899393Y-89969569D01*
X115889085Y-89935591D01*
X115885000Y-89894110D01*
X115885000Y-89217890D01*
X115889085Y-89176409D01*
X115899393Y-89142431D01*
X115916134Y-89111110D01*
X115938661Y-89083661D01*
X115966110Y-89061134D01*
X115997431Y-89044393D01*
X116031409Y-89034085D01*
X116072890Y-89030000D01*
X116674110Y-89030000D01*
X116715591Y-89034085D01*
G37*
G36*
X115140591Y-89034085D02*
G01*
X115174569Y-89044393D01*
X115205890Y-89061134D01*
X115233339Y-89083661D01*
X115255866Y-89111110D01*
X115272607Y-89142431D01*
X115282915Y-89176409D01*
X115287000Y-89217890D01*
X115287000Y-89894110D01*
X115282915Y-89935591D01*
X115272607Y-89969569D01*
X115255866Y-90000890D01*
X115233339Y-90028339D01*
X115205890Y-90050866D01*
X115174569Y-90067607D01*
X115140591Y-90077915D01*
X115099110Y-90082000D01*
X114497890Y-90082000D01*
X114456409Y-90077915D01*
X114422431Y-90067607D01*
X114391110Y-90050866D01*
X114363661Y-90028339D01*
X114341134Y-90000890D01*
X114324393Y-89969569D01*
X114314085Y-89935591D01*
X114310000Y-89894110D01*
X114310000Y-89217890D01*
X114314085Y-89176409D01*
X114324393Y-89142431D01*
X114341134Y-89111110D01*
X114363661Y-89083661D01*
X114391110Y-89061134D01*
X114422431Y-89044393D01*
X114456409Y-89034085D01*
X114497890Y-89030000D01*
X115099110Y-89030000D01*
X115140591Y-89034085D01*
G37*
G36*
X113715591Y-89034085D02*
G01*
X113749569Y-89044393D01*
X113780890Y-89061134D01*
X113808339Y-89083661D01*
X113830866Y-89111110D01*
X113847607Y-89142431D01*
X113857915Y-89176409D01*
X113862000Y-89217890D01*
X113862000Y-89894110D01*
X113857915Y-89935591D01*
X113847607Y-89969569D01*
X113830866Y-90000890D01*
X113808339Y-90028339D01*
X113780890Y-90050866D01*
X113749569Y-90067607D01*
X113715591Y-90077915D01*
X113674110Y-90082000D01*
X113072890Y-90082000D01*
X113031409Y-90077915D01*
X112997431Y-90067607D01*
X112966110Y-90050866D01*
X112938661Y-90028339D01*
X112916134Y-90000890D01*
X112899393Y-89969569D01*
X112889085Y-89935591D01*
X112885000Y-89894110D01*
X112885000Y-89217890D01*
X112889085Y-89176409D01*
X112899393Y-89142431D01*
X112916134Y-89111110D01*
X112938661Y-89083661D01*
X112966110Y-89061134D01*
X112997431Y-89044393D01*
X113031409Y-89034085D01*
X113072890Y-89030000D01*
X113674110Y-89030000D01*
X113715591Y-89034085D01*
G37*
G36*
X112140591Y-89034085D02*
G01*
X112174569Y-89044393D01*
X112205890Y-89061134D01*
X112233339Y-89083661D01*
X112255866Y-89111110D01*
X112272607Y-89142431D01*
X112282915Y-89176409D01*
X112287000Y-89217890D01*
X112287000Y-89894110D01*
X112282915Y-89935591D01*
X112272607Y-89969569D01*
X112255866Y-90000890D01*
X112233339Y-90028339D01*
X112205890Y-90050866D01*
X112174569Y-90067607D01*
X112140591Y-90077915D01*
X112099110Y-90082000D01*
X111497890Y-90082000D01*
X111456409Y-90077915D01*
X111422431Y-90067607D01*
X111391110Y-90050866D01*
X111363661Y-90028339D01*
X111341134Y-90000890D01*
X111324393Y-89969569D01*
X111314085Y-89935591D01*
X111310000Y-89894110D01*
X111310000Y-89217890D01*
X111314085Y-89176409D01*
X111324393Y-89142431D01*
X111341134Y-89111110D01*
X111363661Y-89083661D01*
X111391110Y-89061134D01*
X111422431Y-89044393D01*
X111456409Y-89034085D01*
X111497890Y-89030000D01*
X112099110Y-89030000D01*
X112140591Y-89034085D01*
G37*
G36*
X110815591Y-89034085D02*
G01*
X110849569Y-89044393D01*
X110880890Y-89061134D01*
X110908339Y-89083661D01*
X110930866Y-89111110D01*
X110947607Y-89142431D01*
X110957915Y-89176409D01*
X110962000Y-89217890D01*
X110962000Y-89894110D01*
X110957915Y-89935591D01*
X110947607Y-89969569D01*
X110930866Y-90000890D01*
X110908339Y-90028339D01*
X110880890Y-90050866D01*
X110849569Y-90067607D01*
X110815591Y-90077915D01*
X110774110Y-90082000D01*
X110172890Y-90082000D01*
X110131409Y-90077915D01*
X110097431Y-90067607D01*
X110066110Y-90050866D01*
X110038661Y-90028339D01*
X110016134Y-90000890D01*
X109999393Y-89969569D01*
X109989085Y-89935591D01*
X109985000Y-89894110D01*
X109985000Y-89217890D01*
X109989085Y-89176409D01*
X109999393Y-89142431D01*
X110016134Y-89111110D01*
X110038661Y-89083661D01*
X110066110Y-89061134D01*
X110097431Y-89044393D01*
X110131409Y-89034085D01*
X110172890Y-89030000D01*
X110774110Y-89030000D01*
X110815591Y-89034085D01*
G37*
G36*
X106340591Y-89034085D02*
G01*
X106374569Y-89044393D01*
X106405890Y-89061134D01*
X106433339Y-89083661D01*
X106455866Y-89111110D01*
X106472607Y-89142431D01*
X106482915Y-89176409D01*
X106487000Y-89217890D01*
X106487000Y-89894110D01*
X106482915Y-89935591D01*
X106472607Y-89969569D01*
X106455866Y-90000890D01*
X106433339Y-90028339D01*
X106405890Y-90050866D01*
X106374569Y-90067607D01*
X106340591Y-90077915D01*
X106299110Y-90082000D01*
X105697890Y-90082000D01*
X105656409Y-90077915D01*
X105622431Y-90067607D01*
X105591110Y-90050866D01*
X105563661Y-90028339D01*
X105541134Y-90000890D01*
X105524393Y-89969569D01*
X105514085Y-89935591D01*
X105510000Y-89894110D01*
X105510000Y-89217890D01*
X105514085Y-89176409D01*
X105524393Y-89142431D01*
X105541134Y-89111110D01*
X105563661Y-89083661D01*
X105591110Y-89061134D01*
X105622431Y-89044393D01*
X105656409Y-89034085D01*
X105697890Y-89030000D01*
X106299110Y-89030000D01*
X106340591Y-89034085D01*
G37*
G36*
X105028091Y-89034085D02*
G01*
X105062069Y-89044393D01*
X105093390Y-89061134D01*
X105120839Y-89083661D01*
X105143366Y-89111110D01*
X105160107Y-89142431D01*
X105170415Y-89176409D01*
X105174500Y-89217890D01*
X105174500Y-89894110D01*
X105170415Y-89935591D01*
X105160107Y-89969569D01*
X105143366Y-90000890D01*
X105120839Y-90028339D01*
X105093390Y-90050866D01*
X105062069Y-90067607D01*
X105028091Y-90077915D01*
X104986610Y-90082000D01*
X104385390Y-90082000D01*
X104343909Y-90077915D01*
X104309931Y-90067607D01*
X104278610Y-90050866D01*
X104251161Y-90028339D01*
X104228634Y-90000890D01*
X104211893Y-89969569D01*
X104201585Y-89935591D01*
X104197500Y-89894110D01*
X104197500Y-89217890D01*
X104201585Y-89176409D01*
X104211893Y-89142431D01*
X104228634Y-89111110D01*
X104251161Y-89083661D01*
X104278610Y-89061134D01*
X104309931Y-89044393D01*
X104343909Y-89034085D01*
X104385390Y-89030000D01*
X104986610Y-89030000D01*
X105028091Y-89034085D01*
G37*
G36*
X102103091Y-89034085D02*
G01*
X102137069Y-89044393D01*
X102168390Y-89061134D01*
X102195839Y-89083661D01*
X102218366Y-89111110D01*
X102235107Y-89142431D01*
X102245415Y-89176409D01*
X102249500Y-89217890D01*
X102249500Y-89894110D01*
X102245415Y-89935591D01*
X102235107Y-89969569D01*
X102218366Y-90000890D01*
X102195839Y-90028339D01*
X102168390Y-90050866D01*
X102137069Y-90067607D01*
X102103091Y-90077915D01*
X102061610Y-90082000D01*
X101460390Y-90082000D01*
X101418909Y-90077915D01*
X101384931Y-90067607D01*
X101353610Y-90050866D01*
X101326161Y-90028339D01*
X101303634Y-90000890D01*
X101286893Y-89969569D01*
X101276585Y-89935591D01*
X101272500Y-89894110D01*
X101272500Y-89217890D01*
X101276585Y-89176409D01*
X101286893Y-89142431D01*
X101303634Y-89111110D01*
X101326161Y-89083661D01*
X101353610Y-89061134D01*
X101384931Y-89044393D01*
X101418909Y-89034085D01*
X101460390Y-89030000D01*
X102061610Y-89030000D01*
X102103091Y-89034085D01*
G37*
G36*
X100528091Y-89034085D02*
G01*
X100562069Y-89044393D01*
X100593390Y-89061134D01*
X100620839Y-89083661D01*
X100643366Y-89111110D01*
X100660107Y-89142431D01*
X100670415Y-89176409D01*
X100674500Y-89217890D01*
X100674500Y-89894110D01*
X100670415Y-89935591D01*
X100660107Y-89969569D01*
X100643366Y-90000890D01*
X100620839Y-90028339D01*
X100593390Y-90050866D01*
X100562069Y-90067607D01*
X100528091Y-90077915D01*
X100486610Y-90082000D01*
X99885390Y-90082000D01*
X99843909Y-90077915D01*
X99809931Y-90067607D01*
X99778610Y-90050866D01*
X99751161Y-90028339D01*
X99728634Y-90000890D01*
X99711893Y-89969569D01*
X99701585Y-89935591D01*
X99697500Y-89894110D01*
X99697500Y-89217890D01*
X99701585Y-89176409D01*
X99711893Y-89142431D01*
X99728634Y-89111110D01*
X99751161Y-89083661D01*
X99778610Y-89061134D01*
X99809931Y-89044393D01*
X99843909Y-89034085D01*
X99885390Y-89030000D01*
X100486610Y-89030000D01*
X100528091Y-89034085D01*
G37*
G36*
X96203091Y-89034085D02*
G01*
X96237069Y-89044393D01*
X96268390Y-89061134D01*
X96295839Y-89083661D01*
X96318366Y-89111110D01*
X96335107Y-89142431D01*
X96345415Y-89176409D01*
X96349500Y-89217890D01*
X96349500Y-89894110D01*
X96345415Y-89935591D01*
X96335107Y-89969569D01*
X96318366Y-90000890D01*
X96295839Y-90028339D01*
X96268390Y-90050866D01*
X96237069Y-90067607D01*
X96203091Y-90077915D01*
X96161610Y-90082000D01*
X95560390Y-90082000D01*
X95518909Y-90077915D01*
X95484931Y-90067607D01*
X95453610Y-90050866D01*
X95426161Y-90028339D01*
X95403634Y-90000890D01*
X95386893Y-89969569D01*
X95376585Y-89935591D01*
X95372500Y-89894110D01*
X95372500Y-89217890D01*
X95376585Y-89176409D01*
X95386893Y-89142431D01*
X95403634Y-89111110D01*
X95426161Y-89083661D01*
X95453610Y-89061134D01*
X95484931Y-89044393D01*
X95518909Y-89034085D01*
X95560390Y-89030000D01*
X96161610Y-89030000D01*
X96203091Y-89034085D01*
G37*
G36*
X107915591Y-89034085D02*
G01*
X107949569Y-89044393D01*
X107980890Y-89061134D01*
X108008339Y-89083661D01*
X108030866Y-89111110D01*
X108047607Y-89142431D01*
X108057915Y-89176409D01*
X108062000Y-89217890D01*
X108062000Y-89894110D01*
X108057915Y-89935591D01*
X108047607Y-89969569D01*
X108030866Y-90000890D01*
X108008339Y-90028339D01*
X107980890Y-90050866D01*
X107949569Y-90067607D01*
X107915591Y-90077915D01*
X107874110Y-90082000D01*
X107272890Y-90082000D01*
X107231409Y-90077915D01*
X107197431Y-90067607D01*
X107166110Y-90050866D01*
X107138661Y-90028339D01*
X107116134Y-90000890D01*
X107099393Y-89969569D01*
X107089085Y-89935591D01*
X107085000Y-89894110D01*
X107085000Y-89217890D01*
X107089085Y-89176409D01*
X107099393Y-89142431D01*
X107116134Y-89111110D01*
X107138661Y-89083661D01*
X107166110Y-89061134D01*
X107197431Y-89044393D01*
X107231409Y-89034085D01*
X107272890Y-89030000D01*
X107874110Y-89030000D01*
X107915591Y-89034085D01*
G37*
G36*
X94628091Y-89034085D02*
G01*
X94662069Y-89044393D01*
X94693390Y-89061134D01*
X94720839Y-89083661D01*
X94743366Y-89111110D01*
X94760107Y-89142431D01*
X94770415Y-89176409D01*
X94774500Y-89217890D01*
X94774500Y-89894110D01*
X94770415Y-89935591D01*
X94760107Y-89969569D01*
X94743366Y-90000890D01*
X94720839Y-90028339D01*
X94693390Y-90050866D01*
X94662069Y-90067607D01*
X94628091Y-90077915D01*
X94586610Y-90082000D01*
X93985390Y-90082000D01*
X93943909Y-90077915D01*
X93909931Y-90067607D01*
X93878610Y-90050866D01*
X93851161Y-90028339D01*
X93828634Y-90000890D01*
X93811893Y-89969569D01*
X93801585Y-89935591D01*
X93797500Y-89894110D01*
X93797500Y-89217890D01*
X93801585Y-89176409D01*
X93811893Y-89142431D01*
X93828634Y-89111110D01*
X93851161Y-89083661D01*
X93878610Y-89061134D01*
X93909931Y-89044393D01*
X93943909Y-89034085D01*
X93985390Y-89030000D01*
X94586610Y-89030000D01*
X94628091Y-89034085D01*
G37*
G36*
X87937000Y-89957000D02*
G01*
X86235000Y-89957000D01*
X86235000Y-89155000D01*
X87937000Y-89155000D01*
X87937000Y-89957000D01*
G37*
G36*
X89540591Y-87934085D02*
G01*
X89574569Y-87944393D01*
X89605890Y-87961134D01*
X89633339Y-87983661D01*
X89655866Y-88011110D01*
X89672607Y-88042431D01*
X89682915Y-88076409D01*
X89687000Y-88117890D01*
X89687000Y-88794110D01*
X89682915Y-88835591D01*
X89672607Y-88869569D01*
X89655866Y-88900890D01*
X89633339Y-88928339D01*
X89605890Y-88950866D01*
X89574569Y-88967607D01*
X89540591Y-88977915D01*
X89499110Y-88982000D01*
X88897890Y-88982000D01*
X88856409Y-88977915D01*
X88822431Y-88967607D01*
X88791110Y-88950866D01*
X88763661Y-88928339D01*
X88741134Y-88900890D01*
X88724393Y-88869569D01*
X88714085Y-88835591D01*
X88710000Y-88794110D01*
X88710000Y-88117890D01*
X88714085Y-88076409D01*
X88724393Y-88042431D01*
X88741134Y-88011110D01*
X88763661Y-87983661D01*
X88791110Y-87961134D01*
X88822431Y-87944393D01*
X88856409Y-87934085D01*
X88897890Y-87930000D01*
X89499110Y-87930000D01*
X89540591Y-87934085D01*
G37*
G36*
X91115591Y-87934085D02*
G01*
X91149569Y-87944393D01*
X91180890Y-87961134D01*
X91208339Y-87983661D01*
X91230866Y-88011110D01*
X91247607Y-88042431D01*
X91257915Y-88076409D01*
X91262000Y-88117890D01*
X91262000Y-88794110D01*
X91257915Y-88835591D01*
X91247607Y-88869569D01*
X91230866Y-88900890D01*
X91208339Y-88928339D01*
X91180890Y-88950866D01*
X91149569Y-88967607D01*
X91115591Y-88977915D01*
X91074110Y-88982000D01*
X90472890Y-88982000D01*
X90431409Y-88977915D01*
X90397431Y-88967607D01*
X90366110Y-88950866D01*
X90338661Y-88928339D01*
X90316134Y-88900890D01*
X90299393Y-88869569D01*
X90289085Y-88835591D01*
X90285000Y-88794110D01*
X90285000Y-88117890D01*
X90289085Y-88076409D01*
X90299393Y-88042431D01*
X90316134Y-88011110D01*
X90338661Y-87983661D01*
X90366110Y-87961134D01*
X90397431Y-87944393D01*
X90431409Y-87934085D01*
X90472890Y-87930000D01*
X91074110Y-87930000D01*
X91115591Y-87934085D01*
G37*
G36*
X87937000Y-88857000D02*
G01*
X86235000Y-88857000D01*
X86235000Y-88055000D01*
X87937000Y-88055000D01*
X87937000Y-88857000D01*
G37*
G36*
X76009512Y-84369927D02*
G01*
X76158812Y-84399624D01*
X76322784Y-84467544D01*
X76470354Y-84566147D01*
X76595853Y-84691646D01*
X76694456Y-84839216D01*
X76762376Y-85003188D01*
X76797000Y-85177259D01*
X76797000Y-85354741D01*
X76762376Y-85528812D01*
X76694456Y-85692784D01*
X76595853Y-85840354D01*
X76470354Y-85965853D01*
X76322784Y-86064456D01*
X76158812Y-86132376D01*
X76032980Y-86157405D01*
X76009534Y-86164517D01*
X75987923Y-86176068D01*
X75968981Y-86191613D01*
X75953436Y-86210555D01*
X75941885Y-86232166D01*
X75934772Y-86255615D01*
X75932370Y-86280001D01*
X75934772Y-86304387D01*
X75941885Y-86327836D01*
X75953436Y-86349447D01*
X75968981Y-86368389D01*
X75987923Y-86383934D01*
X76009534Y-86395485D01*
X76032983Y-86402598D01*
X76057369Y-86405000D01*
X77837000Y-86405000D01*
X77837000Y-87707000D01*
X75535000Y-87707000D01*
X75535000Y-86405000D01*
X75734631Y-86405000D01*
X75759017Y-86402598D01*
X75782466Y-86395485D01*
X75804077Y-86383934D01*
X75823019Y-86368389D01*
X75838564Y-86349447D01*
X75850115Y-86327836D01*
X75857228Y-86304387D01*
X75859630Y-86280001D01*
X75857228Y-86255615D01*
X75850115Y-86232166D01*
X75838564Y-86210555D01*
X75823019Y-86191613D01*
X75804077Y-86176068D01*
X75782466Y-86164517D01*
X75759020Y-86157405D01*
X75633188Y-86132376D01*
X75469216Y-86064456D01*
X75321646Y-85965853D01*
X75196147Y-85840354D01*
X75097544Y-85692784D01*
X75029624Y-85528812D01*
X74995000Y-85354741D01*
X74995000Y-85177259D01*
X75029624Y-85003188D01*
X75097544Y-84839216D01*
X75196147Y-84691646D01*
X75321646Y-84566147D01*
X75469216Y-84467544D01*
X75633188Y-84399624D01*
X75782488Y-84369927D01*
X75807258Y-84365000D01*
X75984742Y-84365000D01*
X76009512Y-84369927D01*
G37*
G36*
X86169512Y-84369927D02*
G01*
X86318812Y-84399624D01*
X86482784Y-84467544D01*
X86630354Y-84566147D01*
X86755853Y-84691646D01*
X86854456Y-84839216D01*
X86922376Y-85003188D01*
X86957000Y-85177259D01*
X86957000Y-85354741D01*
X86922376Y-85528812D01*
X86854456Y-85692784D01*
X86755853Y-85840354D01*
X86630354Y-85965853D01*
X86482784Y-86064456D01*
X86318812Y-86132376D01*
X86192980Y-86157405D01*
X86169534Y-86164517D01*
X86147923Y-86176068D01*
X86128981Y-86191613D01*
X86113436Y-86210555D01*
X86101885Y-86232166D01*
X86094772Y-86255615D01*
X86092370Y-86280001D01*
X86094772Y-86304387D01*
X86101885Y-86327836D01*
X86113436Y-86349447D01*
X86128981Y-86368389D01*
X86147923Y-86383934D01*
X86169534Y-86395485D01*
X86192983Y-86402598D01*
X86217369Y-86405000D01*
X87087000Y-86405000D01*
X87087000Y-87707000D01*
X85485000Y-87707000D01*
X85485000Y-86405000D01*
X85894631Y-86405000D01*
X85919017Y-86402598D01*
X85942466Y-86395485D01*
X85964077Y-86383934D01*
X85983019Y-86368389D01*
X85998564Y-86349447D01*
X86010115Y-86327836D01*
X86017228Y-86304387D01*
X86019630Y-86280001D01*
X86017228Y-86255615D01*
X86010115Y-86232166D01*
X85998564Y-86210555D01*
X85983019Y-86191613D01*
X85964077Y-86176068D01*
X85942466Y-86164517D01*
X85919020Y-86157405D01*
X85793188Y-86132376D01*
X85629216Y-86064456D01*
X85481646Y-85965853D01*
X85356147Y-85840354D01*
X85257544Y-85692784D01*
X85189624Y-85528812D01*
X85155000Y-85354741D01*
X85155000Y-85177259D01*
X85189624Y-85003188D01*
X85257544Y-84839216D01*
X85356147Y-84691646D01*
X85481646Y-84566147D01*
X85629216Y-84467544D01*
X85793188Y-84399624D01*
X85942488Y-84369927D01*
X85967258Y-84365000D01*
X86144742Y-84365000D01*
X86169512Y-84369927D01*
G37*
G36*
X98869512Y-84369927D02*
G01*
X99018812Y-84399624D01*
X99182784Y-84467544D01*
X99330354Y-84566147D01*
X99455853Y-84691646D01*
X99554456Y-84839216D01*
X99622376Y-85003188D01*
X99657000Y-85177259D01*
X99657000Y-85354741D01*
X99622376Y-85528812D01*
X99554456Y-85692784D01*
X99455853Y-85840354D01*
X99330354Y-85965853D01*
X99182784Y-86064456D01*
X99018812Y-86132376D01*
X98869512Y-86162073D01*
X98844742Y-86167000D01*
X98667258Y-86167000D01*
X98642488Y-86162073D01*
X98493188Y-86132376D01*
X98329216Y-86064456D01*
X98181646Y-85965853D01*
X98056147Y-85840354D01*
X97957544Y-85692784D01*
X97889624Y-85528812D01*
X97855000Y-85354741D01*
X97855000Y-85177259D01*
X97889624Y-85003188D01*
X97957544Y-84839216D01*
X98056147Y-84691646D01*
X98181646Y-84566147D01*
X98329216Y-84467544D01*
X98493188Y-84399624D01*
X98642488Y-84369927D01*
X98667258Y-84365000D01*
X98844742Y-84365000D01*
X98869512Y-84369927D01*
G37*
G36*
X101409512Y-84369927D02*
G01*
X101558812Y-84399624D01*
X101722784Y-84467544D01*
X101870354Y-84566147D01*
X101995853Y-84691646D01*
X102094456Y-84839216D01*
X102162376Y-85003188D01*
X102197000Y-85177259D01*
X102197000Y-85354741D01*
X102162376Y-85528812D01*
X102094456Y-85692784D01*
X101995853Y-85840354D01*
X101870354Y-85965853D01*
X101722784Y-86064456D01*
X101558812Y-86132376D01*
X101409512Y-86162073D01*
X101384742Y-86167000D01*
X101207258Y-86167000D01*
X101182488Y-86162073D01*
X101033188Y-86132376D01*
X100869216Y-86064456D01*
X100721646Y-85965853D01*
X100596147Y-85840354D01*
X100497544Y-85692784D01*
X100429624Y-85528812D01*
X100395000Y-85354741D01*
X100395000Y-85177259D01*
X100429624Y-85003188D01*
X100497544Y-84839216D01*
X100596147Y-84691646D01*
X100721646Y-84566147D01*
X100869216Y-84467544D01*
X101033188Y-84399624D01*
X101182488Y-84369927D01*
X101207258Y-84365000D01*
X101384742Y-84365000D01*
X101409512Y-84369927D01*
G37*
G36*
X103949512Y-84369927D02*
G01*
X104098812Y-84399624D01*
X104262784Y-84467544D01*
X104410354Y-84566147D01*
X104535853Y-84691646D01*
X104634456Y-84839216D01*
X104702376Y-85003188D01*
X104737000Y-85177259D01*
X104737000Y-85354741D01*
X104702376Y-85528812D01*
X104634456Y-85692784D01*
X104535853Y-85840354D01*
X104410354Y-85965853D01*
X104262784Y-86064456D01*
X104098812Y-86132376D01*
X103949512Y-86162073D01*
X103924742Y-86167000D01*
X103747258Y-86167000D01*
X103722488Y-86162073D01*
X103573188Y-86132376D01*
X103409216Y-86064456D01*
X103261646Y-85965853D01*
X103136147Y-85840354D01*
X103037544Y-85692784D01*
X102969624Y-85528812D01*
X102935000Y-85354741D01*
X102935000Y-85177259D01*
X102969624Y-85003188D01*
X103037544Y-84839216D01*
X103136147Y-84691646D01*
X103261646Y-84566147D01*
X103409216Y-84467544D01*
X103573188Y-84399624D01*
X103722488Y-84369927D01*
X103747258Y-84365000D01*
X103924742Y-84365000D01*
X103949512Y-84369927D01*
G37*
G36*
X106489512Y-84369927D02*
G01*
X106638812Y-84399624D01*
X106802784Y-84467544D01*
X106950354Y-84566147D01*
X107075853Y-84691646D01*
X107174456Y-84839216D01*
X107242376Y-85003188D01*
X107277000Y-85177259D01*
X107277000Y-85354741D01*
X107242376Y-85528812D01*
X107174456Y-85692784D01*
X107075853Y-85840354D01*
X106950354Y-85965853D01*
X106802784Y-86064456D01*
X106638812Y-86132376D01*
X106489512Y-86162073D01*
X106464742Y-86167000D01*
X106287258Y-86167000D01*
X106262488Y-86162073D01*
X106113188Y-86132376D01*
X105949216Y-86064456D01*
X105801646Y-85965853D01*
X105676147Y-85840354D01*
X105577544Y-85692784D01*
X105509624Y-85528812D01*
X105475000Y-85354741D01*
X105475000Y-85177259D01*
X105509624Y-85003188D01*
X105577544Y-84839216D01*
X105676147Y-84691646D01*
X105801646Y-84566147D01*
X105949216Y-84467544D01*
X106113188Y-84399624D01*
X106262488Y-84369927D01*
X106287258Y-84365000D01*
X106464742Y-84365000D01*
X106489512Y-84369927D01*
G37*
G36*
X109029512Y-84369927D02*
G01*
X109178812Y-84399624D01*
X109342784Y-84467544D01*
X109490354Y-84566147D01*
X109615853Y-84691646D01*
X109714456Y-84839216D01*
X109782376Y-85003188D01*
X109817000Y-85177259D01*
X109817000Y-85354741D01*
X109782376Y-85528812D01*
X109714456Y-85692784D01*
X109615853Y-85840354D01*
X109490354Y-85965853D01*
X109342784Y-86064456D01*
X109178812Y-86132376D01*
X109029512Y-86162073D01*
X109004742Y-86167000D01*
X108827258Y-86167000D01*
X108802488Y-86162073D01*
X108653188Y-86132376D01*
X108489216Y-86064456D01*
X108341646Y-85965853D01*
X108216147Y-85840354D01*
X108117544Y-85692784D01*
X108049624Y-85528812D01*
X108015000Y-85354741D01*
X108015000Y-85177259D01*
X108049624Y-85003188D01*
X108117544Y-84839216D01*
X108216147Y-84691646D01*
X108341646Y-84566147D01*
X108489216Y-84467544D01*
X108653188Y-84399624D01*
X108802488Y-84369927D01*
X108827258Y-84365000D01*
X109004742Y-84365000D01*
X109029512Y-84369927D01*
G37*
G36*
X111569512Y-84369927D02*
G01*
X111718812Y-84399624D01*
X111882784Y-84467544D01*
X112030354Y-84566147D01*
X112155853Y-84691646D01*
X112254456Y-84839216D01*
X112322376Y-85003188D01*
X112357000Y-85177259D01*
X112357000Y-85354741D01*
X112322376Y-85528812D01*
X112254456Y-85692784D01*
X112155853Y-85840354D01*
X112030354Y-85965853D01*
X111882784Y-86064456D01*
X111718812Y-86132376D01*
X111569512Y-86162073D01*
X111544742Y-86167000D01*
X111367258Y-86167000D01*
X111342488Y-86162073D01*
X111193188Y-86132376D01*
X111029216Y-86064456D01*
X110881646Y-85965853D01*
X110756147Y-85840354D01*
X110657544Y-85692784D01*
X110589624Y-85528812D01*
X110555000Y-85354741D01*
X110555000Y-85177259D01*
X110589624Y-85003188D01*
X110657544Y-84839216D01*
X110756147Y-84691646D01*
X110881646Y-84566147D01*
X111029216Y-84467544D01*
X111193188Y-84399624D01*
X111342488Y-84369927D01*
X111367258Y-84365000D01*
X111544742Y-84365000D01*
X111569512Y-84369927D01*
G37*
G36*
X114109512Y-84369927D02*
G01*
X114258812Y-84399624D01*
X114422784Y-84467544D01*
X114570354Y-84566147D01*
X114695853Y-84691646D01*
X114794456Y-84839216D01*
X114862376Y-85003188D01*
X114897000Y-85177259D01*
X114897000Y-85354741D01*
X114862376Y-85528812D01*
X114794456Y-85692784D01*
X114695853Y-85840354D01*
X114570354Y-85965853D01*
X114422784Y-86064456D01*
X114258812Y-86132376D01*
X114109512Y-86162073D01*
X114084742Y-86167000D01*
X113907258Y-86167000D01*
X113882488Y-86162073D01*
X113733188Y-86132376D01*
X113569216Y-86064456D01*
X113421646Y-85965853D01*
X113296147Y-85840354D01*
X113197544Y-85692784D01*
X113129624Y-85528812D01*
X113095000Y-85354741D01*
X113095000Y-85177259D01*
X113129624Y-85003188D01*
X113197544Y-84839216D01*
X113296147Y-84691646D01*
X113421646Y-84566147D01*
X113569216Y-84467544D01*
X113733188Y-84399624D01*
X113882488Y-84369927D01*
X113907258Y-84365000D01*
X114084742Y-84365000D01*
X114109512Y-84369927D01*
G37*
G36*
X116649512Y-84369927D02*
G01*
X116798812Y-84399624D01*
X116962784Y-84467544D01*
X117110354Y-84566147D01*
X117235853Y-84691646D01*
X117334456Y-84839216D01*
X117402376Y-85003188D01*
X117437000Y-85177259D01*
X117437000Y-85354741D01*
X117402376Y-85528812D01*
X117334456Y-85692784D01*
X117235853Y-85840354D01*
X117110354Y-85965853D01*
X116962784Y-86064456D01*
X116798812Y-86132376D01*
X116649512Y-86162073D01*
X116624742Y-86167000D01*
X116447258Y-86167000D01*
X116422488Y-86162073D01*
X116273188Y-86132376D01*
X116109216Y-86064456D01*
X115961646Y-85965853D01*
X115836147Y-85840354D01*
X115737544Y-85692784D01*
X115669624Y-85528812D01*
X115635000Y-85354741D01*
X115635000Y-85177259D01*
X115669624Y-85003188D01*
X115737544Y-84839216D01*
X115836147Y-84691646D01*
X115961646Y-84566147D01*
X116109216Y-84467544D01*
X116273188Y-84399624D01*
X116422488Y-84369927D01*
X116447258Y-84365000D01*
X116624742Y-84365000D01*
X116649512Y-84369927D01*
G37*
G36*
X119189512Y-84369927D02*
G01*
X119338812Y-84399624D01*
X119502784Y-84467544D01*
X119650354Y-84566147D01*
X119775853Y-84691646D01*
X119874456Y-84839216D01*
X119942376Y-85003188D01*
X119977000Y-85177259D01*
X119977000Y-85354741D01*
X119942376Y-85528812D01*
X119874456Y-85692784D01*
X119775853Y-85840354D01*
X119650354Y-85965853D01*
X119502784Y-86064456D01*
X119338812Y-86132376D01*
X119189512Y-86162073D01*
X119164742Y-86167000D01*
X118987258Y-86167000D01*
X118962488Y-86162073D01*
X118813188Y-86132376D01*
X118649216Y-86064456D01*
X118501646Y-85965853D01*
X118376147Y-85840354D01*
X118277544Y-85692784D01*
X118209624Y-85528812D01*
X118175000Y-85354741D01*
X118175000Y-85177259D01*
X118209624Y-85003188D01*
X118277544Y-84839216D01*
X118376147Y-84691646D01*
X118501646Y-84566147D01*
X118649216Y-84467544D01*
X118813188Y-84399624D01*
X118962488Y-84369927D01*
X118987258Y-84365000D01*
X119164742Y-84365000D01*
X119189512Y-84369927D01*
G37*
G36*
X78549512Y-84369927D02*
G01*
X78698812Y-84399624D01*
X78862784Y-84467544D01*
X79010354Y-84566147D01*
X79135853Y-84691646D01*
X79234456Y-84839216D01*
X79302376Y-85003188D01*
X79337000Y-85177259D01*
X79337000Y-85354741D01*
X79302376Y-85528812D01*
X79234456Y-85692784D01*
X79135853Y-85840354D01*
X79010354Y-85965853D01*
X78862784Y-86064456D01*
X78698812Y-86132376D01*
X78549512Y-86162073D01*
X78524742Y-86167000D01*
X78347258Y-86167000D01*
X78322488Y-86162073D01*
X78173188Y-86132376D01*
X78009216Y-86064456D01*
X77861646Y-85965853D01*
X77736147Y-85840354D01*
X77637544Y-85692784D01*
X77569624Y-85528812D01*
X77535000Y-85354741D01*
X77535000Y-85177259D01*
X77569624Y-85003188D01*
X77637544Y-84839216D01*
X77736147Y-84691646D01*
X77861646Y-84566147D01*
X78009216Y-84467544D01*
X78173188Y-84399624D01*
X78322488Y-84369927D01*
X78347258Y-84365000D01*
X78524742Y-84365000D01*
X78549512Y-84369927D01*
G37*
G36*
X74257000Y-86167000D02*
G01*
X72455000Y-86167000D01*
X72455000Y-84365000D01*
X74257000Y-84365000D01*
X74257000Y-86167000D01*
G37*
G36*
X81089512Y-84369927D02*
G01*
X81238812Y-84399624D01*
X81402784Y-84467544D01*
X81550354Y-84566147D01*
X81675853Y-84691646D01*
X81774456Y-84839216D01*
X81842376Y-85003188D01*
X81877000Y-85177259D01*
X81877000Y-85354741D01*
X81842376Y-85528812D01*
X81774456Y-85692784D01*
X81675853Y-85840354D01*
X81550354Y-85965853D01*
X81402784Y-86064456D01*
X81238812Y-86132376D01*
X81089512Y-86162073D01*
X81064742Y-86167000D01*
X80887258Y-86167000D01*
X80862488Y-86162073D01*
X80713188Y-86132376D01*
X80549216Y-86064456D01*
X80401646Y-85965853D01*
X80276147Y-85840354D01*
X80177544Y-85692784D01*
X80109624Y-85528812D01*
X80075000Y-85354741D01*
X80075000Y-85177259D01*
X80109624Y-85003188D01*
X80177544Y-84839216D01*
X80276147Y-84691646D01*
X80401646Y-84566147D01*
X80549216Y-84467544D01*
X80713188Y-84399624D01*
X80862488Y-84369927D01*
X80887258Y-84365000D01*
X81064742Y-84365000D01*
X81089512Y-84369927D01*
G37*
G36*
X83629512Y-84369927D02*
G01*
X83778812Y-84399624D01*
X83942784Y-84467544D01*
X84090354Y-84566147D01*
X84215853Y-84691646D01*
X84314456Y-84839216D01*
X84382376Y-85003188D01*
X84417000Y-85177259D01*
X84417000Y-85354741D01*
X84382376Y-85528812D01*
X84314456Y-85692784D01*
X84215853Y-85840354D01*
X84090354Y-85965853D01*
X83942784Y-86064456D01*
X83778812Y-86132376D01*
X83629512Y-86162073D01*
X83604742Y-86167000D01*
X83427258Y-86167000D01*
X83402488Y-86162073D01*
X83253188Y-86132376D01*
X83089216Y-86064456D01*
X82941646Y-85965853D01*
X82816147Y-85840354D01*
X82717544Y-85692784D01*
X82649624Y-85528812D01*
X82615000Y-85354741D01*
X82615000Y-85177259D01*
X82649624Y-85003188D01*
X82717544Y-84839216D01*
X82816147Y-84691646D01*
X82941646Y-84566147D01*
X83089216Y-84467544D01*
X83253188Y-84399624D01*
X83402488Y-84369927D01*
X83427258Y-84365000D01*
X83604742Y-84365000D01*
X83629512Y-84369927D01*
G37*
G36*
X88709512Y-84369927D02*
G01*
X88858812Y-84399624D01*
X89022784Y-84467544D01*
X89170354Y-84566147D01*
X89295853Y-84691646D01*
X89394456Y-84839216D01*
X89462376Y-85003188D01*
X89497000Y-85177259D01*
X89497000Y-85354741D01*
X89462376Y-85528812D01*
X89394456Y-85692784D01*
X89295853Y-85840354D01*
X89170354Y-85965853D01*
X89022784Y-86064456D01*
X88858812Y-86132376D01*
X88709512Y-86162073D01*
X88684742Y-86167000D01*
X88507258Y-86167000D01*
X88482488Y-86162073D01*
X88333188Y-86132376D01*
X88169216Y-86064456D01*
X88021646Y-85965853D01*
X87896147Y-85840354D01*
X87797544Y-85692784D01*
X87729624Y-85528812D01*
X87695000Y-85354741D01*
X87695000Y-85177259D01*
X87729624Y-85003188D01*
X87797544Y-84839216D01*
X87896147Y-84691646D01*
X88021646Y-84566147D01*
X88169216Y-84467544D01*
X88333188Y-84399624D01*
X88482488Y-84369927D01*
X88507258Y-84365000D01*
X88684742Y-84365000D01*
X88709512Y-84369927D01*
G37*
G36*
X91249512Y-84369927D02*
G01*
X91398812Y-84399624D01*
X91562784Y-84467544D01*
X91710354Y-84566147D01*
X91835853Y-84691646D01*
X91934456Y-84839216D01*
X92002376Y-85003188D01*
X92037000Y-85177259D01*
X92037000Y-85354741D01*
X92002376Y-85528812D01*
X91934456Y-85692784D01*
X91835853Y-85840354D01*
X91710354Y-85965853D01*
X91562784Y-86064456D01*
X91398812Y-86132376D01*
X91249512Y-86162073D01*
X91224742Y-86167000D01*
X91047258Y-86167000D01*
X91022488Y-86162073D01*
X90873188Y-86132376D01*
X90709216Y-86064456D01*
X90561646Y-85965853D01*
X90436147Y-85840354D01*
X90337544Y-85692784D01*
X90269624Y-85528812D01*
X90235000Y-85354741D01*
X90235000Y-85177259D01*
X90269624Y-85003188D01*
X90337544Y-84839216D01*
X90436147Y-84691646D01*
X90561646Y-84566147D01*
X90709216Y-84467544D01*
X90873188Y-84399624D01*
X91022488Y-84369927D01*
X91047258Y-84365000D01*
X91224742Y-84365000D01*
X91249512Y-84369927D01*
G37*
G36*
X96329512Y-84369927D02*
G01*
X96478812Y-84399624D01*
X96642784Y-84467544D01*
X96790354Y-84566147D01*
X96915853Y-84691646D01*
X97014456Y-84839216D01*
X97082376Y-85003188D01*
X97117000Y-85177259D01*
X97117000Y-85354741D01*
X97082376Y-85528812D01*
X97014456Y-85692784D01*
X96915853Y-85840354D01*
X96790354Y-85965853D01*
X96642784Y-86064456D01*
X96478812Y-86132376D01*
X96329512Y-86162073D01*
X96304742Y-86167000D01*
X96127258Y-86167000D01*
X96102488Y-86162073D01*
X95953188Y-86132376D01*
X95789216Y-86064456D01*
X95641646Y-85965853D01*
X95516147Y-85840354D01*
X95417544Y-85692784D01*
X95349624Y-85528812D01*
X95315000Y-85354741D01*
X95315000Y-85177259D01*
X95349624Y-85003188D01*
X95417544Y-84839216D01*
X95516147Y-84691646D01*
X95641646Y-84566147D01*
X95789216Y-84467544D01*
X95953188Y-84399624D01*
X96102488Y-84369927D01*
X96127258Y-84365000D01*
X96304742Y-84365000D01*
X96329512Y-84369927D01*
G37*
G36*
X93789512Y-84369927D02*
G01*
X93938812Y-84399624D01*
X94102784Y-84467544D01*
X94250354Y-84566147D01*
X94375853Y-84691646D01*
X94474456Y-84839216D01*
X94542376Y-85003188D01*
X94577000Y-85177259D01*
X94577000Y-85354741D01*
X94542376Y-85528812D01*
X94474456Y-85692784D01*
X94375853Y-85840354D01*
X94250354Y-85965853D01*
X94102784Y-86064456D01*
X93938812Y-86132376D01*
X93789512Y-86162073D01*
X93764742Y-86167000D01*
X93587258Y-86167000D01*
X93562488Y-86162073D01*
X93413188Y-86132376D01*
X93249216Y-86064456D01*
X93101646Y-85965853D01*
X92976147Y-85840354D01*
X92877544Y-85692784D01*
X92809624Y-85528812D01*
X92775000Y-85354741D01*
X92775000Y-85177259D01*
X92809624Y-85003188D01*
X92877544Y-84839216D01*
X92976147Y-84691646D01*
X93101646Y-84566147D01*
X93249216Y-84467544D01*
X93413188Y-84399624D01*
X93562488Y-84369927D01*
X93587258Y-84365000D01*
X93764742Y-84365000D01*
X93789512Y-84369927D01*
G37*
M02*
