G04 #@! TF.GenerationSoftware,KiCad,Pcbnew,(5.1.5)-3*
G04 #@! TF.CreationDate,2020-08-29T23:45:51+08:00*
G04 #@! TF.ProjectId,imx233-core,696d7832-3333-42d6-936f-72652e6b6963,rev?*
G04 #@! TF.SameCoordinates,Original*
G04 #@! TF.FileFunction,Soldermask,Top*
G04 #@! TF.FilePolarity,Negative*
%FSLAX46Y46*%
G04 Gerber Fmt 4.6, Leading zero omitted, Abs format (unit mm)*
G04 Created by KiCad (PCBNEW (5.1.5)-3) date 2020-08-29 23:45:51*
%MOMM*%
%LPD*%
G04 APERTURE LIST*
%ADD10C,0.100000*%
G04 APERTURE END LIST*
D10*
G36*
X119189512Y-130089927D02*
G01*
X119338812Y-130119624D01*
X119502784Y-130187544D01*
X119650354Y-130286147D01*
X119775853Y-130411646D01*
X119874456Y-130559216D01*
X119942376Y-130723188D01*
X119977000Y-130897259D01*
X119977000Y-131074741D01*
X119942376Y-131248812D01*
X119874456Y-131412784D01*
X119775853Y-131560354D01*
X119650354Y-131685853D01*
X119502784Y-131784456D01*
X119338812Y-131852376D01*
X119189512Y-131882073D01*
X119164742Y-131887000D01*
X118987258Y-131887000D01*
X118962488Y-131882073D01*
X118813188Y-131852376D01*
X118649216Y-131784456D01*
X118501646Y-131685853D01*
X118376147Y-131560354D01*
X118277544Y-131412784D01*
X118209624Y-131248812D01*
X118175000Y-131074741D01*
X118175000Y-130897259D01*
X118209624Y-130723188D01*
X118277544Y-130559216D01*
X118376147Y-130411646D01*
X118501646Y-130286147D01*
X118649216Y-130187544D01*
X118813188Y-130119624D01*
X118962488Y-130089927D01*
X118987258Y-130085000D01*
X119164742Y-130085000D01*
X119189512Y-130089927D01*
G37*
G36*
X96329512Y-130089927D02*
G01*
X96478812Y-130119624D01*
X96642784Y-130187544D01*
X96790354Y-130286147D01*
X96915853Y-130411646D01*
X97014456Y-130559216D01*
X97082376Y-130723188D01*
X97117000Y-130897259D01*
X97117000Y-131074741D01*
X97082376Y-131248812D01*
X97014456Y-131412784D01*
X96915853Y-131560354D01*
X96790354Y-131685853D01*
X96642784Y-131784456D01*
X96478812Y-131852376D01*
X96329512Y-131882073D01*
X96304742Y-131887000D01*
X96127258Y-131887000D01*
X96102488Y-131882073D01*
X95953188Y-131852376D01*
X95789216Y-131784456D01*
X95641646Y-131685853D01*
X95516147Y-131560354D01*
X95417544Y-131412784D01*
X95349624Y-131248812D01*
X95315000Y-131074741D01*
X95315000Y-130897259D01*
X95349624Y-130723188D01*
X95417544Y-130559216D01*
X95516147Y-130411646D01*
X95641646Y-130286147D01*
X95789216Y-130187544D01*
X95953188Y-130119624D01*
X96102488Y-130089927D01*
X96127258Y-130085000D01*
X96304742Y-130085000D01*
X96329512Y-130089927D01*
G37*
G36*
X88709512Y-130089927D02*
G01*
X88858812Y-130119624D01*
X89022784Y-130187544D01*
X89170354Y-130286147D01*
X89295853Y-130411646D01*
X89394456Y-130559216D01*
X89462376Y-130723188D01*
X89497000Y-130897259D01*
X89497000Y-131074741D01*
X89462376Y-131248812D01*
X89394456Y-131412784D01*
X89295853Y-131560354D01*
X89170354Y-131685853D01*
X89022784Y-131784456D01*
X88858812Y-131852376D01*
X88709512Y-131882073D01*
X88684742Y-131887000D01*
X88507258Y-131887000D01*
X88482488Y-131882073D01*
X88333188Y-131852376D01*
X88169216Y-131784456D01*
X88021646Y-131685853D01*
X87896147Y-131560354D01*
X87797544Y-131412784D01*
X87729624Y-131248812D01*
X87695000Y-131074741D01*
X87695000Y-130897259D01*
X87729624Y-130723188D01*
X87797544Y-130559216D01*
X87896147Y-130411646D01*
X88021646Y-130286147D01*
X88169216Y-130187544D01*
X88333188Y-130119624D01*
X88482488Y-130089927D01*
X88507258Y-130085000D01*
X88684742Y-130085000D01*
X88709512Y-130089927D01*
G37*
G36*
X86169512Y-130089927D02*
G01*
X86318812Y-130119624D01*
X86482784Y-130187544D01*
X86630354Y-130286147D01*
X86755853Y-130411646D01*
X86854456Y-130559216D01*
X86922376Y-130723188D01*
X86957000Y-130897259D01*
X86957000Y-131074741D01*
X86922376Y-131248812D01*
X86854456Y-131412784D01*
X86755853Y-131560354D01*
X86630354Y-131685853D01*
X86482784Y-131784456D01*
X86318812Y-131852376D01*
X86169512Y-131882073D01*
X86144742Y-131887000D01*
X85967258Y-131887000D01*
X85942488Y-131882073D01*
X85793188Y-131852376D01*
X85629216Y-131784456D01*
X85481646Y-131685853D01*
X85356147Y-131560354D01*
X85257544Y-131412784D01*
X85189624Y-131248812D01*
X85155000Y-131074741D01*
X85155000Y-130897259D01*
X85189624Y-130723188D01*
X85257544Y-130559216D01*
X85356147Y-130411646D01*
X85481646Y-130286147D01*
X85629216Y-130187544D01*
X85793188Y-130119624D01*
X85942488Y-130089927D01*
X85967258Y-130085000D01*
X86144742Y-130085000D01*
X86169512Y-130089927D01*
G37*
G36*
X83629512Y-130089927D02*
G01*
X83778812Y-130119624D01*
X83942784Y-130187544D01*
X84090354Y-130286147D01*
X84215853Y-130411646D01*
X84314456Y-130559216D01*
X84382376Y-130723188D01*
X84417000Y-130897259D01*
X84417000Y-131074741D01*
X84382376Y-131248812D01*
X84314456Y-131412784D01*
X84215853Y-131560354D01*
X84090354Y-131685853D01*
X83942784Y-131784456D01*
X83778812Y-131852376D01*
X83629512Y-131882073D01*
X83604742Y-131887000D01*
X83427258Y-131887000D01*
X83402488Y-131882073D01*
X83253188Y-131852376D01*
X83089216Y-131784456D01*
X82941646Y-131685853D01*
X82816147Y-131560354D01*
X82717544Y-131412784D01*
X82649624Y-131248812D01*
X82615000Y-131074741D01*
X82615000Y-130897259D01*
X82649624Y-130723188D01*
X82717544Y-130559216D01*
X82816147Y-130411646D01*
X82941646Y-130286147D01*
X83089216Y-130187544D01*
X83253188Y-130119624D01*
X83402488Y-130089927D01*
X83427258Y-130085000D01*
X83604742Y-130085000D01*
X83629512Y-130089927D01*
G37*
G36*
X81089512Y-130089927D02*
G01*
X81238812Y-130119624D01*
X81402784Y-130187544D01*
X81550354Y-130286147D01*
X81675853Y-130411646D01*
X81774456Y-130559216D01*
X81842376Y-130723188D01*
X81877000Y-130897259D01*
X81877000Y-131074741D01*
X81842376Y-131248812D01*
X81774456Y-131412784D01*
X81675853Y-131560354D01*
X81550354Y-131685853D01*
X81402784Y-131784456D01*
X81238812Y-131852376D01*
X81089512Y-131882073D01*
X81064742Y-131887000D01*
X80887258Y-131887000D01*
X80862488Y-131882073D01*
X80713188Y-131852376D01*
X80549216Y-131784456D01*
X80401646Y-131685853D01*
X80276147Y-131560354D01*
X80177544Y-131412784D01*
X80109624Y-131248812D01*
X80075000Y-131074741D01*
X80075000Y-130897259D01*
X80109624Y-130723188D01*
X80177544Y-130559216D01*
X80276147Y-130411646D01*
X80401646Y-130286147D01*
X80549216Y-130187544D01*
X80713188Y-130119624D01*
X80862488Y-130089927D01*
X80887258Y-130085000D01*
X81064742Y-130085000D01*
X81089512Y-130089927D01*
G37*
G36*
X78549512Y-130089927D02*
G01*
X78698812Y-130119624D01*
X78862784Y-130187544D01*
X79010354Y-130286147D01*
X79135853Y-130411646D01*
X79234456Y-130559216D01*
X79302376Y-130723188D01*
X79337000Y-130897259D01*
X79337000Y-131074741D01*
X79302376Y-131248812D01*
X79234456Y-131412784D01*
X79135853Y-131560354D01*
X79010354Y-131685853D01*
X78862784Y-131784456D01*
X78698812Y-131852376D01*
X78549512Y-131882073D01*
X78524742Y-131887000D01*
X78347258Y-131887000D01*
X78322488Y-131882073D01*
X78173188Y-131852376D01*
X78009216Y-131784456D01*
X77861646Y-131685853D01*
X77736147Y-131560354D01*
X77637544Y-131412784D01*
X77569624Y-131248812D01*
X77535000Y-131074741D01*
X77535000Y-130897259D01*
X77569624Y-130723188D01*
X77637544Y-130559216D01*
X77736147Y-130411646D01*
X77861646Y-130286147D01*
X78009216Y-130187544D01*
X78173188Y-130119624D01*
X78322488Y-130089927D01*
X78347258Y-130085000D01*
X78524742Y-130085000D01*
X78549512Y-130089927D01*
G37*
G36*
X76009512Y-130089927D02*
G01*
X76158812Y-130119624D01*
X76322784Y-130187544D01*
X76470354Y-130286147D01*
X76595853Y-130411646D01*
X76694456Y-130559216D01*
X76762376Y-130723188D01*
X76797000Y-130897259D01*
X76797000Y-131074741D01*
X76762376Y-131248812D01*
X76694456Y-131412784D01*
X76595853Y-131560354D01*
X76470354Y-131685853D01*
X76322784Y-131784456D01*
X76158812Y-131852376D01*
X76009512Y-131882073D01*
X75984742Y-131887000D01*
X75807258Y-131887000D01*
X75782488Y-131882073D01*
X75633188Y-131852376D01*
X75469216Y-131784456D01*
X75321646Y-131685853D01*
X75196147Y-131560354D01*
X75097544Y-131412784D01*
X75029624Y-131248812D01*
X74995000Y-131074741D01*
X74995000Y-130897259D01*
X75029624Y-130723188D01*
X75097544Y-130559216D01*
X75196147Y-130411646D01*
X75321646Y-130286147D01*
X75469216Y-130187544D01*
X75633188Y-130119624D01*
X75782488Y-130089927D01*
X75807258Y-130085000D01*
X75984742Y-130085000D01*
X76009512Y-130089927D01*
G37*
G36*
X74257000Y-131887000D02*
G01*
X72455000Y-131887000D01*
X72455000Y-130085000D01*
X74257000Y-130085000D01*
X74257000Y-131887000D01*
G37*
G36*
X91249512Y-130089927D02*
G01*
X91398812Y-130119624D01*
X91562784Y-130187544D01*
X91710354Y-130286147D01*
X91835853Y-130411646D01*
X91934456Y-130559216D01*
X92002376Y-130723188D01*
X92037000Y-130897259D01*
X92037000Y-131074741D01*
X92002376Y-131248812D01*
X91934456Y-131412784D01*
X91835853Y-131560354D01*
X91710354Y-131685853D01*
X91562784Y-131784456D01*
X91398812Y-131852376D01*
X91249512Y-131882073D01*
X91224742Y-131887000D01*
X91047258Y-131887000D01*
X91022488Y-131882073D01*
X90873188Y-131852376D01*
X90709216Y-131784456D01*
X90561646Y-131685853D01*
X90436147Y-131560354D01*
X90337544Y-131412784D01*
X90269624Y-131248812D01*
X90235000Y-131074741D01*
X90235000Y-130897259D01*
X90269624Y-130723188D01*
X90337544Y-130559216D01*
X90436147Y-130411646D01*
X90561646Y-130286147D01*
X90709216Y-130187544D01*
X90873188Y-130119624D01*
X91022488Y-130089927D01*
X91047258Y-130085000D01*
X91224742Y-130085000D01*
X91249512Y-130089927D01*
G37*
G36*
X98869512Y-130089927D02*
G01*
X99018812Y-130119624D01*
X99182784Y-130187544D01*
X99330354Y-130286147D01*
X99455853Y-130411646D01*
X99554456Y-130559216D01*
X99622376Y-130723188D01*
X99657000Y-130897259D01*
X99657000Y-131074741D01*
X99622376Y-131248812D01*
X99554456Y-131412784D01*
X99455853Y-131560354D01*
X99330354Y-131685853D01*
X99182784Y-131784456D01*
X99018812Y-131852376D01*
X98869512Y-131882073D01*
X98844742Y-131887000D01*
X98667258Y-131887000D01*
X98642488Y-131882073D01*
X98493188Y-131852376D01*
X98329216Y-131784456D01*
X98181646Y-131685853D01*
X98056147Y-131560354D01*
X97957544Y-131412784D01*
X97889624Y-131248812D01*
X97855000Y-131074741D01*
X97855000Y-130897259D01*
X97889624Y-130723188D01*
X97957544Y-130559216D01*
X98056147Y-130411646D01*
X98181646Y-130286147D01*
X98329216Y-130187544D01*
X98493188Y-130119624D01*
X98642488Y-130089927D01*
X98667258Y-130085000D01*
X98844742Y-130085000D01*
X98869512Y-130089927D01*
G37*
G36*
X101409512Y-130089927D02*
G01*
X101558812Y-130119624D01*
X101722784Y-130187544D01*
X101870354Y-130286147D01*
X101995853Y-130411646D01*
X102094456Y-130559216D01*
X102162376Y-130723188D01*
X102197000Y-130897259D01*
X102197000Y-131074741D01*
X102162376Y-131248812D01*
X102094456Y-131412784D01*
X101995853Y-131560354D01*
X101870354Y-131685853D01*
X101722784Y-131784456D01*
X101558812Y-131852376D01*
X101409512Y-131882073D01*
X101384742Y-131887000D01*
X101207258Y-131887000D01*
X101182488Y-131882073D01*
X101033188Y-131852376D01*
X100869216Y-131784456D01*
X100721646Y-131685853D01*
X100596147Y-131560354D01*
X100497544Y-131412784D01*
X100429624Y-131248812D01*
X100395000Y-131074741D01*
X100395000Y-130897259D01*
X100429624Y-130723188D01*
X100497544Y-130559216D01*
X100596147Y-130411646D01*
X100721646Y-130286147D01*
X100869216Y-130187544D01*
X101033188Y-130119624D01*
X101182488Y-130089927D01*
X101207258Y-130085000D01*
X101384742Y-130085000D01*
X101409512Y-130089927D01*
G37*
G36*
X103949512Y-130089927D02*
G01*
X104098812Y-130119624D01*
X104262784Y-130187544D01*
X104410354Y-130286147D01*
X104535853Y-130411646D01*
X104634456Y-130559216D01*
X104702376Y-130723188D01*
X104737000Y-130897259D01*
X104737000Y-131074741D01*
X104702376Y-131248812D01*
X104634456Y-131412784D01*
X104535853Y-131560354D01*
X104410354Y-131685853D01*
X104262784Y-131784456D01*
X104098812Y-131852376D01*
X103949512Y-131882073D01*
X103924742Y-131887000D01*
X103747258Y-131887000D01*
X103722488Y-131882073D01*
X103573188Y-131852376D01*
X103409216Y-131784456D01*
X103261646Y-131685853D01*
X103136147Y-131560354D01*
X103037544Y-131412784D01*
X102969624Y-131248812D01*
X102935000Y-131074741D01*
X102935000Y-130897259D01*
X102969624Y-130723188D01*
X103037544Y-130559216D01*
X103136147Y-130411646D01*
X103261646Y-130286147D01*
X103409216Y-130187544D01*
X103573188Y-130119624D01*
X103722488Y-130089927D01*
X103747258Y-130085000D01*
X103924742Y-130085000D01*
X103949512Y-130089927D01*
G37*
G36*
X106489512Y-130089927D02*
G01*
X106638812Y-130119624D01*
X106802784Y-130187544D01*
X106950354Y-130286147D01*
X107075853Y-130411646D01*
X107174456Y-130559216D01*
X107242376Y-130723188D01*
X107277000Y-130897259D01*
X107277000Y-131074741D01*
X107242376Y-131248812D01*
X107174456Y-131412784D01*
X107075853Y-131560354D01*
X106950354Y-131685853D01*
X106802784Y-131784456D01*
X106638812Y-131852376D01*
X106489512Y-131882073D01*
X106464742Y-131887000D01*
X106287258Y-131887000D01*
X106262488Y-131882073D01*
X106113188Y-131852376D01*
X105949216Y-131784456D01*
X105801646Y-131685853D01*
X105676147Y-131560354D01*
X105577544Y-131412784D01*
X105509624Y-131248812D01*
X105475000Y-131074741D01*
X105475000Y-130897259D01*
X105509624Y-130723188D01*
X105577544Y-130559216D01*
X105676147Y-130411646D01*
X105801646Y-130286147D01*
X105949216Y-130187544D01*
X106113188Y-130119624D01*
X106262488Y-130089927D01*
X106287258Y-130085000D01*
X106464742Y-130085000D01*
X106489512Y-130089927D01*
G37*
G36*
X109029512Y-130089927D02*
G01*
X109178812Y-130119624D01*
X109342784Y-130187544D01*
X109490354Y-130286147D01*
X109615853Y-130411646D01*
X109714456Y-130559216D01*
X109782376Y-130723188D01*
X109817000Y-130897259D01*
X109817000Y-131074741D01*
X109782376Y-131248812D01*
X109714456Y-131412784D01*
X109615853Y-131560354D01*
X109490354Y-131685853D01*
X109342784Y-131784456D01*
X109178812Y-131852376D01*
X109029512Y-131882073D01*
X109004742Y-131887000D01*
X108827258Y-131887000D01*
X108802488Y-131882073D01*
X108653188Y-131852376D01*
X108489216Y-131784456D01*
X108341646Y-131685853D01*
X108216147Y-131560354D01*
X108117544Y-131412784D01*
X108049624Y-131248812D01*
X108015000Y-131074741D01*
X108015000Y-130897259D01*
X108049624Y-130723188D01*
X108117544Y-130559216D01*
X108216147Y-130411646D01*
X108341646Y-130286147D01*
X108489216Y-130187544D01*
X108653188Y-130119624D01*
X108802488Y-130089927D01*
X108827258Y-130085000D01*
X109004742Y-130085000D01*
X109029512Y-130089927D01*
G37*
G36*
X111569512Y-130089927D02*
G01*
X111718812Y-130119624D01*
X111882784Y-130187544D01*
X112030354Y-130286147D01*
X112155853Y-130411646D01*
X112254456Y-130559216D01*
X112322376Y-130723188D01*
X112357000Y-130897259D01*
X112357000Y-131074741D01*
X112322376Y-131248812D01*
X112254456Y-131412784D01*
X112155853Y-131560354D01*
X112030354Y-131685853D01*
X111882784Y-131784456D01*
X111718812Y-131852376D01*
X111569512Y-131882073D01*
X111544742Y-131887000D01*
X111367258Y-131887000D01*
X111342488Y-131882073D01*
X111193188Y-131852376D01*
X111029216Y-131784456D01*
X110881646Y-131685853D01*
X110756147Y-131560354D01*
X110657544Y-131412784D01*
X110589624Y-131248812D01*
X110555000Y-131074741D01*
X110555000Y-130897259D01*
X110589624Y-130723188D01*
X110657544Y-130559216D01*
X110756147Y-130411646D01*
X110881646Y-130286147D01*
X111029216Y-130187544D01*
X111193188Y-130119624D01*
X111342488Y-130089927D01*
X111367258Y-130085000D01*
X111544742Y-130085000D01*
X111569512Y-130089927D01*
G37*
G36*
X114109512Y-130089927D02*
G01*
X114258812Y-130119624D01*
X114422784Y-130187544D01*
X114570354Y-130286147D01*
X114695853Y-130411646D01*
X114794456Y-130559216D01*
X114862376Y-130723188D01*
X114897000Y-130897259D01*
X114897000Y-131074741D01*
X114862376Y-131248812D01*
X114794456Y-131412784D01*
X114695853Y-131560354D01*
X114570354Y-131685853D01*
X114422784Y-131784456D01*
X114258812Y-131852376D01*
X114109512Y-131882073D01*
X114084742Y-131887000D01*
X113907258Y-131887000D01*
X113882488Y-131882073D01*
X113733188Y-131852376D01*
X113569216Y-131784456D01*
X113421646Y-131685853D01*
X113296147Y-131560354D01*
X113197544Y-131412784D01*
X113129624Y-131248812D01*
X113095000Y-131074741D01*
X113095000Y-130897259D01*
X113129624Y-130723188D01*
X113197544Y-130559216D01*
X113296147Y-130411646D01*
X113421646Y-130286147D01*
X113569216Y-130187544D01*
X113733188Y-130119624D01*
X113882488Y-130089927D01*
X113907258Y-130085000D01*
X114084742Y-130085000D01*
X114109512Y-130089927D01*
G37*
G36*
X116649512Y-130089927D02*
G01*
X116798812Y-130119624D01*
X116962784Y-130187544D01*
X117110354Y-130286147D01*
X117235853Y-130411646D01*
X117334456Y-130559216D01*
X117402376Y-130723188D01*
X117437000Y-130897259D01*
X117437000Y-131074741D01*
X117402376Y-131248812D01*
X117334456Y-131412784D01*
X117235853Y-131560354D01*
X117110354Y-131685853D01*
X116962784Y-131784456D01*
X116798812Y-131852376D01*
X116649512Y-131882073D01*
X116624742Y-131887000D01*
X116447258Y-131887000D01*
X116422488Y-131882073D01*
X116273188Y-131852376D01*
X116109216Y-131784456D01*
X115961646Y-131685853D01*
X115836147Y-131560354D01*
X115737544Y-131412784D01*
X115669624Y-131248812D01*
X115635000Y-131074741D01*
X115635000Y-130897259D01*
X115669624Y-130723188D01*
X115737544Y-130559216D01*
X115836147Y-130411646D01*
X115961646Y-130286147D01*
X116109216Y-130187544D01*
X116273188Y-130119624D01*
X116422488Y-130089927D01*
X116447258Y-130085000D01*
X116624742Y-130085000D01*
X116649512Y-130089927D01*
G37*
G36*
X93789512Y-130089927D02*
G01*
X93938812Y-130119624D01*
X94102784Y-130187544D01*
X94250354Y-130286147D01*
X94375853Y-130411646D01*
X94474456Y-130559216D01*
X94542376Y-130723188D01*
X94577000Y-130897259D01*
X94577000Y-131074741D01*
X94542376Y-131248812D01*
X94474456Y-131412784D01*
X94375853Y-131560354D01*
X94250354Y-131685853D01*
X94102784Y-131784456D01*
X93938812Y-131852376D01*
X93789512Y-131882073D01*
X93764742Y-131887000D01*
X93587258Y-131887000D01*
X93562488Y-131882073D01*
X93413188Y-131852376D01*
X93249216Y-131784456D01*
X93101646Y-131685853D01*
X92976147Y-131560354D01*
X92877544Y-131412784D01*
X92809624Y-131248812D01*
X92775000Y-131074741D01*
X92775000Y-130897259D01*
X92809624Y-130723188D01*
X92877544Y-130559216D01*
X92976147Y-130411646D01*
X93101646Y-130286147D01*
X93249216Y-130187544D01*
X93413188Y-130119624D01*
X93562488Y-130089927D01*
X93587258Y-130085000D01*
X93764742Y-130085000D01*
X93789512Y-130089927D01*
G37*
G36*
X85270468Y-128559565D02*
G01*
X85309138Y-128571296D01*
X85344777Y-128590346D01*
X85376017Y-128615983D01*
X85401654Y-128647223D01*
X85420704Y-128682862D01*
X85432435Y-128721532D01*
X85437000Y-128767888D01*
X85437000Y-129419112D01*
X85432435Y-129465468D01*
X85420704Y-129504138D01*
X85401654Y-129539777D01*
X85376017Y-129571017D01*
X85344777Y-129596654D01*
X85309138Y-129615704D01*
X85270468Y-129627435D01*
X85224112Y-129632000D01*
X84147888Y-129632000D01*
X84101532Y-129627435D01*
X84062862Y-129615704D01*
X84027223Y-129596654D01*
X83995983Y-129571017D01*
X83970346Y-129539777D01*
X83951296Y-129504138D01*
X83939565Y-129465468D01*
X83935000Y-129419112D01*
X83935000Y-128767888D01*
X83939565Y-128721532D01*
X83951296Y-128682862D01*
X83970346Y-128647223D01*
X83995983Y-128615983D01*
X84027223Y-128590346D01*
X84062862Y-128571296D01*
X84101532Y-128559565D01*
X84147888Y-128555000D01*
X85224112Y-128555000D01*
X85270468Y-128559565D01*
G37*
G36*
X89565591Y-128259085D02*
G01*
X89599569Y-128269393D01*
X89630890Y-128286134D01*
X89658339Y-128308661D01*
X89680866Y-128336110D01*
X89697607Y-128367431D01*
X89707915Y-128401409D01*
X89712000Y-128442890D01*
X89712000Y-129044110D01*
X89707915Y-129085591D01*
X89697607Y-129119569D01*
X89680866Y-129150890D01*
X89658339Y-129178339D01*
X89630890Y-129200866D01*
X89599569Y-129217607D01*
X89565591Y-129227915D01*
X89524110Y-129232000D01*
X88847890Y-129232000D01*
X88806409Y-129227915D01*
X88772431Y-129217607D01*
X88741110Y-129200866D01*
X88713661Y-129178339D01*
X88691134Y-129150890D01*
X88674393Y-129119569D01*
X88664085Y-129085591D01*
X88660000Y-129044110D01*
X88660000Y-128442890D01*
X88664085Y-128401409D01*
X88674393Y-128367431D01*
X88691134Y-128336110D01*
X88713661Y-128308661D01*
X88741110Y-128286134D01*
X88772431Y-128269393D01*
X88806409Y-128259085D01*
X88847890Y-128255000D01*
X89524110Y-128255000D01*
X89565591Y-128259085D01*
G37*
G36*
X96365591Y-128259085D02*
G01*
X96399569Y-128269393D01*
X96430890Y-128286134D01*
X96458339Y-128308661D01*
X96480866Y-128336110D01*
X96497607Y-128367431D01*
X96507915Y-128401409D01*
X96512000Y-128442890D01*
X96512000Y-129044110D01*
X96507915Y-129085591D01*
X96497607Y-129119569D01*
X96480866Y-129150890D01*
X96458339Y-129178339D01*
X96430890Y-129200866D01*
X96399569Y-129217607D01*
X96365591Y-129227915D01*
X96324110Y-129232000D01*
X95647890Y-129232000D01*
X95606409Y-129227915D01*
X95572431Y-129217607D01*
X95541110Y-129200866D01*
X95513661Y-129178339D01*
X95491134Y-129150890D01*
X95474393Y-129119569D01*
X95464085Y-129085591D01*
X95460000Y-129044110D01*
X95460000Y-128442890D01*
X95464085Y-128401409D01*
X95474393Y-128367431D01*
X95491134Y-128336110D01*
X95513661Y-128308661D01*
X95541110Y-128286134D01*
X95572431Y-128269393D01*
X95606409Y-128259085D01*
X95647890Y-128255000D01*
X96324110Y-128255000D01*
X96365591Y-128259085D01*
G37*
G36*
X86765591Y-128259085D02*
G01*
X86799569Y-128269393D01*
X86830890Y-128286134D01*
X86858339Y-128308661D01*
X86880866Y-128336110D01*
X86897607Y-128367431D01*
X86907915Y-128401409D01*
X86912000Y-128442890D01*
X86912000Y-129044110D01*
X86907915Y-129085591D01*
X86897607Y-129119569D01*
X86880866Y-129150890D01*
X86858339Y-129178339D01*
X86830890Y-129200866D01*
X86799569Y-129217607D01*
X86765591Y-129227915D01*
X86724110Y-129232000D01*
X86047890Y-129232000D01*
X86006409Y-129227915D01*
X85972431Y-129217607D01*
X85941110Y-129200866D01*
X85913661Y-129178339D01*
X85891134Y-129150890D01*
X85874393Y-129119569D01*
X85864085Y-129085591D01*
X85860000Y-129044110D01*
X85860000Y-128442890D01*
X85864085Y-128401409D01*
X85874393Y-128367431D01*
X85891134Y-128336110D01*
X85913661Y-128308661D01*
X85941110Y-128286134D01*
X85972431Y-128269393D01*
X86006409Y-128259085D01*
X86047890Y-128255000D01*
X86724110Y-128255000D01*
X86765591Y-128259085D01*
G37*
G36*
X93765591Y-128259085D02*
G01*
X93799569Y-128269393D01*
X93830890Y-128286134D01*
X93858339Y-128308661D01*
X93880866Y-128336110D01*
X93897607Y-128367431D01*
X93907915Y-128401409D01*
X93912000Y-128442890D01*
X93912000Y-129044110D01*
X93907915Y-129085591D01*
X93897607Y-129119569D01*
X93880866Y-129150890D01*
X93858339Y-129178339D01*
X93830890Y-129200866D01*
X93799569Y-129217607D01*
X93765591Y-129227915D01*
X93724110Y-129232000D01*
X93047890Y-129232000D01*
X93006409Y-129227915D01*
X92972431Y-129217607D01*
X92941110Y-129200866D01*
X92913661Y-129178339D01*
X92891134Y-129150890D01*
X92874393Y-129119569D01*
X92864085Y-129085591D01*
X92860000Y-129044110D01*
X92860000Y-128442890D01*
X92864085Y-128401409D01*
X92874393Y-128367431D01*
X92891134Y-128336110D01*
X92913661Y-128308661D01*
X92941110Y-128286134D01*
X92972431Y-128269393D01*
X93006409Y-128259085D01*
X93047890Y-128255000D01*
X93724110Y-128255000D01*
X93765591Y-128259085D01*
G37*
G36*
X88165591Y-128259085D02*
G01*
X88199569Y-128269393D01*
X88230890Y-128286134D01*
X88258339Y-128308661D01*
X88280866Y-128336110D01*
X88297607Y-128367431D01*
X88307915Y-128401409D01*
X88312000Y-128442890D01*
X88312000Y-129044110D01*
X88307915Y-129085591D01*
X88297607Y-129119569D01*
X88280866Y-129150890D01*
X88258339Y-129178339D01*
X88230890Y-129200866D01*
X88199569Y-129217607D01*
X88165591Y-129227915D01*
X88124110Y-129232000D01*
X87447890Y-129232000D01*
X87406409Y-129227915D01*
X87372431Y-129217607D01*
X87341110Y-129200866D01*
X87313661Y-129178339D01*
X87291134Y-129150890D01*
X87274393Y-129119569D01*
X87264085Y-129085591D01*
X87260000Y-129044110D01*
X87260000Y-128442890D01*
X87264085Y-128401409D01*
X87274393Y-128367431D01*
X87291134Y-128336110D01*
X87313661Y-128308661D01*
X87341110Y-128286134D01*
X87372431Y-128269393D01*
X87406409Y-128259085D01*
X87447890Y-128255000D01*
X88124110Y-128255000D01*
X88165591Y-128259085D01*
G37*
G36*
X92365591Y-128259085D02*
G01*
X92399569Y-128269393D01*
X92430890Y-128286134D01*
X92458339Y-128308661D01*
X92480866Y-128336110D01*
X92497607Y-128367431D01*
X92507915Y-128401409D01*
X92512000Y-128442890D01*
X92512000Y-129044110D01*
X92507915Y-129085591D01*
X92497607Y-129119569D01*
X92480866Y-129150890D01*
X92458339Y-129178339D01*
X92430890Y-129200866D01*
X92399569Y-129217607D01*
X92365591Y-129227915D01*
X92324110Y-129232000D01*
X91647890Y-129232000D01*
X91606409Y-129227915D01*
X91572431Y-129217607D01*
X91541110Y-129200866D01*
X91513661Y-129178339D01*
X91491134Y-129150890D01*
X91474393Y-129119569D01*
X91464085Y-129085591D01*
X91460000Y-129044110D01*
X91460000Y-128442890D01*
X91464085Y-128401409D01*
X91474393Y-128367431D01*
X91491134Y-128336110D01*
X91513661Y-128308661D01*
X91541110Y-128286134D01*
X91572431Y-128269393D01*
X91606409Y-128259085D01*
X91647890Y-128255000D01*
X92324110Y-128255000D01*
X92365591Y-128259085D01*
G37*
G36*
X73610737Y-127505500D02*
G01*
X73683638Y-127512680D01*
X73774424Y-127540220D01*
X73806356Y-127549906D01*
X73919445Y-127610354D01*
X74018574Y-127691706D01*
X74099926Y-127790835D01*
X74160374Y-127903924D01*
X74160375Y-127903928D01*
X74197600Y-128026642D01*
X74210169Y-128154260D01*
X74197600Y-128281878D01*
X74193266Y-128296164D01*
X74160374Y-128404596D01*
X74099926Y-128517685D01*
X74018574Y-128616814D01*
X73919445Y-128698166D01*
X73806356Y-128758614D01*
X73775783Y-128767888D01*
X73683638Y-128795840D01*
X73619875Y-128802120D01*
X73587994Y-128805260D01*
X73124046Y-128805260D01*
X73092165Y-128802120D01*
X73028402Y-128795840D01*
X72936257Y-128767888D01*
X72905684Y-128758614D01*
X72792595Y-128698166D01*
X72693466Y-128616814D01*
X72612114Y-128517685D01*
X72551666Y-128404596D01*
X72518774Y-128296164D01*
X72514440Y-128281878D01*
X72501871Y-128154260D01*
X72514440Y-128026642D01*
X72551665Y-127903928D01*
X72551666Y-127903924D01*
X72612114Y-127790835D01*
X72693466Y-127691706D01*
X72792595Y-127610354D01*
X72905684Y-127549906D01*
X72937616Y-127540220D01*
X73028402Y-127512680D01*
X73101303Y-127505500D01*
X73124046Y-127503260D01*
X73587994Y-127503260D01*
X73610737Y-127505500D01*
G37*
G36*
X85270468Y-126684565D02*
G01*
X85309138Y-126696296D01*
X85344777Y-126715346D01*
X85376017Y-126740983D01*
X85401654Y-126772223D01*
X85420704Y-126807862D01*
X85432435Y-126846532D01*
X85437000Y-126892888D01*
X85437000Y-127544112D01*
X85432435Y-127590468D01*
X85420704Y-127629138D01*
X85401654Y-127664777D01*
X85376017Y-127696017D01*
X85344777Y-127721654D01*
X85309138Y-127740704D01*
X85270468Y-127752435D01*
X85224112Y-127757000D01*
X84147888Y-127757000D01*
X84101532Y-127752435D01*
X84062862Y-127740704D01*
X84027223Y-127721654D01*
X83995983Y-127696017D01*
X83970346Y-127664777D01*
X83951296Y-127629138D01*
X83939565Y-127590468D01*
X83935000Y-127544112D01*
X83935000Y-126892888D01*
X83939565Y-126846532D01*
X83951296Y-126807862D01*
X83970346Y-126772223D01*
X83995983Y-126740983D01*
X84027223Y-126715346D01*
X84062862Y-126696296D01*
X84101532Y-126684565D01*
X84147888Y-126680000D01*
X85224112Y-126680000D01*
X85270468Y-126684565D01*
G37*
G36*
X76216741Y-126624434D02*
G01*
X76317015Y-126665969D01*
X76317016Y-126665970D01*
X76407262Y-126726270D01*
X76484010Y-126803018D01*
X76499639Y-126826409D01*
X76544311Y-126893265D01*
X76585846Y-126993539D01*
X76607020Y-127099990D01*
X76607020Y-127208530D01*
X76585846Y-127314981D01*
X76544311Y-127415255D01*
X76544310Y-127415256D01*
X76484010Y-127505502D01*
X76407262Y-127582250D01*
X76394484Y-127590788D01*
X76317015Y-127642551D01*
X76216741Y-127684086D01*
X76110290Y-127705260D01*
X76001750Y-127705260D01*
X75895299Y-127684086D01*
X75795025Y-127642551D01*
X75717556Y-127590788D01*
X75704778Y-127582250D01*
X75628030Y-127505502D01*
X75567730Y-127415256D01*
X75567729Y-127415255D01*
X75526194Y-127314981D01*
X75505020Y-127208530D01*
X75505020Y-127099990D01*
X75526194Y-126993539D01*
X75567729Y-126893265D01*
X75612401Y-126826409D01*
X75628030Y-126803018D01*
X75704778Y-126726270D01*
X75795024Y-126665970D01*
X75795025Y-126665969D01*
X75895299Y-126624434D01*
X76001750Y-126603260D01*
X76110290Y-126603260D01*
X76216741Y-126624434D01*
G37*
G36*
X92365591Y-126684085D02*
G01*
X92399569Y-126694393D01*
X92430890Y-126711134D01*
X92458339Y-126733661D01*
X92480866Y-126761110D01*
X92497607Y-126792431D01*
X92507915Y-126826409D01*
X92512000Y-126867890D01*
X92512000Y-127469110D01*
X92507915Y-127510591D01*
X92497607Y-127544569D01*
X92480866Y-127575890D01*
X92458339Y-127603339D01*
X92430890Y-127625866D01*
X92399569Y-127642607D01*
X92365591Y-127652915D01*
X92324110Y-127657000D01*
X91647890Y-127657000D01*
X91606409Y-127652915D01*
X91572431Y-127642607D01*
X91541110Y-127625866D01*
X91513661Y-127603339D01*
X91491134Y-127575890D01*
X91474393Y-127544569D01*
X91464085Y-127510591D01*
X91460000Y-127469110D01*
X91460000Y-126867890D01*
X91464085Y-126826409D01*
X91474393Y-126792431D01*
X91491134Y-126761110D01*
X91513661Y-126733661D01*
X91541110Y-126711134D01*
X91572431Y-126694393D01*
X91606409Y-126684085D01*
X91647890Y-126680000D01*
X92324110Y-126680000D01*
X92365591Y-126684085D01*
G37*
G36*
X96365591Y-126684085D02*
G01*
X96399569Y-126694393D01*
X96430890Y-126711134D01*
X96458339Y-126733661D01*
X96480866Y-126761110D01*
X96497607Y-126792431D01*
X96507915Y-126826409D01*
X96512000Y-126867890D01*
X96512000Y-127469110D01*
X96507915Y-127510591D01*
X96497607Y-127544569D01*
X96480866Y-127575890D01*
X96458339Y-127603339D01*
X96430890Y-127625866D01*
X96399569Y-127642607D01*
X96365591Y-127652915D01*
X96324110Y-127657000D01*
X95647890Y-127657000D01*
X95606409Y-127652915D01*
X95572431Y-127642607D01*
X95541110Y-127625866D01*
X95513661Y-127603339D01*
X95491134Y-127575890D01*
X95474393Y-127544569D01*
X95464085Y-127510591D01*
X95460000Y-127469110D01*
X95460000Y-126867890D01*
X95464085Y-126826409D01*
X95474393Y-126792431D01*
X95491134Y-126761110D01*
X95513661Y-126733661D01*
X95541110Y-126711134D01*
X95572431Y-126694393D01*
X95606409Y-126684085D01*
X95647890Y-126680000D01*
X96324110Y-126680000D01*
X96365591Y-126684085D01*
G37*
G36*
X86765591Y-126684085D02*
G01*
X86799569Y-126694393D01*
X86830890Y-126711134D01*
X86858339Y-126733661D01*
X86880866Y-126761110D01*
X86897607Y-126792431D01*
X86907915Y-126826409D01*
X86912000Y-126867890D01*
X86912000Y-127469110D01*
X86907915Y-127510591D01*
X86897607Y-127544569D01*
X86880866Y-127575890D01*
X86858339Y-127603339D01*
X86830890Y-127625866D01*
X86799569Y-127642607D01*
X86765591Y-127652915D01*
X86724110Y-127657000D01*
X86047890Y-127657000D01*
X86006409Y-127652915D01*
X85972431Y-127642607D01*
X85941110Y-127625866D01*
X85913661Y-127603339D01*
X85891134Y-127575890D01*
X85874393Y-127544569D01*
X85864085Y-127510591D01*
X85860000Y-127469110D01*
X85860000Y-126867890D01*
X85864085Y-126826409D01*
X85874393Y-126792431D01*
X85891134Y-126761110D01*
X85913661Y-126733661D01*
X85941110Y-126711134D01*
X85972431Y-126694393D01*
X86006409Y-126684085D01*
X86047890Y-126680000D01*
X86724110Y-126680000D01*
X86765591Y-126684085D01*
G37*
G36*
X93765591Y-126684085D02*
G01*
X93799569Y-126694393D01*
X93830890Y-126711134D01*
X93858339Y-126733661D01*
X93880866Y-126761110D01*
X93897607Y-126792431D01*
X93907915Y-126826409D01*
X93912000Y-126867890D01*
X93912000Y-127469110D01*
X93907915Y-127510591D01*
X93897607Y-127544569D01*
X93880866Y-127575890D01*
X93858339Y-127603339D01*
X93830890Y-127625866D01*
X93799569Y-127642607D01*
X93765591Y-127652915D01*
X93724110Y-127657000D01*
X93047890Y-127657000D01*
X93006409Y-127652915D01*
X92972431Y-127642607D01*
X92941110Y-127625866D01*
X92913661Y-127603339D01*
X92891134Y-127575890D01*
X92874393Y-127544569D01*
X92864085Y-127510591D01*
X92860000Y-127469110D01*
X92860000Y-126867890D01*
X92864085Y-126826409D01*
X92874393Y-126792431D01*
X92891134Y-126761110D01*
X92913661Y-126733661D01*
X92941110Y-126711134D01*
X92972431Y-126694393D01*
X93006409Y-126684085D01*
X93047890Y-126680000D01*
X93724110Y-126680000D01*
X93765591Y-126684085D01*
G37*
G36*
X88165591Y-126684085D02*
G01*
X88199569Y-126694393D01*
X88230890Y-126711134D01*
X88258339Y-126733661D01*
X88280866Y-126761110D01*
X88297607Y-126792431D01*
X88307915Y-126826409D01*
X88312000Y-126867890D01*
X88312000Y-127469110D01*
X88307915Y-127510591D01*
X88297607Y-127544569D01*
X88280866Y-127575890D01*
X88258339Y-127603339D01*
X88230890Y-127625866D01*
X88199569Y-127642607D01*
X88165591Y-127652915D01*
X88124110Y-127657000D01*
X87447890Y-127657000D01*
X87406409Y-127652915D01*
X87372431Y-127642607D01*
X87341110Y-127625866D01*
X87313661Y-127603339D01*
X87291134Y-127575890D01*
X87274393Y-127544569D01*
X87264085Y-127510591D01*
X87260000Y-127469110D01*
X87260000Y-126867890D01*
X87264085Y-126826409D01*
X87274393Y-126792431D01*
X87291134Y-126761110D01*
X87313661Y-126733661D01*
X87341110Y-126711134D01*
X87372431Y-126694393D01*
X87406409Y-126684085D01*
X87447890Y-126680000D01*
X88124110Y-126680000D01*
X88165591Y-126684085D01*
G37*
G36*
X89565591Y-126684085D02*
G01*
X89599569Y-126694393D01*
X89630890Y-126711134D01*
X89658339Y-126733661D01*
X89680866Y-126761110D01*
X89697607Y-126792431D01*
X89707915Y-126826409D01*
X89712000Y-126867890D01*
X89712000Y-127469110D01*
X89707915Y-127510591D01*
X89697607Y-127544569D01*
X89680866Y-127575890D01*
X89658339Y-127603339D01*
X89630890Y-127625866D01*
X89599569Y-127642607D01*
X89565591Y-127652915D01*
X89524110Y-127657000D01*
X88847890Y-127657000D01*
X88806409Y-127652915D01*
X88772431Y-127642607D01*
X88741110Y-127625866D01*
X88713661Y-127603339D01*
X88691134Y-127575890D01*
X88674393Y-127544569D01*
X88664085Y-127510591D01*
X88660000Y-127469110D01*
X88660000Y-126867890D01*
X88664085Y-126826409D01*
X88674393Y-126792431D01*
X88691134Y-126761110D01*
X88713661Y-126733661D01*
X88741110Y-126711134D01*
X88772431Y-126694393D01*
X88806409Y-126684085D01*
X88847890Y-126680000D01*
X89524110Y-126680000D01*
X89565591Y-126684085D01*
G37*
G36*
X119977000Y-126807000D02*
G01*
X118175000Y-126807000D01*
X118175000Y-125005000D01*
X119977000Y-125005000D01*
X119977000Y-126807000D01*
G37*
G36*
X111569512Y-125009927D02*
G01*
X111718812Y-125039624D01*
X111882784Y-125107544D01*
X112030354Y-125206147D01*
X112155853Y-125331646D01*
X112254456Y-125479216D01*
X112322376Y-125643188D01*
X112357000Y-125817259D01*
X112357000Y-125994741D01*
X112322376Y-126168812D01*
X112254456Y-126332784D01*
X112155853Y-126480354D01*
X112030354Y-126605853D01*
X111882784Y-126704456D01*
X111718812Y-126772376D01*
X111569512Y-126802073D01*
X111544742Y-126807000D01*
X111367258Y-126807000D01*
X111342488Y-126802073D01*
X111193188Y-126772376D01*
X111029216Y-126704456D01*
X110881646Y-126605853D01*
X110756147Y-126480354D01*
X110657544Y-126332784D01*
X110589624Y-126168812D01*
X110555000Y-125994741D01*
X110555000Y-125817259D01*
X110589624Y-125643188D01*
X110657544Y-125479216D01*
X110756147Y-125331646D01*
X110881646Y-125206147D01*
X111029216Y-125107544D01*
X111193188Y-125039624D01*
X111342488Y-125009927D01*
X111367258Y-125005000D01*
X111544742Y-125005000D01*
X111569512Y-125009927D01*
G37*
G36*
X109817000Y-126807000D02*
G01*
X108015000Y-126807000D01*
X108015000Y-125005000D01*
X109817000Y-125005000D01*
X109817000Y-126807000D01*
G37*
G36*
X81915620Y-126207420D02*
G01*
X80813620Y-126207420D01*
X80813620Y-124705420D01*
X81915620Y-124705420D01*
X81915620Y-126207420D01*
G37*
G36*
X80295620Y-126207420D02*
G01*
X78993620Y-126207420D01*
X78993620Y-124705420D01*
X80295620Y-124705420D01*
X80295620Y-126207420D01*
G37*
G36*
X76782020Y-126205260D02*
G01*
X75330020Y-126205260D01*
X75330020Y-123103260D01*
X76782020Y-123103260D01*
X76782020Y-126205260D01*
G37*
G36*
X100034600Y-124552540D02*
G01*
X87312600Y-124552540D01*
X87312600Y-123450540D01*
X100034600Y-123450540D01*
X100034600Y-124552540D01*
G37*
G36*
X112240591Y-123334085D02*
G01*
X112274569Y-123344393D01*
X112305890Y-123361134D01*
X112333339Y-123383661D01*
X112355866Y-123411110D01*
X112372607Y-123442431D01*
X112382915Y-123476409D01*
X112387000Y-123517890D01*
X112387000Y-124194110D01*
X112382915Y-124235591D01*
X112372607Y-124269569D01*
X112355866Y-124300890D01*
X112333339Y-124328339D01*
X112305890Y-124350866D01*
X112274569Y-124367607D01*
X112240591Y-124377915D01*
X112199110Y-124382000D01*
X111597890Y-124382000D01*
X111556409Y-124377915D01*
X111522431Y-124367607D01*
X111491110Y-124350866D01*
X111463661Y-124328339D01*
X111441134Y-124300890D01*
X111424393Y-124269569D01*
X111414085Y-124235591D01*
X111410000Y-124194110D01*
X111410000Y-123517890D01*
X111414085Y-123476409D01*
X111424393Y-123442431D01*
X111441134Y-123411110D01*
X111463661Y-123383661D01*
X111491110Y-123361134D01*
X111522431Y-123344393D01*
X111556409Y-123334085D01*
X111597890Y-123330000D01*
X112199110Y-123330000D01*
X112240591Y-123334085D01*
G37*
G36*
X113815591Y-123334085D02*
G01*
X113849569Y-123344393D01*
X113880890Y-123361134D01*
X113908339Y-123383661D01*
X113930866Y-123411110D01*
X113947607Y-123442431D01*
X113957915Y-123476409D01*
X113962000Y-123517890D01*
X113962000Y-124194110D01*
X113957915Y-124235591D01*
X113947607Y-124269569D01*
X113930866Y-124300890D01*
X113908339Y-124328339D01*
X113880890Y-124350866D01*
X113849569Y-124367607D01*
X113815591Y-124377915D01*
X113774110Y-124382000D01*
X113172890Y-124382000D01*
X113131409Y-124377915D01*
X113097431Y-124367607D01*
X113066110Y-124350866D01*
X113038661Y-124328339D01*
X113016134Y-124300890D01*
X112999393Y-124269569D01*
X112989085Y-124235591D01*
X112985000Y-124194110D01*
X112985000Y-123517890D01*
X112989085Y-123476409D01*
X112999393Y-123442431D01*
X113016134Y-123411110D01*
X113038661Y-123383661D01*
X113066110Y-123361134D01*
X113097431Y-123344393D01*
X113131409Y-123334085D01*
X113172890Y-123330000D01*
X113774110Y-123330000D01*
X113815591Y-123334085D01*
G37*
G36*
X109240591Y-123334085D02*
G01*
X109274569Y-123344393D01*
X109305890Y-123361134D01*
X109333339Y-123383661D01*
X109355866Y-123411110D01*
X109372607Y-123442431D01*
X109382915Y-123476409D01*
X109387000Y-123517890D01*
X109387000Y-124194110D01*
X109382915Y-124235591D01*
X109372607Y-124269569D01*
X109355866Y-124300890D01*
X109333339Y-124328339D01*
X109305890Y-124350866D01*
X109274569Y-124367607D01*
X109240591Y-124377915D01*
X109199110Y-124382000D01*
X108597890Y-124382000D01*
X108556409Y-124377915D01*
X108522431Y-124367607D01*
X108491110Y-124350866D01*
X108463661Y-124328339D01*
X108441134Y-124300890D01*
X108424393Y-124269569D01*
X108414085Y-124235591D01*
X108410000Y-124194110D01*
X108410000Y-123517890D01*
X108414085Y-123476409D01*
X108424393Y-123442431D01*
X108441134Y-123411110D01*
X108463661Y-123383661D01*
X108491110Y-123361134D01*
X108522431Y-123344393D01*
X108556409Y-123334085D01*
X108597890Y-123330000D01*
X109199110Y-123330000D01*
X109240591Y-123334085D01*
G37*
G36*
X110815591Y-123334085D02*
G01*
X110849569Y-123344393D01*
X110880890Y-123361134D01*
X110908339Y-123383661D01*
X110930866Y-123411110D01*
X110947607Y-123442431D01*
X110957915Y-123476409D01*
X110962000Y-123517890D01*
X110962000Y-124194110D01*
X110957915Y-124235591D01*
X110947607Y-124269569D01*
X110930866Y-124300890D01*
X110908339Y-124328339D01*
X110880890Y-124350866D01*
X110849569Y-124367607D01*
X110815591Y-124377915D01*
X110774110Y-124382000D01*
X110172890Y-124382000D01*
X110131409Y-124377915D01*
X110097431Y-124367607D01*
X110066110Y-124350866D01*
X110038661Y-124328339D01*
X110016134Y-124300890D01*
X109999393Y-124269569D01*
X109989085Y-124235591D01*
X109985000Y-124194110D01*
X109985000Y-123517890D01*
X109989085Y-123476409D01*
X109999393Y-123442431D01*
X110016134Y-123411110D01*
X110038661Y-123383661D01*
X110066110Y-123361134D01*
X110097431Y-123344393D01*
X110131409Y-123334085D01*
X110172890Y-123330000D01*
X110774110Y-123330000D01*
X110815591Y-123334085D01*
G37*
G36*
X119189512Y-122469927D02*
G01*
X119338812Y-122499624D01*
X119502784Y-122567544D01*
X119650354Y-122666147D01*
X119775853Y-122791646D01*
X119874456Y-122939216D01*
X119942376Y-123103188D01*
X119977000Y-123277259D01*
X119977000Y-123454741D01*
X119942376Y-123628812D01*
X119874456Y-123792784D01*
X119775853Y-123940354D01*
X119650354Y-124065853D01*
X119502784Y-124164456D01*
X119338812Y-124232376D01*
X119189512Y-124262073D01*
X119164742Y-124267000D01*
X118987258Y-124267000D01*
X118962488Y-124262073D01*
X118813188Y-124232376D01*
X118649216Y-124164456D01*
X118501646Y-124065853D01*
X118376147Y-123940354D01*
X118277544Y-123792784D01*
X118209624Y-123628812D01*
X118175000Y-123454741D01*
X118175000Y-123277259D01*
X118209624Y-123103188D01*
X118277544Y-122939216D01*
X118376147Y-122791646D01*
X118501646Y-122666147D01*
X118649216Y-122567544D01*
X118813188Y-122499624D01*
X118962488Y-122469927D01*
X118987258Y-122465000D01*
X119164742Y-122465000D01*
X119189512Y-122469927D01*
G37*
G36*
X81915620Y-124007420D02*
G01*
X80813620Y-124007420D01*
X80813620Y-122505420D01*
X81915620Y-122505420D01*
X81915620Y-124007420D01*
G37*
G36*
X80015620Y-124007420D02*
G01*
X78913620Y-124007420D01*
X78913620Y-122505420D01*
X80015620Y-122505420D01*
X80015620Y-124007420D01*
G37*
G36*
X112240591Y-121934085D02*
G01*
X112274569Y-121944393D01*
X112305890Y-121961134D01*
X112333339Y-121983661D01*
X112355866Y-122011110D01*
X112372607Y-122042431D01*
X112382915Y-122076409D01*
X112387000Y-122117890D01*
X112387000Y-122794110D01*
X112382915Y-122835591D01*
X112372607Y-122869569D01*
X112355866Y-122900890D01*
X112333339Y-122928339D01*
X112305890Y-122950866D01*
X112274569Y-122967607D01*
X112240591Y-122977915D01*
X112199110Y-122982000D01*
X111597890Y-122982000D01*
X111556409Y-122977915D01*
X111522431Y-122967607D01*
X111491110Y-122950866D01*
X111463661Y-122928339D01*
X111441134Y-122900890D01*
X111424393Y-122869569D01*
X111414085Y-122835591D01*
X111410000Y-122794110D01*
X111410000Y-122117890D01*
X111414085Y-122076409D01*
X111424393Y-122042431D01*
X111441134Y-122011110D01*
X111463661Y-121983661D01*
X111491110Y-121961134D01*
X111522431Y-121944393D01*
X111556409Y-121934085D01*
X111597890Y-121930000D01*
X112199110Y-121930000D01*
X112240591Y-121934085D01*
G37*
G36*
X110815591Y-121934085D02*
G01*
X110849569Y-121944393D01*
X110880890Y-121961134D01*
X110908339Y-121983661D01*
X110930866Y-122011110D01*
X110947607Y-122042431D01*
X110957915Y-122076409D01*
X110962000Y-122117890D01*
X110962000Y-122794110D01*
X110957915Y-122835591D01*
X110947607Y-122869569D01*
X110930866Y-122900890D01*
X110908339Y-122928339D01*
X110880890Y-122950866D01*
X110849569Y-122967607D01*
X110815591Y-122977915D01*
X110774110Y-122982000D01*
X110172890Y-122982000D01*
X110131409Y-122977915D01*
X110097431Y-122967607D01*
X110066110Y-122950866D01*
X110038661Y-122928339D01*
X110016134Y-122900890D01*
X109999393Y-122869569D01*
X109989085Y-122835591D01*
X109985000Y-122794110D01*
X109985000Y-122117890D01*
X109989085Y-122076409D01*
X109999393Y-122042431D01*
X110016134Y-122011110D01*
X110038661Y-121983661D01*
X110066110Y-121961134D01*
X110097431Y-121944393D01*
X110131409Y-121934085D01*
X110172890Y-121930000D01*
X110774110Y-121930000D01*
X110815591Y-121934085D01*
G37*
G36*
X113815591Y-121934085D02*
G01*
X113849569Y-121944393D01*
X113880890Y-121961134D01*
X113908339Y-121983661D01*
X113930866Y-122011110D01*
X113947607Y-122042431D01*
X113957915Y-122076409D01*
X113962000Y-122117890D01*
X113962000Y-122794110D01*
X113957915Y-122835591D01*
X113947607Y-122869569D01*
X113930866Y-122900890D01*
X113908339Y-122928339D01*
X113880890Y-122950866D01*
X113849569Y-122967607D01*
X113815591Y-122977915D01*
X113774110Y-122982000D01*
X113172890Y-122982000D01*
X113131409Y-122977915D01*
X113097431Y-122967607D01*
X113066110Y-122950866D01*
X113038661Y-122928339D01*
X113016134Y-122900890D01*
X112999393Y-122869569D01*
X112989085Y-122835591D01*
X112985000Y-122794110D01*
X112985000Y-122117890D01*
X112989085Y-122076409D01*
X112999393Y-122042431D01*
X113016134Y-122011110D01*
X113038661Y-121983661D01*
X113066110Y-121961134D01*
X113097431Y-121944393D01*
X113131409Y-121934085D01*
X113172890Y-121930000D01*
X113774110Y-121930000D01*
X113815591Y-121934085D01*
G37*
G36*
X109240591Y-121934085D02*
G01*
X109274569Y-121944393D01*
X109305890Y-121961134D01*
X109333339Y-121983661D01*
X109355866Y-122011110D01*
X109372607Y-122042431D01*
X109382915Y-122076409D01*
X109387000Y-122117890D01*
X109387000Y-122794110D01*
X109382915Y-122835591D01*
X109372607Y-122869569D01*
X109355866Y-122900890D01*
X109333339Y-122928339D01*
X109305890Y-122950866D01*
X109274569Y-122967607D01*
X109240591Y-122977915D01*
X109199110Y-122982000D01*
X108597890Y-122982000D01*
X108556409Y-122977915D01*
X108522431Y-122967607D01*
X108491110Y-122950866D01*
X108463661Y-122928339D01*
X108441134Y-122900890D01*
X108424393Y-122869569D01*
X108414085Y-122835591D01*
X108410000Y-122794110D01*
X108410000Y-122117890D01*
X108414085Y-122076409D01*
X108424393Y-122042431D01*
X108441134Y-122011110D01*
X108463661Y-121983661D01*
X108491110Y-121961134D01*
X108522431Y-121944393D01*
X108556409Y-121934085D01*
X108597890Y-121930000D01*
X109199110Y-121930000D01*
X109240591Y-121934085D01*
G37*
G36*
X76216741Y-121624434D02*
G01*
X76317015Y-121665969D01*
X76317016Y-121665970D01*
X76407262Y-121726270D01*
X76484010Y-121803018D01*
X76484011Y-121803020D01*
X76544311Y-121893265D01*
X76585846Y-121993539D01*
X76607020Y-122099990D01*
X76607020Y-122208530D01*
X76585846Y-122314981D01*
X76544311Y-122415255D01*
X76544310Y-122415256D01*
X76484010Y-122505502D01*
X76407262Y-122582250D01*
X76361832Y-122612605D01*
X76317015Y-122642551D01*
X76216741Y-122684086D01*
X76110290Y-122705260D01*
X76001750Y-122705260D01*
X75895299Y-122684086D01*
X75795025Y-122642551D01*
X75750208Y-122612605D01*
X75704778Y-122582250D01*
X75628030Y-122505502D01*
X75567730Y-122415256D01*
X75567729Y-122415255D01*
X75526194Y-122314981D01*
X75505020Y-122208530D01*
X75505020Y-122099990D01*
X75526194Y-121993539D01*
X75567729Y-121893265D01*
X75628029Y-121803020D01*
X75628030Y-121803018D01*
X75704778Y-121726270D01*
X75795024Y-121665970D01*
X75795025Y-121665969D01*
X75895299Y-121624434D01*
X76001750Y-121603260D01*
X76110290Y-121603260D01*
X76216741Y-121624434D01*
G37*
G36*
X86224600Y-122362540D02*
G01*
X85122600Y-122362540D01*
X85122600Y-109640540D01*
X86224600Y-109640540D01*
X86224600Y-122362540D01*
G37*
G36*
X102224600Y-122362540D02*
G01*
X101122600Y-122362540D01*
X101122600Y-109640540D01*
X102224600Y-109640540D01*
X102224600Y-122362540D01*
G37*
G36*
X81695468Y-120609565D02*
G01*
X81734138Y-120621296D01*
X81769777Y-120640346D01*
X81801017Y-120665983D01*
X81826654Y-120697223D01*
X81845704Y-120732862D01*
X81857435Y-120771532D01*
X81862000Y-120817888D01*
X81862000Y-121894112D01*
X81857435Y-121940468D01*
X81845704Y-121979138D01*
X81826654Y-122014777D01*
X81801017Y-122046017D01*
X81769777Y-122071654D01*
X81734138Y-122090704D01*
X81695468Y-122102435D01*
X81649112Y-122107000D01*
X80997888Y-122107000D01*
X80951532Y-122102435D01*
X80912862Y-122090704D01*
X80877223Y-122071654D01*
X80845983Y-122046017D01*
X80820346Y-122014777D01*
X80801296Y-121979138D01*
X80789565Y-121940468D01*
X80785000Y-121894112D01*
X80785000Y-120817888D01*
X80789565Y-120771532D01*
X80801296Y-120732862D01*
X80820346Y-120697223D01*
X80845983Y-120665983D01*
X80877223Y-120640346D01*
X80912862Y-120621296D01*
X80951532Y-120609565D01*
X80997888Y-120605000D01*
X81649112Y-120605000D01*
X81695468Y-120609565D01*
G37*
G36*
X79820468Y-120609565D02*
G01*
X79859138Y-120621296D01*
X79894777Y-120640346D01*
X79926017Y-120665983D01*
X79951654Y-120697223D01*
X79970704Y-120732862D01*
X79982435Y-120771532D01*
X79987000Y-120817888D01*
X79987000Y-121894112D01*
X79982435Y-121940468D01*
X79970704Y-121979138D01*
X79951654Y-122014777D01*
X79926017Y-122046017D01*
X79894777Y-122071654D01*
X79859138Y-122090704D01*
X79820468Y-122102435D01*
X79774112Y-122107000D01*
X79122888Y-122107000D01*
X79076532Y-122102435D01*
X79037862Y-122090704D01*
X79002223Y-122071654D01*
X78970983Y-122046017D01*
X78945346Y-122014777D01*
X78926296Y-121979138D01*
X78914565Y-121940468D01*
X78910000Y-121894112D01*
X78910000Y-120817888D01*
X78914565Y-120771532D01*
X78926296Y-120732862D01*
X78945346Y-120697223D01*
X78970983Y-120665983D01*
X79002223Y-120640346D01*
X79037862Y-120621296D01*
X79076532Y-120609565D01*
X79122888Y-120605000D01*
X79774112Y-120605000D01*
X79820468Y-120609565D01*
G37*
G36*
X73619875Y-120506400D02*
G01*
X73683638Y-120512680D01*
X73768926Y-120538552D01*
X73806356Y-120549906D01*
X73919445Y-120610354D01*
X74018574Y-120691706D01*
X74099926Y-120790835D01*
X74160374Y-120903924D01*
X74170060Y-120935856D01*
X74197600Y-121026642D01*
X74210169Y-121154260D01*
X74197600Y-121281878D01*
X74196531Y-121285401D01*
X74160374Y-121404596D01*
X74099926Y-121517685D01*
X74018574Y-121616814D01*
X73919445Y-121698166D01*
X73806356Y-121758614D01*
X73774424Y-121768300D01*
X73683638Y-121795840D01*
X73619875Y-121802120D01*
X73587994Y-121805260D01*
X73124046Y-121805260D01*
X73092165Y-121802120D01*
X73028402Y-121795840D01*
X72937616Y-121768300D01*
X72905684Y-121758614D01*
X72792595Y-121698166D01*
X72693466Y-121616814D01*
X72612114Y-121517685D01*
X72551666Y-121404596D01*
X72515509Y-121285401D01*
X72514440Y-121281878D01*
X72501871Y-121154260D01*
X72514440Y-121026642D01*
X72541980Y-120935856D01*
X72551666Y-120903924D01*
X72612114Y-120790835D01*
X72693466Y-120691706D01*
X72792595Y-120610354D01*
X72905684Y-120549906D01*
X72943114Y-120538552D01*
X73028402Y-120512680D01*
X73092165Y-120506400D01*
X73124046Y-120503260D01*
X73587994Y-120503260D01*
X73619875Y-120506400D01*
G37*
G36*
X119189512Y-119929927D02*
G01*
X119338812Y-119959624D01*
X119502784Y-120027544D01*
X119650354Y-120126147D01*
X119775853Y-120251646D01*
X119874456Y-120399216D01*
X119942376Y-120563188D01*
X119972073Y-120712488D01*
X119976126Y-120732862D01*
X119977000Y-120737259D01*
X119977000Y-120914741D01*
X119942376Y-121088812D01*
X119874456Y-121252784D01*
X119775853Y-121400354D01*
X119650354Y-121525853D01*
X119502784Y-121624456D01*
X119338812Y-121692376D01*
X119189512Y-121722073D01*
X119164742Y-121727000D01*
X118987258Y-121727000D01*
X118962488Y-121722073D01*
X118813188Y-121692376D01*
X118649216Y-121624456D01*
X118501646Y-121525853D01*
X118376147Y-121400354D01*
X118277544Y-121252784D01*
X118209624Y-121088812D01*
X118175000Y-120914741D01*
X118175000Y-120737259D01*
X118175875Y-120732862D01*
X118179927Y-120712488D01*
X118209624Y-120563188D01*
X118277544Y-120399216D01*
X118376147Y-120251646D01*
X118501646Y-120126147D01*
X118649216Y-120027544D01*
X118813188Y-119959624D01*
X118962488Y-119929927D01*
X118987258Y-119925000D01*
X119164742Y-119925000D01*
X119189512Y-119929927D01*
G37*
G36*
X104340591Y-120434085D02*
G01*
X104374569Y-120444393D01*
X104405890Y-120461134D01*
X104433339Y-120483661D01*
X104455866Y-120511110D01*
X104472607Y-120542431D01*
X104482915Y-120576409D01*
X104487000Y-120617890D01*
X104487000Y-121294110D01*
X104482915Y-121335591D01*
X104472607Y-121369569D01*
X104455866Y-121400890D01*
X104433339Y-121428339D01*
X104405890Y-121450866D01*
X104374569Y-121467607D01*
X104340591Y-121477915D01*
X104299110Y-121482000D01*
X103697890Y-121482000D01*
X103656409Y-121477915D01*
X103622431Y-121467607D01*
X103591110Y-121450866D01*
X103563661Y-121428339D01*
X103541134Y-121400890D01*
X103524393Y-121369569D01*
X103514085Y-121335591D01*
X103510000Y-121294110D01*
X103510000Y-120617890D01*
X103514085Y-120576409D01*
X103524393Y-120542431D01*
X103541134Y-120511110D01*
X103563661Y-120483661D01*
X103591110Y-120461134D01*
X103622431Y-120444393D01*
X103656409Y-120434085D01*
X103697890Y-120430000D01*
X104299110Y-120430000D01*
X104340591Y-120434085D01*
G37*
G36*
X105915591Y-120434085D02*
G01*
X105949569Y-120444393D01*
X105980890Y-120461134D01*
X106008339Y-120483661D01*
X106030866Y-120511110D01*
X106047607Y-120542431D01*
X106057915Y-120576409D01*
X106062000Y-120617890D01*
X106062000Y-121294110D01*
X106057915Y-121335591D01*
X106047607Y-121369569D01*
X106030866Y-121400890D01*
X106008339Y-121428339D01*
X105980890Y-121450866D01*
X105949569Y-121467607D01*
X105915591Y-121477915D01*
X105874110Y-121482000D01*
X105272890Y-121482000D01*
X105231409Y-121477915D01*
X105197431Y-121467607D01*
X105166110Y-121450866D01*
X105138661Y-121428339D01*
X105116134Y-121400890D01*
X105099393Y-121369569D01*
X105089085Y-121335591D01*
X105085000Y-121294110D01*
X105085000Y-120617890D01*
X105089085Y-120576409D01*
X105099393Y-120542431D01*
X105116134Y-120511110D01*
X105138661Y-120483661D01*
X105166110Y-120461134D01*
X105197431Y-120444393D01*
X105231409Y-120434085D01*
X105272890Y-120430000D01*
X105874110Y-120430000D01*
X105915591Y-120434085D01*
G37*
G36*
X79740591Y-119134085D02*
G01*
X79774569Y-119144393D01*
X79805890Y-119161134D01*
X79833339Y-119183661D01*
X79855866Y-119211110D01*
X79872607Y-119242431D01*
X79882915Y-119276409D01*
X79887000Y-119317890D01*
X79887000Y-119994110D01*
X79882915Y-120035591D01*
X79872607Y-120069569D01*
X79855866Y-120100890D01*
X79833339Y-120128339D01*
X79805890Y-120150866D01*
X79774569Y-120167607D01*
X79740591Y-120177915D01*
X79699110Y-120182000D01*
X79097890Y-120182000D01*
X79056409Y-120177915D01*
X79022431Y-120167607D01*
X78991110Y-120150866D01*
X78963661Y-120128339D01*
X78941134Y-120100890D01*
X78924393Y-120069569D01*
X78914085Y-120035591D01*
X78910000Y-119994110D01*
X78910000Y-119317890D01*
X78914085Y-119276409D01*
X78924393Y-119242431D01*
X78941134Y-119211110D01*
X78963661Y-119183661D01*
X78991110Y-119161134D01*
X79022431Y-119144393D01*
X79056409Y-119134085D01*
X79097890Y-119130000D01*
X79699110Y-119130000D01*
X79740591Y-119134085D01*
G37*
G36*
X81315591Y-119134085D02*
G01*
X81349569Y-119144393D01*
X81380890Y-119161134D01*
X81408339Y-119183661D01*
X81430866Y-119211110D01*
X81447607Y-119242431D01*
X81457915Y-119276409D01*
X81462000Y-119317890D01*
X81462000Y-119994110D01*
X81457915Y-120035591D01*
X81447607Y-120069569D01*
X81430866Y-120100890D01*
X81408339Y-120128339D01*
X81380890Y-120150866D01*
X81349569Y-120167607D01*
X81315591Y-120177915D01*
X81274110Y-120182000D01*
X80672890Y-120182000D01*
X80631409Y-120177915D01*
X80597431Y-120167607D01*
X80566110Y-120150866D01*
X80538661Y-120128339D01*
X80516134Y-120100890D01*
X80499393Y-120069569D01*
X80489085Y-120035591D01*
X80485000Y-119994110D01*
X80485000Y-119317890D01*
X80489085Y-119276409D01*
X80499393Y-119242431D01*
X80516134Y-119211110D01*
X80538661Y-119183661D01*
X80566110Y-119161134D01*
X80597431Y-119144393D01*
X80631409Y-119134085D01*
X80672890Y-119130000D01*
X81274110Y-119130000D01*
X81315591Y-119134085D01*
G37*
G36*
X76785760Y-119913660D02*
G01*
X75483760Y-119913660D01*
X75483760Y-118411660D01*
X76785760Y-118411660D01*
X76785760Y-119913660D01*
G37*
G36*
X78485760Y-119913660D02*
G01*
X77183760Y-119913660D01*
X77183760Y-118411660D01*
X78485760Y-118411660D01*
X78485760Y-119913660D01*
G37*
G36*
X119189512Y-117389927D02*
G01*
X119338812Y-117419624D01*
X119502784Y-117487544D01*
X119650354Y-117586147D01*
X119775853Y-117711646D01*
X119874456Y-117859216D01*
X119942376Y-118023188D01*
X119977000Y-118197259D01*
X119977000Y-118374741D01*
X119942376Y-118548812D01*
X119874456Y-118712784D01*
X119775853Y-118860354D01*
X119650354Y-118985853D01*
X119502784Y-119084456D01*
X119338812Y-119152376D01*
X119189512Y-119182073D01*
X119164742Y-119187000D01*
X118987258Y-119187000D01*
X118962488Y-119182073D01*
X118813188Y-119152376D01*
X118649216Y-119084456D01*
X118501646Y-118985853D01*
X118376147Y-118860354D01*
X118277544Y-118712784D01*
X118209624Y-118548812D01*
X118175000Y-118374741D01*
X118175000Y-118197259D01*
X118209624Y-118023188D01*
X118277544Y-117859216D01*
X118376147Y-117711646D01*
X118501646Y-117586147D01*
X118649216Y-117487544D01*
X118813188Y-117419624D01*
X118962488Y-117389927D01*
X118987258Y-117385000D01*
X119164742Y-117385000D01*
X119189512Y-117389927D01*
G37*
G36*
X81315591Y-117334085D02*
G01*
X81349569Y-117344393D01*
X81380890Y-117361134D01*
X81408339Y-117383661D01*
X81430866Y-117411110D01*
X81447607Y-117442431D01*
X81457915Y-117476409D01*
X81462000Y-117517890D01*
X81462000Y-118194110D01*
X81457915Y-118235591D01*
X81447607Y-118269569D01*
X81430866Y-118300890D01*
X81408339Y-118328339D01*
X81380890Y-118350866D01*
X81349569Y-118367607D01*
X81315591Y-118377915D01*
X81274110Y-118382000D01*
X80672890Y-118382000D01*
X80631409Y-118377915D01*
X80597431Y-118367607D01*
X80566110Y-118350866D01*
X80538661Y-118328339D01*
X80516134Y-118300890D01*
X80499393Y-118269569D01*
X80489085Y-118235591D01*
X80485000Y-118194110D01*
X80485000Y-117517890D01*
X80489085Y-117476409D01*
X80499393Y-117442431D01*
X80516134Y-117411110D01*
X80538661Y-117383661D01*
X80566110Y-117361134D01*
X80597431Y-117344393D01*
X80631409Y-117334085D01*
X80672890Y-117330000D01*
X81274110Y-117330000D01*
X81315591Y-117334085D01*
G37*
G36*
X79740591Y-117334085D02*
G01*
X79774569Y-117344393D01*
X79805890Y-117361134D01*
X79833339Y-117383661D01*
X79855866Y-117411110D01*
X79872607Y-117442431D01*
X79882915Y-117476409D01*
X79887000Y-117517890D01*
X79887000Y-118194110D01*
X79882915Y-118235591D01*
X79872607Y-118269569D01*
X79855866Y-118300890D01*
X79833339Y-118328339D01*
X79805890Y-118350866D01*
X79774569Y-118367607D01*
X79740591Y-118377915D01*
X79699110Y-118382000D01*
X79097890Y-118382000D01*
X79056409Y-118377915D01*
X79022431Y-118367607D01*
X78991110Y-118350866D01*
X78963661Y-118328339D01*
X78941134Y-118300890D01*
X78924393Y-118269569D01*
X78914085Y-118235591D01*
X78910000Y-118194110D01*
X78910000Y-117517890D01*
X78914085Y-117476409D01*
X78924393Y-117442431D01*
X78941134Y-117411110D01*
X78963661Y-117383661D01*
X78991110Y-117361134D01*
X79022431Y-117344393D01*
X79056409Y-117334085D01*
X79097890Y-117330000D01*
X79699110Y-117330000D01*
X79740591Y-117334085D01*
G37*
G36*
X78485760Y-117713660D02*
G01*
X77183760Y-117713660D01*
X77183760Y-116211660D01*
X78485760Y-116211660D01*
X78485760Y-117713660D01*
G37*
G36*
X76785760Y-117713660D02*
G01*
X75483760Y-117713660D01*
X75483760Y-116211660D01*
X76785760Y-116211660D01*
X76785760Y-117713660D01*
G37*
G36*
X79740591Y-115934085D02*
G01*
X79774569Y-115944393D01*
X79805890Y-115961134D01*
X79833339Y-115983661D01*
X79855866Y-116011110D01*
X79872607Y-116042431D01*
X79882915Y-116076409D01*
X79887000Y-116117890D01*
X79887000Y-116794110D01*
X79882915Y-116835591D01*
X79872607Y-116869569D01*
X79855866Y-116900890D01*
X79833339Y-116928339D01*
X79805890Y-116950866D01*
X79774569Y-116967607D01*
X79740591Y-116977915D01*
X79699110Y-116982000D01*
X79097890Y-116982000D01*
X79056409Y-116977915D01*
X79022431Y-116967607D01*
X78991110Y-116950866D01*
X78963661Y-116928339D01*
X78941134Y-116900890D01*
X78924393Y-116869569D01*
X78914085Y-116835591D01*
X78910000Y-116794110D01*
X78910000Y-116117890D01*
X78914085Y-116076409D01*
X78924393Y-116042431D01*
X78941134Y-116011110D01*
X78963661Y-115983661D01*
X78991110Y-115961134D01*
X79022431Y-115944393D01*
X79056409Y-115934085D01*
X79097890Y-115930000D01*
X79699110Y-115930000D01*
X79740591Y-115934085D01*
G37*
G36*
X81315591Y-115934085D02*
G01*
X81349569Y-115944393D01*
X81380890Y-115961134D01*
X81408339Y-115983661D01*
X81430866Y-116011110D01*
X81447607Y-116042431D01*
X81457915Y-116076409D01*
X81462000Y-116117890D01*
X81462000Y-116794110D01*
X81457915Y-116835591D01*
X81447607Y-116869569D01*
X81430866Y-116900890D01*
X81408339Y-116928339D01*
X81380890Y-116950866D01*
X81349569Y-116967607D01*
X81315591Y-116977915D01*
X81274110Y-116982000D01*
X80672890Y-116982000D01*
X80631409Y-116977915D01*
X80597431Y-116967607D01*
X80566110Y-116950866D01*
X80538661Y-116928339D01*
X80516134Y-116900890D01*
X80499393Y-116869569D01*
X80489085Y-116835591D01*
X80485000Y-116794110D01*
X80485000Y-116117890D01*
X80489085Y-116076409D01*
X80499393Y-116042431D01*
X80516134Y-116011110D01*
X80538661Y-115983661D01*
X80566110Y-115961134D01*
X80597431Y-115944393D01*
X80631409Y-115934085D01*
X80672890Y-115930000D01*
X81274110Y-115930000D01*
X81315591Y-115934085D01*
G37*
G36*
X119189512Y-114849927D02*
G01*
X119338812Y-114879624D01*
X119502784Y-114947544D01*
X119650354Y-115046147D01*
X119775853Y-115171646D01*
X119874456Y-115319216D01*
X119942376Y-115483188D01*
X119971248Y-115628339D01*
X119975729Y-115650866D01*
X119977000Y-115657259D01*
X119977000Y-115834741D01*
X119942376Y-116008812D01*
X119874456Y-116172784D01*
X119775853Y-116320354D01*
X119650354Y-116445853D01*
X119502784Y-116544456D01*
X119338812Y-116612376D01*
X119189512Y-116642073D01*
X119164742Y-116647000D01*
X118987258Y-116647000D01*
X118962488Y-116642073D01*
X118813188Y-116612376D01*
X118649216Y-116544456D01*
X118501646Y-116445853D01*
X118376147Y-116320354D01*
X118277544Y-116172784D01*
X118209624Y-116008812D01*
X118175000Y-115834741D01*
X118175000Y-115657259D01*
X118176272Y-115650866D01*
X118180752Y-115628339D01*
X118209624Y-115483188D01*
X118277544Y-115319216D01*
X118376147Y-115171646D01*
X118501646Y-115046147D01*
X118649216Y-114947544D01*
X118813188Y-114879624D01*
X118962488Y-114849927D01*
X118987258Y-114845000D01*
X119164742Y-114845000D01*
X119189512Y-114849927D01*
G37*
G36*
X78315591Y-114634085D02*
G01*
X78349569Y-114644393D01*
X78380890Y-114661134D01*
X78408339Y-114683661D01*
X78430866Y-114711110D01*
X78447607Y-114742431D01*
X78457915Y-114776409D01*
X78462000Y-114817890D01*
X78462000Y-115494110D01*
X78457915Y-115535591D01*
X78447607Y-115569569D01*
X78430866Y-115600890D01*
X78408339Y-115628339D01*
X78380890Y-115650866D01*
X78349569Y-115667607D01*
X78315591Y-115677915D01*
X78274110Y-115682000D01*
X77672890Y-115682000D01*
X77631409Y-115677915D01*
X77597431Y-115667607D01*
X77566110Y-115650866D01*
X77538661Y-115628339D01*
X77516134Y-115600890D01*
X77499393Y-115569569D01*
X77489085Y-115535591D01*
X77485000Y-115494110D01*
X77485000Y-114817890D01*
X77489085Y-114776409D01*
X77499393Y-114742431D01*
X77516134Y-114711110D01*
X77538661Y-114683661D01*
X77566110Y-114661134D01*
X77597431Y-114644393D01*
X77631409Y-114634085D01*
X77672890Y-114630000D01*
X78274110Y-114630000D01*
X78315591Y-114634085D01*
G37*
G36*
X76740591Y-114634085D02*
G01*
X76774569Y-114644393D01*
X76805890Y-114661134D01*
X76833339Y-114683661D01*
X76855866Y-114711110D01*
X76872607Y-114742431D01*
X76882915Y-114776409D01*
X76887000Y-114817890D01*
X76887000Y-115494110D01*
X76882915Y-115535591D01*
X76872607Y-115569569D01*
X76855866Y-115600890D01*
X76833339Y-115628339D01*
X76805890Y-115650866D01*
X76774569Y-115667607D01*
X76740591Y-115677915D01*
X76699110Y-115682000D01*
X76097890Y-115682000D01*
X76056409Y-115677915D01*
X76022431Y-115667607D01*
X75991110Y-115650866D01*
X75963661Y-115628339D01*
X75941134Y-115600890D01*
X75924393Y-115569569D01*
X75914085Y-115535591D01*
X75910000Y-115494110D01*
X75910000Y-114817890D01*
X75914085Y-114776409D01*
X75924393Y-114742431D01*
X75941134Y-114711110D01*
X75963661Y-114683661D01*
X75991110Y-114661134D01*
X76022431Y-114644393D01*
X76056409Y-114634085D01*
X76097890Y-114630000D01*
X76699110Y-114630000D01*
X76740591Y-114634085D01*
G37*
G36*
X81315591Y-114534085D02*
G01*
X81349569Y-114544393D01*
X81380890Y-114561134D01*
X81408339Y-114583661D01*
X81430866Y-114611110D01*
X81447607Y-114642431D01*
X81457915Y-114676409D01*
X81462000Y-114717890D01*
X81462000Y-115394110D01*
X81457915Y-115435591D01*
X81447607Y-115469569D01*
X81430866Y-115500890D01*
X81408339Y-115528339D01*
X81380890Y-115550866D01*
X81349569Y-115567607D01*
X81315591Y-115577915D01*
X81274110Y-115582000D01*
X80672890Y-115582000D01*
X80631409Y-115577915D01*
X80597431Y-115567607D01*
X80566110Y-115550866D01*
X80538661Y-115528339D01*
X80516134Y-115500890D01*
X80499393Y-115469569D01*
X80489085Y-115435591D01*
X80485000Y-115394110D01*
X80485000Y-114717890D01*
X80489085Y-114676409D01*
X80499393Y-114642431D01*
X80516134Y-114611110D01*
X80538661Y-114583661D01*
X80566110Y-114561134D01*
X80597431Y-114544393D01*
X80631409Y-114534085D01*
X80672890Y-114530000D01*
X81274110Y-114530000D01*
X81315591Y-114534085D01*
G37*
G36*
X79740591Y-114534085D02*
G01*
X79774569Y-114544393D01*
X79805890Y-114561134D01*
X79833339Y-114583661D01*
X79855866Y-114611110D01*
X79872607Y-114642431D01*
X79882915Y-114676409D01*
X79887000Y-114717890D01*
X79887000Y-115394110D01*
X79882915Y-115435591D01*
X79872607Y-115469569D01*
X79855866Y-115500890D01*
X79833339Y-115528339D01*
X79805890Y-115550866D01*
X79774569Y-115567607D01*
X79740591Y-115577915D01*
X79699110Y-115582000D01*
X79097890Y-115582000D01*
X79056409Y-115577915D01*
X79022431Y-115567607D01*
X78991110Y-115550866D01*
X78963661Y-115528339D01*
X78941134Y-115500890D01*
X78924393Y-115469569D01*
X78914085Y-115435591D01*
X78910000Y-115394110D01*
X78910000Y-114717890D01*
X78914085Y-114676409D01*
X78924393Y-114642431D01*
X78941134Y-114611110D01*
X78963661Y-114583661D01*
X78991110Y-114561134D01*
X79022431Y-114544393D01*
X79056409Y-114534085D01*
X79097890Y-114530000D01*
X79699110Y-114530000D01*
X79740591Y-114534085D01*
G37*
G36*
X76420468Y-112709565D02*
G01*
X76459138Y-112721296D01*
X76494777Y-112740346D01*
X76526017Y-112765983D01*
X76551654Y-112797223D01*
X76570704Y-112832862D01*
X76582435Y-112871532D01*
X76587000Y-112917888D01*
X76587000Y-113994112D01*
X76582435Y-114040468D01*
X76570704Y-114079138D01*
X76551654Y-114114777D01*
X76526017Y-114146017D01*
X76494777Y-114171654D01*
X76459138Y-114190704D01*
X76420468Y-114202435D01*
X76374112Y-114207000D01*
X75722888Y-114207000D01*
X75676532Y-114202435D01*
X75637862Y-114190704D01*
X75602223Y-114171654D01*
X75570983Y-114146017D01*
X75545346Y-114114777D01*
X75526296Y-114079138D01*
X75514565Y-114040468D01*
X75510000Y-113994112D01*
X75510000Y-112917888D01*
X75514565Y-112871532D01*
X75526296Y-112832862D01*
X75545346Y-112797223D01*
X75570983Y-112765983D01*
X75602223Y-112740346D01*
X75637862Y-112721296D01*
X75676532Y-112709565D01*
X75722888Y-112705000D01*
X76374112Y-112705000D01*
X76420468Y-112709565D01*
G37*
G36*
X78295468Y-112709565D02*
G01*
X78334138Y-112721296D01*
X78369777Y-112740346D01*
X78401017Y-112765983D01*
X78426654Y-112797223D01*
X78445704Y-112832862D01*
X78457435Y-112871532D01*
X78462000Y-112917888D01*
X78462000Y-113994112D01*
X78457435Y-114040468D01*
X78445704Y-114079138D01*
X78426654Y-114114777D01*
X78401017Y-114146017D01*
X78369777Y-114171654D01*
X78334138Y-114190704D01*
X78295468Y-114202435D01*
X78249112Y-114207000D01*
X77597888Y-114207000D01*
X77551532Y-114202435D01*
X77512862Y-114190704D01*
X77477223Y-114171654D01*
X77445983Y-114146017D01*
X77420346Y-114114777D01*
X77401296Y-114079138D01*
X77389565Y-114040468D01*
X77385000Y-113994112D01*
X77385000Y-112917888D01*
X77389565Y-112871532D01*
X77401296Y-112832862D01*
X77420346Y-112797223D01*
X77445983Y-112765983D01*
X77477223Y-112740346D01*
X77512862Y-112721296D01*
X77551532Y-112709565D01*
X77597888Y-112705000D01*
X78249112Y-112705000D01*
X78295468Y-112709565D01*
G37*
G36*
X81315591Y-113134085D02*
G01*
X81349569Y-113144393D01*
X81380890Y-113161134D01*
X81408339Y-113183661D01*
X81430866Y-113211110D01*
X81447607Y-113242431D01*
X81457915Y-113276409D01*
X81462000Y-113317890D01*
X81462000Y-113994110D01*
X81457915Y-114035591D01*
X81447607Y-114069569D01*
X81430866Y-114100890D01*
X81408339Y-114128339D01*
X81380890Y-114150866D01*
X81349569Y-114167607D01*
X81315591Y-114177915D01*
X81274110Y-114182000D01*
X80672890Y-114182000D01*
X80631409Y-114177915D01*
X80597431Y-114167607D01*
X80566110Y-114150866D01*
X80538661Y-114128339D01*
X80516134Y-114100890D01*
X80499393Y-114069569D01*
X80489085Y-114035591D01*
X80485000Y-113994110D01*
X80485000Y-113317890D01*
X80489085Y-113276409D01*
X80499393Y-113242431D01*
X80516134Y-113211110D01*
X80538661Y-113183661D01*
X80566110Y-113161134D01*
X80597431Y-113144393D01*
X80631409Y-113134085D01*
X80672890Y-113130000D01*
X81274110Y-113130000D01*
X81315591Y-113134085D01*
G37*
G36*
X79740591Y-113134085D02*
G01*
X79774569Y-113144393D01*
X79805890Y-113161134D01*
X79833339Y-113183661D01*
X79855866Y-113211110D01*
X79872607Y-113242431D01*
X79882915Y-113276409D01*
X79887000Y-113317890D01*
X79887000Y-113994110D01*
X79882915Y-114035591D01*
X79872607Y-114069569D01*
X79855866Y-114100890D01*
X79833339Y-114128339D01*
X79805890Y-114150866D01*
X79774569Y-114167607D01*
X79740591Y-114177915D01*
X79699110Y-114182000D01*
X79097890Y-114182000D01*
X79056409Y-114177915D01*
X79022431Y-114167607D01*
X78991110Y-114150866D01*
X78963661Y-114128339D01*
X78941134Y-114100890D01*
X78924393Y-114069569D01*
X78914085Y-114035591D01*
X78910000Y-113994110D01*
X78910000Y-113317890D01*
X78914085Y-113276409D01*
X78924393Y-113242431D01*
X78941134Y-113211110D01*
X78963661Y-113183661D01*
X78991110Y-113161134D01*
X79022431Y-113144393D01*
X79056409Y-113134085D01*
X79097890Y-113130000D01*
X79699110Y-113130000D01*
X79740591Y-113134085D01*
G37*
G36*
X119189512Y-112309927D02*
G01*
X119338812Y-112339624D01*
X119502784Y-112407544D01*
X119650354Y-112506147D01*
X119775853Y-112631646D01*
X119874456Y-112779216D01*
X119942376Y-112943188D01*
X119948554Y-112974250D01*
X119977000Y-113117258D01*
X119977000Y-113294742D01*
X119972073Y-113319512D01*
X119942376Y-113468812D01*
X119874456Y-113632784D01*
X119775853Y-113780354D01*
X119650354Y-113905853D01*
X119502784Y-114004456D01*
X119338812Y-114072376D01*
X119195459Y-114100890D01*
X119164742Y-114107000D01*
X118987258Y-114107000D01*
X118956541Y-114100890D01*
X118813188Y-114072376D01*
X118649216Y-114004456D01*
X118501646Y-113905853D01*
X118376147Y-113780354D01*
X118277544Y-113632784D01*
X118209624Y-113468812D01*
X118179927Y-113319512D01*
X118175000Y-113294742D01*
X118175000Y-113117258D01*
X118203446Y-112974250D01*
X118209624Y-112943188D01*
X118277544Y-112779216D01*
X118376147Y-112631646D01*
X118501646Y-112506147D01*
X118649216Y-112407544D01*
X118813188Y-112339624D01*
X118962488Y-112309927D01*
X118987258Y-112305000D01*
X119164742Y-112305000D01*
X119189512Y-112309927D01*
G37*
G36*
X78315591Y-111234085D02*
G01*
X78349569Y-111244393D01*
X78380890Y-111261134D01*
X78408339Y-111283661D01*
X78430866Y-111311110D01*
X78447607Y-111342431D01*
X78457915Y-111376409D01*
X78462000Y-111417890D01*
X78462000Y-112094110D01*
X78457915Y-112135591D01*
X78447607Y-112169569D01*
X78430866Y-112200890D01*
X78408339Y-112228339D01*
X78380890Y-112250866D01*
X78349569Y-112267607D01*
X78315591Y-112277915D01*
X78274110Y-112282000D01*
X77672890Y-112282000D01*
X77631409Y-112277915D01*
X77597431Y-112267607D01*
X77566110Y-112250866D01*
X77538661Y-112228339D01*
X77516134Y-112200890D01*
X77499393Y-112169569D01*
X77489085Y-112135591D01*
X77485000Y-112094110D01*
X77485000Y-111417890D01*
X77489085Y-111376409D01*
X77499393Y-111342431D01*
X77516134Y-111311110D01*
X77538661Y-111283661D01*
X77566110Y-111261134D01*
X77597431Y-111244393D01*
X77631409Y-111234085D01*
X77672890Y-111230000D01*
X78274110Y-111230000D01*
X78315591Y-111234085D01*
G37*
G36*
X81315591Y-111234085D02*
G01*
X81349569Y-111244393D01*
X81380890Y-111261134D01*
X81408339Y-111283661D01*
X81430866Y-111311110D01*
X81447607Y-111342431D01*
X81457915Y-111376409D01*
X81462000Y-111417890D01*
X81462000Y-112094110D01*
X81457915Y-112135591D01*
X81447607Y-112169569D01*
X81430866Y-112200890D01*
X81408339Y-112228339D01*
X81380890Y-112250866D01*
X81349569Y-112267607D01*
X81315591Y-112277915D01*
X81274110Y-112282000D01*
X80672890Y-112282000D01*
X80631409Y-112277915D01*
X80597431Y-112267607D01*
X80566110Y-112250866D01*
X80538661Y-112228339D01*
X80516134Y-112200890D01*
X80499393Y-112169569D01*
X80489085Y-112135591D01*
X80485000Y-112094110D01*
X80485000Y-111417890D01*
X80489085Y-111376409D01*
X80499393Y-111342431D01*
X80516134Y-111311110D01*
X80538661Y-111283661D01*
X80566110Y-111261134D01*
X80597431Y-111244393D01*
X80631409Y-111234085D01*
X80672890Y-111230000D01*
X81274110Y-111230000D01*
X81315591Y-111234085D01*
G37*
G36*
X79740591Y-111234085D02*
G01*
X79774569Y-111244393D01*
X79805890Y-111261134D01*
X79833339Y-111283661D01*
X79855866Y-111311110D01*
X79872607Y-111342431D01*
X79882915Y-111376409D01*
X79887000Y-111417890D01*
X79887000Y-112094110D01*
X79882915Y-112135591D01*
X79872607Y-112169569D01*
X79855866Y-112200890D01*
X79833339Y-112228339D01*
X79805890Y-112250866D01*
X79774569Y-112267607D01*
X79740591Y-112277915D01*
X79699110Y-112282000D01*
X79097890Y-112282000D01*
X79056409Y-112277915D01*
X79022431Y-112267607D01*
X78991110Y-112250866D01*
X78963661Y-112228339D01*
X78941134Y-112200890D01*
X78924393Y-112169569D01*
X78914085Y-112135591D01*
X78910000Y-112094110D01*
X78910000Y-111417890D01*
X78914085Y-111376409D01*
X78924393Y-111342431D01*
X78941134Y-111311110D01*
X78963661Y-111283661D01*
X78991110Y-111261134D01*
X79022431Y-111244393D01*
X79056409Y-111234085D01*
X79097890Y-111230000D01*
X79699110Y-111230000D01*
X79740591Y-111234085D01*
G37*
G36*
X76740591Y-111234085D02*
G01*
X76774569Y-111244393D01*
X76805890Y-111261134D01*
X76833339Y-111283661D01*
X76855866Y-111311110D01*
X76872607Y-111342431D01*
X76882915Y-111376409D01*
X76887000Y-111417890D01*
X76887000Y-112094110D01*
X76882915Y-112135591D01*
X76872607Y-112169569D01*
X76855866Y-112200890D01*
X76833339Y-112228339D01*
X76805890Y-112250866D01*
X76774569Y-112267607D01*
X76740591Y-112277915D01*
X76699110Y-112282000D01*
X76097890Y-112282000D01*
X76056409Y-112277915D01*
X76022431Y-112267607D01*
X75991110Y-112250866D01*
X75963661Y-112228339D01*
X75941134Y-112200890D01*
X75924393Y-112169569D01*
X75914085Y-112135591D01*
X75910000Y-112094110D01*
X75910000Y-111417890D01*
X75914085Y-111376409D01*
X75924393Y-111342431D01*
X75941134Y-111311110D01*
X75963661Y-111283661D01*
X75991110Y-111261134D01*
X76022431Y-111244393D01*
X76056409Y-111234085D01*
X76097890Y-111230000D01*
X76699110Y-111230000D01*
X76740591Y-111234085D01*
G37*
G36*
X119189512Y-109769927D02*
G01*
X119338812Y-109799624D01*
X119502784Y-109867544D01*
X119650354Y-109966147D01*
X119775853Y-110091646D01*
X119874456Y-110239216D01*
X119942376Y-110403188D01*
X119977000Y-110577259D01*
X119977000Y-110754741D01*
X119942376Y-110928812D01*
X119874456Y-111092784D01*
X119775853Y-111240354D01*
X119650354Y-111365853D01*
X119502784Y-111464456D01*
X119338812Y-111532376D01*
X119189512Y-111562073D01*
X119164742Y-111567000D01*
X118987258Y-111567000D01*
X118962488Y-111562073D01*
X118813188Y-111532376D01*
X118649216Y-111464456D01*
X118501646Y-111365853D01*
X118376147Y-111240354D01*
X118277544Y-111092784D01*
X118209624Y-110928812D01*
X118175000Y-110754741D01*
X118175000Y-110577259D01*
X118209624Y-110403188D01*
X118277544Y-110239216D01*
X118376147Y-110091646D01*
X118501646Y-109966147D01*
X118649216Y-109867544D01*
X118813188Y-109799624D01*
X118962488Y-109769927D01*
X118987258Y-109765000D01*
X119164742Y-109765000D01*
X119189512Y-109769927D01*
G37*
G36*
X80837000Y-110607000D02*
G01*
X79835000Y-110607000D01*
X79835000Y-109305000D01*
X80837000Y-109305000D01*
X80837000Y-110607000D01*
G37*
G36*
X77537000Y-110607000D02*
G01*
X76535000Y-110607000D01*
X76535000Y-109305000D01*
X77537000Y-109305000D01*
X77537000Y-110607000D01*
G37*
G36*
X105765591Y-108359085D02*
G01*
X105799569Y-108369393D01*
X105830890Y-108386134D01*
X105858339Y-108408661D01*
X105880866Y-108436110D01*
X105897607Y-108467431D01*
X105907915Y-108501409D01*
X105912000Y-108542890D01*
X105912000Y-109144110D01*
X105907915Y-109185591D01*
X105897607Y-109219569D01*
X105880866Y-109250890D01*
X105858339Y-109278339D01*
X105830890Y-109300866D01*
X105799569Y-109317607D01*
X105765591Y-109327915D01*
X105724110Y-109332000D01*
X105047890Y-109332000D01*
X105006409Y-109327915D01*
X104972431Y-109317607D01*
X104941110Y-109300866D01*
X104913661Y-109278339D01*
X104891134Y-109250890D01*
X104874393Y-109219569D01*
X104864085Y-109185591D01*
X104860000Y-109144110D01*
X104860000Y-108542890D01*
X104864085Y-108501409D01*
X104874393Y-108467431D01*
X104891134Y-108436110D01*
X104913661Y-108408661D01*
X104941110Y-108386134D01*
X104972431Y-108369393D01*
X105006409Y-108359085D01*
X105047890Y-108355000D01*
X105724110Y-108355000D01*
X105765591Y-108359085D01*
G37*
G36*
X114765591Y-108359085D02*
G01*
X114799569Y-108369393D01*
X114830890Y-108386134D01*
X114858339Y-108408661D01*
X114880866Y-108436110D01*
X114897607Y-108467431D01*
X114907915Y-108501409D01*
X114912000Y-108542890D01*
X114912000Y-109144110D01*
X114907915Y-109185591D01*
X114897607Y-109219569D01*
X114880866Y-109250890D01*
X114858339Y-109278339D01*
X114830890Y-109300866D01*
X114799569Y-109317607D01*
X114765591Y-109327915D01*
X114724110Y-109332000D01*
X114047890Y-109332000D01*
X114006409Y-109327915D01*
X113972431Y-109317607D01*
X113941110Y-109300866D01*
X113913661Y-109278339D01*
X113891134Y-109250890D01*
X113874393Y-109219569D01*
X113864085Y-109185591D01*
X113860000Y-109144110D01*
X113860000Y-108542890D01*
X113864085Y-108501409D01*
X113874393Y-108467431D01*
X113891134Y-108436110D01*
X113913661Y-108408661D01*
X113941110Y-108386134D01*
X113972431Y-108369393D01*
X114006409Y-108359085D01*
X114047890Y-108355000D01*
X114724110Y-108355000D01*
X114765591Y-108359085D01*
G37*
G36*
X116165591Y-108359085D02*
G01*
X116199569Y-108369393D01*
X116230890Y-108386134D01*
X116258339Y-108408661D01*
X116280866Y-108436110D01*
X116297607Y-108467431D01*
X116307915Y-108501409D01*
X116312000Y-108542890D01*
X116312000Y-109144110D01*
X116307915Y-109185591D01*
X116297607Y-109219569D01*
X116280866Y-109250890D01*
X116258339Y-109278339D01*
X116230890Y-109300866D01*
X116199569Y-109317607D01*
X116165591Y-109327915D01*
X116124110Y-109332000D01*
X115447890Y-109332000D01*
X115406409Y-109327915D01*
X115372431Y-109317607D01*
X115341110Y-109300866D01*
X115313661Y-109278339D01*
X115291134Y-109250890D01*
X115274393Y-109219569D01*
X115264085Y-109185591D01*
X115260000Y-109144110D01*
X115260000Y-108542890D01*
X115264085Y-108501409D01*
X115274393Y-108467431D01*
X115291134Y-108436110D01*
X115313661Y-108408661D01*
X115341110Y-108386134D01*
X115372431Y-108369393D01*
X115406409Y-108359085D01*
X115447890Y-108355000D01*
X116124110Y-108355000D01*
X116165591Y-108359085D01*
G37*
G36*
X111765591Y-108359085D02*
G01*
X111799569Y-108369393D01*
X111830890Y-108386134D01*
X111858339Y-108408661D01*
X111880866Y-108436110D01*
X111897607Y-108467431D01*
X111907915Y-108501409D01*
X111912000Y-108542890D01*
X111912000Y-109144110D01*
X111907915Y-109185591D01*
X111897607Y-109219569D01*
X111880866Y-109250890D01*
X111858339Y-109278339D01*
X111830890Y-109300866D01*
X111799569Y-109317607D01*
X111765591Y-109327915D01*
X111724110Y-109332000D01*
X111047890Y-109332000D01*
X111006409Y-109327915D01*
X110972431Y-109317607D01*
X110941110Y-109300866D01*
X110913661Y-109278339D01*
X110891134Y-109250890D01*
X110874393Y-109219569D01*
X110864085Y-109185591D01*
X110860000Y-109144110D01*
X110860000Y-108542890D01*
X110864085Y-108501409D01*
X110874393Y-108467431D01*
X110891134Y-108436110D01*
X110913661Y-108408661D01*
X110941110Y-108386134D01*
X110972431Y-108369393D01*
X111006409Y-108359085D01*
X111047890Y-108355000D01*
X111724110Y-108355000D01*
X111765591Y-108359085D01*
G37*
G36*
X113265591Y-108359085D02*
G01*
X113299569Y-108369393D01*
X113330890Y-108386134D01*
X113358339Y-108408661D01*
X113380866Y-108436110D01*
X113397607Y-108467431D01*
X113407915Y-108501409D01*
X113412000Y-108542890D01*
X113412000Y-109144110D01*
X113407915Y-109185591D01*
X113397607Y-109219569D01*
X113380866Y-109250890D01*
X113358339Y-109278339D01*
X113330890Y-109300866D01*
X113299569Y-109317607D01*
X113265591Y-109327915D01*
X113224110Y-109332000D01*
X112547890Y-109332000D01*
X112506409Y-109327915D01*
X112472431Y-109317607D01*
X112441110Y-109300866D01*
X112413661Y-109278339D01*
X112391134Y-109250890D01*
X112374393Y-109219569D01*
X112364085Y-109185591D01*
X112360000Y-109144110D01*
X112360000Y-108542890D01*
X112364085Y-108501409D01*
X112374393Y-108467431D01*
X112391134Y-108436110D01*
X112413661Y-108408661D01*
X112441110Y-108386134D01*
X112472431Y-108369393D01*
X112506409Y-108359085D01*
X112547890Y-108355000D01*
X113224110Y-108355000D01*
X113265591Y-108359085D01*
G37*
G36*
X109965591Y-108359085D02*
G01*
X109999569Y-108369393D01*
X110030890Y-108386134D01*
X110058339Y-108408661D01*
X110080866Y-108436110D01*
X110097607Y-108467431D01*
X110107915Y-108501409D01*
X110112000Y-108542890D01*
X110112000Y-109144110D01*
X110107915Y-109185591D01*
X110097607Y-109219569D01*
X110080866Y-109250890D01*
X110058339Y-109278339D01*
X110030890Y-109300866D01*
X109999569Y-109317607D01*
X109965591Y-109327915D01*
X109924110Y-109332000D01*
X109247890Y-109332000D01*
X109206409Y-109327915D01*
X109172431Y-109317607D01*
X109141110Y-109300866D01*
X109113661Y-109278339D01*
X109091134Y-109250890D01*
X109074393Y-109219569D01*
X109064085Y-109185591D01*
X109060000Y-109144110D01*
X109060000Y-108542890D01*
X109064085Y-108501409D01*
X109074393Y-108467431D01*
X109091134Y-108436110D01*
X109113661Y-108408661D01*
X109141110Y-108386134D01*
X109172431Y-108369393D01*
X109206409Y-108359085D01*
X109247890Y-108355000D01*
X109924110Y-108355000D01*
X109965591Y-108359085D01*
G37*
G36*
X107165591Y-108359085D02*
G01*
X107199569Y-108369393D01*
X107230890Y-108386134D01*
X107258339Y-108408661D01*
X107280866Y-108436110D01*
X107297607Y-108467431D01*
X107307915Y-108501409D01*
X107312000Y-108542890D01*
X107312000Y-109144110D01*
X107307915Y-109185591D01*
X107297607Y-109219569D01*
X107280866Y-109250890D01*
X107258339Y-109278339D01*
X107230890Y-109300866D01*
X107199569Y-109317607D01*
X107165591Y-109327915D01*
X107124110Y-109332000D01*
X106447890Y-109332000D01*
X106406409Y-109327915D01*
X106372431Y-109317607D01*
X106341110Y-109300866D01*
X106313661Y-109278339D01*
X106291134Y-109250890D01*
X106274393Y-109219569D01*
X106264085Y-109185591D01*
X106260000Y-109144110D01*
X106260000Y-108542890D01*
X106264085Y-108501409D01*
X106274393Y-108467431D01*
X106291134Y-108436110D01*
X106313661Y-108408661D01*
X106341110Y-108386134D01*
X106372431Y-108369393D01*
X106406409Y-108359085D01*
X106447890Y-108355000D01*
X107124110Y-108355000D01*
X107165591Y-108359085D01*
G37*
G36*
X108565591Y-108359085D02*
G01*
X108599569Y-108369393D01*
X108630890Y-108386134D01*
X108658339Y-108408661D01*
X108680866Y-108436110D01*
X108697607Y-108467431D01*
X108707915Y-108501409D01*
X108712000Y-108542890D01*
X108712000Y-109144110D01*
X108707915Y-109185591D01*
X108697607Y-109219569D01*
X108680866Y-109250890D01*
X108658339Y-109278339D01*
X108630890Y-109300866D01*
X108599569Y-109317607D01*
X108565591Y-109327915D01*
X108524110Y-109332000D01*
X107847890Y-109332000D01*
X107806409Y-109327915D01*
X107772431Y-109317607D01*
X107741110Y-109300866D01*
X107713661Y-109278339D01*
X107691134Y-109250890D01*
X107674393Y-109219569D01*
X107664085Y-109185591D01*
X107660000Y-109144110D01*
X107660000Y-108542890D01*
X107664085Y-108501409D01*
X107674393Y-108467431D01*
X107691134Y-108436110D01*
X107713661Y-108408661D01*
X107741110Y-108386134D01*
X107772431Y-108369393D01*
X107806409Y-108359085D01*
X107847890Y-108355000D01*
X108524110Y-108355000D01*
X108565591Y-108359085D01*
G37*
G36*
X119189512Y-107229927D02*
G01*
X119338812Y-107259624D01*
X119502784Y-107327544D01*
X119650354Y-107426147D01*
X119775853Y-107551646D01*
X119874456Y-107699216D01*
X119942376Y-107863188D01*
X119977000Y-108037259D01*
X119977000Y-108214741D01*
X119942376Y-108388812D01*
X119874456Y-108552784D01*
X119775853Y-108700354D01*
X119650354Y-108825853D01*
X119502784Y-108924456D01*
X119338812Y-108992376D01*
X119189512Y-109022073D01*
X119164742Y-109027000D01*
X118987258Y-109027000D01*
X118962488Y-109022073D01*
X118813188Y-108992376D01*
X118649216Y-108924456D01*
X118501646Y-108825853D01*
X118376147Y-108700354D01*
X118277544Y-108552784D01*
X118209624Y-108388812D01*
X118175000Y-108214741D01*
X118175000Y-108037259D01*
X118209624Y-107863188D01*
X118277544Y-107699216D01*
X118376147Y-107551646D01*
X118501646Y-107426147D01*
X118649216Y-107327544D01*
X118813188Y-107259624D01*
X118962488Y-107229927D01*
X118987258Y-107225000D01*
X119164742Y-107225000D01*
X119189512Y-107229927D01*
G37*
G36*
X80538460Y-108558700D02*
G01*
X76836460Y-108558700D01*
X76836460Y-106956700D01*
X80538460Y-106956700D01*
X80538460Y-108558700D01*
G37*
G36*
X100034600Y-108552540D02*
G01*
X87312600Y-108552540D01*
X87312600Y-107450540D01*
X100034600Y-107450540D01*
X100034600Y-108552540D01*
G37*
G36*
X102740591Y-106734085D02*
G01*
X102774569Y-106744393D01*
X102805890Y-106761134D01*
X102833339Y-106783661D01*
X102855866Y-106811110D01*
X102872607Y-106842431D01*
X102882915Y-106876409D01*
X102887000Y-106917890D01*
X102887000Y-107594110D01*
X102882915Y-107635591D01*
X102872607Y-107669569D01*
X102855866Y-107700890D01*
X102833339Y-107728339D01*
X102805890Y-107750866D01*
X102774569Y-107767607D01*
X102740591Y-107777915D01*
X102699110Y-107782000D01*
X102097890Y-107782000D01*
X102056409Y-107777915D01*
X102022431Y-107767607D01*
X101991110Y-107750866D01*
X101963661Y-107728339D01*
X101941134Y-107700890D01*
X101924393Y-107669569D01*
X101914085Y-107635591D01*
X101910000Y-107594110D01*
X101910000Y-106917890D01*
X101914085Y-106876409D01*
X101924393Y-106842431D01*
X101941134Y-106811110D01*
X101963661Y-106783661D01*
X101991110Y-106761134D01*
X102022431Y-106744393D01*
X102056409Y-106734085D01*
X102097890Y-106730000D01*
X102699110Y-106730000D01*
X102740591Y-106734085D01*
G37*
G36*
X104315591Y-106734085D02*
G01*
X104349569Y-106744393D01*
X104380890Y-106761134D01*
X104408339Y-106783661D01*
X104430866Y-106811110D01*
X104447607Y-106842431D01*
X104457915Y-106876409D01*
X104462000Y-106917890D01*
X104462000Y-107594110D01*
X104457915Y-107635591D01*
X104447607Y-107669569D01*
X104430866Y-107700890D01*
X104408339Y-107728339D01*
X104380890Y-107750866D01*
X104349569Y-107767607D01*
X104315591Y-107777915D01*
X104274110Y-107782000D01*
X103672890Y-107782000D01*
X103631409Y-107777915D01*
X103597431Y-107767607D01*
X103566110Y-107750866D01*
X103538661Y-107728339D01*
X103516134Y-107700890D01*
X103499393Y-107669569D01*
X103489085Y-107635591D01*
X103485000Y-107594110D01*
X103485000Y-106917890D01*
X103489085Y-106876409D01*
X103499393Y-106842431D01*
X103516134Y-106811110D01*
X103538661Y-106783661D01*
X103566110Y-106761134D01*
X103597431Y-106744393D01*
X103631409Y-106734085D01*
X103672890Y-106730000D01*
X104274110Y-106730000D01*
X104315591Y-106734085D01*
G37*
G36*
X116165591Y-106784085D02*
G01*
X116199569Y-106794393D01*
X116230890Y-106811134D01*
X116258339Y-106833661D01*
X116280866Y-106861110D01*
X116297607Y-106892431D01*
X116307915Y-106926409D01*
X116312000Y-106967890D01*
X116312000Y-107569110D01*
X116307915Y-107610591D01*
X116297607Y-107644569D01*
X116280866Y-107675890D01*
X116258339Y-107703339D01*
X116230890Y-107725866D01*
X116199569Y-107742607D01*
X116165591Y-107752915D01*
X116124110Y-107757000D01*
X115447890Y-107757000D01*
X115406409Y-107752915D01*
X115372431Y-107742607D01*
X115341110Y-107725866D01*
X115313661Y-107703339D01*
X115291134Y-107675890D01*
X115274393Y-107644569D01*
X115264085Y-107610591D01*
X115260000Y-107569110D01*
X115260000Y-106967890D01*
X115264085Y-106926409D01*
X115274393Y-106892431D01*
X115291134Y-106861110D01*
X115313661Y-106833661D01*
X115341110Y-106811134D01*
X115372431Y-106794393D01*
X115406409Y-106784085D01*
X115447890Y-106780000D01*
X116124110Y-106780000D01*
X116165591Y-106784085D01*
G37*
G36*
X114765591Y-106784085D02*
G01*
X114799569Y-106794393D01*
X114830890Y-106811134D01*
X114858339Y-106833661D01*
X114880866Y-106861110D01*
X114897607Y-106892431D01*
X114907915Y-106926409D01*
X114912000Y-106967890D01*
X114912000Y-107569110D01*
X114907915Y-107610591D01*
X114897607Y-107644569D01*
X114880866Y-107675890D01*
X114858339Y-107703339D01*
X114830890Y-107725866D01*
X114799569Y-107742607D01*
X114765591Y-107752915D01*
X114724110Y-107757000D01*
X114047890Y-107757000D01*
X114006409Y-107752915D01*
X113972431Y-107742607D01*
X113941110Y-107725866D01*
X113913661Y-107703339D01*
X113891134Y-107675890D01*
X113874393Y-107644569D01*
X113864085Y-107610591D01*
X113860000Y-107569110D01*
X113860000Y-106967890D01*
X113864085Y-106926409D01*
X113874393Y-106892431D01*
X113891134Y-106861110D01*
X113913661Y-106833661D01*
X113941110Y-106811134D01*
X113972431Y-106794393D01*
X114006409Y-106784085D01*
X114047890Y-106780000D01*
X114724110Y-106780000D01*
X114765591Y-106784085D01*
G37*
G36*
X113265591Y-106784085D02*
G01*
X113299569Y-106794393D01*
X113330890Y-106811134D01*
X113358339Y-106833661D01*
X113380866Y-106861110D01*
X113397607Y-106892431D01*
X113407915Y-106926409D01*
X113412000Y-106967890D01*
X113412000Y-107569110D01*
X113407915Y-107610591D01*
X113397607Y-107644569D01*
X113380866Y-107675890D01*
X113358339Y-107703339D01*
X113330890Y-107725866D01*
X113299569Y-107742607D01*
X113265591Y-107752915D01*
X113224110Y-107757000D01*
X112547890Y-107757000D01*
X112506409Y-107752915D01*
X112472431Y-107742607D01*
X112441110Y-107725866D01*
X112413661Y-107703339D01*
X112391134Y-107675890D01*
X112374393Y-107644569D01*
X112364085Y-107610591D01*
X112360000Y-107569110D01*
X112360000Y-106967890D01*
X112364085Y-106926409D01*
X112374393Y-106892431D01*
X112391134Y-106861110D01*
X112413661Y-106833661D01*
X112441110Y-106811134D01*
X112472431Y-106794393D01*
X112506409Y-106784085D01*
X112547890Y-106780000D01*
X113224110Y-106780000D01*
X113265591Y-106784085D01*
G37*
G36*
X111765591Y-106784085D02*
G01*
X111799569Y-106794393D01*
X111830890Y-106811134D01*
X111858339Y-106833661D01*
X111880866Y-106861110D01*
X111897607Y-106892431D01*
X111907915Y-106926409D01*
X111912000Y-106967890D01*
X111912000Y-107569110D01*
X111907915Y-107610591D01*
X111897607Y-107644569D01*
X111880866Y-107675890D01*
X111858339Y-107703339D01*
X111830890Y-107725866D01*
X111799569Y-107742607D01*
X111765591Y-107752915D01*
X111724110Y-107757000D01*
X111047890Y-107757000D01*
X111006409Y-107752915D01*
X110972431Y-107742607D01*
X110941110Y-107725866D01*
X110913661Y-107703339D01*
X110891134Y-107675890D01*
X110874393Y-107644569D01*
X110864085Y-107610591D01*
X110860000Y-107569110D01*
X110860000Y-106967890D01*
X110864085Y-106926409D01*
X110874393Y-106892431D01*
X110891134Y-106861110D01*
X110913661Y-106833661D01*
X110941110Y-106811134D01*
X110972431Y-106794393D01*
X111006409Y-106784085D01*
X111047890Y-106780000D01*
X111724110Y-106780000D01*
X111765591Y-106784085D01*
G37*
G36*
X109965591Y-106784085D02*
G01*
X109999569Y-106794393D01*
X110030890Y-106811134D01*
X110058339Y-106833661D01*
X110080866Y-106861110D01*
X110097607Y-106892431D01*
X110107915Y-106926409D01*
X110112000Y-106967890D01*
X110112000Y-107569110D01*
X110107915Y-107610591D01*
X110097607Y-107644569D01*
X110080866Y-107675890D01*
X110058339Y-107703339D01*
X110030890Y-107725866D01*
X109999569Y-107742607D01*
X109965591Y-107752915D01*
X109924110Y-107757000D01*
X109247890Y-107757000D01*
X109206409Y-107752915D01*
X109172431Y-107742607D01*
X109141110Y-107725866D01*
X109113661Y-107703339D01*
X109091134Y-107675890D01*
X109074393Y-107644569D01*
X109064085Y-107610591D01*
X109060000Y-107569110D01*
X109060000Y-106967890D01*
X109064085Y-106926409D01*
X109074393Y-106892431D01*
X109091134Y-106861110D01*
X109113661Y-106833661D01*
X109141110Y-106811134D01*
X109172431Y-106794393D01*
X109206409Y-106784085D01*
X109247890Y-106780000D01*
X109924110Y-106780000D01*
X109965591Y-106784085D01*
G37*
G36*
X108565591Y-106784085D02*
G01*
X108599569Y-106794393D01*
X108630890Y-106811134D01*
X108658339Y-106833661D01*
X108680866Y-106861110D01*
X108697607Y-106892431D01*
X108707915Y-106926409D01*
X108712000Y-106967890D01*
X108712000Y-107569110D01*
X108707915Y-107610591D01*
X108697607Y-107644569D01*
X108680866Y-107675890D01*
X108658339Y-107703339D01*
X108630890Y-107725866D01*
X108599569Y-107742607D01*
X108565591Y-107752915D01*
X108524110Y-107757000D01*
X107847890Y-107757000D01*
X107806409Y-107752915D01*
X107772431Y-107742607D01*
X107741110Y-107725866D01*
X107713661Y-107703339D01*
X107691134Y-107675890D01*
X107674393Y-107644569D01*
X107664085Y-107610591D01*
X107660000Y-107569110D01*
X107660000Y-106967890D01*
X107664085Y-106926409D01*
X107674393Y-106892431D01*
X107691134Y-106861110D01*
X107713661Y-106833661D01*
X107741110Y-106811134D01*
X107772431Y-106794393D01*
X107806409Y-106784085D01*
X107847890Y-106780000D01*
X108524110Y-106780000D01*
X108565591Y-106784085D01*
G37*
G36*
X107165591Y-106784085D02*
G01*
X107199569Y-106794393D01*
X107230890Y-106811134D01*
X107258339Y-106833661D01*
X107280866Y-106861110D01*
X107297607Y-106892431D01*
X107307915Y-106926409D01*
X107312000Y-106967890D01*
X107312000Y-107569110D01*
X107307915Y-107610591D01*
X107297607Y-107644569D01*
X107280866Y-107675890D01*
X107258339Y-107703339D01*
X107230890Y-107725866D01*
X107199569Y-107742607D01*
X107165591Y-107752915D01*
X107124110Y-107757000D01*
X106447890Y-107757000D01*
X106406409Y-107752915D01*
X106372431Y-107742607D01*
X106341110Y-107725866D01*
X106313661Y-107703339D01*
X106291134Y-107675890D01*
X106274393Y-107644569D01*
X106264085Y-107610591D01*
X106260000Y-107569110D01*
X106260000Y-106967890D01*
X106264085Y-106926409D01*
X106274393Y-106892431D01*
X106291134Y-106861110D01*
X106313661Y-106833661D01*
X106341110Y-106811134D01*
X106372431Y-106794393D01*
X106406409Y-106784085D01*
X106447890Y-106780000D01*
X107124110Y-106780000D01*
X107165591Y-106784085D01*
G37*
G36*
X105765591Y-106784085D02*
G01*
X105799569Y-106794393D01*
X105830890Y-106811134D01*
X105858339Y-106833661D01*
X105880866Y-106861110D01*
X105897607Y-106892431D01*
X105907915Y-106926409D01*
X105912000Y-106967890D01*
X105912000Y-107569110D01*
X105907915Y-107610591D01*
X105897607Y-107644569D01*
X105880866Y-107675890D01*
X105858339Y-107703339D01*
X105830890Y-107725866D01*
X105799569Y-107742607D01*
X105765591Y-107752915D01*
X105724110Y-107757000D01*
X105047890Y-107757000D01*
X105006409Y-107752915D01*
X104972431Y-107742607D01*
X104941110Y-107725866D01*
X104913661Y-107703339D01*
X104891134Y-107675890D01*
X104874393Y-107644569D01*
X104864085Y-107610591D01*
X104860000Y-107569110D01*
X104860000Y-106967890D01*
X104864085Y-106926409D01*
X104874393Y-106892431D01*
X104891134Y-106861110D01*
X104913661Y-106833661D01*
X104941110Y-106811134D01*
X104972431Y-106794393D01*
X105006409Y-106784085D01*
X105047890Y-106780000D01*
X105724110Y-106780000D01*
X105765591Y-106784085D01*
G37*
G36*
X119189512Y-104689927D02*
G01*
X119338812Y-104719624D01*
X119502784Y-104787544D01*
X119650354Y-104886147D01*
X119775853Y-105011646D01*
X119874456Y-105159216D01*
X119942376Y-105323188D01*
X119977000Y-105497259D01*
X119977000Y-105674741D01*
X119942376Y-105848812D01*
X119874456Y-106012784D01*
X119775853Y-106160354D01*
X119650354Y-106285853D01*
X119502784Y-106384456D01*
X119338812Y-106452376D01*
X119189512Y-106482073D01*
X119164742Y-106487000D01*
X118987258Y-106487000D01*
X118962488Y-106482073D01*
X118813188Y-106452376D01*
X118649216Y-106384456D01*
X118501646Y-106285853D01*
X118376147Y-106160354D01*
X118277544Y-106012784D01*
X118209624Y-105848812D01*
X118175000Y-105674741D01*
X118175000Y-105497259D01*
X118209624Y-105323188D01*
X118277544Y-105159216D01*
X118376147Y-105011646D01*
X118501646Y-104886147D01*
X118649216Y-104787544D01*
X118813188Y-104719624D01*
X118962488Y-104689927D01*
X118987258Y-104685000D01*
X119164742Y-104685000D01*
X119189512Y-104689927D01*
G37*
G36*
X82670468Y-104959565D02*
G01*
X82709138Y-104971296D01*
X82744777Y-104990346D01*
X82776017Y-105015983D01*
X82801654Y-105047223D01*
X82820704Y-105082862D01*
X82832435Y-105121532D01*
X82837000Y-105167888D01*
X82837000Y-105819112D01*
X82832435Y-105865468D01*
X82820704Y-105904138D01*
X82801654Y-105939777D01*
X82776017Y-105971017D01*
X82744777Y-105996654D01*
X82709138Y-106015704D01*
X82670468Y-106027435D01*
X82624112Y-106032000D01*
X81547888Y-106032000D01*
X81501532Y-106027435D01*
X81462862Y-106015704D01*
X81427223Y-105996654D01*
X81395983Y-105971017D01*
X81370346Y-105939777D01*
X81351296Y-105904138D01*
X81339565Y-105865468D01*
X81335000Y-105819112D01*
X81335000Y-105167888D01*
X81339565Y-105121532D01*
X81351296Y-105082862D01*
X81370346Y-105047223D01*
X81395983Y-105015983D01*
X81427223Y-104990346D01*
X81462862Y-104971296D01*
X81501532Y-104959565D01*
X81547888Y-104955000D01*
X82624112Y-104955000D01*
X82670468Y-104959565D01*
G37*
G36*
X86965591Y-104659085D02*
G01*
X86999569Y-104669393D01*
X87030890Y-104686134D01*
X87058339Y-104708661D01*
X87080866Y-104736110D01*
X87097607Y-104767431D01*
X87107915Y-104801409D01*
X87112000Y-104842890D01*
X87112000Y-105444110D01*
X87107915Y-105485591D01*
X87097607Y-105519569D01*
X87080866Y-105550890D01*
X87058339Y-105578339D01*
X87030890Y-105600866D01*
X86999569Y-105617607D01*
X86965591Y-105627915D01*
X86924110Y-105632000D01*
X86247890Y-105632000D01*
X86206409Y-105627915D01*
X86172431Y-105617607D01*
X86141110Y-105600866D01*
X86113661Y-105578339D01*
X86091134Y-105550890D01*
X86074393Y-105519569D01*
X86064085Y-105485591D01*
X86060000Y-105444110D01*
X86060000Y-104842890D01*
X86064085Y-104801409D01*
X86074393Y-104767431D01*
X86091134Y-104736110D01*
X86113661Y-104708661D01*
X86141110Y-104686134D01*
X86172431Y-104669393D01*
X86206409Y-104659085D01*
X86247890Y-104655000D01*
X86924110Y-104655000D01*
X86965591Y-104659085D01*
G37*
G36*
X85565591Y-104659085D02*
G01*
X85599569Y-104669393D01*
X85630890Y-104686134D01*
X85658339Y-104708661D01*
X85680866Y-104736110D01*
X85697607Y-104767431D01*
X85707915Y-104801409D01*
X85712000Y-104842890D01*
X85712000Y-105444110D01*
X85707915Y-105485591D01*
X85697607Y-105519569D01*
X85680866Y-105550890D01*
X85658339Y-105578339D01*
X85630890Y-105600866D01*
X85599569Y-105617607D01*
X85565591Y-105627915D01*
X85524110Y-105632000D01*
X84847890Y-105632000D01*
X84806409Y-105627915D01*
X84772431Y-105617607D01*
X84741110Y-105600866D01*
X84713661Y-105578339D01*
X84691134Y-105550890D01*
X84674393Y-105519569D01*
X84664085Y-105485591D01*
X84660000Y-105444110D01*
X84660000Y-104842890D01*
X84664085Y-104801409D01*
X84674393Y-104767431D01*
X84691134Y-104736110D01*
X84713661Y-104708661D01*
X84741110Y-104686134D01*
X84772431Y-104669393D01*
X84806409Y-104659085D01*
X84847890Y-104655000D01*
X85524110Y-104655000D01*
X85565591Y-104659085D01*
G37*
G36*
X84165591Y-104659085D02*
G01*
X84199569Y-104669393D01*
X84230890Y-104686134D01*
X84258339Y-104708661D01*
X84280866Y-104736110D01*
X84297607Y-104767431D01*
X84307915Y-104801409D01*
X84312000Y-104842890D01*
X84312000Y-105444110D01*
X84307915Y-105485591D01*
X84297607Y-105519569D01*
X84280866Y-105550890D01*
X84258339Y-105578339D01*
X84230890Y-105600866D01*
X84199569Y-105617607D01*
X84165591Y-105627915D01*
X84124110Y-105632000D01*
X83447890Y-105632000D01*
X83406409Y-105627915D01*
X83372431Y-105617607D01*
X83341110Y-105600866D01*
X83313661Y-105578339D01*
X83291134Y-105550890D01*
X83274393Y-105519569D01*
X83264085Y-105485591D01*
X83260000Y-105444110D01*
X83260000Y-104842890D01*
X83264085Y-104801409D01*
X83274393Y-104767431D01*
X83291134Y-104736110D01*
X83313661Y-104708661D01*
X83341110Y-104686134D01*
X83372431Y-104669393D01*
X83406409Y-104659085D01*
X83447890Y-104655000D01*
X84124110Y-104655000D01*
X84165591Y-104659085D01*
G37*
G36*
X88365591Y-104659085D02*
G01*
X88399569Y-104669393D01*
X88430890Y-104686134D01*
X88458339Y-104708661D01*
X88480866Y-104736110D01*
X88497607Y-104767431D01*
X88507915Y-104801409D01*
X88512000Y-104842890D01*
X88512000Y-105444110D01*
X88507915Y-105485591D01*
X88497607Y-105519569D01*
X88480866Y-105550890D01*
X88458339Y-105578339D01*
X88430890Y-105600866D01*
X88399569Y-105617607D01*
X88365591Y-105627915D01*
X88324110Y-105632000D01*
X87647890Y-105632000D01*
X87606409Y-105627915D01*
X87572431Y-105617607D01*
X87541110Y-105600866D01*
X87513661Y-105578339D01*
X87491134Y-105550890D01*
X87474393Y-105519569D01*
X87464085Y-105485591D01*
X87460000Y-105444110D01*
X87460000Y-104842890D01*
X87464085Y-104801409D01*
X87474393Y-104767431D01*
X87491134Y-104736110D01*
X87513661Y-104708661D01*
X87541110Y-104686134D01*
X87572431Y-104669393D01*
X87606409Y-104659085D01*
X87647890Y-104655000D01*
X88324110Y-104655000D01*
X88365591Y-104659085D01*
G37*
G36*
X89765591Y-104659085D02*
G01*
X89799569Y-104669393D01*
X89830890Y-104686134D01*
X89858339Y-104708661D01*
X89880866Y-104736110D01*
X89897607Y-104767431D01*
X89907915Y-104801409D01*
X89912000Y-104842890D01*
X89912000Y-105444110D01*
X89907915Y-105485591D01*
X89897607Y-105519569D01*
X89880866Y-105550890D01*
X89858339Y-105578339D01*
X89830890Y-105600866D01*
X89799569Y-105617607D01*
X89765591Y-105627915D01*
X89724110Y-105632000D01*
X89047890Y-105632000D01*
X89006409Y-105627915D01*
X88972431Y-105617607D01*
X88941110Y-105600866D01*
X88913661Y-105578339D01*
X88891134Y-105550890D01*
X88874393Y-105519569D01*
X88864085Y-105485591D01*
X88860000Y-105444110D01*
X88860000Y-104842890D01*
X88864085Y-104801409D01*
X88874393Y-104767431D01*
X88891134Y-104736110D01*
X88913661Y-104708661D01*
X88941110Y-104686134D01*
X88972431Y-104669393D01*
X89006409Y-104659085D01*
X89047890Y-104655000D01*
X89724110Y-104655000D01*
X89765591Y-104659085D01*
G37*
G36*
X80538460Y-105508700D02*
G01*
X76836460Y-105508700D01*
X76836460Y-103906700D01*
X80538460Y-103906700D01*
X80538460Y-105508700D01*
G37*
G36*
X115329440Y-104701980D02*
G01*
X94107440Y-104701980D01*
X94107440Y-102999980D01*
X115329440Y-102999980D01*
X115329440Y-104701980D01*
G37*
G36*
X82670468Y-103084565D02*
G01*
X82709138Y-103096296D01*
X82744777Y-103115346D01*
X82776017Y-103140983D01*
X82801654Y-103172223D01*
X82820704Y-103207862D01*
X82832435Y-103246532D01*
X82837000Y-103292888D01*
X82837000Y-103944112D01*
X82832435Y-103990468D01*
X82820704Y-104029138D01*
X82801654Y-104064777D01*
X82776017Y-104096017D01*
X82744777Y-104121654D01*
X82709138Y-104140704D01*
X82670468Y-104152435D01*
X82624112Y-104157000D01*
X81547888Y-104157000D01*
X81501532Y-104152435D01*
X81462862Y-104140704D01*
X81427223Y-104121654D01*
X81395983Y-104096017D01*
X81370346Y-104064777D01*
X81351296Y-104029138D01*
X81339565Y-103990468D01*
X81335000Y-103944112D01*
X81335000Y-103292888D01*
X81339565Y-103246532D01*
X81351296Y-103207862D01*
X81370346Y-103172223D01*
X81395983Y-103140983D01*
X81427223Y-103115346D01*
X81462862Y-103096296D01*
X81501532Y-103084565D01*
X81547888Y-103080000D01*
X82624112Y-103080000D01*
X82670468Y-103084565D01*
G37*
G36*
X89765591Y-103084085D02*
G01*
X89799569Y-103094393D01*
X89830890Y-103111134D01*
X89858339Y-103133661D01*
X89880866Y-103161110D01*
X89897607Y-103192431D01*
X89907915Y-103226409D01*
X89912000Y-103267890D01*
X89912000Y-103869110D01*
X89907915Y-103910591D01*
X89897607Y-103944569D01*
X89880866Y-103975890D01*
X89858339Y-104003339D01*
X89830890Y-104025866D01*
X89799569Y-104042607D01*
X89765591Y-104052915D01*
X89724110Y-104057000D01*
X89047890Y-104057000D01*
X89006409Y-104052915D01*
X88972431Y-104042607D01*
X88941110Y-104025866D01*
X88913661Y-104003339D01*
X88891134Y-103975890D01*
X88874393Y-103944569D01*
X88864085Y-103910591D01*
X88860000Y-103869110D01*
X88860000Y-103267890D01*
X88864085Y-103226409D01*
X88874393Y-103192431D01*
X88891134Y-103161110D01*
X88913661Y-103133661D01*
X88941110Y-103111134D01*
X88972431Y-103094393D01*
X89006409Y-103084085D01*
X89047890Y-103080000D01*
X89724110Y-103080000D01*
X89765591Y-103084085D01*
G37*
G36*
X88365591Y-103084085D02*
G01*
X88399569Y-103094393D01*
X88430890Y-103111134D01*
X88458339Y-103133661D01*
X88480866Y-103161110D01*
X88497607Y-103192431D01*
X88507915Y-103226409D01*
X88512000Y-103267890D01*
X88512000Y-103869110D01*
X88507915Y-103910591D01*
X88497607Y-103944569D01*
X88480866Y-103975890D01*
X88458339Y-104003339D01*
X88430890Y-104025866D01*
X88399569Y-104042607D01*
X88365591Y-104052915D01*
X88324110Y-104057000D01*
X87647890Y-104057000D01*
X87606409Y-104052915D01*
X87572431Y-104042607D01*
X87541110Y-104025866D01*
X87513661Y-104003339D01*
X87491134Y-103975890D01*
X87474393Y-103944569D01*
X87464085Y-103910591D01*
X87460000Y-103869110D01*
X87460000Y-103267890D01*
X87464085Y-103226409D01*
X87474393Y-103192431D01*
X87491134Y-103161110D01*
X87513661Y-103133661D01*
X87541110Y-103111134D01*
X87572431Y-103094393D01*
X87606409Y-103084085D01*
X87647890Y-103080000D01*
X88324110Y-103080000D01*
X88365591Y-103084085D01*
G37*
G36*
X85565591Y-103084085D02*
G01*
X85599569Y-103094393D01*
X85630890Y-103111134D01*
X85658339Y-103133661D01*
X85680866Y-103161110D01*
X85697607Y-103192431D01*
X85707915Y-103226409D01*
X85712000Y-103267890D01*
X85712000Y-103869110D01*
X85707915Y-103910591D01*
X85697607Y-103944569D01*
X85680866Y-103975890D01*
X85658339Y-104003339D01*
X85630890Y-104025866D01*
X85599569Y-104042607D01*
X85565591Y-104052915D01*
X85524110Y-104057000D01*
X84847890Y-104057000D01*
X84806409Y-104052915D01*
X84772431Y-104042607D01*
X84741110Y-104025866D01*
X84713661Y-104003339D01*
X84691134Y-103975890D01*
X84674393Y-103944569D01*
X84664085Y-103910591D01*
X84660000Y-103869110D01*
X84660000Y-103267890D01*
X84664085Y-103226409D01*
X84674393Y-103192431D01*
X84691134Y-103161110D01*
X84713661Y-103133661D01*
X84741110Y-103111134D01*
X84772431Y-103094393D01*
X84806409Y-103084085D01*
X84847890Y-103080000D01*
X85524110Y-103080000D01*
X85565591Y-103084085D01*
G37*
G36*
X86965591Y-103084085D02*
G01*
X86999569Y-103094393D01*
X87030890Y-103111134D01*
X87058339Y-103133661D01*
X87080866Y-103161110D01*
X87097607Y-103192431D01*
X87107915Y-103226409D01*
X87112000Y-103267890D01*
X87112000Y-103869110D01*
X87107915Y-103910591D01*
X87097607Y-103944569D01*
X87080866Y-103975890D01*
X87058339Y-104003339D01*
X87030890Y-104025866D01*
X86999569Y-104042607D01*
X86965591Y-104052915D01*
X86924110Y-104057000D01*
X86247890Y-104057000D01*
X86206409Y-104052915D01*
X86172431Y-104042607D01*
X86141110Y-104025866D01*
X86113661Y-104003339D01*
X86091134Y-103975890D01*
X86074393Y-103944569D01*
X86064085Y-103910591D01*
X86060000Y-103869110D01*
X86060000Y-103267890D01*
X86064085Y-103226409D01*
X86074393Y-103192431D01*
X86091134Y-103161110D01*
X86113661Y-103133661D01*
X86141110Y-103111134D01*
X86172431Y-103094393D01*
X86206409Y-103084085D01*
X86247890Y-103080000D01*
X86924110Y-103080000D01*
X86965591Y-103084085D01*
G37*
G36*
X84165591Y-103084085D02*
G01*
X84199569Y-103094393D01*
X84230890Y-103111134D01*
X84258339Y-103133661D01*
X84280866Y-103161110D01*
X84297607Y-103192431D01*
X84307915Y-103226409D01*
X84312000Y-103267890D01*
X84312000Y-103869110D01*
X84307915Y-103910591D01*
X84297607Y-103944569D01*
X84280866Y-103975890D01*
X84258339Y-104003339D01*
X84230890Y-104025866D01*
X84199569Y-104042607D01*
X84165591Y-104052915D01*
X84124110Y-104057000D01*
X83447890Y-104057000D01*
X83406409Y-104052915D01*
X83372431Y-104042607D01*
X83341110Y-104025866D01*
X83313661Y-104003339D01*
X83291134Y-103975890D01*
X83274393Y-103944569D01*
X83264085Y-103910591D01*
X83260000Y-103869110D01*
X83260000Y-103267890D01*
X83264085Y-103226409D01*
X83274393Y-103192431D01*
X83291134Y-103161110D01*
X83313661Y-103133661D01*
X83341110Y-103111134D01*
X83372431Y-103094393D01*
X83406409Y-103084085D01*
X83447890Y-103080000D01*
X84124110Y-103080000D01*
X84165591Y-103084085D01*
G37*
G36*
X119189512Y-102149927D02*
G01*
X119338812Y-102179624D01*
X119502784Y-102247544D01*
X119650354Y-102346147D01*
X119775853Y-102471646D01*
X119874456Y-102619216D01*
X119942376Y-102783188D01*
X119972073Y-102932488D01*
X119977000Y-102957258D01*
X119977000Y-103134742D01*
X119973659Y-103151539D01*
X119942376Y-103308812D01*
X119874456Y-103472784D01*
X119775853Y-103620354D01*
X119650354Y-103745853D01*
X119502784Y-103844456D01*
X119338812Y-103912376D01*
X119189512Y-103942073D01*
X119164742Y-103947000D01*
X118987258Y-103947000D01*
X118962488Y-103942073D01*
X118813188Y-103912376D01*
X118649216Y-103844456D01*
X118501646Y-103745853D01*
X118376147Y-103620354D01*
X118277544Y-103472784D01*
X118209624Y-103308812D01*
X118178341Y-103151539D01*
X118175000Y-103134742D01*
X118175000Y-102957258D01*
X118179927Y-102932488D01*
X118209624Y-102783188D01*
X118277544Y-102619216D01*
X118376147Y-102471646D01*
X118501646Y-102346147D01*
X118649216Y-102247544D01*
X118813188Y-102179624D01*
X118962488Y-102149927D01*
X118987258Y-102145000D01*
X119164742Y-102145000D01*
X119189512Y-102149927D01*
G37*
G36*
X77740780Y-103513420D02*
G01*
X75638780Y-103513420D01*
X75638780Y-102211420D01*
X77740780Y-102211420D01*
X77740780Y-103513420D01*
G37*
G36*
X87090780Y-102713420D02*
G01*
X85488780Y-102713420D01*
X85488780Y-101011420D01*
X87090780Y-101011420D01*
X87090780Y-102713420D01*
G37*
G36*
X119189512Y-99609927D02*
G01*
X119338812Y-99639624D01*
X119502784Y-99707544D01*
X119650354Y-99806147D01*
X119775853Y-99931646D01*
X119874456Y-100079216D01*
X119942376Y-100243188D01*
X119977000Y-100417259D01*
X119977000Y-100594741D01*
X119942376Y-100768812D01*
X119874456Y-100932784D01*
X119775853Y-101080354D01*
X119650354Y-101205853D01*
X119502784Y-101304456D01*
X119338812Y-101372376D01*
X119189512Y-101402073D01*
X119164742Y-101407000D01*
X118987258Y-101407000D01*
X118962488Y-101402073D01*
X118813188Y-101372376D01*
X118649216Y-101304456D01*
X118501646Y-101205853D01*
X118376147Y-101080354D01*
X118277544Y-100932784D01*
X118209624Y-100768812D01*
X118175000Y-100594741D01*
X118175000Y-100417259D01*
X118209624Y-100243188D01*
X118277544Y-100079216D01*
X118376147Y-99931646D01*
X118501646Y-99806147D01*
X118649216Y-99707544D01*
X118813188Y-99639624D01*
X118962488Y-99609927D01*
X118987258Y-99605000D01*
X119164742Y-99605000D01*
X119189512Y-99609927D01*
G37*
G36*
X76326922Y-97280662D02*
G01*
X76474881Y-97341949D01*
X76608035Y-97430919D01*
X76721281Y-97544165D01*
X76810251Y-97677319D01*
X76871538Y-97825278D01*
X76902780Y-97982345D01*
X76902780Y-98142495D01*
X76871538Y-98299562D01*
X76810251Y-98447521D01*
X76721281Y-98580675D01*
X76608035Y-98693921D01*
X76474881Y-98782891D01*
X76326922Y-98844178D01*
X76169855Y-98875420D01*
X76009705Y-98875420D01*
X75852638Y-98844178D01*
X75704679Y-98782891D01*
X75571525Y-98693921D01*
X75458279Y-98580675D01*
X75369309Y-98447521D01*
X75308022Y-98299562D01*
X75276780Y-98142495D01*
X75276780Y-97982345D01*
X75308022Y-97825278D01*
X75369309Y-97677319D01*
X75458279Y-97544165D01*
X75571525Y-97430919D01*
X75704679Y-97341949D01*
X75852638Y-97280662D01*
X76009705Y-97249420D01*
X76169855Y-97249420D01*
X76326922Y-97280662D01*
G37*
G36*
X119189512Y-97069927D02*
G01*
X119338812Y-97099624D01*
X119502784Y-97167544D01*
X119650354Y-97266147D01*
X119775853Y-97391646D01*
X119874456Y-97539216D01*
X119942376Y-97703188D01*
X119977000Y-97877259D01*
X119977000Y-98054741D01*
X119942376Y-98228812D01*
X119874456Y-98392784D01*
X119775853Y-98540354D01*
X119650354Y-98665853D01*
X119502784Y-98764456D01*
X119338812Y-98832376D01*
X119189512Y-98862073D01*
X119164742Y-98867000D01*
X118987258Y-98867000D01*
X118962488Y-98862073D01*
X118813188Y-98832376D01*
X118649216Y-98764456D01*
X118501646Y-98665853D01*
X118376147Y-98540354D01*
X118277544Y-98392784D01*
X118209624Y-98228812D01*
X118175000Y-98054741D01*
X118175000Y-97877259D01*
X118209624Y-97703188D01*
X118277544Y-97539216D01*
X118376147Y-97391646D01*
X118501646Y-97266147D01*
X118649216Y-97167544D01*
X118813188Y-97099624D01*
X118962488Y-97069927D01*
X118987258Y-97065000D01*
X119164742Y-97065000D01*
X119189512Y-97069927D01*
G37*
G36*
X87940780Y-97663420D02*
G01*
X86238780Y-97663420D01*
X86238780Y-96861420D01*
X87940780Y-96861420D01*
X87940780Y-97663420D01*
G37*
G36*
X87940780Y-96563420D02*
G01*
X86238780Y-96563420D01*
X86238780Y-95761420D01*
X87940780Y-95761420D01*
X87940780Y-96563420D01*
G37*
G36*
X119189512Y-94529927D02*
G01*
X119338812Y-94559624D01*
X119502784Y-94627544D01*
X119650354Y-94726147D01*
X119775853Y-94851646D01*
X119874456Y-94999216D01*
X119942376Y-95163188D01*
X119977000Y-95337259D01*
X119977000Y-95514741D01*
X119942376Y-95688812D01*
X119874456Y-95852784D01*
X119775853Y-96000354D01*
X119650354Y-96125853D01*
X119502784Y-96224456D01*
X119338812Y-96292376D01*
X119189512Y-96322073D01*
X119164742Y-96327000D01*
X118987258Y-96327000D01*
X118962488Y-96322073D01*
X118813188Y-96292376D01*
X118649216Y-96224456D01*
X118501646Y-96125853D01*
X118376147Y-96000354D01*
X118277544Y-95852784D01*
X118209624Y-95688812D01*
X118175000Y-95514741D01*
X118175000Y-95337259D01*
X118209624Y-95163188D01*
X118277544Y-94999216D01*
X118376147Y-94851646D01*
X118501646Y-94726147D01*
X118649216Y-94627544D01*
X118813188Y-94559624D01*
X118962488Y-94529927D01*
X118987258Y-94525000D01*
X119164742Y-94525000D01*
X119189512Y-94529927D01*
G37*
G36*
X87940780Y-95463420D02*
G01*
X86238780Y-95463420D01*
X86238780Y-94661420D01*
X87940780Y-94661420D01*
X87940780Y-95463420D01*
G37*
G36*
X91115591Y-93434085D02*
G01*
X91149569Y-93444393D01*
X91180890Y-93461134D01*
X91208339Y-93483661D01*
X91230866Y-93511110D01*
X91247607Y-93542431D01*
X91257915Y-93576409D01*
X91262000Y-93617890D01*
X91262000Y-94294110D01*
X91257915Y-94335591D01*
X91247607Y-94369569D01*
X91230866Y-94400890D01*
X91208339Y-94428339D01*
X91180890Y-94450866D01*
X91149569Y-94467607D01*
X91115591Y-94477915D01*
X91074110Y-94482000D01*
X90472890Y-94482000D01*
X90431409Y-94477915D01*
X90397431Y-94467607D01*
X90366110Y-94450866D01*
X90338661Y-94428339D01*
X90316134Y-94400890D01*
X90299393Y-94369569D01*
X90289085Y-94335591D01*
X90285000Y-94294110D01*
X90285000Y-93617890D01*
X90289085Y-93576409D01*
X90299393Y-93542431D01*
X90316134Y-93511110D01*
X90338661Y-93483661D01*
X90366110Y-93461134D01*
X90397431Y-93444393D01*
X90431409Y-93434085D01*
X90472890Y-93430000D01*
X91074110Y-93430000D01*
X91115591Y-93434085D01*
G37*
G36*
X89540591Y-93434085D02*
G01*
X89574569Y-93444393D01*
X89605890Y-93461134D01*
X89633339Y-93483661D01*
X89655866Y-93511110D01*
X89672607Y-93542431D01*
X89682915Y-93576409D01*
X89687000Y-93617890D01*
X89687000Y-94294110D01*
X89682915Y-94335591D01*
X89672607Y-94369569D01*
X89655866Y-94400890D01*
X89633339Y-94428339D01*
X89605890Y-94450866D01*
X89574569Y-94467607D01*
X89540591Y-94477915D01*
X89499110Y-94482000D01*
X88897890Y-94482000D01*
X88856409Y-94477915D01*
X88822431Y-94467607D01*
X88791110Y-94450866D01*
X88763661Y-94428339D01*
X88741134Y-94400890D01*
X88724393Y-94369569D01*
X88714085Y-94335591D01*
X88710000Y-94294110D01*
X88710000Y-93617890D01*
X88714085Y-93576409D01*
X88724393Y-93542431D01*
X88741134Y-93511110D01*
X88763661Y-93483661D01*
X88791110Y-93461134D01*
X88822431Y-93444393D01*
X88856409Y-93434085D01*
X88897890Y-93430000D01*
X89499110Y-93430000D01*
X89540591Y-93434085D01*
G37*
G36*
X87940780Y-94363420D02*
G01*
X86238780Y-94363420D01*
X86238780Y-93561420D01*
X87940780Y-93561420D01*
X87940780Y-94363420D01*
G37*
G36*
X119189512Y-91989927D02*
G01*
X119338812Y-92019624D01*
X119502784Y-92087544D01*
X119650354Y-92186147D01*
X119775853Y-92311646D01*
X119874456Y-92459216D01*
X119942376Y-92623188D01*
X119977000Y-92797259D01*
X119977000Y-92974741D01*
X119942376Y-93148812D01*
X119874456Y-93312784D01*
X119775853Y-93460354D01*
X119650354Y-93585853D01*
X119502784Y-93684456D01*
X119338812Y-93752376D01*
X119189512Y-93782073D01*
X119164742Y-93787000D01*
X118987258Y-93787000D01*
X118962488Y-93782073D01*
X118813188Y-93752376D01*
X118649216Y-93684456D01*
X118501646Y-93585853D01*
X118376147Y-93460354D01*
X118277544Y-93312784D01*
X118209624Y-93148812D01*
X118175000Y-92974741D01*
X118175000Y-92797259D01*
X118209624Y-92623188D01*
X118277544Y-92459216D01*
X118376147Y-92311646D01*
X118501646Y-92186147D01*
X118649216Y-92087544D01*
X118813188Y-92019624D01*
X118962488Y-91989927D01*
X118987258Y-91985000D01*
X119164742Y-91985000D01*
X119189512Y-91989927D01*
G37*
G36*
X87940780Y-93263420D02*
G01*
X86238780Y-93263420D01*
X86238780Y-92461420D01*
X87940780Y-92461420D01*
X87940780Y-93263420D01*
G37*
G36*
X115329440Y-92941980D02*
G01*
X94107440Y-92941980D01*
X94107440Y-91239980D01*
X115329440Y-91239980D01*
X115329440Y-92941980D01*
G37*
G36*
X87940780Y-92163420D02*
G01*
X86238780Y-92163420D01*
X86238780Y-91361420D01*
X87940780Y-91361420D01*
X87940780Y-92163420D01*
G37*
G36*
X119189512Y-89449927D02*
G01*
X119338812Y-89479624D01*
X119502784Y-89547544D01*
X119650354Y-89646147D01*
X119775853Y-89771646D01*
X119874456Y-89919216D01*
X119942376Y-90083188D01*
X119977000Y-90257259D01*
X119977000Y-90434741D01*
X119942376Y-90608812D01*
X119874456Y-90772784D01*
X119775853Y-90920354D01*
X119650354Y-91045853D01*
X119502784Y-91144456D01*
X119338812Y-91212376D01*
X119189512Y-91242073D01*
X119164742Y-91247000D01*
X118987258Y-91247000D01*
X118962488Y-91242073D01*
X118813188Y-91212376D01*
X118649216Y-91144456D01*
X118501646Y-91045853D01*
X118376147Y-90920354D01*
X118277544Y-90772784D01*
X118209624Y-90608812D01*
X118175000Y-90434741D01*
X118175000Y-90257259D01*
X118209624Y-90083188D01*
X118277544Y-89919216D01*
X118376147Y-89771646D01*
X118501646Y-89646147D01*
X118649216Y-89547544D01*
X118813188Y-89479624D01*
X118962488Y-89449927D01*
X118987258Y-89445000D01*
X119164742Y-89445000D01*
X119189512Y-89449927D01*
G37*
G36*
X87940780Y-91063420D02*
G01*
X86238780Y-91063420D01*
X86238780Y-90261420D01*
X87940780Y-90261420D01*
X87940780Y-91063420D01*
G37*
G36*
X76326922Y-89280662D02*
G01*
X76474881Y-89341949D01*
X76608035Y-89430919D01*
X76721281Y-89544165D01*
X76810251Y-89677319D01*
X76871538Y-89825278D01*
X76902780Y-89982345D01*
X76902780Y-90142495D01*
X76871538Y-90299562D01*
X76810251Y-90447521D01*
X76721281Y-90580675D01*
X76608035Y-90693921D01*
X76474881Y-90782891D01*
X76326922Y-90844178D01*
X76169855Y-90875420D01*
X76009705Y-90875420D01*
X75852638Y-90844178D01*
X75704679Y-90782891D01*
X75571525Y-90693921D01*
X75458279Y-90580675D01*
X75369309Y-90447521D01*
X75308022Y-90299562D01*
X75276780Y-90142495D01*
X75276780Y-89982345D01*
X75308022Y-89825278D01*
X75369309Y-89677319D01*
X75458279Y-89544165D01*
X75571525Y-89430919D01*
X75704679Y-89341949D01*
X75852638Y-89280662D01*
X76009705Y-89249420D01*
X76169855Y-89249420D01*
X76326922Y-89280662D01*
G37*
G36*
X110815591Y-89034085D02*
G01*
X110849569Y-89044393D01*
X110880890Y-89061134D01*
X110908339Y-89083661D01*
X110930866Y-89111110D01*
X110947607Y-89142431D01*
X110957915Y-89176409D01*
X110962000Y-89217890D01*
X110962000Y-89894110D01*
X110957915Y-89935591D01*
X110947607Y-89969569D01*
X110930866Y-90000890D01*
X110908339Y-90028339D01*
X110880890Y-90050866D01*
X110849569Y-90067607D01*
X110815591Y-90077915D01*
X110774110Y-90082000D01*
X110172890Y-90082000D01*
X110131409Y-90077915D01*
X110097431Y-90067607D01*
X110066110Y-90050866D01*
X110038661Y-90028339D01*
X110016134Y-90000890D01*
X109999393Y-89969569D01*
X109989085Y-89935591D01*
X109985000Y-89894110D01*
X109985000Y-89217890D01*
X109989085Y-89176409D01*
X109999393Y-89142431D01*
X110016134Y-89111110D01*
X110038661Y-89083661D01*
X110066110Y-89061134D01*
X110097431Y-89044393D01*
X110131409Y-89034085D01*
X110172890Y-89030000D01*
X110774110Y-89030000D01*
X110815591Y-89034085D01*
G37*
G36*
X100528091Y-89034085D02*
G01*
X100562069Y-89044393D01*
X100593390Y-89061134D01*
X100620839Y-89083661D01*
X100643366Y-89111110D01*
X100660107Y-89142431D01*
X100670415Y-89176409D01*
X100674500Y-89217890D01*
X100674500Y-89894110D01*
X100670415Y-89935591D01*
X100660107Y-89969569D01*
X100643366Y-90000890D01*
X100620839Y-90028339D01*
X100593390Y-90050866D01*
X100562069Y-90067607D01*
X100528091Y-90077915D01*
X100486610Y-90082000D01*
X99885390Y-90082000D01*
X99843909Y-90077915D01*
X99809931Y-90067607D01*
X99778610Y-90050866D01*
X99751161Y-90028339D01*
X99728634Y-90000890D01*
X99711893Y-89969569D01*
X99701585Y-89935591D01*
X99697500Y-89894110D01*
X99697500Y-89217890D01*
X99701585Y-89176409D01*
X99711893Y-89142431D01*
X99728634Y-89111110D01*
X99751161Y-89083661D01*
X99778610Y-89061134D01*
X99809931Y-89044393D01*
X99843909Y-89034085D01*
X99885390Y-89030000D01*
X100486610Y-89030000D01*
X100528091Y-89034085D01*
G37*
G36*
X102103091Y-89034085D02*
G01*
X102137069Y-89044393D01*
X102168390Y-89061134D01*
X102195839Y-89083661D01*
X102218366Y-89111110D01*
X102235107Y-89142431D01*
X102245415Y-89176409D01*
X102249500Y-89217890D01*
X102249500Y-89894110D01*
X102245415Y-89935591D01*
X102235107Y-89969569D01*
X102218366Y-90000890D01*
X102195839Y-90028339D01*
X102168390Y-90050866D01*
X102137069Y-90067607D01*
X102103091Y-90077915D01*
X102061610Y-90082000D01*
X101460390Y-90082000D01*
X101418909Y-90077915D01*
X101384931Y-90067607D01*
X101353610Y-90050866D01*
X101326161Y-90028339D01*
X101303634Y-90000890D01*
X101286893Y-89969569D01*
X101276585Y-89935591D01*
X101272500Y-89894110D01*
X101272500Y-89217890D01*
X101276585Y-89176409D01*
X101286893Y-89142431D01*
X101303634Y-89111110D01*
X101326161Y-89083661D01*
X101353610Y-89061134D01*
X101384931Y-89044393D01*
X101418909Y-89034085D01*
X101460390Y-89030000D01*
X102061610Y-89030000D01*
X102103091Y-89034085D01*
G37*
G36*
X96203091Y-89034085D02*
G01*
X96237069Y-89044393D01*
X96268390Y-89061134D01*
X96295839Y-89083661D01*
X96318366Y-89111110D01*
X96335107Y-89142431D01*
X96345415Y-89176409D01*
X96349500Y-89217890D01*
X96349500Y-89894110D01*
X96345415Y-89935591D01*
X96335107Y-89969569D01*
X96318366Y-90000890D01*
X96295839Y-90028339D01*
X96268390Y-90050866D01*
X96237069Y-90067607D01*
X96203091Y-90077915D01*
X96161610Y-90082000D01*
X95560390Y-90082000D01*
X95518909Y-90077915D01*
X95484931Y-90067607D01*
X95453610Y-90050866D01*
X95426161Y-90028339D01*
X95403634Y-90000890D01*
X95386893Y-89969569D01*
X95376585Y-89935591D01*
X95372500Y-89894110D01*
X95372500Y-89217890D01*
X95376585Y-89176409D01*
X95386893Y-89142431D01*
X95403634Y-89111110D01*
X95426161Y-89083661D01*
X95453610Y-89061134D01*
X95484931Y-89044393D01*
X95518909Y-89034085D01*
X95560390Y-89030000D01*
X96161610Y-89030000D01*
X96203091Y-89034085D01*
G37*
G36*
X106340591Y-89034085D02*
G01*
X106374569Y-89044393D01*
X106405890Y-89061134D01*
X106433339Y-89083661D01*
X106455866Y-89111110D01*
X106472607Y-89142431D01*
X106482915Y-89176409D01*
X106487000Y-89217890D01*
X106487000Y-89894110D01*
X106482915Y-89935591D01*
X106472607Y-89969569D01*
X106455866Y-90000890D01*
X106433339Y-90028339D01*
X106405890Y-90050866D01*
X106374569Y-90067607D01*
X106340591Y-90077915D01*
X106299110Y-90082000D01*
X105697890Y-90082000D01*
X105656409Y-90077915D01*
X105622431Y-90067607D01*
X105591110Y-90050866D01*
X105563661Y-90028339D01*
X105541134Y-90000890D01*
X105524393Y-89969569D01*
X105514085Y-89935591D01*
X105510000Y-89894110D01*
X105510000Y-89217890D01*
X105514085Y-89176409D01*
X105524393Y-89142431D01*
X105541134Y-89111110D01*
X105563661Y-89083661D01*
X105591110Y-89061134D01*
X105622431Y-89044393D01*
X105656409Y-89034085D01*
X105697890Y-89030000D01*
X106299110Y-89030000D01*
X106340591Y-89034085D01*
G37*
G36*
X94628091Y-89034085D02*
G01*
X94662069Y-89044393D01*
X94693390Y-89061134D01*
X94720839Y-89083661D01*
X94743366Y-89111110D01*
X94760107Y-89142431D01*
X94770415Y-89176409D01*
X94774500Y-89217890D01*
X94774500Y-89894110D01*
X94770415Y-89935591D01*
X94760107Y-89969569D01*
X94743366Y-90000890D01*
X94720839Y-90028339D01*
X94693390Y-90050866D01*
X94662069Y-90067607D01*
X94628091Y-90077915D01*
X94586610Y-90082000D01*
X93985390Y-90082000D01*
X93943909Y-90077915D01*
X93909931Y-90067607D01*
X93878610Y-90050866D01*
X93851161Y-90028339D01*
X93828634Y-90000890D01*
X93811893Y-89969569D01*
X93801585Y-89935591D01*
X93797500Y-89894110D01*
X93797500Y-89217890D01*
X93801585Y-89176409D01*
X93811893Y-89142431D01*
X93828634Y-89111110D01*
X93851161Y-89083661D01*
X93878610Y-89061134D01*
X93909931Y-89044393D01*
X93943909Y-89034085D01*
X93985390Y-89030000D01*
X94586610Y-89030000D01*
X94628091Y-89034085D01*
G37*
G36*
X112140591Y-89034085D02*
G01*
X112174569Y-89044393D01*
X112205890Y-89061134D01*
X112233339Y-89083661D01*
X112255866Y-89111110D01*
X112272607Y-89142431D01*
X112282915Y-89176409D01*
X112287000Y-89217890D01*
X112287000Y-89894110D01*
X112282915Y-89935591D01*
X112272607Y-89969569D01*
X112255866Y-90000890D01*
X112233339Y-90028339D01*
X112205890Y-90050866D01*
X112174569Y-90067607D01*
X112140591Y-90077915D01*
X112099110Y-90082000D01*
X111497890Y-90082000D01*
X111456409Y-90077915D01*
X111422431Y-90067607D01*
X111391110Y-90050866D01*
X111363661Y-90028339D01*
X111341134Y-90000890D01*
X111324393Y-89969569D01*
X111314085Y-89935591D01*
X111310000Y-89894110D01*
X111310000Y-89217890D01*
X111314085Y-89176409D01*
X111324393Y-89142431D01*
X111341134Y-89111110D01*
X111363661Y-89083661D01*
X111391110Y-89061134D01*
X111422431Y-89044393D01*
X111456409Y-89034085D01*
X111497890Y-89030000D01*
X112099110Y-89030000D01*
X112140591Y-89034085D01*
G37*
G36*
X113715591Y-89034085D02*
G01*
X113749569Y-89044393D01*
X113780890Y-89061134D01*
X113808339Y-89083661D01*
X113830866Y-89111110D01*
X113847607Y-89142431D01*
X113857915Y-89176409D01*
X113862000Y-89217890D01*
X113862000Y-89894110D01*
X113857915Y-89935591D01*
X113847607Y-89969569D01*
X113830866Y-90000890D01*
X113808339Y-90028339D01*
X113780890Y-90050866D01*
X113749569Y-90067607D01*
X113715591Y-90077915D01*
X113674110Y-90082000D01*
X113072890Y-90082000D01*
X113031409Y-90077915D01*
X112997431Y-90067607D01*
X112966110Y-90050866D01*
X112938661Y-90028339D01*
X112916134Y-90000890D01*
X112899393Y-89969569D01*
X112889085Y-89935591D01*
X112885000Y-89894110D01*
X112885000Y-89217890D01*
X112889085Y-89176409D01*
X112899393Y-89142431D01*
X112916134Y-89111110D01*
X112938661Y-89083661D01*
X112966110Y-89061134D01*
X112997431Y-89044393D01*
X113031409Y-89034085D01*
X113072890Y-89030000D01*
X113674110Y-89030000D01*
X113715591Y-89034085D01*
G37*
G36*
X109240591Y-89034085D02*
G01*
X109274569Y-89044393D01*
X109305890Y-89061134D01*
X109333339Y-89083661D01*
X109355866Y-89111110D01*
X109372607Y-89142431D01*
X109382915Y-89176409D01*
X109387000Y-89217890D01*
X109387000Y-89894110D01*
X109382915Y-89935591D01*
X109372607Y-89969569D01*
X109355866Y-90000890D01*
X109333339Y-90028339D01*
X109305890Y-90050866D01*
X109274569Y-90067607D01*
X109240591Y-90077915D01*
X109199110Y-90082000D01*
X108597890Y-90082000D01*
X108556409Y-90077915D01*
X108522431Y-90067607D01*
X108491110Y-90050866D01*
X108463661Y-90028339D01*
X108441134Y-90000890D01*
X108424393Y-89969569D01*
X108414085Y-89935591D01*
X108410000Y-89894110D01*
X108410000Y-89217890D01*
X108414085Y-89176409D01*
X108424393Y-89142431D01*
X108441134Y-89111110D01*
X108463661Y-89083661D01*
X108491110Y-89061134D01*
X108522431Y-89044393D01*
X108556409Y-89034085D01*
X108597890Y-89030000D01*
X109199110Y-89030000D01*
X109240591Y-89034085D01*
G37*
G36*
X103453091Y-89034085D02*
G01*
X103487069Y-89044393D01*
X103518390Y-89061134D01*
X103545839Y-89083661D01*
X103568366Y-89111110D01*
X103585107Y-89142431D01*
X103595415Y-89176409D01*
X103599500Y-89217890D01*
X103599500Y-89894110D01*
X103595415Y-89935591D01*
X103585107Y-89969569D01*
X103568366Y-90000890D01*
X103545839Y-90028339D01*
X103518390Y-90050866D01*
X103487069Y-90067607D01*
X103453091Y-90077915D01*
X103411610Y-90082000D01*
X102810390Y-90082000D01*
X102768909Y-90077915D01*
X102734931Y-90067607D01*
X102703610Y-90050866D01*
X102676161Y-90028339D01*
X102653634Y-90000890D01*
X102636893Y-89969569D01*
X102626585Y-89935591D01*
X102622500Y-89894110D01*
X102622500Y-89217890D01*
X102626585Y-89176409D01*
X102636893Y-89142431D01*
X102653634Y-89111110D01*
X102676161Y-89083661D01*
X102703610Y-89061134D01*
X102734931Y-89044393D01*
X102768909Y-89034085D01*
X102810390Y-89030000D01*
X103411610Y-89030000D01*
X103453091Y-89034085D01*
G37*
G36*
X105028091Y-89034085D02*
G01*
X105062069Y-89044393D01*
X105093390Y-89061134D01*
X105120839Y-89083661D01*
X105143366Y-89111110D01*
X105160107Y-89142431D01*
X105170415Y-89176409D01*
X105174500Y-89217890D01*
X105174500Y-89894110D01*
X105170415Y-89935591D01*
X105160107Y-89969569D01*
X105143366Y-90000890D01*
X105120839Y-90028339D01*
X105093390Y-90050866D01*
X105062069Y-90067607D01*
X105028091Y-90077915D01*
X104986610Y-90082000D01*
X104385390Y-90082000D01*
X104343909Y-90077915D01*
X104309931Y-90067607D01*
X104278610Y-90050866D01*
X104251161Y-90028339D01*
X104228634Y-90000890D01*
X104211893Y-89969569D01*
X104201585Y-89935591D01*
X104197500Y-89894110D01*
X104197500Y-89217890D01*
X104201585Y-89176409D01*
X104211893Y-89142431D01*
X104228634Y-89111110D01*
X104251161Y-89083661D01*
X104278610Y-89061134D01*
X104309931Y-89044393D01*
X104343909Y-89034085D01*
X104385390Y-89030000D01*
X104986610Y-89030000D01*
X105028091Y-89034085D01*
G37*
G36*
X116715591Y-89034085D02*
G01*
X116749569Y-89044393D01*
X116780890Y-89061134D01*
X116808339Y-89083661D01*
X116830866Y-89111110D01*
X116847607Y-89142431D01*
X116857915Y-89176409D01*
X116862000Y-89217890D01*
X116862000Y-89894110D01*
X116857915Y-89935591D01*
X116847607Y-89969569D01*
X116830866Y-90000890D01*
X116808339Y-90028339D01*
X116780890Y-90050866D01*
X116749569Y-90067607D01*
X116715591Y-90077915D01*
X116674110Y-90082000D01*
X116072890Y-90082000D01*
X116031409Y-90077915D01*
X115997431Y-90067607D01*
X115966110Y-90050866D01*
X115938661Y-90028339D01*
X115916134Y-90000890D01*
X115899393Y-89969569D01*
X115889085Y-89935591D01*
X115885000Y-89894110D01*
X115885000Y-89217890D01*
X115889085Y-89176409D01*
X115899393Y-89142431D01*
X115916134Y-89111110D01*
X115938661Y-89083661D01*
X115966110Y-89061134D01*
X115997431Y-89044393D01*
X116031409Y-89034085D01*
X116072890Y-89030000D01*
X116674110Y-89030000D01*
X116715591Y-89034085D01*
G37*
G36*
X115140591Y-89034085D02*
G01*
X115174569Y-89044393D01*
X115205890Y-89061134D01*
X115233339Y-89083661D01*
X115255866Y-89111110D01*
X115272607Y-89142431D01*
X115282915Y-89176409D01*
X115287000Y-89217890D01*
X115287000Y-89894110D01*
X115282915Y-89935591D01*
X115272607Y-89969569D01*
X115255866Y-90000890D01*
X115233339Y-90028339D01*
X115205890Y-90050866D01*
X115174569Y-90067607D01*
X115140591Y-90077915D01*
X115099110Y-90082000D01*
X114497890Y-90082000D01*
X114456409Y-90077915D01*
X114422431Y-90067607D01*
X114391110Y-90050866D01*
X114363661Y-90028339D01*
X114341134Y-90000890D01*
X114324393Y-89969569D01*
X114314085Y-89935591D01*
X114310000Y-89894110D01*
X114310000Y-89217890D01*
X114314085Y-89176409D01*
X114324393Y-89142431D01*
X114341134Y-89111110D01*
X114363661Y-89083661D01*
X114391110Y-89061134D01*
X114422431Y-89044393D01*
X114456409Y-89034085D01*
X114497890Y-89030000D01*
X115099110Y-89030000D01*
X115140591Y-89034085D01*
G37*
G36*
X107915591Y-89034085D02*
G01*
X107949569Y-89044393D01*
X107980890Y-89061134D01*
X108008339Y-89083661D01*
X108030866Y-89111110D01*
X108047607Y-89142431D01*
X108057915Y-89176409D01*
X108062000Y-89217890D01*
X108062000Y-89894110D01*
X108057915Y-89935591D01*
X108047607Y-89969569D01*
X108030866Y-90000890D01*
X108008339Y-90028339D01*
X107980890Y-90050866D01*
X107949569Y-90067607D01*
X107915591Y-90077915D01*
X107874110Y-90082000D01*
X107272890Y-90082000D01*
X107231409Y-90077915D01*
X107197431Y-90067607D01*
X107166110Y-90050866D01*
X107138661Y-90028339D01*
X107116134Y-90000890D01*
X107099393Y-89969569D01*
X107089085Y-89935591D01*
X107085000Y-89894110D01*
X107085000Y-89217890D01*
X107089085Y-89176409D01*
X107099393Y-89142431D01*
X107116134Y-89111110D01*
X107138661Y-89083661D01*
X107166110Y-89061134D01*
X107197431Y-89044393D01*
X107231409Y-89034085D01*
X107272890Y-89030000D01*
X107874110Y-89030000D01*
X107915591Y-89034085D01*
G37*
G36*
X87940780Y-89963420D02*
G01*
X86238780Y-89963420D01*
X86238780Y-89161420D01*
X87940780Y-89161420D01*
X87940780Y-89963420D01*
G37*
G36*
X91115591Y-87934085D02*
G01*
X91149569Y-87944393D01*
X91180890Y-87961134D01*
X91208339Y-87983661D01*
X91230866Y-88011110D01*
X91247607Y-88042431D01*
X91257915Y-88076409D01*
X91262000Y-88117890D01*
X91262000Y-88794110D01*
X91257915Y-88835591D01*
X91247607Y-88869569D01*
X91230866Y-88900890D01*
X91208339Y-88928339D01*
X91180890Y-88950866D01*
X91149569Y-88967607D01*
X91115591Y-88977915D01*
X91074110Y-88982000D01*
X90472890Y-88982000D01*
X90431409Y-88977915D01*
X90397431Y-88967607D01*
X90366110Y-88950866D01*
X90338661Y-88928339D01*
X90316134Y-88900890D01*
X90299393Y-88869569D01*
X90289085Y-88835591D01*
X90285000Y-88794110D01*
X90285000Y-88117890D01*
X90289085Y-88076409D01*
X90299393Y-88042431D01*
X90316134Y-88011110D01*
X90338661Y-87983661D01*
X90366110Y-87961134D01*
X90397431Y-87944393D01*
X90431409Y-87934085D01*
X90472890Y-87930000D01*
X91074110Y-87930000D01*
X91115591Y-87934085D01*
G37*
G36*
X89540591Y-87934085D02*
G01*
X89574569Y-87944393D01*
X89605890Y-87961134D01*
X89633339Y-87983661D01*
X89655866Y-88011110D01*
X89672607Y-88042431D01*
X89682915Y-88076409D01*
X89687000Y-88117890D01*
X89687000Y-88794110D01*
X89682915Y-88835591D01*
X89672607Y-88869569D01*
X89655866Y-88900890D01*
X89633339Y-88928339D01*
X89605890Y-88950866D01*
X89574569Y-88967607D01*
X89540591Y-88977915D01*
X89499110Y-88982000D01*
X88897890Y-88982000D01*
X88856409Y-88977915D01*
X88822431Y-88967607D01*
X88791110Y-88950866D01*
X88763661Y-88928339D01*
X88741134Y-88900890D01*
X88724393Y-88869569D01*
X88714085Y-88835591D01*
X88710000Y-88794110D01*
X88710000Y-88117890D01*
X88714085Y-88076409D01*
X88724393Y-88042431D01*
X88741134Y-88011110D01*
X88763661Y-87983661D01*
X88791110Y-87961134D01*
X88822431Y-87944393D01*
X88856409Y-87934085D01*
X88897890Y-87930000D01*
X89499110Y-87930000D01*
X89540591Y-87934085D01*
G37*
G36*
X87940780Y-88863420D02*
G01*
X86238780Y-88863420D01*
X86238780Y-88061420D01*
X87940780Y-88061420D01*
X87940780Y-88863420D01*
G37*
G36*
X76009512Y-84369927D02*
G01*
X76158812Y-84399624D01*
X76322784Y-84467544D01*
X76470354Y-84566147D01*
X76595853Y-84691646D01*
X76694456Y-84839216D01*
X76762376Y-85003188D01*
X76797000Y-85177259D01*
X76797000Y-85354741D01*
X76762376Y-85528812D01*
X76694456Y-85692784D01*
X76595853Y-85840354D01*
X76470354Y-85965853D01*
X76322784Y-86064456D01*
X76158812Y-86132376D01*
X76000708Y-86163824D01*
X75977259Y-86170937D01*
X75955648Y-86182488D01*
X75936706Y-86198034D01*
X75921161Y-86216975D01*
X75909610Y-86238586D01*
X75902497Y-86262035D01*
X75900095Y-86286421D01*
X75902497Y-86310807D01*
X75909610Y-86334256D01*
X75921161Y-86355867D01*
X75936707Y-86374809D01*
X75955648Y-86390354D01*
X75977259Y-86401905D01*
X76000708Y-86409018D01*
X76025094Y-86411420D01*
X77840780Y-86411420D01*
X77840780Y-87713420D01*
X75538780Y-87713420D01*
X75538780Y-86411420D01*
X75766906Y-86411420D01*
X75791292Y-86409018D01*
X75814741Y-86401905D01*
X75836352Y-86390354D01*
X75855294Y-86374809D01*
X75870839Y-86355867D01*
X75882390Y-86334256D01*
X75889503Y-86310807D01*
X75891905Y-86286421D01*
X75889503Y-86262035D01*
X75882390Y-86238586D01*
X75870839Y-86216975D01*
X75855294Y-86198033D01*
X75836352Y-86182488D01*
X75814741Y-86170937D01*
X75791292Y-86163824D01*
X75633188Y-86132376D01*
X75469216Y-86064456D01*
X75321646Y-85965853D01*
X75196147Y-85840354D01*
X75097544Y-85692784D01*
X75029624Y-85528812D01*
X74995000Y-85354741D01*
X74995000Y-85177259D01*
X75029624Y-85003188D01*
X75097544Y-84839216D01*
X75196147Y-84691646D01*
X75321646Y-84566147D01*
X75469216Y-84467544D01*
X75633188Y-84399624D01*
X75782488Y-84369927D01*
X75807258Y-84365000D01*
X75984742Y-84365000D01*
X76009512Y-84369927D01*
G37*
G36*
X86169512Y-84369927D02*
G01*
X86318812Y-84399624D01*
X86482784Y-84467544D01*
X86630354Y-84566147D01*
X86755853Y-84691646D01*
X86854456Y-84839216D01*
X86922376Y-85003188D01*
X86957000Y-85177259D01*
X86957000Y-85354741D01*
X86922376Y-85528812D01*
X86854456Y-85692784D01*
X86755853Y-85840354D01*
X86630354Y-85965853D01*
X86482784Y-86064456D01*
X86318812Y-86132376D01*
X86160708Y-86163824D01*
X86137259Y-86170937D01*
X86115648Y-86182488D01*
X86096706Y-86198034D01*
X86081161Y-86216975D01*
X86069610Y-86238586D01*
X86062497Y-86262035D01*
X86060095Y-86286421D01*
X86062497Y-86310807D01*
X86069610Y-86334256D01*
X86081161Y-86355867D01*
X86096707Y-86374809D01*
X86115648Y-86390354D01*
X86137259Y-86401905D01*
X86160708Y-86409018D01*
X86185094Y-86411420D01*
X87090780Y-86411420D01*
X87090780Y-87713420D01*
X85488780Y-87713420D01*
X85488780Y-86411420D01*
X85926906Y-86411420D01*
X85951292Y-86409018D01*
X85974741Y-86401905D01*
X85996352Y-86390354D01*
X86015294Y-86374809D01*
X86030839Y-86355867D01*
X86042390Y-86334256D01*
X86049503Y-86310807D01*
X86051905Y-86286421D01*
X86049503Y-86262035D01*
X86042390Y-86238586D01*
X86030839Y-86216975D01*
X86015294Y-86198033D01*
X85996352Y-86182488D01*
X85974741Y-86170937D01*
X85951292Y-86163824D01*
X85793188Y-86132376D01*
X85629216Y-86064456D01*
X85481646Y-85965853D01*
X85356147Y-85840354D01*
X85257544Y-85692784D01*
X85189624Y-85528812D01*
X85155000Y-85354741D01*
X85155000Y-85177259D01*
X85189624Y-85003188D01*
X85257544Y-84839216D01*
X85356147Y-84691646D01*
X85481646Y-84566147D01*
X85629216Y-84467544D01*
X85793188Y-84399624D01*
X85942488Y-84369927D01*
X85967258Y-84365000D01*
X86144742Y-84365000D01*
X86169512Y-84369927D01*
G37*
G36*
X119189512Y-84369927D02*
G01*
X119338812Y-84399624D01*
X119502784Y-84467544D01*
X119650354Y-84566147D01*
X119775853Y-84691646D01*
X119874456Y-84839216D01*
X119942376Y-85003188D01*
X119977000Y-85177259D01*
X119977000Y-85354741D01*
X119942376Y-85528812D01*
X119874456Y-85692784D01*
X119775853Y-85840354D01*
X119650354Y-85965853D01*
X119502784Y-86064456D01*
X119338812Y-86132376D01*
X119189512Y-86162073D01*
X119164742Y-86167000D01*
X118987258Y-86167000D01*
X118962488Y-86162073D01*
X118813188Y-86132376D01*
X118649216Y-86064456D01*
X118501646Y-85965853D01*
X118376147Y-85840354D01*
X118277544Y-85692784D01*
X118209624Y-85528812D01*
X118175000Y-85354741D01*
X118175000Y-85177259D01*
X118209624Y-85003188D01*
X118277544Y-84839216D01*
X118376147Y-84691646D01*
X118501646Y-84566147D01*
X118649216Y-84467544D01*
X118813188Y-84399624D01*
X118962488Y-84369927D01*
X118987258Y-84365000D01*
X119164742Y-84365000D01*
X119189512Y-84369927D01*
G37*
G36*
X96329512Y-84369927D02*
G01*
X96478812Y-84399624D01*
X96642784Y-84467544D01*
X96790354Y-84566147D01*
X96915853Y-84691646D01*
X97014456Y-84839216D01*
X97082376Y-85003188D01*
X97117000Y-85177259D01*
X97117000Y-85354741D01*
X97082376Y-85528812D01*
X97014456Y-85692784D01*
X96915853Y-85840354D01*
X96790354Y-85965853D01*
X96642784Y-86064456D01*
X96478812Y-86132376D01*
X96329512Y-86162073D01*
X96304742Y-86167000D01*
X96127258Y-86167000D01*
X96102488Y-86162073D01*
X95953188Y-86132376D01*
X95789216Y-86064456D01*
X95641646Y-85965853D01*
X95516147Y-85840354D01*
X95417544Y-85692784D01*
X95349624Y-85528812D01*
X95315000Y-85354741D01*
X95315000Y-85177259D01*
X95349624Y-85003188D01*
X95417544Y-84839216D01*
X95516147Y-84691646D01*
X95641646Y-84566147D01*
X95789216Y-84467544D01*
X95953188Y-84399624D01*
X96102488Y-84369927D01*
X96127258Y-84365000D01*
X96304742Y-84365000D01*
X96329512Y-84369927D01*
G37*
G36*
X91249512Y-84369927D02*
G01*
X91398812Y-84399624D01*
X91562784Y-84467544D01*
X91710354Y-84566147D01*
X91835853Y-84691646D01*
X91934456Y-84839216D01*
X92002376Y-85003188D01*
X92037000Y-85177259D01*
X92037000Y-85354741D01*
X92002376Y-85528812D01*
X91934456Y-85692784D01*
X91835853Y-85840354D01*
X91710354Y-85965853D01*
X91562784Y-86064456D01*
X91398812Y-86132376D01*
X91249512Y-86162073D01*
X91224742Y-86167000D01*
X91047258Y-86167000D01*
X91022488Y-86162073D01*
X90873188Y-86132376D01*
X90709216Y-86064456D01*
X90561646Y-85965853D01*
X90436147Y-85840354D01*
X90337544Y-85692784D01*
X90269624Y-85528812D01*
X90235000Y-85354741D01*
X90235000Y-85177259D01*
X90269624Y-85003188D01*
X90337544Y-84839216D01*
X90436147Y-84691646D01*
X90561646Y-84566147D01*
X90709216Y-84467544D01*
X90873188Y-84399624D01*
X91022488Y-84369927D01*
X91047258Y-84365000D01*
X91224742Y-84365000D01*
X91249512Y-84369927D01*
G37*
G36*
X88709512Y-84369927D02*
G01*
X88858812Y-84399624D01*
X89022784Y-84467544D01*
X89170354Y-84566147D01*
X89295853Y-84691646D01*
X89394456Y-84839216D01*
X89462376Y-85003188D01*
X89497000Y-85177259D01*
X89497000Y-85354741D01*
X89462376Y-85528812D01*
X89394456Y-85692784D01*
X89295853Y-85840354D01*
X89170354Y-85965853D01*
X89022784Y-86064456D01*
X88858812Y-86132376D01*
X88709512Y-86162073D01*
X88684742Y-86167000D01*
X88507258Y-86167000D01*
X88482488Y-86162073D01*
X88333188Y-86132376D01*
X88169216Y-86064456D01*
X88021646Y-85965853D01*
X87896147Y-85840354D01*
X87797544Y-85692784D01*
X87729624Y-85528812D01*
X87695000Y-85354741D01*
X87695000Y-85177259D01*
X87729624Y-85003188D01*
X87797544Y-84839216D01*
X87896147Y-84691646D01*
X88021646Y-84566147D01*
X88169216Y-84467544D01*
X88333188Y-84399624D01*
X88482488Y-84369927D01*
X88507258Y-84365000D01*
X88684742Y-84365000D01*
X88709512Y-84369927D01*
G37*
G36*
X98869512Y-84369927D02*
G01*
X99018812Y-84399624D01*
X99182784Y-84467544D01*
X99330354Y-84566147D01*
X99455853Y-84691646D01*
X99554456Y-84839216D01*
X99622376Y-85003188D01*
X99657000Y-85177259D01*
X99657000Y-85354741D01*
X99622376Y-85528812D01*
X99554456Y-85692784D01*
X99455853Y-85840354D01*
X99330354Y-85965853D01*
X99182784Y-86064456D01*
X99018812Y-86132376D01*
X98869512Y-86162073D01*
X98844742Y-86167000D01*
X98667258Y-86167000D01*
X98642488Y-86162073D01*
X98493188Y-86132376D01*
X98329216Y-86064456D01*
X98181646Y-85965853D01*
X98056147Y-85840354D01*
X97957544Y-85692784D01*
X97889624Y-85528812D01*
X97855000Y-85354741D01*
X97855000Y-85177259D01*
X97889624Y-85003188D01*
X97957544Y-84839216D01*
X98056147Y-84691646D01*
X98181646Y-84566147D01*
X98329216Y-84467544D01*
X98493188Y-84399624D01*
X98642488Y-84369927D01*
X98667258Y-84365000D01*
X98844742Y-84365000D01*
X98869512Y-84369927D01*
G37*
G36*
X101409512Y-84369927D02*
G01*
X101558812Y-84399624D01*
X101722784Y-84467544D01*
X101870354Y-84566147D01*
X101995853Y-84691646D01*
X102094456Y-84839216D01*
X102162376Y-85003188D01*
X102197000Y-85177259D01*
X102197000Y-85354741D01*
X102162376Y-85528812D01*
X102094456Y-85692784D01*
X101995853Y-85840354D01*
X101870354Y-85965853D01*
X101722784Y-86064456D01*
X101558812Y-86132376D01*
X101409512Y-86162073D01*
X101384742Y-86167000D01*
X101207258Y-86167000D01*
X101182488Y-86162073D01*
X101033188Y-86132376D01*
X100869216Y-86064456D01*
X100721646Y-85965853D01*
X100596147Y-85840354D01*
X100497544Y-85692784D01*
X100429624Y-85528812D01*
X100395000Y-85354741D01*
X100395000Y-85177259D01*
X100429624Y-85003188D01*
X100497544Y-84839216D01*
X100596147Y-84691646D01*
X100721646Y-84566147D01*
X100869216Y-84467544D01*
X101033188Y-84399624D01*
X101182488Y-84369927D01*
X101207258Y-84365000D01*
X101384742Y-84365000D01*
X101409512Y-84369927D01*
G37*
G36*
X83629512Y-84369927D02*
G01*
X83778812Y-84399624D01*
X83942784Y-84467544D01*
X84090354Y-84566147D01*
X84215853Y-84691646D01*
X84314456Y-84839216D01*
X84382376Y-85003188D01*
X84417000Y-85177259D01*
X84417000Y-85354741D01*
X84382376Y-85528812D01*
X84314456Y-85692784D01*
X84215853Y-85840354D01*
X84090354Y-85965853D01*
X83942784Y-86064456D01*
X83778812Y-86132376D01*
X83629512Y-86162073D01*
X83604742Y-86167000D01*
X83427258Y-86167000D01*
X83402488Y-86162073D01*
X83253188Y-86132376D01*
X83089216Y-86064456D01*
X82941646Y-85965853D01*
X82816147Y-85840354D01*
X82717544Y-85692784D01*
X82649624Y-85528812D01*
X82615000Y-85354741D01*
X82615000Y-85177259D01*
X82649624Y-85003188D01*
X82717544Y-84839216D01*
X82816147Y-84691646D01*
X82941646Y-84566147D01*
X83089216Y-84467544D01*
X83253188Y-84399624D01*
X83402488Y-84369927D01*
X83427258Y-84365000D01*
X83604742Y-84365000D01*
X83629512Y-84369927D01*
G37*
G36*
X81089512Y-84369927D02*
G01*
X81238812Y-84399624D01*
X81402784Y-84467544D01*
X81550354Y-84566147D01*
X81675853Y-84691646D01*
X81774456Y-84839216D01*
X81842376Y-85003188D01*
X81877000Y-85177259D01*
X81877000Y-85354741D01*
X81842376Y-85528812D01*
X81774456Y-85692784D01*
X81675853Y-85840354D01*
X81550354Y-85965853D01*
X81402784Y-86064456D01*
X81238812Y-86132376D01*
X81089512Y-86162073D01*
X81064742Y-86167000D01*
X80887258Y-86167000D01*
X80862488Y-86162073D01*
X80713188Y-86132376D01*
X80549216Y-86064456D01*
X80401646Y-85965853D01*
X80276147Y-85840354D01*
X80177544Y-85692784D01*
X80109624Y-85528812D01*
X80075000Y-85354741D01*
X80075000Y-85177259D01*
X80109624Y-85003188D01*
X80177544Y-84839216D01*
X80276147Y-84691646D01*
X80401646Y-84566147D01*
X80549216Y-84467544D01*
X80713188Y-84399624D01*
X80862488Y-84369927D01*
X80887258Y-84365000D01*
X81064742Y-84365000D01*
X81089512Y-84369927D01*
G37*
G36*
X93789512Y-84369927D02*
G01*
X93938812Y-84399624D01*
X94102784Y-84467544D01*
X94250354Y-84566147D01*
X94375853Y-84691646D01*
X94474456Y-84839216D01*
X94542376Y-85003188D01*
X94577000Y-85177259D01*
X94577000Y-85354741D01*
X94542376Y-85528812D01*
X94474456Y-85692784D01*
X94375853Y-85840354D01*
X94250354Y-85965853D01*
X94102784Y-86064456D01*
X93938812Y-86132376D01*
X93789512Y-86162073D01*
X93764742Y-86167000D01*
X93587258Y-86167000D01*
X93562488Y-86162073D01*
X93413188Y-86132376D01*
X93249216Y-86064456D01*
X93101646Y-85965853D01*
X92976147Y-85840354D01*
X92877544Y-85692784D01*
X92809624Y-85528812D01*
X92775000Y-85354741D01*
X92775000Y-85177259D01*
X92809624Y-85003188D01*
X92877544Y-84839216D01*
X92976147Y-84691646D01*
X93101646Y-84566147D01*
X93249216Y-84467544D01*
X93413188Y-84399624D01*
X93562488Y-84369927D01*
X93587258Y-84365000D01*
X93764742Y-84365000D01*
X93789512Y-84369927D01*
G37*
G36*
X78549512Y-84369927D02*
G01*
X78698812Y-84399624D01*
X78862784Y-84467544D01*
X79010354Y-84566147D01*
X79135853Y-84691646D01*
X79234456Y-84839216D01*
X79302376Y-85003188D01*
X79337000Y-85177259D01*
X79337000Y-85354741D01*
X79302376Y-85528812D01*
X79234456Y-85692784D01*
X79135853Y-85840354D01*
X79010354Y-85965853D01*
X78862784Y-86064456D01*
X78698812Y-86132376D01*
X78549512Y-86162073D01*
X78524742Y-86167000D01*
X78347258Y-86167000D01*
X78322488Y-86162073D01*
X78173188Y-86132376D01*
X78009216Y-86064456D01*
X77861646Y-85965853D01*
X77736147Y-85840354D01*
X77637544Y-85692784D01*
X77569624Y-85528812D01*
X77535000Y-85354741D01*
X77535000Y-85177259D01*
X77569624Y-85003188D01*
X77637544Y-84839216D01*
X77736147Y-84691646D01*
X77861646Y-84566147D01*
X78009216Y-84467544D01*
X78173188Y-84399624D01*
X78322488Y-84369927D01*
X78347258Y-84365000D01*
X78524742Y-84365000D01*
X78549512Y-84369927D01*
G37*
G36*
X74257000Y-86167000D02*
G01*
X72455000Y-86167000D01*
X72455000Y-84365000D01*
X74257000Y-84365000D01*
X74257000Y-86167000D01*
G37*
G36*
X106489512Y-84369927D02*
G01*
X106638812Y-84399624D01*
X106802784Y-84467544D01*
X106950354Y-84566147D01*
X107075853Y-84691646D01*
X107174456Y-84839216D01*
X107242376Y-85003188D01*
X107277000Y-85177259D01*
X107277000Y-85354741D01*
X107242376Y-85528812D01*
X107174456Y-85692784D01*
X107075853Y-85840354D01*
X106950354Y-85965853D01*
X106802784Y-86064456D01*
X106638812Y-86132376D01*
X106489512Y-86162073D01*
X106464742Y-86167000D01*
X106287258Y-86167000D01*
X106262488Y-86162073D01*
X106113188Y-86132376D01*
X105949216Y-86064456D01*
X105801646Y-85965853D01*
X105676147Y-85840354D01*
X105577544Y-85692784D01*
X105509624Y-85528812D01*
X105475000Y-85354741D01*
X105475000Y-85177259D01*
X105509624Y-85003188D01*
X105577544Y-84839216D01*
X105676147Y-84691646D01*
X105801646Y-84566147D01*
X105949216Y-84467544D01*
X106113188Y-84399624D01*
X106262488Y-84369927D01*
X106287258Y-84365000D01*
X106464742Y-84365000D01*
X106489512Y-84369927D01*
G37*
G36*
X109029512Y-84369927D02*
G01*
X109178812Y-84399624D01*
X109342784Y-84467544D01*
X109490354Y-84566147D01*
X109615853Y-84691646D01*
X109714456Y-84839216D01*
X109782376Y-85003188D01*
X109817000Y-85177259D01*
X109817000Y-85354741D01*
X109782376Y-85528812D01*
X109714456Y-85692784D01*
X109615853Y-85840354D01*
X109490354Y-85965853D01*
X109342784Y-86064456D01*
X109178812Y-86132376D01*
X109029512Y-86162073D01*
X109004742Y-86167000D01*
X108827258Y-86167000D01*
X108802488Y-86162073D01*
X108653188Y-86132376D01*
X108489216Y-86064456D01*
X108341646Y-85965853D01*
X108216147Y-85840354D01*
X108117544Y-85692784D01*
X108049624Y-85528812D01*
X108015000Y-85354741D01*
X108015000Y-85177259D01*
X108049624Y-85003188D01*
X108117544Y-84839216D01*
X108216147Y-84691646D01*
X108341646Y-84566147D01*
X108489216Y-84467544D01*
X108653188Y-84399624D01*
X108802488Y-84369927D01*
X108827258Y-84365000D01*
X109004742Y-84365000D01*
X109029512Y-84369927D01*
G37*
G36*
X116649512Y-84369927D02*
G01*
X116798812Y-84399624D01*
X116962784Y-84467544D01*
X117110354Y-84566147D01*
X117235853Y-84691646D01*
X117334456Y-84839216D01*
X117402376Y-85003188D01*
X117437000Y-85177259D01*
X117437000Y-85354741D01*
X117402376Y-85528812D01*
X117334456Y-85692784D01*
X117235853Y-85840354D01*
X117110354Y-85965853D01*
X116962784Y-86064456D01*
X116798812Y-86132376D01*
X116649512Y-86162073D01*
X116624742Y-86167000D01*
X116447258Y-86167000D01*
X116422488Y-86162073D01*
X116273188Y-86132376D01*
X116109216Y-86064456D01*
X115961646Y-85965853D01*
X115836147Y-85840354D01*
X115737544Y-85692784D01*
X115669624Y-85528812D01*
X115635000Y-85354741D01*
X115635000Y-85177259D01*
X115669624Y-85003188D01*
X115737544Y-84839216D01*
X115836147Y-84691646D01*
X115961646Y-84566147D01*
X116109216Y-84467544D01*
X116273188Y-84399624D01*
X116422488Y-84369927D01*
X116447258Y-84365000D01*
X116624742Y-84365000D01*
X116649512Y-84369927D01*
G37*
G36*
X111569512Y-84369927D02*
G01*
X111718812Y-84399624D01*
X111882784Y-84467544D01*
X112030354Y-84566147D01*
X112155853Y-84691646D01*
X112254456Y-84839216D01*
X112322376Y-85003188D01*
X112357000Y-85177259D01*
X112357000Y-85354741D01*
X112322376Y-85528812D01*
X112254456Y-85692784D01*
X112155853Y-85840354D01*
X112030354Y-85965853D01*
X111882784Y-86064456D01*
X111718812Y-86132376D01*
X111569512Y-86162073D01*
X111544742Y-86167000D01*
X111367258Y-86167000D01*
X111342488Y-86162073D01*
X111193188Y-86132376D01*
X111029216Y-86064456D01*
X110881646Y-85965853D01*
X110756147Y-85840354D01*
X110657544Y-85692784D01*
X110589624Y-85528812D01*
X110555000Y-85354741D01*
X110555000Y-85177259D01*
X110589624Y-85003188D01*
X110657544Y-84839216D01*
X110756147Y-84691646D01*
X110881646Y-84566147D01*
X111029216Y-84467544D01*
X111193188Y-84399624D01*
X111342488Y-84369927D01*
X111367258Y-84365000D01*
X111544742Y-84365000D01*
X111569512Y-84369927D01*
G37*
G36*
X114109512Y-84369927D02*
G01*
X114258812Y-84399624D01*
X114422784Y-84467544D01*
X114570354Y-84566147D01*
X114695853Y-84691646D01*
X114794456Y-84839216D01*
X114862376Y-85003188D01*
X114897000Y-85177259D01*
X114897000Y-85354741D01*
X114862376Y-85528812D01*
X114794456Y-85692784D01*
X114695853Y-85840354D01*
X114570354Y-85965853D01*
X114422784Y-86064456D01*
X114258812Y-86132376D01*
X114109512Y-86162073D01*
X114084742Y-86167000D01*
X113907258Y-86167000D01*
X113882488Y-86162073D01*
X113733188Y-86132376D01*
X113569216Y-86064456D01*
X113421646Y-85965853D01*
X113296147Y-85840354D01*
X113197544Y-85692784D01*
X113129624Y-85528812D01*
X113095000Y-85354741D01*
X113095000Y-85177259D01*
X113129624Y-85003188D01*
X113197544Y-84839216D01*
X113296147Y-84691646D01*
X113421646Y-84566147D01*
X113569216Y-84467544D01*
X113733188Y-84399624D01*
X113882488Y-84369927D01*
X113907258Y-84365000D01*
X114084742Y-84365000D01*
X114109512Y-84369927D01*
G37*
G36*
X103949512Y-84369927D02*
G01*
X104098812Y-84399624D01*
X104262784Y-84467544D01*
X104410354Y-84566147D01*
X104535853Y-84691646D01*
X104634456Y-84839216D01*
X104702376Y-85003188D01*
X104737000Y-85177259D01*
X104737000Y-85354741D01*
X104702376Y-85528812D01*
X104634456Y-85692784D01*
X104535853Y-85840354D01*
X104410354Y-85965853D01*
X104262784Y-86064456D01*
X104098812Y-86132376D01*
X103949512Y-86162073D01*
X103924742Y-86167000D01*
X103747258Y-86167000D01*
X103722488Y-86162073D01*
X103573188Y-86132376D01*
X103409216Y-86064456D01*
X103261646Y-85965853D01*
X103136147Y-85840354D01*
X103037544Y-85692784D01*
X102969624Y-85528812D01*
X102935000Y-85354741D01*
X102935000Y-85177259D01*
X102969624Y-85003188D01*
X103037544Y-84839216D01*
X103136147Y-84691646D01*
X103261646Y-84566147D01*
X103409216Y-84467544D01*
X103573188Y-84399624D01*
X103722488Y-84369927D01*
X103747258Y-84365000D01*
X103924742Y-84365000D01*
X103949512Y-84369927D01*
G37*
M02*
