G04 #@! TF.GenerationSoftware,KiCad,Pcbnew,(5.1.5)-3*
G04 #@! TF.CreationDate,2020-08-29T23:45:51+08:00*
G04 #@! TF.ProjectId,imx233-core,696d7832-3333-42d6-936f-72652e6b6963,rev?*
G04 #@! TF.SameCoordinates,Original*
G04 #@! TF.FileFunction,Paste,Top*
G04 #@! TF.FilePolarity,Positive*
%FSLAX46Y46*%
G04 Gerber Fmt 4.6, Leading zero omitted, Abs format (unit mm)*
G04 Created by KiCad (PCBNEW (5.1.5)-3) date 2020-08-29 23:45:51*
%MOMM*%
%LPD*%
G04 APERTURE LIST*
%ADD10R,3.600000X1.500000*%
%ADD11R,1.350000X0.400000*%
%ADD12R,1.200000X1.400000*%
%ADD13R,1.000000X1.400000*%
%ADD14R,0.320000X1.600000*%
%ADD15R,0.220000X1.000000*%
%ADD16R,1.000000X0.220000*%
%ADD17R,1.600000X0.700000*%
%ADD18R,1.500000X1.200000*%
%ADD19R,1.500000X1.600000*%
%ADD20R,2.000000X1.200000*%
%ADD21R,2.200000X1.200000*%
%ADD22C,0.100000*%
%ADD23R,0.900000X1.200000*%
G04 APERTURE END LIST*
D10*
X78687460Y-104707700D03*
X78687460Y-107757700D03*
D11*
X76056020Y-124004260D03*
X76056020Y-123354260D03*
X76056020Y-125954260D03*
X76056020Y-125304260D03*
X76056020Y-124654260D03*
D12*
X77834760Y-116962660D03*
X77834760Y-119162660D03*
X76134760Y-119162660D03*
X76134760Y-116962660D03*
D13*
X79464620Y-123256420D03*
X81364620Y-123256420D03*
X81364620Y-125456420D03*
D12*
X79644620Y-125456420D03*
D14*
X94318440Y-92090980D03*
X94318440Y-103850980D03*
X94968440Y-92090980D03*
X94968440Y-103850980D03*
X95618440Y-92090980D03*
X95618440Y-103850980D03*
X96268440Y-92090980D03*
X96268440Y-103850980D03*
X96918440Y-92090980D03*
X96918440Y-103850980D03*
X97568440Y-92090980D03*
X97568440Y-103850980D03*
X98218440Y-92090980D03*
X98218440Y-103850980D03*
X98868440Y-92090980D03*
X98868440Y-103850980D03*
X99518440Y-92090980D03*
X99518440Y-103850980D03*
X100168440Y-92090980D03*
X100168440Y-103850980D03*
X100818440Y-92090980D03*
X100818440Y-103850980D03*
X101468440Y-92090980D03*
X101468440Y-103850980D03*
X102118440Y-92090980D03*
X102118440Y-103850980D03*
X102768440Y-92090980D03*
X102768440Y-103850980D03*
X103418440Y-92090980D03*
X103418440Y-103850980D03*
X104068440Y-92090980D03*
X104068440Y-103850980D03*
X104718440Y-92090980D03*
X104718440Y-103850980D03*
X105368440Y-92090980D03*
X105368440Y-103850980D03*
X106018440Y-92090980D03*
X106018440Y-103850980D03*
X106668440Y-92090980D03*
X106668440Y-103850980D03*
X107318440Y-92090980D03*
X107318440Y-103850980D03*
X107968440Y-92090980D03*
X107968440Y-103850980D03*
X108618440Y-92090980D03*
X108618440Y-103850980D03*
X109268440Y-92090980D03*
X109268440Y-103850980D03*
X109918440Y-92090980D03*
X109918440Y-103850980D03*
X110568440Y-92090980D03*
X110568440Y-103850980D03*
X111218440Y-92090980D03*
X111218440Y-103850980D03*
X111868440Y-92090980D03*
X111868440Y-103850980D03*
X112518440Y-92090980D03*
X112518440Y-103850980D03*
X113168440Y-92090980D03*
X113168440Y-103850980D03*
X113818440Y-92090980D03*
X113818440Y-103850980D03*
X114468440Y-92090980D03*
X114468440Y-103850980D03*
X115118440Y-92090980D03*
X115118440Y-103850980D03*
D15*
X87473600Y-124001540D03*
X87873600Y-124001540D03*
X88273600Y-124001540D03*
X88673600Y-124001540D03*
X89073600Y-124001540D03*
X89473600Y-124001540D03*
X89873600Y-124001540D03*
X90273600Y-124001540D03*
X90673600Y-124001540D03*
X91073600Y-124001540D03*
X91473600Y-124001540D03*
X91873600Y-124001540D03*
X92273600Y-124001540D03*
X92673600Y-124001540D03*
X93073600Y-124001540D03*
X93473600Y-124001540D03*
X93873600Y-124001540D03*
X94273600Y-124001540D03*
X94673600Y-124001540D03*
X95073600Y-124001540D03*
X95473600Y-124001540D03*
X95873600Y-124001540D03*
X96273600Y-124001540D03*
X96673600Y-124001540D03*
X97073600Y-124001540D03*
X97473600Y-124001540D03*
X97873600Y-124001540D03*
X98273600Y-124001540D03*
X98673600Y-124001540D03*
X99073600Y-124001540D03*
X99473600Y-124001540D03*
X99873600Y-124001540D03*
D16*
X101673600Y-122201540D03*
X101673600Y-121801540D03*
X101673600Y-121401540D03*
X101673600Y-121001540D03*
X101673600Y-120601540D03*
X101673600Y-120201540D03*
X101673600Y-119801540D03*
X101673600Y-119401540D03*
X101673600Y-119001540D03*
X101673600Y-118601540D03*
X101673600Y-118201540D03*
X101673600Y-117801540D03*
X101673600Y-117401540D03*
X101673600Y-117001540D03*
X101673600Y-116601540D03*
X101673600Y-116201540D03*
X101673600Y-115801540D03*
X101673600Y-115401540D03*
X101673600Y-115001540D03*
X101673600Y-114601540D03*
X101673600Y-114201540D03*
X101673600Y-113801540D03*
X101673600Y-113401540D03*
X101673600Y-113001540D03*
X101673600Y-112601540D03*
X101673600Y-112201540D03*
X101673600Y-111801540D03*
X101673600Y-111401540D03*
X101673600Y-111001540D03*
X101673600Y-110601540D03*
X101673600Y-110201540D03*
X101673600Y-109801540D03*
D15*
X99873600Y-108001540D03*
X99473600Y-108001540D03*
X99073600Y-108001540D03*
X98673600Y-108001540D03*
X98273600Y-108001540D03*
X97873600Y-108001540D03*
X97473600Y-108001540D03*
X97073600Y-108001540D03*
X96673600Y-108001540D03*
X96273600Y-108001540D03*
X95873600Y-108001540D03*
X95473600Y-108001540D03*
X95073600Y-108001540D03*
X94673600Y-108001540D03*
X94273600Y-108001540D03*
X93873600Y-108001540D03*
X93473600Y-108001540D03*
X93073600Y-108001540D03*
X92673600Y-108001540D03*
X92273600Y-108001540D03*
X91873600Y-108001540D03*
X91473600Y-108001540D03*
X91073600Y-108001540D03*
X90673600Y-108001540D03*
X90273600Y-108001540D03*
X89873600Y-108001540D03*
X89473600Y-108001540D03*
X89073600Y-108001540D03*
X88673600Y-108001540D03*
X88273600Y-108001540D03*
X87873600Y-108001540D03*
X87473600Y-108001540D03*
D16*
X85673600Y-109801540D03*
X85673600Y-110201540D03*
X85673600Y-110601540D03*
X85673600Y-111001540D03*
X85673600Y-111401540D03*
X85673600Y-111801540D03*
X85673600Y-112201540D03*
X85673600Y-112601540D03*
X85673600Y-113001540D03*
X85673600Y-113401540D03*
X85673600Y-113801540D03*
X85673600Y-114201540D03*
X85673600Y-114601540D03*
X85673600Y-115001540D03*
X85673600Y-115401540D03*
X85673600Y-115801540D03*
X85673600Y-116201540D03*
X85673600Y-116601540D03*
X85673600Y-117001540D03*
X85673600Y-117401540D03*
X85673600Y-117801540D03*
X85673600Y-118201540D03*
X85673600Y-118601540D03*
X85673600Y-119001540D03*
X85673600Y-119401540D03*
X85673600Y-119801540D03*
X85673600Y-120201540D03*
X85673600Y-120601540D03*
X85673600Y-121001540D03*
X85673600Y-121401540D03*
X85673600Y-121801540D03*
X85673600Y-122201540D03*
D17*
X87089780Y-88462420D03*
X87089780Y-89562420D03*
X87089780Y-90662420D03*
X87089780Y-91762420D03*
X87089780Y-92862420D03*
X87089780Y-93962420D03*
X87089780Y-95062420D03*
X87089780Y-96162420D03*
X87089780Y-97262420D03*
D18*
X86289780Y-87062420D03*
D19*
X86289780Y-101862420D03*
D20*
X76689780Y-102862420D03*
D21*
X76689780Y-87062420D03*
D22*
G36*
X81213691Y-115982053D02*
G01*
X81234926Y-115985203D01*
X81255750Y-115990419D01*
X81275962Y-115997651D01*
X81295368Y-116006830D01*
X81313781Y-116017866D01*
X81331024Y-116030654D01*
X81346930Y-116045070D01*
X81361346Y-116060976D01*
X81374134Y-116078219D01*
X81385170Y-116096632D01*
X81394349Y-116116038D01*
X81401581Y-116136250D01*
X81406797Y-116157074D01*
X81409947Y-116178309D01*
X81411000Y-116199750D01*
X81411000Y-116712250D01*
X81409947Y-116733691D01*
X81406797Y-116754926D01*
X81401581Y-116775750D01*
X81394349Y-116795962D01*
X81385170Y-116815368D01*
X81374134Y-116833781D01*
X81361346Y-116851024D01*
X81346930Y-116866930D01*
X81331024Y-116881346D01*
X81313781Y-116894134D01*
X81295368Y-116905170D01*
X81275962Y-116914349D01*
X81255750Y-116921581D01*
X81234926Y-116926797D01*
X81213691Y-116929947D01*
X81192250Y-116931000D01*
X80754750Y-116931000D01*
X80733309Y-116929947D01*
X80712074Y-116926797D01*
X80691250Y-116921581D01*
X80671038Y-116914349D01*
X80651632Y-116905170D01*
X80633219Y-116894134D01*
X80615976Y-116881346D01*
X80600070Y-116866930D01*
X80585654Y-116851024D01*
X80572866Y-116833781D01*
X80561830Y-116815368D01*
X80552651Y-116795962D01*
X80545419Y-116775750D01*
X80540203Y-116754926D01*
X80537053Y-116733691D01*
X80536000Y-116712250D01*
X80536000Y-116199750D01*
X80537053Y-116178309D01*
X80540203Y-116157074D01*
X80545419Y-116136250D01*
X80552651Y-116116038D01*
X80561830Y-116096632D01*
X80572866Y-116078219D01*
X80585654Y-116060976D01*
X80600070Y-116045070D01*
X80615976Y-116030654D01*
X80633219Y-116017866D01*
X80651632Y-116006830D01*
X80671038Y-115997651D01*
X80691250Y-115990419D01*
X80712074Y-115985203D01*
X80733309Y-115982053D01*
X80754750Y-115981000D01*
X81192250Y-115981000D01*
X81213691Y-115982053D01*
G37*
G36*
X79638691Y-115982053D02*
G01*
X79659926Y-115985203D01*
X79680750Y-115990419D01*
X79700962Y-115997651D01*
X79720368Y-116006830D01*
X79738781Y-116017866D01*
X79756024Y-116030654D01*
X79771930Y-116045070D01*
X79786346Y-116060976D01*
X79799134Y-116078219D01*
X79810170Y-116096632D01*
X79819349Y-116116038D01*
X79826581Y-116136250D01*
X79831797Y-116157074D01*
X79834947Y-116178309D01*
X79836000Y-116199750D01*
X79836000Y-116712250D01*
X79834947Y-116733691D01*
X79831797Y-116754926D01*
X79826581Y-116775750D01*
X79819349Y-116795962D01*
X79810170Y-116815368D01*
X79799134Y-116833781D01*
X79786346Y-116851024D01*
X79771930Y-116866930D01*
X79756024Y-116881346D01*
X79738781Y-116894134D01*
X79720368Y-116905170D01*
X79700962Y-116914349D01*
X79680750Y-116921581D01*
X79659926Y-116926797D01*
X79638691Y-116929947D01*
X79617250Y-116931000D01*
X79179750Y-116931000D01*
X79158309Y-116929947D01*
X79137074Y-116926797D01*
X79116250Y-116921581D01*
X79096038Y-116914349D01*
X79076632Y-116905170D01*
X79058219Y-116894134D01*
X79040976Y-116881346D01*
X79025070Y-116866930D01*
X79010654Y-116851024D01*
X78997866Y-116833781D01*
X78986830Y-116815368D01*
X78977651Y-116795962D01*
X78970419Y-116775750D01*
X78965203Y-116754926D01*
X78962053Y-116733691D01*
X78961000Y-116712250D01*
X78961000Y-116199750D01*
X78962053Y-116178309D01*
X78965203Y-116157074D01*
X78970419Y-116136250D01*
X78977651Y-116116038D01*
X78986830Y-116096632D01*
X78997866Y-116078219D01*
X79010654Y-116060976D01*
X79025070Y-116045070D01*
X79040976Y-116030654D01*
X79058219Y-116017866D01*
X79076632Y-116006830D01*
X79096038Y-115997651D01*
X79116250Y-115990419D01*
X79137074Y-115985203D01*
X79158309Y-115982053D01*
X79179750Y-115981000D01*
X79617250Y-115981000D01*
X79638691Y-115982053D01*
G37*
G36*
X96263691Y-126732053D02*
G01*
X96284926Y-126735203D01*
X96305750Y-126740419D01*
X96325962Y-126747651D01*
X96345368Y-126756830D01*
X96363781Y-126767866D01*
X96381024Y-126780654D01*
X96396930Y-126795070D01*
X96411346Y-126810976D01*
X96424134Y-126828219D01*
X96435170Y-126846632D01*
X96444349Y-126866038D01*
X96451581Y-126886250D01*
X96456797Y-126907074D01*
X96459947Y-126928309D01*
X96461000Y-126949750D01*
X96461000Y-127387250D01*
X96459947Y-127408691D01*
X96456797Y-127429926D01*
X96451581Y-127450750D01*
X96444349Y-127470962D01*
X96435170Y-127490368D01*
X96424134Y-127508781D01*
X96411346Y-127526024D01*
X96396930Y-127541930D01*
X96381024Y-127556346D01*
X96363781Y-127569134D01*
X96345368Y-127580170D01*
X96325962Y-127589349D01*
X96305750Y-127596581D01*
X96284926Y-127601797D01*
X96263691Y-127604947D01*
X96242250Y-127606000D01*
X95729750Y-127606000D01*
X95708309Y-127604947D01*
X95687074Y-127601797D01*
X95666250Y-127596581D01*
X95646038Y-127589349D01*
X95626632Y-127580170D01*
X95608219Y-127569134D01*
X95590976Y-127556346D01*
X95575070Y-127541930D01*
X95560654Y-127526024D01*
X95547866Y-127508781D01*
X95536830Y-127490368D01*
X95527651Y-127470962D01*
X95520419Y-127450750D01*
X95515203Y-127429926D01*
X95512053Y-127408691D01*
X95511000Y-127387250D01*
X95511000Y-126949750D01*
X95512053Y-126928309D01*
X95515203Y-126907074D01*
X95520419Y-126886250D01*
X95527651Y-126866038D01*
X95536830Y-126846632D01*
X95547866Y-126828219D01*
X95560654Y-126810976D01*
X95575070Y-126795070D01*
X95590976Y-126780654D01*
X95608219Y-126767866D01*
X95626632Y-126756830D01*
X95646038Y-126747651D01*
X95666250Y-126740419D01*
X95687074Y-126735203D01*
X95708309Y-126732053D01*
X95729750Y-126731000D01*
X96242250Y-126731000D01*
X96263691Y-126732053D01*
G37*
G36*
X96263691Y-128307053D02*
G01*
X96284926Y-128310203D01*
X96305750Y-128315419D01*
X96325962Y-128322651D01*
X96345368Y-128331830D01*
X96363781Y-128342866D01*
X96381024Y-128355654D01*
X96396930Y-128370070D01*
X96411346Y-128385976D01*
X96424134Y-128403219D01*
X96435170Y-128421632D01*
X96444349Y-128441038D01*
X96451581Y-128461250D01*
X96456797Y-128482074D01*
X96459947Y-128503309D01*
X96461000Y-128524750D01*
X96461000Y-128962250D01*
X96459947Y-128983691D01*
X96456797Y-129004926D01*
X96451581Y-129025750D01*
X96444349Y-129045962D01*
X96435170Y-129065368D01*
X96424134Y-129083781D01*
X96411346Y-129101024D01*
X96396930Y-129116930D01*
X96381024Y-129131346D01*
X96363781Y-129144134D01*
X96345368Y-129155170D01*
X96325962Y-129164349D01*
X96305750Y-129171581D01*
X96284926Y-129176797D01*
X96263691Y-129179947D01*
X96242250Y-129181000D01*
X95729750Y-129181000D01*
X95708309Y-129179947D01*
X95687074Y-129176797D01*
X95666250Y-129171581D01*
X95646038Y-129164349D01*
X95626632Y-129155170D01*
X95608219Y-129144134D01*
X95590976Y-129131346D01*
X95575070Y-129116930D01*
X95560654Y-129101024D01*
X95547866Y-129083781D01*
X95536830Y-129065368D01*
X95527651Y-129045962D01*
X95520419Y-129025750D01*
X95515203Y-129004926D01*
X95512053Y-128983691D01*
X95511000Y-128962250D01*
X95511000Y-128524750D01*
X95512053Y-128503309D01*
X95515203Y-128482074D01*
X95520419Y-128461250D01*
X95527651Y-128441038D01*
X95536830Y-128421632D01*
X95547866Y-128403219D01*
X95560654Y-128385976D01*
X95575070Y-128370070D01*
X95590976Y-128355654D01*
X95608219Y-128342866D01*
X95626632Y-128331830D01*
X95646038Y-128322651D01*
X95666250Y-128315419D01*
X95687074Y-128310203D01*
X95708309Y-128307053D01*
X95729750Y-128306000D01*
X96242250Y-128306000D01*
X96263691Y-128307053D01*
G37*
G36*
X107813691Y-89082053D02*
G01*
X107834926Y-89085203D01*
X107855750Y-89090419D01*
X107875962Y-89097651D01*
X107895368Y-89106830D01*
X107913781Y-89117866D01*
X107931024Y-89130654D01*
X107946930Y-89145070D01*
X107961346Y-89160976D01*
X107974134Y-89178219D01*
X107985170Y-89196632D01*
X107994349Y-89216038D01*
X108001581Y-89236250D01*
X108006797Y-89257074D01*
X108009947Y-89278309D01*
X108011000Y-89299750D01*
X108011000Y-89812250D01*
X108009947Y-89833691D01*
X108006797Y-89854926D01*
X108001581Y-89875750D01*
X107994349Y-89895962D01*
X107985170Y-89915368D01*
X107974134Y-89933781D01*
X107961346Y-89951024D01*
X107946930Y-89966930D01*
X107931024Y-89981346D01*
X107913781Y-89994134D01*
X107895368Y-90005170D01*
X107875962Y-90014349D01*
X107855750Y-90021581D01*
X107834926Y-90026797D01*
X107813691Y-90029947D01*
X107792250Y-90031000D01*
X107354750Y-90031000D01*
X107333309Y-90029947D01*
X107312074Y-90026797D01*
X107291250Y-90021581D01*
X107271038Y-90014349D01*
X107251632Y-90005170D01*
X107233219Y-89994134D01*
X107215976Y-89981346D01*
X107200070Y-89966930D01*
X107185654Y-89951024D01*
X107172866Y-89933781D01*
X107161830Y-89915368D01*
X107152651Y-89895962D01*
X107145419Y-89875750D01*
X107140203Y-89854926D01*
X107137053Y-89833691D01*
X107136000Y-89812250D01*
X107136000Y-89299750D01*
X107137053Y-89278309D01*
X107140203Y-89257074D01*
X107145419Y-89236250D01*
X107152651Y-89216038D01*
X107161830Y-89196632D01*
X107172866Y-89178219D01*
X107185654Y-89160976D01*
X107200070Y-89145070D01*
X107215976Y-89130654D01*
X107233219Y-89117866D01*
X107251632Y-89106830D01*
X107271038Y-89097651D01*
X107291250Y-89090419D01*
X107312074Y-89085203D01*
X107333309Y-89082053D01*
X107354750Y-89081000D01*
X107792250Y-89081000D01*
X107813691Y-89082053D01*
G37*
G36*
X106238691Y-89082053D02*
G01*
X106259926Y-89085203D01*
X106280750Y-89090419D01*
X106300962Y-89097651D01*
X106320368Y-89106830D01*
X106338781Y-89117866D01*
X106356024Y-89130654D01*
X106371930Y-89145070D01*
X106386346Y-89160976D01*
X106399134Y-89178219D01*
X106410170Y-89196632D01*
X106419349Y-89216038D01*
X106426581Y-89236250D01*
X106431797Y-89257074D01*
X106434947Y-89278309D01*
X106436000Y-89299750D01*
X106436000Y-89812250D01*
X106434947Y-89833691D01*
X106431797Y-89854926D01*
X106426581Y-89875750D01*
X106419349Y-89895962D01*
X106410170Y-89915368D01*
X106399134Y-89933781D01*
X106386346Y-89951024D01*
X106371930Y-89966930D01*
X106356024Y-89981346D01*
X106338781Y-89994134D01*
X106320368Y-90005170D01*
X106300962Y-90014349D01*
X106280750Y-90021581D01*
X106259926Y-90026797D01*
X106238691Y-90029947D01*
X106217250Y-90031000D01*
X105779750Y-90031000D01*
X105758309Y-90029947D01*
X105737074Y-90026797D01*
X105716250Y-90021581D01*
X105696038Y-90014349D01*
X105676632Y-90005170D01*
X105658219Y-89994134D01*
X105640976Y-89981346D01*
X105625070Y-89966930D01*
X105610654Y-89951024D01*
X105597866Y-89933781D01*
X105586830Y-89915368D01*
X105577651Y-89895962D01*
X105570419Y-89875750D01*
X105565203Y-89854926D01*
X105562053Y-89833691D01*
X105561000Y-89812250D01*
X105561000Y-89299750D01*
X105562053Y-89278309D01*
X105565203Y-89257074D01*
X105570419Y-89236250D01*
X105577651Y-89216038D01*
X105586830Y-89196632D01*
X105597866Y-89178219D01*
X105610654Y-89160976D01*
X105625070Y-89145070D01*
X105640976Y-89130654D01*
X105658219Y-89117866D01*
X105676632Y-89106830D01*
X105696038Y-89097651D01*
X105716250Y-89090419D01*
X105737074Y-89085203D01*
X105758309Y-89082053D01*
X105779750Y-89081000D01*
X106217250Y-89081000D01*
X106238691Y-89082053D01*
G37*
G36*
X104213691Y-106782053D02*
G01*
X104234926Y-106785203D01*
X104255750Y-106790419D01*
X104275962Y-106797651D01*
X104295368Y-106806830D01*
X104313781Y-106817866D01*
X104331024Y-106830654D01*
X104346930Y-106845070D01*
X104361346Y-106860976D01*
X104374134Y-106878219D01*
X104385170Y-106896632D01*
X104394349Y-106916038D01*
X104401581Y-106936250D01*
X104406797Y-106957074D01*
X104409947Y-106978309D01*
X104411000Y-106999750D01*
X104411000Y-107512250D01*
X104409947Y-107533691D01*
X104406797Y-107554926D01*
X104401581Y-107575750D01*
X104394349Y-107595962D01*
X104385170Y-107615368D01*
X104374134Y-107633781D01*
X104361346Y-107651024D01*
X104346930Y-107666930D01*
X104331024Y-107681346D01*
X104313781Y-107694134D01*
X104295368Y-107705170D01*
X104275962Y-107714349D01*
X104255750Y-107721581D01*
X104234926Y-107726797D01*
X104213691Y-107729947D01*
X104192250Y-107731000D01*
X103754750Y-107731000D01*
X103733309Y-107729947D01*
X103712074Y-107726797D01*
X103691250Y-107721581D01*
X103671038Y-107714349D01*
X103651632Y-107705170D01*
X103633219Y-107694134D01*
X103615976Y-107681346D01*
X103600070Y-107666930D01*
X103585654Y-107651024D01*
X103572866Y-107633781D01*
X103561830Y-107615368D01*
X103552651Y-107595962D01*
X103545419Y-107575750D01*
X103540203Y-107554926D01*
X103537053Y-107533691D01*
X103536000Y-107512250D01*
X103536000Y-106999750D01*
X103537053Y-106978309D01*
X103540203Y-106957074D01*
X103545419Y-106936250D01*
X103552651Y-106916038D01*
X103561830Y-106896632D01*
X103572866Y-106878219D01*
X103585654Y-106860976D01*
X103600070Y-106845070D01*
X103615976Y-106830654D01*
X103633219Y-106817866D01*
X103651632Y-106806830D01*
X103671038Y-106797651D01*
X103691250Y-106790419D01*
X103712074Y-106785203D01*
X103733309Y-106782053D01*
X103754750Y-106781000D01*
X104192250Y-106781000D01*
X104213691Y-106782053D01*
G37*
G36*
X102638691Y-106782053D02*
G01*
X102659926Y-106785203D01*
X102680750Y-106790419D01*
X102700962Y-106797651D01*
X102720368Y-106806830D01*
X102738781Y-106817866D01*
X102756024Y-106830654D01*
X102771930Y-106845070D01*
X102786346Y-106860976D01*
X102799134Y-106878219D01*
X102810170Y-106896632D01*
X102819349Y-106916038D01*
X102826581Y-106936250D01*
X102831797Y-106957074D01*
X102834947Y-106978309D01*
X102836000Y-106999750D01*
X102836000Y-107512250D01*
X102834947Y-107533691D01*
X102831797Y-107554926D01*
X102826581Y-107575750D01*
X102819349Y-107595962D01*
X102810170Y-107615368D01*
X102799134Y-107633781D01*
X102786346Y-107651024D01*
X102771930Y-107666930D01*
X102756024Y-107681346D01*
X102738781Y-107694134D01*
X102720368Y-107705170D01*
X102700962Y-107714349D01*
X102680750Y-107721581D01*
X102659926Y-107726797D01*
X102638691Y-107729947D01*
X102617250Y-107731000D01*
X102179750Y-107731000D01*
X102158309Y-107729947D01*
X102137074Y-107726797D01*
X102116250Y-107721581D01*
X102096038Y-107714349D01*
X102076632Y-107705170D01*
X102058219Y-107694134D01*
X102040976Y-107681346D01*
X102025070Y-107666930D01*
X102010654Y-107651024D01*
X101997866Y-107633781D01*
X101986830Y-107615368D01*
X101977651Y-107595962D01*
X101970419Y-107575750D01*
X101965203Y-107554926D01*
X101962053Y-107533691D01*
X101961000Y-107512250D01*
X101961000Y-106999750D01*
X101962053Y-106978309D01*
X101965203Y-106957074D01*
X101970419Y-106936250D01*
X101977651Y-106916038D01*
X101986830Y-106896632D01*
X101997866Y-106878219D01*
X102010654Y-106860976D01*
X102025070Y-106845070D01*
X102040976Y-106830654D01*
X102058219Y-106817866D01*
X102076632Y-106806830D01*
X102096038Y-106797651D01*
X102116250Y-106790419D01*
X102137074Y-106785203D01*
X102158309Y-106782053D01*
X102179750Y-106781000D01*
X102617250Y-106781000D01*
X102638691Y-106782053D01*
G37*
G36*
X109138691Y-123382053D02*
G01*
X109159926Y-123385203D01*
X109180750Y-123390419D01*
X109200962Y-123397651D01*
X109220368Y-123406830D01*
X109238781Y-123417866D01*
X109256024Y-123430654D01*
X109271930Y-123445070D01*
X109286346Y-123460976D01*
X109299134Y-123478219D01*
X109310170Y-123496632D01*
X109319349Y-123516038D01*
X109326581Y-123536250D01*
X109331797Y-123557074D01*
X109334947Y-123578309D01*
X109336000Y-123599750D01*
X109336000Y-124112250D01*
X109334947Y-124133691D01*
X109331797Y-124154926D01*
X109326581Y-124175750D01*
X109319349Y-124195962D01*
X109310170Y-124215368D01*
X109299134Y-124233781D01*
X109286346Y-124251024D01*
X109271930Y-124266930D01*
X109256024Y-124281346D01*
X109238781Y-124294134D01*
X109220368Y-124305170D01*
X109200962Y-124314349D01*
X109180750Y-124321581D01*
X109159926Y-124326797D01*
X109138691Y-124329947D01*
X109117250Y-124331000D01*
X108679750Y-124331000D01*
X108658309Y-124329947D01*
X108637074Y-124326797D01*
X108616250Y-124321581D01*
X108596038Y-124314349D01*
X108576632Y-124305170D01*
X108558219Y-124294134D01*
X108540976Y-124281346D01*
X108525070Y-124266930D01*
X108510654Y-124251024D01*
X108497866Y-124233781D01*
X108486830Y-124215368D01*
X108477651Y-124195962D01*
X108470419Y-124175750D01*
X108465203Y-124154926D01*
X108462053Y-124133691D01*
X108461000Y-124112250D01*
X108461000Y-123599750D01*
X108462053Y-123578309D01*
X108465203Y-123557074D01*
X108470419Y-123536250D01*
X108477651Y-123516038D01*
X108486830Y-123496632D01*
X108497866Y-123478219D01*
X108510654Y-123460976D01*
X108525070Y-123445070D01*
X108540976Y-123430654D01*
X108558219Y-123417866D01*
X108576632Y-123406830D01*
X108596038Y-123397651D01*
X108616250Y-123390419D01*
X108637074Y-123385203D01*
X108658309Y-123382053D01*
X108679750Y-123381000D01*
X109117250Y-123381000D01*
X109138691Y-123382053D01*
G37*
G36*
X110713691Y-123382053D02*
G01*
X110734926Y-123385203D01*
X110755750Y-123390419D01*
X110775962Y-123397651D01*
X110795368Y-123406830D01*
X110813781Y-123417866D01*
X110831024Y-123430654D01*
X110846930Y-123445070D01*
X110861346Y-123460976D01*
X110874134Y-123478219D01*
X110885170Y-123496632D01*
X110894349Y-123516038D01*
X110901581Y-123536250D01*
X110906797Y-123557074D01*
X110909947Y-123578309D01*
X110911000Y-123599750D01*
X110911000Y-124112250D01*
X110909947Y-124133691D01*
X110906797Y-124154926D01*
X110901581Y-124175750D01*
X110894349Y-124195962D01*
X110885170Y-124215368D01*
X110874134Y-124233781D01*
X110861346Y-124251024D01*
X110846930Y-124266930D01*
X110831024Y-124281346D01*
X110813781Y-124294134D01*
X110795368Y-124305170D01*
X110775962Y-124314349D01*
X110755750Y-124321581D01*
X110734926Y-124326797D01*
X110713691Y-124329947D01*
X110692250Y-124331000D01*
X110254750Y-124331000D01*
X110233309Y-124329947D01*
X110212074Y-124326797D01*
X110191250Y-124321581D01*
X110171038Y-124314349D01*
X110151632Y-124305170D01*
X110133219Y-124294134D01*
X110115976Y-124281346D01*
X110100070Y-124266930D01*
X110085654Y-124251024D01*
X110072866Y-124233781D01*
X110061830Y-124215368D01*
X110052651Y-124195962D01*
X110045419Y-124175750D01*
X110040203Y-124154926D01*
X110037053Y-124133691D01*
X110036000Y-124112250D01*
X110036000Y-123599750D01*
X110037053Y-123578309D01*
X110040203Y-123557074D01*
X110045419Y-123536250D01*
X110052651Y-123516038D01*
X110061830Y-123496632D01*
X110072866Y-123478219D01*
X110085654Y-123460976D01*
X110100070Y-123445070D01*
X110115976Y-123430654D01*
X110133219Y-123417866D01*
X110151632Y-123406830D01*
X110171038Y-123397651D01*
X110191250Y-123390419D01*
X110212074Y-123385203D01*
X110233309Y-123382053D01*
X110254750Y-123381000D01*
X110692250Y-123381000D01*
X110713691Y-123382053D01*
G37*
G36*
X76638691Y-111282053D02*
G01*
X76659926Y-111285203D01*
X76680750Y-111290419D01*
X76700962Y-111297651D01*
X76720368Y-111306830D01*
X76738781Y-111317866D01*
X76756024Y-111330654D01*
X76771930Y-111345070D01*
X76786346Y-111360976D01*
X76799134Y-111378219D01*
X76810170Y-111396632D01*
X76819349Y-111416038D01*
X76826581Y-111436250D01*
X76831797Y-111457074D01*
X76834947Y-111478309D01*
X76836000Y-111499750D01*
X76836000Y-112012250D01*
X76834947Y-112033691D01*
X76831797Y-112054926D01*
X76826581Y-112075750D01*
X76819349Y-112095962D01*
X76810170Y-112115368D01*
X76799134Y-112133781D01*
X76786346Y-112151024D01*
X76771930Y-112166930D01*
X76756024Y-112181346D01*
X76738781Y-112194134D01*
X76720368Y-112205170D01*
X76700962Y-112214349D01*
X76680750Y-112221581D01*
X76659926Y-112226797D01*
X76638691Y-112229947D01*
X76617250Y-112231000D01*
X76179750Y-112231000D01*
X76158309Y-112229947D01*
X76137074Y-112226797D01*
X76116250Y-112221581D01*
X76096038Y-112214349D01*
X76076632Y-112205170D01*
X76058219Y-112194134D01*
X76040976Y-112181346D01*
X76025070Y-112166930D01*
X76010654Y-112151024D01*
X75997866Y-112133781D01*
X75986830Y-112115368D01*
X75977651Y-112095962D01*
X75970419Y-112075750D01*
X75965203Y-112054926D01*
X75962053Y-112033691D01*
X75961000Y-112012250D01*
X75961000Y-111499750D01*
X75962053Y-111478309D01*
X75965203Y-111457074D01*
X75970419Y-111436250D01*
X75977651Y-111416038D01*
X75986830Y-111396632D01*
X75997866Y-111378219D01*
X76010654Y-111360976D01*
X76025070Y-111345070D01*
X76040976Y-111330654D01*
X76058219Y-111317866D01*
X76076632Y-111306830D01*
X76096038Y-111297651D01*
X76116250Y-111290419D01*
X76137074Y-111285203D01*
X76158309Y-111282053D01*
X76179750Y-111281000D01*
X76617250Y-111281000D01*
X76638691Y-111282053D01*
G37*
G36*
X78213691Y-111282053D02*
G01*
X78234926Y-111285203D01*
X78255750Y-111290419D01*
X78275962Y-111297651D01*
X78295368Y-111306830D01*
X78313781Y-111317866D01*
X78331024Y-111330654D01*
X78346930Y-111345070D01*
X78361346Y-111360976D01*
X78374134Y-111378219D01*
X78385170Y-111396632D01*
X78394349Y-111416038D01*
X78401581Y-111436250D01*
X78406797Y-111457074D01*
X78409947Y-111478309D01*
X78411000Y-111499750D01*
X78411000Y-112012250D01*
X78409947Y-112033691D01*
X78406797Y-112054926D01*
X78401581Y-112075750D01*
X78394349Y-112095962D01*
X78385170Y-112115368D01*
X78374134Y-112133781D01*
X78361346Y-112151024D01*
X78346930Y-112166930D01*
X78331024Y-112181346D01*
X78313781Y-112194134D01*
X78295368Y-112205170D01*
X78275962Y-112214349D01*
X78255750Y-112221581D01*
X78234926Y-112226797D01*
X78213691Y-112229947D01*
X78192250Y-112231000D01*
X77754750Y-112231000D01*
X77733309Y-112229947D01*
X77712074Y-112226797D01*
X77691250Y-112221581D01*
X77671038Y-112214349D01*
X77651632Y-112205170D01*
X77633219Y-112194134D01*
X77615976Y-112181346D01*
X77600070Y-112166930D01*
X77585654Y-112151024D01*
X77572866Y-112133781D01*
X77561830Y-112115368D01*
X77552651Y-112095962D01*
X77545419Y-112075750D01*
X77540203Y-112054926D01*
X77537053Y-112033691D01*
X77536000Y-112012250D01*
X77536000Y-111499750D01*
X77537053Y-111478309D01*
X77540203Y-111457074D01*
X77545419Y-111436250D01*
X77552651Y-111416038D01*
X77561830Y-111396632D01*
X77572866Y-111378219D01*
X77585654Y-111360976D01*
X77600070Y-111345070D01*
X77615976Y-111330654D01*
X77633219Y-111317866D01*
X77651632Y-111306830D01*
X77671038Y-111297651D01*
X77691250Y-111290419D01*
X77712074Y-111285203D01*
X77733309Y-111282053D01*
X77754750Y-111281000D01*
X78192250Y-111281000D01*
X78213691Y-111282053D01*
G37*
G36*
X79716142Y-120657174D02*
G01*
X79739803Y-120660684D01*
X79763007Y-120666496D01*
X79785529Y-120674554D01*
X79807153Y-120684782D01*
X79827670Y-120697079D01*
X79846883Y-120711329D01*
X79864607Y-120727393D01*
X79880671Y-120745117D01*
X79894921Y-120764330D01*
X79907218Y-120784847D01*
X79917446Y-120806471D01*
X79925504Y-120828993D01*
X79931316Y-120852197D01*
X79934826Y-120875858D01*
X79936000Y-120899750D01*
X79936000Y-121812250D01*
X79934826Y-121836142D01*
X79931316Y-121859803D01*
X79925504Y-121883007D01*
X79917446Y-121905529D01*
X79907218Y-121927153D01*
X79894921Y-121947670D01*
X79880671Y-121966883D01*
X79864607Y-121984607D01*
X79846883Y-122000671D01*
X79827670Y-122014921D01*
X79807153Y-122027218D01*
X79785529Y-122037446D01*
X79763007Y-122045504D01*
X79739803Y-122051316D01*
X79716142Y-122054826D01*
X79692250Y-122056000D01*
X79204750Y-122056000D01*
X79180858Y-122054826D01*
X79157197Y-122051316D01*
X79133993Y-122045504D01*
X79111471Y-122037446D01*
X79089847Y-122027218D01*
X79069330Y-122014921D01*
X79050117Y-122000671D01*
X79032393Y-121984607D01*
X79016329Y-121966883D01*
X79002079Y-121947670D01*
X78989782Y-121927153D01*
X78979554Y-121905529D01*
X78971496Y-121883007D01*
X78965684Y-121859803D01*
X78962174Y-121836142D01*
X78961000Y-121812250D01*
X78961000Y-120899750D01*
X78962174Y-120875858D01*
X78965684Y-120852197D01*
X78971496Y-120828993D01*
X78979554Y-120806471D01*
X78989782Y-120784847D01*
X79002079Y-120764330D01*
X79016329Y-120745117D01*
X79032393Y-120727393D01*
X79050117Y-120711329D01*
X79069330Y-120697079D01*
X79089847Y-120684782D01*
X79111471Y-120674554D01*
X79133993Y-120666496D01*
X79157197Y-120660684D01*
X79180858Y-120657174D01*
X79204750Y-120656000D01*
X79692250Y-120656000D01*
X79716142Y-120657174D01*
G37*
G36*
X81591142Y-120657174D02*
G01*
X81614803Y-120660684D01*
X81638007Y-120666496D01*
X81660529Y-120674554D01*
X81682153Y-120684782D01*
X81702670Y-120697079D01*
X81721883Y-120711329D01*
X81739607Y-120727393D01*
X81755671Y-120745117D01*
X81769921Y-120764330D01*
X81782218Y-120784847D01*
X81792446Y-120806471D01*
X81800504Y-120828993D01*
X81806316Y-120852197D01*
X81809826Y-120875858D01*
X81811000Y-120899750D01*
X81811000Y-121812250D01*
X81809826Y-121836142D01*
X81806316Y-121859803D01*
X81800504Y-121883007D01*
X81792446Y-121905529D01*
X81782218Y-121927153D01*
X81769921Y-121947670D01*
X81755671Y-121966883D01*
X81739607Y-121984607D01*
X81721883Y-122000671D01*
X81702670Y-122014921D01*
X81682153Y-122027218D01*
X81660529Y-122037446D01*
X81638007Y-122045504D01*
X81614803Y-122051316D01*
X81591142Y-122054826D01*
X81567250Y-122056000D01*
X81079750Y-122056000D01*
X81055858Y-122054826D01*
X81032197Y-122051316D01*
X81008993Y-122045504D01*
X80986471Y-122037446D01*
X80964847Y-122027218D01*
X80944330Y-122014921D01*
X80925117Y-122000671D01*
X80907393Y-121984607D01*
X80891329Y-121966883D01*
X80877079Y-121947670D01*
X80864782Y-121927153D01*
X80854554Y-121905529D01*
X80846496Y-121883007D01*
X80840684Y-121859803D01*
X80837174Y-121836142D01*
X80836000Y-121812250D01*
X80836000Y-120899750D01*
X80837174Y-120875858D01*
X80840684Y-120852197D01*
X80846496Y-120828993D01*
X80854554Y-120806471D01*
X80864782Y-120784847D01*
X80877079Y-120764330D01*
X80891329Y-120745117D01*
X80907393Y-120727393D01*
X80925117Y-120711329D01*
X80944330Y-120697079D01*
X80964847Y-120684782D01*
X80986471Y-120674554D01*
X81008993Y-120666496D01*
X81032197Y-120660684D01*
X81055858Y-120657174D01*
X81079750Y-120656000D01*
X81567250Y-120656000D01*
X81591142Y-120657174D01*
G37*
G36*
X96101191Y-89082053D02*
G01*
X96122426Y-89085203D01*
X96143250Y-89090419D01*
X96163462Y-89097651D01*
X96182868Y-89106830D01*
X96201281Y-89117866D01*
X96218524Y-89130654D01*
X96234430Y-89145070D01*
X96248846Y-89160976D01*
X96261634Y-89178219D01*
X96272670Y-89196632D01*
X96281849Y-89216038D01*
X96289081Y-89236250D01*
X96294297Y-89257074D01*
X96297447Y-89278309D01*
X96298500Y-89299750D01*
X96298500Y-89812250D01*
X96297447Y-89833691D01*
X96294297Y-89854926D01*
X96289081Y-89875750D01*
X96281849Y-89895962D01*
X96272670Y-89915368D01*
X96261634Y-89933781D01*
X96248846Y-89951024D01*
X96234430Y-89966930D01*
X96218524Y-89981346D01*
X96201281Y-89994134D01*
X96182868Y-90005170D01*
X96163462Y-90014349D01*
X96143250Y-90021581D01*
X96122426Y-90026797D01*
X96101191Y-90029947D01*
X96079750Y-90031000D01*
X95642250Y-90031000D01*
X95620809Y-90029947D01*
X95599574Y-90026797D01*
X95578750Y-90021581D01*
X95558538Y-90014349D01*
X95539132Y-90005170D01*
X95520719Y-89994134D01*
X95503476Y-89981346D01*
X95487570Y-89966930D01*
X95473154Y-89951024D01*
X95460366Y-89933781D01*
X95449330Y-89915368D01*
X95440151Y-89895962D01*
X95432919Y-89875750D01*
X95427703Y-89854926D01*
X95424553Y-89833691D01*
X95423500Y-89812250D01*
X95423500Y-89299750D01*
X95424553Y-89278309D01*
X95427703Y-89257074D01*
X95432919Y-89236250D01*
X95440151Y-89216038D01*
X95449330Y-89196632D01*
X95460366Y-89178219D01*
X95473154Y-89160976D01*
X95487570Y-89145070D01*
X95503476Y-89130654D01*
X95520719Y-89117866D01*
X95539132Y-89106830D01*
X95558538Y-89097651D01*
X95578750Y-89090419D01*
X95599574Y-89085203D01*
X95620809Y-89082053D01*
X95642250Y-89081000D01*
X96079750Y-89081000D01*
X96101191Y-89082053D01*
G37*
G36*
X94526191Y-89082053D02*
G01*
X94547426Y-89085203D01*
X94568250Y-89090419D01*
X94588462Y-89097651D01*
X94607868Y-89106830D01*
X94626281Y-89117866D01*
X94643524Y-89130654D01*
X94659430Y-89145070D01*
X94673846Y-89160976D01*
X94686634Y-89178219D01*
X94697670Y-89196632D01*
X94706849Y-89216038D01*
X94714081Y-89236250D01*
X94719297Y-89257074D01*
X94722447Y-89278309D01*
X94723500Y-89299750D01*
X94723500Y-89812250D01*
X94722447Y-89833691D01*
X94719297Y-89854926D01*
X94714081Y-89875750D01*
X94706849Y-89895962D01*
X94697670Y-89915368D01*
X94686634Y-89933781D01*
X94673846Y-89951024D01*
X94659430Y-89966930D01*
X94643524Y-89981346D01*
X94626281Y-89994134D01*
X94607868Y-90005170D01*
X94588462Y-90014349D01*
X94568250Y-90021581D01*
X94547426Y-90026797D01*
X94526191Y-90029947D01*
X94504750Y-90031000D01*
X94067250Y-90031000D01*
X94045809Y-90029947D01*
X94024574Y-90026797D01*
X94003750Y-90021581D01*
X93983538Y-90014349D01*
X93964132Y-90005170D01*
X93945719Y-89994134D01*
X93928476Y-89981346D01*
X93912570Y-89966930D01*
X93898154Y-89951024D01*
X93885366Y-89933781D01*
X93874330Y-89915368D01*
X93865151Y-89895962D01*
X93857919Y-89875750D01*
X93852703Y-89854926D01*
X93849553Y-89833691D01*
X93848500Y-89812250D01*
X93848500Y-89299750D01*
X93849553Y-89278309D01*
X93852703Y-89257074D01*
X93857919Y-89236250D01*
X93865151Y-89216038D01*
X93874330Y-89196632D01*
X93885366Y-89178219D01*
X93898154Y-89160976D01*
X93912570Y-89145070D01*
X93928476Y-89130654D01*
X93945719Y-89117866D01*
X93964132Y-89106830D01*
X93983538Y-89097651D01*
X94003750Y-89090419D01*
X94024574Y-89085203D01*
X94045809Y-89082053D01*
X94067250Y-89081000D01*
X94504750Y-89081000D01*
X94526191Y-89082053D01*
G37*
G36*
X105663691Y-108407053D02*
G01*
X105684926Y-108410203D01*
X105705750Y-108415419D01*
X105725962Y-108422651D01*
X105745368Y-108431830D01*
X105763781Y-108442866D01*
X105781024Y-108455654D01*
X105796930Y-108470070D01*
X105811346Y-108485976D01*
X105824134Y-108503219D01*
X105835170Y-108521632D01*
X105844349Y-108541038D01*
X105851581Y-108561250D01*
X105856797Y-108582074D01*
X105859947Y-108603309D01*
X105861000Y-108624750D01*
X105861000Y-109062250D01*
X105859947Y-109083691D01*
X105856797Y-109104926D01*
X105851581Y-109125750D01*
X105844349Y-109145962D01*
X105835170Y-109165368D01*
X105824134Y-109183781D01*
X105811346Y-109201024D01*
X105796930Y-109216930D01*
X105781024Y-109231346D01*
X105763781Y-109244134D01*
X105745368Y-109255170D01*
X105725962Y-109264349D01*
X105705750Y-109271581D01*
X105684926Y-109276797D01*
X105663691Y-109279947D01*
X105642250Y-109281000D01*
X105129750Y-109281000D01*
X105108309Y-109279947D01*
X105087074Y-109276797D01*
X105066250Y-109271581D01*
X105046038Y-109264349D01*
X105026632Y-109255170D01*
X105008219Y-109244134D01*
X104990976Y-109231346D01*
X104975070Y-109216930D01*
X104960654Y-109201024D01*
X104947866Y-109183781D01*
X104936830Y-109165368D01*
X104927651Y-109145962D01*
X104920419Y-109125750D01*
X104915203Y-109104926D01*
X104912053Y-109083691D01*
X104911000Y-109062250D01*
X104911000Y-108624750D01*
X104912053Y-108603309D01*
X104915203Y-108582074D01*
X104920419Y-108561250D01*
X104927651Y-108541038D01*
X104936830Y-108521632D01*
X104947866Y-108503219D01*
X104960654Y-108485976D01*
X104975070Y-108470070D01*
X104990976Y-108455654D01*
X105008219Y-108442866D01*
X105026632Y-108431830D01*
X105046038Y-108422651D01*
X105066250Y-108415419D01*
X105087074Y-108410203D01*
X105108309Y-108407053D01*
X105129750Y-108406000D01*
X105642250Y-108406000D01*
X105663691Y-108407053D01*
G37*
G36*
X105663691Y-106832053D02*
G01*
X105684926Y-106835203D01*
X105705750Y-106840419D01*
X105725962Y-106847651D01*
X105745368Y-106856830D01*
X105763781Y-106867866D01*
X105781024Y-106880654D01*
X105796930Y-106895070D01*
X105811346Y-106910976D01*
X105824134Y-106928219D01*
X105835170Y-106946632D01*
X105844349Y-106966038D01*
X105851581Y-106986250D01*
X105856797Y-107007074D01*
X105859947Y-107028309D01*
X105861000Y-107049750D01*
X105861000Y-107487250D01*
X105859947Y-107508691D01*
X105856797Y-107529926D01*
X105851581Y-107550750D01*
X105844349Y-107570962D01*
X105835170Y-107590368D01*
X105824134Y-107608781D01*
X105811346Y-107626024D01*
X105796930Y-107641930D01*
X105781024Y-107656346D01*
X105763781Y-107669134D01*
X105745368Y-107680170D01*
X105725962Y-107689349D01*
X105705750Y-107696581D01*
X105684926Y-107701797D01*
X105663691Y-107704947D01*
X105642250Y-107706000D01*
X105129750Y-107706000D01*
X105108309Y-107704947D01*
X105087074Y-107701797D01*
X105066250Y-107696581D01*
X105046038Y-107689349D01*
X105026632Y-107680170D01*
X105008219Y-107669134D01*
X104990976Y-107656346D01*
X104975070Y-107641930D01*
X104960654Y-107626024D01*
X104947866Y-107608781D01*
X104936830Y-107590368D01*
X104927651Y-107570962D01*
X104920419Y-107550750D01*
X104915203Y-107529926D01*
X104912053Y-107508691D01*
X104911000Y-107487250D01*
X104911000Y-107049750D01*
X104912053Y-107028309D01*
X104915203Y-107007074D01*
X104920419Y-106986250D01*
X104927651Y-106966038D01*
X104936830Y-106946632D01*
X104947866Y-106928219D01*
X104960654Y-106910976D01*
X104975070Y-106895070D01*
X104990976Y-106880654D01*
X105008219Y-106867866D01*
X105026632Y-106856830D01*
X105046038Y-106847651D01*
X105066250Y-106840419D01*
X105087074Y-106835203D01*
X105108309Y-106832053D01*
X105129750Y-106831000D01*
X105642250Y-106831000D01*
X105663691Y-106832053D01*
G37*
G36*
X108463691Y-106832053D02*
G01*
X108484926Y-106835203D01*
X108505750Y-106840419D01*
X108525962Y-106847651D01*
X108545368Y-106856830D01*
X108563781Y-106867866D01*
X108581024Y-106880654D01*
X108596930Y-106895070D01*
X108611346Y-106910976D01*
X108624134Y-106928219D01*
X108635170Y-106946632D01*
X108644349Y-106966038D01*
X108651581Y-106986250D01*
X108656797Y-107007074D01*
X108659947Y-107028309D01*
X108661000Y-107049750D01*
X108661000Y-107487250D01*
X108659947Y-107508691D01*
X108656797Y-107529926D01*
X108651581Y-107550750D01*
X108644349Y-107570962D01*
X108635170Y-107590368D01*
X108624134Y-107608781D01*
X108611346Y-107626024D01*
X108596930Y-107641930D01*
X108581024Y-107656346D01*
X108563781Y-107669134D01*
X108545368Y-107680170D01*
X108525962Y-107689349D01*
X108505750Y-107696581D01*
X108484926Y-107701797D01*
X108463691Y-107704947D01*
X108442250Y-107706000D01*
X107929750Y-107706000D01*
X107908309Y-107704947D01*
X107887074Y-107701797D01*
X107866250Y-107696581D01*
X107846038Y-107689349D01*
X107826632Y-107680170D01*
X107808219Y-107669134D01*
X107790976Y-107656346D01*
X107775070Y-107641930D01*
X107760654Y-107626024D01*
X107747866Y-107608781D01*
X107736830Y-107590368D01*
X107727651Y-107570962D01*
X107720419Y-107550750D01*
X107715203Y-107529926D01*
X107712053Y-107508691D01*
X107711000Y-107487250D01*
X107711000Y-107049750D01*
X107712053Y-107028309D01*
X107715203Y-107007074D01*
X107720419Y-106986250D01*
X107727651Y-106966038D01*
X107736830Y-106946632D01*
X107747866Y-106928219D01*
X107760654Y-106910976D01*
X107775070Y-106895070D01*
X107790976Y-106880654D01*
X107808219Y-106867866D01*
X107826632Y-106856830D01*
X107846038Y-106847651D01*
X107866250Y-106840419D01*
X107887074Y-106835203D01*
X107908309Y-106832053D01*
X107929750Y-106831000D01*
X108442250Y-106831000D01*
X108463691Y-106832053D01*
G37*
G36*
X108463691Y-108407053D02*
G01*
X108484926Y-108410203D01*
X108505750Y-108415419D01*
X108525962Y-108422651D01*
X108545368Y-108431830D01*
X108563781Y-108442866D01*
X108581024Y-108455654D01*
X108596930Y-108470070D01*
X108611346Y-108485976D01*
X108624134Y-108503219D01*
X108635170Y-108521632D01*
X108644349Y-108541038D01*
X108651581Y-108561250D01*
X108656797Y-108582074D01*
X108659947Y-108603309D01*
X108661000Y-108624750D01*
X108661000Y-109062250D01*
X108659947Y-109083691D01*
X108656797Y-109104926D01*
X108651581Y-109125750D01*
X108644349Y-109145962D01*
X108635170Y-109165368D01*
X108624134Y-109183781D01*
X108611346Y-109201024D01*
X108596930Y-109216930D01*
X108581024Y-109231346D01*
X108563781Y-109244134D01*
X108545368Y-109255170D01*
X108525962Y-109264349D01*
X108505750Y-109271581D01*
X108484926Y-109276797D01*
X108463691Y-109279947D01*
X108442250Y-109281000D01*
X107929750Y-109281000D01*
X107908309Y-109279947D01*
X107887074Y-109276797D01*
X107866250Y-109271581D01*
X107846038Y-109264349D01*
X107826632Y-109255170D01*
X107808219Y-109244134D01*
X107790976Y-109231346D01*
X107775070Y-109216930D01*
X107760654Y-109201024D01*
X107747866Y-109183781D01*
X107736830Y-109165368D01*
X107727651Y-109145962D01*
X107720419Y-109125750D01*
X107715203Y-109104926D01*
X107712053Y-109083691D01*
X107711000Y-109062250D01*
X107711000Y-108624750D01*
X107712053Y-108603309D01*
X107715203Y-108582074D01*
X107720419Y-108561250D01*
X107727651Y-108541038D01*
X107736830Y-108521632D01*
X107747866Y-108503219D01*
X107760654Y-108485976D01*
X107775070Y-108470070D01*
X107790976Y-108455654D01*
X107808219Y-108442866D01*
X107826632Y-108431830D01*
X107846038Y-108422651D01*
X107866250Y-108415419D01*
X107887074Y-108410203D01*
X107908309Y-108407053D01*
X107929750Y-108406000D01*
X108442250Y-108406000D01*
X108463691Y-108407053D01*
G37*
G36*
X102001191Y-89082053D02*
G01*
X102022426Y-89085203D01*
X102043250Y-89090419D01*
X102063462Y-89097651D01*
X102082868Y-89106830D01*
X102101281Y-89117866D01*
X102118524Y-89130654D01*
X102134430Y-89145070D01*
X102148846Y-89160976D01*
X102161634Y-89178219D01*
X102172670Y-89196632D01*
X102181849Y-89216038D01*
X102189081Y-89236250D01*
X102194297Y-89257074D01*
X102197447Y-89278309D01*
X102198500Y-89299750D01*
X102198500Y-89812250D01*
X102197447Y-89833691D01*
X102194297Y-89854926D01*
X102189081Y-89875750D01*
X102181849Y-89895962D01*
X102172670Y-89915368D01*
X102161634Y-89933781D01*
X102148846Y-89951024D01*
X102134430Y-89966930D01*
X102118524Y-89981346D01*
X102101281Y-89994134D01*
X102082868Y-90005170D01*
X102063462Y-90014349D01*
X102043250Y-90021581D01*
X102022426Y-90026797D01*
X102001191Y-90029947D01*
X101979750Y-90031000D01*
X101542250Y-90031000D01*
X101520809Y-90029947D01*
X101499574Y-90026797D01*
X101478750Y-90021581D01*
X101458538Y-90014349D01*
X101439132Y-90005170D01*
X101420719Y-89994134D01*
X101403476Y-89981346D01*
X101387570Y-89966930D01*
X101373154Y-89951024D01*
X101360366Y-89933781D01*
X101349330Y-89915368D01*
X101340151Y-89895962D01*
X101332919Y-89875750D01*
X101327703Y-89854926D01*
X101324553Y-89833691D01*
X101323500Y-89812250D01*
X101323500Y-89299750D01*
X101324553Y-89278309D01*
X101327703Y-89257074D01*
X101332919Y-89236250D01*
X101340151Y-89216038D01*
X101349330Y-89196632D01*
X101360366Y-89178219D01*
X101373154Y-89160976D01*
X101387570Y-89145070D01*
X101403476Y-89130654D01*
X101420719Y-89117866D01*
X101439132Y-89106830D01*
X101458538Y-89097651D01*
X101478750Y-89090419D01*
X101499574Y-89085203D01*
X101520809Y-89082053D01*
X101542250Y-89081000D01*
X101979750Y-89081000D01*
X102001191Y-89082053D01*
G37*
G36*
X100426191Y-89082053D02*
G01*
X100447426Y-89085203D01*
X100468250Y-89090419D01*
X100488462Y-89097651D01*
X100507868Y-89106830D01*
X100526281Y-89117866D01*
X100543524Y-89130654D01*
X100559430Y-89145070D01*
X100573846Y-89160976D01*
X100586634Y-89178219D01*
X100597670Y-89196632D01*
X100606849Y-89216038D01*
X100614081Y-89236250D01*
X100619297Y-89257074D01*
X100622447Y-89278309D01*
X100623500Y-89299750D01*
X100623500Y-89812250D01*
X100622447Y-89833691D01*
X100619297Y-89854926D01*
X100614081Y-89875750D01*
X100606849Y-89895962D01*
X100597670Y-89915368D01*
X100586634Y-89933781D01*
X100573846Y-89951024D01*
X100559430Y-89966930D01*
X100543524Y-89981346D01*
X100526281Y-89994134D01*
X100507868Y-90005170D01*
X100488462Y-90014349D01*
X100468250Y-90021581D01*
X100447426Y-90026797D01*
X100426191Y-90029947D01*
X100404750Y-90031000D01*
X99967250Y-90031000D01*
X99945809Y-90029947D01*
X99924574Y-90026797D01*
X99903750Y-90021581D01*
X99883538Y-90014349D01*
X99864132Y-90005170D01*
X99845719Y-89994134D01*
X99828476Y-89981346D01*
X99812570Y-89966930D01*
X99798154Y-89951024D01*
X99785366Y-89933781D01*
X99774330Y-89915368D01*
X99765151Y-89895962D01*
X99757919Y-89875750D01*
X99752703Y-89854926D01*
X99749553Y-89833691D01*
X99748500Y-89812250D01*
X99748500Y-89299750D01*
X99749553Y-89278309D01*
X99752703Y-89257074D01*
X99757919Y-89236250D01*
X99765151Y-89216038D01*
X99774330Y-89196632D01*
X99785366Y-89178219D01*
X99798154Y-89160976D01*
X99812570Y-89145070D01*
X99828476Y-89130654D01*
X99845719Y-89117866D01*
X99864132Y-89106830D01*
X99883538Y-89097651D01*
X99903750Y-89090419D01*
X99924574Y-89085203D01*
X99945809Y-89082053D01*
X99967250Y-89081000D01*
X100404750Y-89081000D01*
X100426191Y-89082053D01*
G37*
G36*
X112138691Y-121982053D02*
G01*
X112159926Y-121985203D01*
X112180750Y-121990419D01*
X112200962Y-121997651D01*
X112220368Y-122006830D01*
X112238781Y-122017866D01*
X112256024Y-122030654D01*
X112271930Y-122045070D01*
X112286346Y-122060976D01*
X112299134Y-122078219D01*
X112310170Y-122096632D01*
X112319349Y-122116038D01*
X112326581Y-122136250D01*
X112331797Y-122157074D01*
X112334947Y-122178309D01*
X112336000Y-122199750D01*
X112336000Y-122712250D01*
X112334947Y-122733691D01*
X112331797Y-122754926D01*
X112326581Y-122775750D01*
X112319349Y-122795962D01*
X112310170Y-122815368D01*
X112299134Y-122833781D01*
X112286346Y-122851024D01*
X112271930Y-122866930D01*
X112256024Y-122881346D01*
X112238781Y-122894134D01*
X112220368Y-122905170D01*
X112200962Y-122914349D01*
X112180750Y-122921581D01*
X112159926Y-122926797D01*
X112138691Y-122929947D01*
X112117250Y-122931000D01*
X111679750Y-122931000D01*
X111658309Y-122929947D01*
X111637074Y-122926797D01*
X111616250Y-122921581D01*
X111596038Y-122914349D01*
X111576632Y-122905170D01*
X111558219Y-122894134D01*
X111540976Y-122881346D01*
X111525070Y-122866930D01*
X111510654Y-122851024D01*
X111497866Y-122833781D01*
X111486830Y-122815368D01*
X111477651Y-122795962D01*
X111470419Y-122775750D01*
X111465203Y-122754926D01*
X111462053Y-122733691D01*
X111461000Y-122712250D01*
X111461000Y-122199750D01*
X111462053Y-122178309D01*
X111465203Y-122157074D01*
X111470419Y-122136250D01*
X111477651Y-122116038D01*
X111486830Y-122096632D01*
X111497866Y-122078219D01*
X111510654Y-122060976D01*
X111525070Y-122045070D01*
X111540976Y-122030654D01*
X111558219Y-122017866D01*
X111576632Y-122006830D01*
X111596038Y-121997651D01*
X111616250Y-121990419D01*
X111637074Y-121985203D01*
X111658309Y-121982053D01*
X111679750Y-121981000D01*
X112117250Y-121981000D01*
X112138691Y-121982053D01*
G37*
G36*
X113713691Y-121982053D02*
G01*
X113734926Y-121985203D01*
X113755750Y-121990419D01*
X113775962Y-121997651D01*
X113795368Y-122006830D01*
X113813781Y-122017866D01*
X113831024Y-122030654D01*
X113846930Y-122045070D01*
X113861346Y-122060976D01*
X113874134Y-122078219D01*
X113885170Y-122096632D01*
X113894349Y-122116038D01*
X113901581Y-122136250D01*
X113906797Y-122157074D01*
X113909947Y-122178309D01*
X113911000Y-122199750D01*
X113911000Y-122712250D01*
X113909947Y-122733691D01*
X113906797Y-122754926D01*
X113901581Y-122775750D01*
X113894349Y-122795962D01*
X113885170Y-122815368D01*
X113874134Y-122833781D01*
X113861346Y-122851024D01*
X113846930Y-122866930D01*
X113831024Y-122881346D01*
X113813781Y-122894134D01*
X113795368Y-122905170D01*
X113775962Y-122914349D01*
X113755750Y-122921581D01*
X113734926Y-122926797D01*
X113713691Y-122929947D01*
X113692250Y-122931000D01*
X113254750Y-122931000D01*
X113233309Y-122929947D01*
X113212074Y-122926797D01*
X113191250Y-122921581D01*
X113171038Y-122914349D01*
X113151632Y-122905170D01*
X113133219Y-122894134D01*
X113115976Y-122881346D01*
X113100070Y-122866930D01*
X113085654Y-122851024D01*
X113072866Y-122833781D01*
X113061830Y-122815368D01*
X113052651Y-122795962D01*
X113045419Y-122775750D01*
X113040203Y-122754926D01*
X113037053Y-122733691D01*
X113036000Y-122712250D01*
X113036000Y-122199750D01*
X113037053Y-122178309D01*
X113040203Y-122157074D01*
X113045419Y-122136250D01*
X113052651Y-122116038D01*
X113061830Y-122096632D01*
X113072866Y-122078219D01*
X113085654Y-122060976D01*
X113100070Y-122045070D01*
X113115976Y-122030654D01*
X113133219Y-122017866D01*
X113151632Y-122006830D01*
X113171038Y-121997651D01*
X113191250Y-121990419D01*
X113212074Y-121985203D01*
X113233309Y-121982053D01*
X113254750Y-121981000D01*
X113692250Y-121981000D01*
X113713691Y-121982053D01*
G37*
G36*
X92263691Y-126732053D02*
G01*
X92284926Y-126735203D01*
X92305750Y-126740419D01*
X92325962Y-126747651D01*
X92345368Y-126756830D01*
X92363781Y-126767866D01*
X92381024Y-126780654D01*
X92396930Y-126795070D01*
X92411346Y-126810976D01*
X92424134Y-126828219D01*
X92435170Y-126846632D01*
X92444349Y-126866038D01*
X92451581Y-126886250D01*
X92456797Y-126907074D01*
X92459947Y-126928309D01*
X92461000Y-126949750D01*
X92461000Y-127387250D01*
X92459947Y-127408691D01*
X92456797Y-127429926D01*
X92451581Y-127450750D01*
X92444349Y-127470962D01*
X92435170Y-127490368D01*
X92424134Y-127508781D01*
X92411346Y-127526024D01*
X92396930Y-127541930D01*
X92381024Y-127556346D01*
X92363781Y-127569134D01*
X92345368Y-127580170D01*
X92325962Y-127589349D01*
X92305750Y-127596581D01*
X92284926Y-127601797D01*
X92263691Y-127604947D01*
X92242250Y-127606000D01*
X91729750Y-127606000D01*
X91708309Y-127604947D01*
X91687074Y-127601797D01*
X91666250Y-127596581D01*
X91646038Y-127589349D01*
X91626632Y-127580170D01*
X91608219Y-127569134D01*
X91590976Y-127556346D01*
X91575070Y-127541930D01*
X91560654Y-127526024D01*
X91547866Y-127508781D01*
X91536830Y-127490368D01*
X91527651Y-127470962D01*
X91520419Y-127450750D01*
X91515203Y-127429926D01*
X91512053Y-127408691D01*
X91511000Y-127387250D01*
X91511000Y-126949750D01*
X91512053Y-126928309D01*
X91515203Y-126907074D01*
X91520419Y-126886250D01*
X91527651Y-126866038D01*
X91536830Y-126846632D01*
X91547866Y-126828219D01*
X91560654Y-126810976D01*
X91575070Y-126795070D01*
X91590976Y-126780654D01*
X91608219Y-126767866D01*
X91626632Y-126756830D01*
X91646038Y-126747651D01*
X91666250Y-126740419D01*
X91687074Y-126735203D01*
X91708309Y-126732053D01*
X91729750Y-126731000D01*
X92242250Y-126731000D01*
X92263691Y-126732053D01*
G37*
G36*
X92263691Y-128307053D02*
G01*
X92284926Y-128310203D01*
X92305750Y-128315419D01*
X92325962Y-128322651D01*
X92345368Y-128331830D01*
X92363781Y-128342866D01*
X92381024Y-128355654D01*
X92396930Y-128370070D01*
X92411346Y-128385976D01*
X92424134Y-128403219D01*
X92435170Y-128421632D01*
X92444349Y-128441038D01*
X92451581Y-128461250D01*
X92456797Y-128482074D01*
X92459947Y-128503309D01*
X92461000Y-128524750D01*
X92461000Y-128962250D01*
X92459947Y-128983691D01*
X92456797Y-129004926D01*
X92451581Y-129025750D01*
X92444349Y-129045962D01*
X92435170Y-129065368D01*
X92424134Y-129083781D01*
X92411346Y-129101024D01*
X92396930Y-129116930D01*
X92381024Y-129131346D01*
X92363781Y-129144134D01*
X92345368Y-129155170D01*
X92325962Y-129164349D01*
X92305750Y-129171581D01*
X92284926Y-129176797D01*
X92263691Y-129179947D01*
X92242250Y-129181000D01*
X91729750Y-129181000D01*
X91708309Y-129179947D01*
X91687074Y-129176797D01*
X91666250Y-129171581D01*
X91646038Y-129164349D01*
X91626632Y-129155170D01*
X91608219Y-129144134D01*
X91590976Y-129131346D01*
X91575070Y-129116930D01*
X91560654Y-129101024D01*
X91547866Y-129083781D01*
X91536830Y-129065368D01*
X91527651Y-129045962D01*
X91520419Y-129025750D01*
X91515203Y-129004926D01*
X91512053Y-128983691D01*
X91511000Y-128962250D01*
X91511000Y-128524750D01*
X91512053Y-128503309D01*
X91515203Y-128482074D01*
X91520419Y-128461250D01*
X91527651Y-128441038D01*
X91536830Y-128421632D01*
X91547866Y-128403219D01*
X91560654Y-128385976D01*
X91575070Y-128370070D01*
X91590976Y-128355654D01*
X91608219Y-128342866D01*
X91626632Y-128331830D01*
X91646038Y-128322651D01*
X91666250Y-128315419D01*
X91687074Y-128310203D01*
X91708309Y-128307053D01*
X91729750Y-128306000D01*
X92242250Y-128306000D01*
X92263691Y-128307053D01*
G37*
G36*
X89463691Y-126732053D02*
G01*
X89484926Y-126735203D01*
X89505750Y-126740419D01*
X89525962Y-126747651D01*
X89545368Y-126756830D01*
X89563781Y-126767866D01*
X89581024Y-126780654D01*
X89596930Y-126795070D01*
X89611346Y-126810976D01*
X89624134Y-126828219D01*
X89635170Y-126846632D01*
X89644349Y-126866038D01*
X89651581Y-126886250D01*
X89656797Y-126907074D01*
X89659947Y-126928309D01*
X89661000Y-126949750D01*
X89661000Y-127387250D01*
X89659947Y-127408691D01*
X89656797Y-127429926D01*
X89651581Y-127450750D01*
X89644349Y-127470962D01*
X89635170Y-127490368D01*
X89624134Y-127508781D01*
X89611346Y-127526024D01*
X89596930Y-127541930D01*
X89581024Y-127556346D01*
X89563781Y-127569134D01*
X89545368Y-127580170D01*
X89525962Y-127589349D01*
X89505750Y-127596581D01*
X89484926Y-127601797D01*
X89463691Y-127604947D01*
X89442250Y-127606000D01*
X88929750Y-127606000D01*
X88908309Y-127604947D01*
X88887074Y-127601797D01*
X88866250Y-127596581D01*
X88846038Y-127589349D01*
X88826632Y-127580170D01*
X88808219Y-127569134D01*
X88790976Y-127556346D01*
X88775070Y-127541930D01*
X88760654Y-127526024D01*
X88747866Y-127508781D01*
X88736830Y-127490368D01*
X88727651Y-127470962D01*
X88720419Y-127450750D01*
X88715203Y-127429926D01*
X88712053Y-127408691D01*
X88711000Y-127387250D01*
X88711000Y-126949750D01*
X88712053Y-126928309D01*
X88715203Y-126907074D01*
X88720419Y-126886250D01*
X88727651Y-126866038D01*
X88736830Y-126846632D01*
X88747866Y-126828219D01*
X88760654Y-126810976D01*
X88775070Y-126795070D01*
X88790976Y-126780654D01*
X88808219Y-126767866D01*
X88826632Y-126756830D01*
X88846038Y-126747651D01*
X88866250Y-126740419D01*
X88887074Y-126735203D01*
X88908309Y-126732053D01*
X88929750Y-126731000D01*
X89442250Y-126731000D01*
X89463691Y-126732053D01*
G37*
G36*
X89463691Y-128307053D02*
G01*
X89484926Y-128310203D01*
X89505750Y-128315419D01*
X89525962Y-128322651D01*
X89545368Y-128331830D01*
X89563781Y-128342866D01*
X89581024Y-128355654D01*
X89596930Y-128370070D01*
X89611346Y-128385976D01*
X89624134Y-128403219D01*
X89635170Y-128421632D01*
X89644349Y-128441038D01*
X89651581Y-128461250D01*
X89656797Y-128482074D01*
X89659947Y-128503309D01*
X89661000Y-128524750D01*
X89661000Y-128962250D01*
X89659947Y-128983691D01*
X89656797Y-129004926D01*
X89651581Y-129025750D01*
X89644349Y-129045962D01*
X89635170Y-129065368D01*
X89624134Y-129083781D01*
X89611346Y-129101024D01*
X89596930Y-129116930D01*
X89581024Y-129131346D01*
X89563781Y-129144134D01*
X89545368Y-129155170D01*
X89525962Y-129164349D01*
X89505750Y-129171581D01*
X89484926Y-129176797D01*
X89463691Y-129179947D01*
X89442250Y-129181000D01*
X88929750Y-129181000D01*
X88908309Y-129179947D01*
X88887074Y-129176797D01*
X88866250Y-129171581D01*
X88846038Y-129164349D01*
X88826632Y-129155170D01*
X88808219Y-129144134D01*
X88790976Y-129131346D01*
X88775070Y-129116930D01*
X88760654Y-129101024D01*
X88747866Y-129083781D01*
X88736830Y-129065368D01*
X88727651Y-129045962D01*
X88720419Y-129025750D01*
X88715203Y-129004926D01*
X88712053Y-128983691D01*
X88711000Y-128962250D01*
X88711000Y-128524750D01*
X88712053Y-128503309D01*
X88715203Y-128482074D01*
X88720419Y-128461250D01*
X88727651Y-128441038D01*
X88736830Y-128421632D01*
X88747866Y-128403219D01*
X88760654Y-128385976D01*
X88775070Y-128370070D01*
X88790976Y-128355654D01*
X88808219Y-128342866D01*
X88826632Y-128331830D01*
X88846038Y-128322651D01*
X88866250Y-128315419D01*
X88887074Y-128310203D01*
X88908309Y-128307053D01*
X88929750Y-128306000D01*
X89442250Y-128306000D01*
X89463691Y-128307053D01*
G37*
G36*
X88063691Y-126732053D02*
G01*
X88084926Y-126735203D01*
X88105750Y-126740419D01*
X88125962Y-126747651D01*
X88145368Y-126756830D01*
X88163781Y-126767866D01*
X88181024Y-126780654D01*
X88196930Y-126795070D01*
X88211346Y-126810976D01*
X88224134Y-126828219D01*
X88235170Y-126846632D01*
X88244349Y-126866038D01*
X88251581Y-126886250D01*
X88256797Y-126907074D01*
X88259947Y-126928309D01*
X88261000Y-126949750D01*
X88261000Y-127387250D01*
X88259947Y-127408691D01*
X88256797Y-127429926D01*
X88251581Y-127450750D01*
X88244349Y-127470962D01*
X88235170Y-127490368D01*
X88224134Y-127508781D01*
X88211346Y-127526024D01*
X88196930Y-127541930D01*
X88181024Y-127556346D01*
X88163781Y-127569134D01*
X88145368Y-127580170D01*
X88125962Y-127589349D01*
X88105750Y-127596581D01*
X88084926Y-127601797D01*
X88063691Y-127604947D01*
X88042250Y-127606000D01*
X87529750Y-127606000D01*
X87508309Y-127604947D01*
X87487074Y-127601797D01*
X87466250Y-127596581D01*
X87446038Y-127589349D01*
X87426632Y-127580170D01*
X87408219Y-127569134D01*
X87390976Y-127556346D01*
X87375070Y-127541930D01*
X87360654Y-127526024D01*
X87347866Y-127508781D01*
X87336830Y-127490368D01*
X87327651Y-127470962D01*
X87320419Y-127450750D01*
X87315203Y-127429926D01*
X87312053Y-127408691D01*
X87311000Y-127387250D01*
X87311000Y-126949750D01*
X87312053Y-126928309D01*
X87315203Y-126907074D01*
X87320419Y-126886250D01*
X87327651Y-126866038D01*
X87336830Y-126846632D01*
X87347866Y-126828219D01*
X87360654Y-126810976D01*
X87375070Y-126795070D01*
X87390976Y-126780654D01*
X87408219Y-126767866D01*
X87426632Y-126756830D01*
X87446038Y-126747651D01*
X87466250Y-126740419D01*
X87487074Y-126735203D01*
X87508309Y-126732053D01*
X87529750Y-126731000D01*
X88042250Y-126731000D01*
X88063691Y-126732053D01*
G37*
G36*
X88063691Y-128307053D02*
G01*
X88084926Y-128310203D01*
X88105750Y-128315419D01*
X88125962Y-128322651D01*
X88145368Y-128331830D01*
X88163781Y-128342866D01*
X88181024Y-128355654D01*
X88196930Y-128370070D01*
X88211346Y-128385976D01*
X88224134Y-128403219D01*
X88235170Y-128421632D01*
X88244349Y-128441038D01*
X88251581Y-128461250D01*
X88256797Y-128482074D01*
X88259947Y-128503309D01*
X88261000Y-128524750D01*
X88261000Y-128962250D01*
X88259947Y-128983691D01*
X88256797Y-129004926D01*
X88251581Y-129025750D01*
X88244349Y-129045962D01*
X88235170Y-129065368D01*
X88224134Y-129083781D01*
X88211346Y-129101024D01*
X88196930Y-129116930D01*
X88181024Y-129131346D01*
X88163781Y-129144134D01*
X88145368Y-129155170D01*
X88125962Y-129164349D01*
X88105750Y-129171581D01*
X88084926Y-129176797D01*
X88063691Y-129179947D01*
X88042250Y-129181000D01*
X87529750Y-129181000D01*
X87508309Y-129179947D01*
X87487074Y-129176797D01*
X87466250Y-129171581D01*
X87446038Y-129164349D01*
X87426632Y-129155170D01*
X87408219Y-129144134D01*
X87390976Y-129131346D01*
X87375070Y-129116930D01*
X87360654Y-129101024D01*
X87347866Y-129083781D01*
X87336830Y-129065368D01*
X87327651Y-129045962D01*
X87320419Y-129025750D01*
X87315203Y-129004926D01*
X87312053Y-128983691D01*
X87311000Y-128962250D01*
X87311000Y-128524750D01*
X87312053Y-128503309D01*
X87315203Y-128482074D01*
X87320419Y-128461250D01*
X87327651Y-128441038D01*
X87336830Y-128421632D01*
X87347866Y-128403219D01*
X87360654Y-128385976D01*
X87375070Y-128370070D01*
X87390976Y-128355654D01*
X87408219Y-128342866D01*
X87426632Y-128331830D01*
X87446038Y-128322651D01*
X87466250Y-128315419D01*
X87487074Y-128310203D01*
X87508309Y-128307053D01*
X87529750Y-128306000D01*
X88042250Y-128306000D01*
X88063691Y-128307053D01*
G37*
G36*
X93663691Y-126732053D02*
G01*
X93684926Y-126735203D01*
X93705750Y-126740419D01*
X93725962Y-126747651D01*
X93745368Y-126756830D01*
X93763781Y-126767866D01*
X93781024Y-126780654D01*
X93796930Y-126795070D01*
X93811346Y-126810976D01*
X93824134Y-126828219D01*
X93835170Y-126846632D01*
X93844349Y-126866038D01*
X93851581Y-126886250D01*
X93856797Y-126907074D01*
X93859947Y-126928309D01*
X93861000Y-126949750D01*
X93861000Y-127387250D01*
X93859947Y-127408691D01*
X93856797Y-127429926D01*
X93851581Y-127450750D01*
X93844349Y-127470962D01*
X93835170Y-127490368D01*
X93824134Y-127508781D01*
X93811346Y-127526024D01*
X93796930Y-127541930D01*
X93781024Y-127556346D01*
X93763781Y-127569134D01*
X93745368Y-127580170D01*
X93725962Y-127589349D01*
X93705750Y-127596581D01*
X93684926Y-127601797D01*
X93663691Y-127604947D01*
X93642250Y-127606000D01*
X93129750Y-127606000D01*
X93108309Y-127604947D01*
X93087074Y-127601797D01*
X93066250Y-127596581D01*
X93046038Y-127589349D01*
X93026632Y-127580170D01*
X93008219Y-127569134D01*
X92990976Y-127556346D01*
X92975070Y-127541930D01*
X92960654Y-127526024D01*
X92947866Y-127508781D01*
X92936830Y-127490368D01*
X92927651Y-127470962D01*
X92920419Y-127450750D01*
X92915203Y-127429926D01*
X92912053Y-127408691D01*
X92911000Y-127387250D01*
X92911000Y-126949750D01*
X92912053Y-126928309D01*
X92915203Y-126907074D01*
X92920419Y-126886250D01*
X92927651Y-126866038D01*
X92936830Y-126846632D01*
X92947866Y-126828219D01*
X92960654Y-126810976D01*
X92975070Y-126795070D01*
X92990976Y-126780654D01*
X93008219Y-126767866D01*
X93026632Y-126756830D01*
X93046038Y-126747651D01*
X93066250Y-126740419D01*
X93087074Y-126735203D01*
X93108309Y-126732053D01*
X93129750Y-126731000D01*
X93642250Y-126731000D01*
X93663691Y-126732053D01*
G37*
G36*
X93663691Y-128307053D02*
G01*
X93684926Y-128310203D01*
X93705750Y-128315419D01*
X93725962Y-128322651D01*
X93745368Y-128331830D01*
X93763781Y-128342866D01*
X93781024Y-128355654D01*
X93796930Y-128370070D01*
X93811346Y-128385976D01*
X93824134Y-128403219D01*
X93835170Y-128421632D01*
X93844349Y-128441038D01*
X93851581Y-128461250D01*
X93856797Y-128482074D01*
X93859947Y-128503309D01*
X93861000Y-128524750D01*
X93861000Y-128962250D01*
X93859947Y-128983691D01*
X93856797Y-129004926D01*
X93851581Y-129025750D01*
X93844349Y-129045962D01*
X93835170Y-129065368D01*
X93824134Y-129083781D01*
X93811346Y-129101024D01*
X93796930Y-129116930D01*
X93781024Y-129131346D01*
X93763781Y-129144134D01*
X93745368Y-129155170D01*
X93725962Y-129164349D01*
X93705750Y-129171581D01*
X93684926Y-129176797D01*
X93663691Y-129179947D01*
X93642250Y-129181000D01*
X93129750Y-129181000D01*
X93108309Y-129179947D01*
X93087074Y-129176797D01*
X93066250Y-129171581D01*
X93046038Y-129164349D01*
X93026632Y-129155170D01*
X93008219Y-129144134D01*
X92990976Y-129131346D01*
X92975070Y-129116930D01*
X92960654Y-129101024D01*
X92947866Y-129083781D01*
X92936830Y-129065368D01*
X92927651Y-129045962D01*
X92920419Y-129025750D01*
X92915203Y-129004926D01*
X92912053Y-128983691D01*
X92911000Y-128962250D01*
X92911000Y-128524750D01*
X92912053Y-128503309D01*
X92915203Y-128482074D01*
X92920419Y-128461250D01*
X92927651Y-128441038D01*
X92936830Y-128421632D01*
X92947866Y-128403219D01*
X92960654Y-128385976D01*
X92975070Y-128370070D01*
X92990976Y-128355654D01*
X93008219Y-128342866D01*
X93026632Y-128331830D01*
X93046038Y-128322651D01*
X93066250Y-128315419D01*
X93087074Y-128310203D01*
X93108309Y-128307053D01*
X93129750Y-128306000D01*
X93642250Y-128306000D01*
X93663691Y-128307053D01*
G37*
G36*
X81213691Y-114582053D02*
G01*
X81234926Y-114585203D01*
X81255750Y-114590419D01*
X81275962Y-114597651D01*
X81295368Y-114606830D01*
X81313781Y-114617866D01*
X81331024Y-114630654D01*
X81346930Y-114645070D01*
X81361346Y-114660976D01*
X81374134Y-114678219D01*
X81385170Y-114696632D01*
X81394349Y-114716038D01*
X81401581Y-114736250D01*
X81406797Y-114757074D01*
X81409947Y-114778309D01*
X81411000Y-114799750D01*
X81411000Y-115312250D01*
X81409947Y-115333691D01*
X81406797Y-115354926D01*
X81401581Y-115375750D01*
X81394349Y-115395962D01*
X81385170Y-115415368D01*
X81374134Y-115433781D01*
X81361346Y-115451024D01*
X81346930Y-115466930D01*
X81331024Y-115481346D01*
X81313781Y-115494134D01*
X81295368Y-115505170D01*
X81275962Y-115514349D01*
X81255750Y-115521581D01*
X81234926Y-115526797D01*
X81213691Y-115529947D01*
X81192250Y-115531000D01*
X80754750Y-115531000D01*
X80733309Y-115529947D01*
X80712074Y-115526797D01*
X80691250Y-115521581D01*
X80671038Y-115514349D01*
X80651632Y-115505170D01*
X80633219Y-115494134D01*
X80615976Y-115481346D01*
X80600070Y-115466930D01*
X80585654Y-115451024D01*
X80572866Y-115433781D01*
X80561830Y-115415368D01*
X80552651Y-115395962D01*
X80545419Y-115375750D01*
X80540203Y-115354926D01*
X80537053Y-115333691D01*
X80536000Y-115312250D01*
X80536000Y-114799750D01*
X80537053Y-114778309D01*
X80540203Y-114757074D01*
X80545419Y-114736250D01*
X80552651Y-114716038D01*
X80561830Y-114696632D01*
X80572866Y-114678219D01*
X80585654Y-114660976D01*
X80600070Y-114645070D01*
X80615976Y-114630654D01*
X80633219Y-114617866D01*
X80651632Y-114606830D01*
X80671038Y-114597651D01*
X80691250Y-114590419D01*
X80712074Y-114585203D01*
X80733309Y-114582053D01*
X80754750Y-114581000D01*
X81192250Y-114581000D01*
X81213691Y-114582053D01*
G37*
G36*
X79638691Y-114582053D02*
G01*
X79659926Y-114585203D01*
X79680750Y-114590419D01*
X79700962Y-114597651D01*
X79720368Y-114606830D01*
X79738781Y-114617866D01*
X79756024Y-114630654D01*
X79771930Y-114645070D01*
X79786346Y-114660976D01*
X79799134Y-114678219D01*
X79810170Y-114696632D01*
X79819349Y-114716038D01*
X79826581Y-114736250D01*
X79831797Y-114757074D01*
X79834947Y-114778309D01*
X79836000Y-114799750D01*
X79836000Y-115312250D01*
X79834947Y-115333691D01*
X79831797Y-115354926D01*
X79826581Y-115375750D01*
X79819349Y-115395962D01*
X79810170Y-115415368D01*
X79799134Y-115433781D01*
X79786346Y-115451024D01*
X79771930Y-115466930D01*
X79756024Y-115481346D01*
X79738781Y-115494134D01*
X79720368Y-115505170D01*
X79700962Y-115514349D01*
X79680750Y-115521581D01*
X79659926Y-115526797D01*
X79638691Y-115529947D01*
X79617250Y-115531000D01*
X79179750Y-115531000D01*
X79158309Y-115529947D01*
X79137074Y-115526797D01*
X79116250Y-115521581D01*
X79096038Y-115514349D01*
X79076632Y-115505170D01*
X79058219Y-115494134D01*
X79040976Y-115481346D01*
X79025070Y-115466930D01*
X79010654Y-115451024D01*
X78997866Y-115433781D01*
X78986830Y-115415368D01*
X78977651Y-115395962D01*
X78970419Y-115375750D01*
X78965203Y-115354926D01*
X78962053Y-115333691D01*
X78961000Y-115312250D01*
X78961000Y-114799750D01*
X78962053Y-114778309D01*
X78965203Y-114757074D01*
X78970419Y-114736250D01*
X78977651Y-114716038D01*
X78986830Y-114696632D01*
X78997866Y-114678219D01*
X79010654Y-114660976D01*
X79025070Y-114645070D01*
X79040976Y-114630654D01*
X79058219Y-114617866D01*
X79076632Y-114606830D01*
X79096038Y-114597651D01*
X79116250Y-114590419D01*
X79137074Y-114585203D01*
X79158309Y-114582053D01*
X79179750Y-114581000D01*
X79617250Y-114581000D01*
X79638691Y-114582053D01*
G37*
G36*
X113713691Y-123382053D02*
G01*
X113734926Y-123385203D01*
X113755750Y-123390419D01*
X113775962Y-123397651D01*
X113795368Y-123406830D01*
X113813781Y-123417866D01*
X113831024Y-123430654D01*
X113846930Y-123445070D01*
X113861346Y-123460976D01*
X113874134Y-123478219D01*
X113885170Y-123496632D01*
X113894349Y-123516038D01*
X113901581Y-123536250D01*
X113906797Y-123557074D01*
X113909947Y-123578309D01*
X113911000Y-123599750D01*
X113911000Y-124112250D01*
X113909947Y-124133691D01*
X113906797Y-124154926D01*
X113901581Y-124175750D01*
X113894349Y-124195962D01*
X113885170Y-124215368D01*
X113874134Y-124233781D01*
X113861346Y-124251024D01*
X113846930Y-124266930D01*
X113831024Y-124281346D01*
X113813781Y-124294134D01*
X113795368Y-124305170D01*
X113775962Y-124314349D01*
X113755750Y-124321581D01*
X113734926Y-124326797D01*
X113713691Y-124329947D01*
X113692250Y-124331000D01*
X113254750Y-124331000D01*
X113233309Y-124329947D01*
X113212074Y-124326797D01*
X113191250Y-124321581D01*
X113171038Y-124314349D01*
X113151632Y-124305170D01*
X113133219Y-124294134D01*
X113115976Y-124281346D01*
X113100070Y-124266930D01*
X113085654Y-124251024D01*
X113072866Y-124233781D01*
X113061830Y-124215368D01*
X113052651Y-124195962D01*
X113045419Y-124175750D01*
X113040203Y-124154926D01*
X113037053Y-124133691D01*
X113036000Y-124112250D01*
X113036000Y-123599750D01*
X113037053Y-123578309D01*
X113040203Y-123557074D01*
X113045419Y-123536250D01*
X113052651Y-123516038D01*
X113061830Y-123496632D01*
X113072866Y-123478219D01*
X113085654Y-123460976D01*
X113100070Y-123445070D01*
X113115976Y-123430654D01*
X113133219Y-123417866D01*
X113151632Y-123406830D01*
X113171038Y-123397651D01*
X113191250Y-123390419D01*
X113212074Y-123385203D01*
X113233309Y-123382053D01*
X113254750Y-123381000D01*
X113692250Y-123381000D01*
X113713691Y-123382053D01*
G37*
G36*
X112138691Y-123382053D02*
G01*
X112159926Y-123385203D01*
X112180750Y-123390419D01*
X112200962Y-123397651D01*
X112220368Y-123406830D01*
X112238781Y-123417866D01*
X112256024Y-123430654D01*
X112271930Y-123445070D01*
X112286346Y-123460976D01*
X112299134Y-123478219D01*
X112310170Y-123496632D01*
X112319349Y-123516038D01*
X112326581Y-123536250D01*
X112331797Y-123557074D01*
X112334947Y-123578309D01*
X112336000Y-123599750D01*
X112336000Y-124112250D01*
X112334947Y-124133691D01*
X112331797Y-124154926D01*
X112326581Y-124175750D01*
X112319349Y-124195962D01*
X112310170Y-124215368D01*
X112299134Y-124233781D01*
X112286346Y-124251024D01*
X112271930Y-124266930D01*
X112256024Y-124281346D01*
X112238781Y-124294134D01*
X112220368Y-124305170D01*
X112200962Y-124314349D01*
X112180750Y-124321581D01*
X112159926Y-124326797D01*
X112138691Y-124329947D01*
X112117250Y-124331000D01*
X111679750Y-124331000D01*
X111658309Y-124329947D01*
X111637074Y-124326797D01*
X111616250Y-124321581D01*
X111596038Y-124314349D01*
X111576632Y-124305170D01*
X111558219Y-124294134D01*
X111540976Y-124281346D01*
X111525070Y-124266930D01*
X111510654Y-124251024D01*
X111497866Y-124233781D01*
X111486830Y-124215368D01*
X111477651Y-124195962D01*
X111470419Y-124175750D01*
X111465203Y-124154926D01*
X111462053Y-124133691D01*
X111461000Y-124112250D01*
X111461000Y-123599750D01*
X111462053Y-123578309D01*
X111465203Y-123557074D01*
X111470419Y-123536250D01*
X111477651Y-123516038D01*
X111486830Y-123496632D01*
X111497866Y-123478219D01*
X111510654Y-123460976D01*
X111525070Y-123445070D01*
X111540976Y-123430654D01*
X111558219Y-123417866D01*
X111576632Y-123406830D01*
X111596038Y-123397651D01*
X111616250Y-123390419D01*
X111637074Y-123385203D01*
X111658309Y-123382053D01*
X111679750Y-123381000D01*
X112117250Y-123381000D01*
X112138691Y-123382053D01*
G37*
G36*
X109138691Y-121982053D02*
G01*
X109159926Y-121985203D01*
X109180750Y-121990419D01*
X109200962Y-121997651D01*
X109220368Y-122006830D01*
X109238781Y-122017866D01*
X109256024Y-122030654D01*
X109271930Y-122045070D01*
X109286346Y-122060976D01*
X109299134Y-122078219D01*
X109310170Y-122096632D01*
X109319349Y-122116038D01*
X109326581Y-122136250D01*
X109331797Y-122157074D01*
X109334947Y-122178309D01*
X109336000Y-122199750D01*
X109336000Y-122712250D01*
X109334947Y-122733691D01*
X109331797Y-122754926D01*
X109326581Y-122775750D01*
X109319349Y-122795962D01*
X109310170Y-122815368D01*
X109299134Y-122833781D01*
X109286346Y-122851024D01*
X109271930Y-122866930D01*
X109256024Y-122881346D01*
X109238781Y-122894134D01*
X109220368Y-122905170D01*
X109200962Y-122914349D01*
X109180750Y-122921581D01*
X109159926Y-122926797D01*
X109138691Y-122929947D01*
X109117250Y-122931000D01*
X108679750Y-122931000D01*
X108658309Y-122929947D01*
X108637074Y-122926797D01*
X108616250Y-122921581D01*
X108596038Y-122914349D01*
X108576632Y-122905170D01*
X108558219Y-122894134D01*
X108540976Y-122881346D01*
X108525070Y-122866930D01*
X108510654Y-122851024D01*
X108497866Y-122833781D01*
X108486830Y-122815368D01*
X108477651Y-122795962D01*
X108470419Y-122775750D01*
X108465203Y-122754926D01*
X108462053Y-122733691D01*
X108461000Y-122712250D01*
X108461000Y-122199750D01*
X108462053Y-122178309D01*
X108465203Y-122157074D01*
X108470419Y-122136250D01*
X108477651Y-122116038D01*
X108486830Y-122096632D01*
X108497866Y-122078219D01*
X108510654Y-122060976D01*
X108525070Y-122045070D01*
X108540976Y-122030654D01*
X108558219Y-122017866D01*
X108576632Y-122006830D01*
X108596038Y-121997651D01*
X108616250Y-121990419D01*
X108637074Y-121985203D01*
X108658309Y-121982053D01*
X108679750Y-121981000D01*
X109117250Y-121981000D01*
X109138691Y-121982053D01*
G37*
G36*
X110713691Y-121982053D02*
G01*
X110734926Y-121985203D01*
X110755750Y-121990419D01*
X110775962Y-121997651D01*
X110795368Y-122006830D01*
X110813781Y-122017866D01*
X110831024Y-122030654D01*
X110846930Y-122045070D01*
X110861346Y-122060976D01*
X110874134Y-122078219D01*
X110885170Y-122096632D01*
X110894349Y-122116038D01*
X110901581Y-122136250D01*
X110906797Y-122157074D01*
X110909947Y-122178309D01*
X110911000Y-122199750D01*
X110911000Y-122712250D01*
X110909947Y-122733691D01*
X110906797Y-122754926D01*
X110901581Y-122775750D01*
X110894349Y-122795962D01*
X110885170Y-122815368D01*
X110874134Y-122833781D01*
X110861346Y-122851024D01*
X110846930Y-122866930D01*
X110831024Y-122881346D01*
X110813781Y-122894134D01*
X110795368Y-122905170D01*
X110775962Y-122914349D01*
X110755750Y-122921581D01*
X110734926Y-122926797D01*
X110713691Y-122929947D01*
X110692250Y-122931000D01*
X110254750Y-122931000D01*
X110233309Y-122929947D01*
X110212074Y-122926797D01*
X110191250Y-122921581D01*
X110171038Y-122914349D01*
X110151632Y-122905170D01*
X110133219Y-122894134D01*
X110115976Y-122881346D01*
X110100070Y-122866930D01*
X110085654Y-122851024D01*
X110072866Y-122833781D01*
X110061830Y-122815368D01*
X110052651Y-122795962D01*
X110045419Y-122775750D01*
X110040203Y-122754926D01*
X110037053Y-122733691D01*
X110036000Y-122712250D01*
X110036000Y-122199750D01*
X110037053Y-122178309D01*
X110040203Y-122157074D01*
X110045419Y-122136250D01*
X110052651Y-122116038D01*
X110061830Y-122096632D01*
X110072866Y-122078219D01*
X110085654Y-122060976D01*
X110100070Y-122045070D01*
X110115976Y-122030654D01*
X110133219Y-122017866D01*
X110151632Y-122006830D01*
X110171038Y-121997651D01*
X110191250Y-121990419D01*
X110212074Y-121985203D01*
X110233309Y-121982053D01*
X110254750Y-121981000D01*
X110692250Y-121981000D01*
X110713691Y-121982053D01*
G37*
G36*
X91013691Y-87982053D02*
G01*
X91034926Y-87985203D01*
X91055750Y-87990419D01*
X91075962Y-87997651D01*
X91095368Y-88006830D01*
X91113781Y-88017866D01*
X91131024Y-88030654D01*
X91146930Y-88045070D01*
X91161346Y-88060976D01*
X91174134Y-88078219D01*
X91185170Y-88096632D01*
X91194349Y-88116038D01*
X91201581Y-88136250D01*
X91206797Y-88157074D01*
X91209947Y-88178309D01*
X91211000Y-88199750D01*
X91211000Y-88712250D01*
X91209947Y-88733691D01*
X91206797Y-88754926D01*
X91201581Y-88775750D01*
X91194349Y-88795962D01*
X91185170Y-88815368D01*
X91174134Y-88833781D01*
X91161346Y-88851024D01*
X91146930Y-88866930D01*
X91131024Y-88881346D01*
X91113781Y-88894134D01*
X91095368Y-88905170D01*
X91075962Y-88914349D01*
X91055750Y-88921581D01*
X91034926Y-88926797D01*
X91013691Y-88929947D01*
X90992250Y-88931000D01*
X90554750Y-88931000D01*
X90533309Y-88929947D01*
X90512074Y-88926797D01*
X90491250Y-88921581D01*
X90471038Y-88914349D01*
X90451632Y-88905170D01*
X90433219Y-88894134D01*
X90415976Y-88881346D01*
X90400070Y-88866930D01*
X90385654Y-88851024D01*
X90372866Y-88833781D01*
X90361830Y-88815368D01*
X90352651Y-88795962D01*
X90345419Y-88775750D01*
X90340203Y-88754926D01*
X90337053Y-88733691D01*
X90336000Y-88712250D01*
X90336000Y-88199750D01*
X90337053Y-88178309D01*
X90340203Y-88157074D01*
X90345419Y-88136250D01*
X90352651Y-88116038D01*
X90361830Y-88096632D01*
X90372866Y-88078219D01*
X90385654Y-88060976D01*
X90400070Y-88045070D01*
X90415976Y-88030654D01*
X90433219Y-88017866D01*
X90451632Y-88006830D01*
X90471038Y-87997651D01*
X90491250Y-87990419D01*
X90512074Y-87985203D01*
X90533309Y-87982053D01*
X90554750Y-87981000D01*
X90992250Y-87981000D01*
X91013691Y-87982053D01*
G37*
G36*
X89438691Y-87982053D02*
G01*
X89459926Y-87985203D01*
X89480750Y-87990419D01*
X89500962Y-87997651D01*
X89520368Y-88006830D01*
X89538781Y-88017866D01*
X89556024Y-88030654D01*
X89571930Y-88045070D01*
X89586346Y-88060976D01*
X89599134Y-88078219D01*
X89610170Y-88096632D01*
X89619349Y-88116038D01*
X89626581Y-88136250D01*
X89631797Y-88157074D01*
X89634947Y-88178309D01*
X89636000Y-88199750D01*
X89636000Y-88712250D01*
X89634947Y-88733691D01*
X89631797Y-88754926D01*
X89626581Y-88775750D01*
X89619349Y-88795962D01*
X89610170Y-88815368D01*
X89599134Y-88833781D01*
X89586346Y-88851024D01*
X89571930Y-88866930D01*
X89556024Y-88881346D01*
X89538781Y-88894134D01*
X89520368Y-88905170D01*
X89500962Y-88914349D01*
X89480750Y-88921581D01*
X89459926Y-88926797D01*
X89438691Y-88929947D01*
X89417250Y-88931000D01*
X88979750Y-88931000D01*
X88958309Y-88929947D01*
X88937074Y-88926797D01*
X88916250Y-88921581D01*
X88896038Y-88914349D01*
X88876632Y-88905170D01*
X88858219Y-88894134D01*
X88840976Y-88881346D01*
X88825070Y-88866930D01*
X88810654Y-88851024D01*
X88797866Y-88833781D01*
X88786830Y-88815368D01*
X88777651Y-88795962D01*
X88770419Y-88775750D01*
X88765203Y-88754926D01*
X88762053Y-88733691D01*
X88761000Y-88712250D01*
X88761000Y-88199750D01*
X88762053Y-88178309D01*
X88765203Y-88157074D01*
X88770419Y-88136250D01*
X88777651Y-88116038D01*
X88786830Y-88096632D01*
X88797866Y-88078219D01*
X88810654Y-88060976D01*
X88825070Y-88045070D01*
X88840976Y-88030654D01*
X88858219Y-88017866D01*
X88876632Y-88006830D01*
X88896038Y-87997651D01*
X88916250Y-87990419D01*
X88937074Y-87985203D01*
X88958309Y-87982053D01*
X88979750Y-87981000D01*
X89417250Y-87981000D01*
X89438691Y-87982053D01*
G37*
G36*
X107063691Y-108407053D02*
G01*
X107084926Y-108410203D01*
X107105750Y-108415419D01*
X107125962Y-108422651D01*
X107145368Y-108431830D01*
X107163781Y-108442866D01*
X107181024Y-108455654D01*
X107196930Y-108470070D01*
X107211346Y-108485976D01*
X107224134Y-108503219D01*
X107235170Y-108521632D01*
X107244349Y-108541038D01*
X107251581Y-108561250D01*
X107256797Y-108582074D01*
X107259947Y-108603309D01*
X107261000Y-108624750D01*
X107261000Y-109062250D01*
X107259947Y-109083691D01*
X107256797Y-109104926D01*
X107251581Y-109125750D01*
X107244349Y-109145962D01*
X107235170Y-109165368D01*
X107224134Y-109183781D01*
X107211346Y-109201024D01*
X107196930Y-109216930D01*
X107181024Y-109231346D01*
X107163781Y-109244134D01*
X107145368Y-109255170D01*
X107125962Y-109264349D01*
X107105750Y-109271581D01*
X107084926Y-109276797D01*
X107063691Y-109279947D01*
X107042250Y-109281000D01*
X106529750Y-109281000D01*
X106508309Y-109279947D01*
X106487074Y-109276797D01*
X106466250Y-109271581D01*
X106446038Y-109264349D01*
X106426632Y-109255170D01*
X106408219Y-109244134D01*
X106390976Y-109231346D01*
X106375070Y-109216930D01*
X106360654Y-109201024D01*
X106347866Y-109183781D01*
X106336830Y-109165368D01*
X106327651Y-109145962D01*
X106320419Y-109125750D01*
X106315203Y-109104926D01*
X106312053Y-109083691D01*
X106311000Y-109062250D01*
X106311000Y-108624750D01*
X106312053Y-108603309D01*
X106315203Y-108582074D01*
X106320419Y-108561250D01*
X106327651Y-108541038D01*
X106336830Y-108521632D01*
X106347866Y-108503219D01*
X106360654Y-108485976D01*
X106375070Y-108470070D01*
X106390976Y-108455654D01*
X106408219Y-108442866D01*
X106426632Y-108431830D01*
X106446038Y-108422651D01*
X106466250Y-108415419D01*
X106487074Y-108410203D01*
X106508309Y-108407053D01*
X106529750Y-108406000D01*
X107042250Y-108406000D01*
X107063691Y-108407053D01*
G37*
G36*
X107063691Y-106832053D02*
G01*
X107084926Y-106835203D01*
X107105750Y-106840419D01*
X107125962Y-106847651D01*
X107145368Y-106856830D01*
X107163781Y-106867866D01*
X107181024Y-106880654D01*
X107196930Y-106895070D01*
X107211346Y-106910976D01*
X107224134Y-106928219D01*
X107235170Y-106946632D01*
X107244349Y-106966038D01*
X107251581Y-106986250D01*
X107256797Y-107007074D01*
X107259947Y-107028309D01*
X107261000Y-107049750D01*
X107261000Y-107487250D01*
X107259947Y-107508691D01*
X107256797Y-107529926D01*
X107251581Y-107550750D01*
X107244349Y-107570962D01*
X107235170Y-107590368D01*
X107224134Y-107608781D01*
X107211346Y-107626024D01*
X107196930Y-107641930D01*
X107181024Y-107656346D01*
X107163781Y-107669134D01*
X107145368Y-107680170D01*
X107125962Y-107689349D01*
X107105750Y-107696581D01*
X107084926Y-107701797D01*
X107063691Y-107704947D01*
X107042250Y-107706000D01*
X106529750Y-107706000D01*
X106508309Y-107704947D01*
X106487074Y-107701797D01*
X106466250Y-107696581D01*
X106446038Y-107689349D01*
X106426632Y-107680170D01*
X106408219Y-107669134D01*
X106390976Y-107656346D01*
X106375070Y-107641930D01*
X106360654Y-107626024D01*
X106347866Y-107608781D01*
X106336830Y-107590368D01*
X106327651Y-107570962D01*
X106320419Y-107550750D01*
X106315203Y-107529926D01*
X106312053Y-107508691D01*
X106311000Y-107487250D01*
X106311000Y-107049750D01*
X106312053Y-107028309D01*
X106315203Y-107007074D01*
X106320419Y-106986250D01*
X106327651Y-106966038D01*
X106336830Y-106946632D01*
X106347866Y-106928219D01*
X106360654Y-106910976D01*
X106375070Y-106895070D01*
X106390976Y-106880654D01*
X106408219Y-106867866D01*
X106426632Y-106856830D01*
X106446038Y-106847651D01*
X106466250Y-106840419D01*
X106487074Y-106835203D01*
X106508309Y-106832053D01*
X106529750Y-106831000D01*
X107042250Y-106831000D01*
X107063691Y-106832053D01*
G37*
G36*
X109863691Y-106832053D02*
G01*
X109884926Y-106835203D01*
X109905750Y-106840419D01*
X109925962Y-106847651D01*
X109945368Y-106856830D01*
X109963781Y-106867866D01*
X109981024Y-106880654D01*
X109996930Y-106895070D01*
X110011346Y-106910976D01*
X110024134Y-106928219D01*
X110035170Y-106946632D01*
X110044349Y-106966038D01*
X110051581Y-106986250D01*
X110056797Y-107007074D01*
X110059947Y-107028309D01*
X110061000Y-107049750D01*
X110061000Y-107487250D01*
X110059947Y-107508691D01*
X110056797Y-107529926D01*
X110051581Y-107550750D01*
X110044349Y-107570962D01*
X110035170Y-107590368D01*
X110024134Y-107608781D01*
X110011346Y-107626024D01*
X109996930Y-107641930D01*
X109981024Y-107656346D01*
X109963781Y-107669134D01*
X109945368Y-107680170D01*
X109925962Y-107689349D01*
X109905750Y-107696581D01*
X109884926Y-107701797D01*
X109863691Y-107704947D01*
X109842250Y-107706000D01*
X109329750Y-107706000D01*
X109308309Y-107704947D01*
X109287074Y-107701797D01*
X109266250Y-107696581D01*
X109246038Y-107689349D01*
X109226632Y-107680170D01*
X109208219Y-107669134D01*
X109190976Y-107656346D01*
X109175070Y-107641930D01*
X109160654Y-107626024D01*
X109147866Y-107608781D01*
X109136830Y-107590368D01*
X109127651Y-107570962D01*
X109120419Y-107550750D01*
X109115203Y-107529926D01*
X109112053Y-107508691D01*
X109111000Y-107487250D01*
X109111000Y-107049750D01*
X109112053Y-107028309D01*
X109115203Y-107007074D01*
X109120419Y-106986250D01*
X109127651Y-106966038D01*
X109136830Y-106946632D01*
X109147866Y-106928219D01*
X109160654Y-106910976D01*
X109175070Y-106895070D01*
X109190976Y-106880654D01*
X109208219Y-106867866D01*
X109226632Y-106856830D01*
X109246038Y-106847651D01*
X109266250Y-106840419D01*
X109287074Y-106835203D01*
X109308309Y-106832053D01*
X109329750Y-106831000D01*
X109842250Y-106831000D01*
X109863691Y-106832053D01*
G37*
G36*
X109863691Y-108407053D02*
G01*
X109884926Y-108410203D01*
X109905750Y-108415419D01*
X109925962Y-108422651D01*
X109945368Y-108431830D01*
X109963781Y-108442866D01*
X109981024Y-108455654D01*
X109996930Y-108470070D01*
X110011346Y-108485976D01*
X110024134Y-108503219D01*
X110035170Y-108521632D01*
X110044349Y-108541038D01*
X110051581Y-108561250D01*
X110056797Y-108582074D01*
X110059947Y-108603309D01*
X110061000Y-108624750D01*
X110061000Y-109062250D01*
X110059947Y-109083691D01*
X110056797Y-109104926D01*
X110051581Y-109125750D01*
X110044349Y-109145962D01*
X110035170Y-109165368D01*
X110024134Y-109183781D01*
X110011346Y-109201024D01*
X109996930Y-109216930D01*
X109981024Y-109231346D01*
X109963781Y-109244134D01*
X109945368Y-109255170D01*
X109925962Y-109264349D01*
X109905750Y-109271581D01*
X109884926Y-109276797D01*
X109863691Y-109279947D01*
X109842250Y-109281000D01*
X109329750Y-109281000D01*
X109308309Y-109279947D01*
X109287074Y-109276797D01*
X109266250Y-109271581D01*
X109246038Y-109264349D01*
X109226632Y-109255170D01*
X109208219Y-109244134D01*
X109190976Y-109231346D01*
X109175070Y-109216930D01*
X109160654Y-109201024D01*
X109147866Y-109183781D01*
X109136830Y-109165368D01*
X109127651Y-109145962D01*
X109120419Y-109125750D01*
X109115203Y-109104926D01*
X109112053Y-109083691D01*
X109111000Y-109062250D01*
X109111000Y-108624750D01*
X109112053Y-108603309D01*
X109115203Y-108582074D01*
X109120419Y-108561250D01*
X109127651Y-108541038D01*
X109136830Y-108521632D01*
X109147866Y-108503219D01*
X109160654Y-108485976D01*
X109175070Y-108470070D01*
X109190976Y-108455654D01*
X109208219Y-108442866D01*
X109226632Y-108431830D01*
X109246038Y-108422651D01*
X109266250Y-108415419D01*
X109287074Y-108410203D01*
X109308309Y-108407053D01*
X109329750Y-108406000D01*
X109842250Y-108406000D01*
X109863691Y-108407053D01*
G37*
G36*
X111663691Y-108407053D02*
G01*
X111684926Y-108410203D01*
X111705750Y-108415419D01*
X111725962Y-108422651D01*
X111745368Y-108431830D01*
X111763781Y-108442866D01*
X111781024Y-108455654D01*
X111796930Y-108470070D01*
X111811346Y-108485976D01*
X111824134Y-108503219D01*
X111835170Y-108521632D01*
X111844349Y-108541038D01*
X111851581Y-108561250D01*
X111856797Y-108582074D01*
X111859947Y-108603309D01*
X111861000Y-108624750D01*
X111861000Y-109062250D01*
X111859947Y-109083691D01*
X111856797Y-109104926D01*
X111851581Y-109125750D01*
X111844349Y-109145962D01*
X111835170Y-109165368D01*
X111824134Y-109183781D01*
X111811346Y-109201024D01*
X111796930Y-109216930D01*
X111781024Y-109231346D01*
X111763781Y-109244134D01*
X111745368Y-109255170D01*
X111725962Y-109264349D01*
X111705750Y-109271581D01*
X111684926Y-109276797D01*
X111663691Y-109279947D01*
X111642250Y-109281000D01*
X111129750Y-109281000D01*
X111108309Y-109279947D01*
X111087074Y-109276797D01*
X111066250Y-109271581D01*
X111046038Y-109264349D01*
X111026632Y-109255170D01*
X111008219Y-109244134D01*
X110990976Y-109231346D01*
X110975070Y-109216930D01*
X110960654Y-109201024D01*
X110947866Y-109183781D01*
X110936830Y-109165368D01*
X110927651Y-109145962D01*
X110920419Y-109125750D01*
X110915203Y-109104926D01*
X110912053Y-109083691D01*
X110911000Y-109062250D01*
X110911000Y-108624750D01*
X110912053Y-108603309D01*
X110915203Y-108582074D01*
X110920419Y-108561250D01*
X110927651Y-108541038D01*
X110936830Y-108521632D01*
X110947866Y-108503219D01*
X110960654Y-108485976D01*
X110975070Y-108470070D01*
X110990976Y-108455654D01*
X111008219Y-108442866D01*
X111026632Y-108431830D01*
X111046038Y-108422651D01*
X111066250Y-108415419D01*
X111087074Y-108410203D01*
X111108309Y-108407053D01*
X111129750Y-108406000D01*
X111642250Y-108406000D01*
X111663691Y-108407053D01*
G37*
G36*
X111663691Y-106832053D02*
G01*
X111684926Y-106835203D01*
X111705750Y-106840419D01*
X111725962Y-106847651D01*
X111745368Y-106856830D01*
X111763781Y-106867866D01*
X111781024Y-106880654D01*
X111796930Y-106895070D01*
X111811346Y-106910976D01*
X111824134Y-106928219D01*
X111835170Y-106946632D01*
X111844349Y-106966038D01*
X111851581Y-106986250D01*
X111856797Y-107007074D01*
X111859947Y-107028309D01*
X111861000Y-107049750D01*
X111861000Y-107487250D01*
X111859947Y-107508691D01*
X111856797Y-107529926D01*
X111851581Y-107550750D01*
X111844349Y-107570962D01*
X111835170Y-107590368D01*
X111824134Y-107608781D01*
X111811346Y-107626024D01*
X111796930Y-107641930D01*
X111781024Y-107656346D01*
X111763781Y-107669134D01*
X111745368Y-107680170D01*
X111725962Y-107689349D01*
X111705750Y-107696581D01*
X111684926Y-107701797D01*
X111663691Y-107704947D01*
X111642250Y-107706000D01*
X111129750Y-107706000D01*
X111108309Y-107704947D01*
X111087074Y-107701797D01*
X111066250Y-107696581D01*
X111046038Y-107689349D01*
X111026632Y-107680170D01*
X111008219Y-107669134D01*
X110990976Y-107656346D01*
X110975070Y-107641930D01*
X110960654Y-107626024D01*
X110947866Y-107608781D01*
X110936830Y-107590368D01*
X110927651Y-107570962D01*
X110920419Y-107550750D01*
X110915203Y-107529926D01*
X110912053Y-107508691D01*
X110911000Y-107487250D01*
X110911000Y-107049750D01*
X110912053Y-107028309D01*
X110915203Y-107007074D01*
X110920419Y-106986250D01*
X110927651Y-106966038D01*
X110936830Y-106946632D01*
X110947866Y-106928219D01*
X110960654Y-106910976D01*
X110975070Y-106895070D01*
X110990976Y-106880654D01*
X111008219Y-106867866D01*
X111026632Y-106856830D01*
X111046038Y-106847651D01*
X111066250Y-106840419D01*
X111087074Y-106835203D01*
X111108309Y-106832053D01*
X111129750Y-106831000D01*
X111642250Y-106831000D01*
X111663691Y-106832053D01*
G37*
G36*
X112038691Y-89082053D02*
G01*
X112059926Y-89085203D01*
X112080750Y-89090419D01*
X112100962Y-89097651D01*
X112120368Y-89106830D01*
X112138781Y-89117866D01*
X112156024Y-89130654D01*
X112171930Y-89145070D01*
X112186346Y-89160976D01*
X112199134Y-89178219D01*
X112210170Y-89196632D01*
X112219349Y-89216038D01*
X112226581Y-89236250D01*
X112231797Y-89257074D01*
X112234947Y-89278309D01*
X112236000Y-89299750D01*
X112236000Y-89812250D01*
X112234947Y-89833691D01*
X112231797Y-89854926D01*
X112226581Y-89875750D01*
X112219349Y-89895962D01*
X112210170Y-89915368D01*
X112199134Y-89933781D01*
X112186346Y-89951024D01*
X112171930Y-89966930D01*
X112156024Y-89981346D01*
X112138781Y-89994134D01*
X112120368Y-90005170D01*
X112100962Y-90014349D01*
X112080750Y-90021581D01*
X112059926Y-90026797D01*
X112038691Y-90029947D01*
X112017250Y-90031000D01*
X111579750Y-90031000D01*
X111558309Y-90029947D01*
X111537074Y-90026797D01*
X111516250Y-90021581D01*
X111496038Y-90014349D01*
X111476632Y-90005170D01*
X111458219Y-89994134D01*
X111440976Y-89981346D01*
X111425070Y-89966930D01*
X111410654Y-89951024D01*
X111397866Y-89933781D01*
X111386830Y-89915368D01*
X111377651Y-89895962D01*
X111370419Y-89875750D01*
X111365203Y-89854926D01*
X111362053Y-89833691D01*
X111361000Y-89812250D01*
X111361000Y-89299750D01*
X111362053Y-89278309D01*
X111365203Y-89257074D01*
X111370419Y-89236250D01*
X111377651Y-89216038D01*
X111386830Y-89196632D01*
X111397866Y-89178219D01*
X111410654Y-89160976D01*
X111425070Y-89145070D01*
X111440976Y-89130654D01*
X111458219Y-89117866D01*
X111476632Y-89106830D01*
X111496038Y-89097651D01*
X111516250Y-89090419D01*
X111537074Y-89085203D01*
X111558309Y-89082053D01*
X111579750Y-89081000D01*
X112017250Y-89081000D01*
X112038691Y-89082053D01*
G37*
G36*
X113613691Y-89082053D02*
G01*
X113634926Y-89085203D01*
X113655750Y-89090419D01*
X113675962Y-89097651D01*
X113695368Y-89106830D01*
X113713781Y-89117866D01*
X113731024Y-89130654D01*
X113746930Y-89145070D01*
X113761346Y-89160976D01*
X113774134Y-89178219D01*
X113785170Y-89196632D01*
X113794349Y-89216038D01*
X113801581Y-89236250D01*
X113806797Y-89257074D01*
X113809947Y-89278309D01*
X113811000Y-89299750D01*
X113811000Y-89812250D01*
X113809947Y-89833691D01*
X113806797Y-89854926D01*
X113801581Y-89875750D01*
X113794349Y-89895962D01*
X113785170Y-89915368D01*
X113774134Y-89933781D01*
X113761346Y-89951024D01*
X113746930Y-89966930D01*
X113731024Y-89981346D01*
X113713781Y-89994134D01*
X113695368Y-90005170D01*
X113675962Y-90014349D01*
X113655750Y-90021581D01*
X113634926Y-90026797D01*
X113613691Y-90029947D01*
X113592250Y-90031000D01*
X113154750Y-90031000D01*
X113133309Y-90029947D01*
X113112074Y-90026797D01*
X113091250Y-90021581D01*
X113071038Y-90014349D01*
X113051632Y-90005170D01*
X113033219Y-89994134D01*
X113015976Y-89981346D01*
X113000070Y-89966930D01*
X112985654Y-89951024D01*
X112972866Y-89933781D01*
X112961830Y-89915368D01*
X112952651Y-89895962D01*
X112945419Y-89875750D01*
X112940203Y-89854926D01*
X112937053Y-89833691D01*
X112936000Y-89812250D01*
X112936000Y-89299750D01*
X112937053Y-89278309D01*
X112940203Y-89257074D01*
X112945419Y-89236250D01*
X112952651Y-89216038D01*
X112961830Y-89196632D01*
X112972866Y-89178219D01*
X112985654Y-89160976D01*
X113000070Y-89145070D01*
X113015976Y-89130654D01*
X113033219Y-89117866D01*
X113051632Y-89106830D01*
X113071038Y-89097651D01*
X113091250Y-89090419D01*
X113112074Y-89085203D01*
X113133309Y-89082053D01*
X113154750Y-89081000D01*
X113592250Y-89081000D01*
X113613691Y-89082053D01*
G37*
G36*
X116063691Y-108407053D02*
G01*
X116084926Y-108410203D01*
X116105750Y-108415419D01*
X116125962Y-108422651D01*
X116145368Y-108431830D01*
X116163781Y-108442866D01*
X116181024Y-108455654D01*
X116196930Y-108470070D01*
X116211346Y-108485976D01*
X116224134Y-108503219D01*
X116235170Y-108521632D01*
X116244349Y-108541038D01*
X116251581Y-108561250D01*
X116256797Y-108582074D01*
X116259947Y-108603309D01*
X116261000Y-108624750D01*
X116261000Y-109062250D01*
X116259947Y-109083691D01*
X116256797Y-109104926D01*
X116251581Y-109125750D01*
X116244349Y-109145962D01*
X116235170Y-109165368D01*
X116224134Y-109183781D01*
X116211346Y-109201024D01*
X116196930Y-109216930D01*
X116181024Y-109231346D01*
X116163781Y-109244134D01*
X116145368Y-109255170D01*
X116125962Y-109264349D01*
X116105750Y-109271581D01*
X116084926Y-109276797D01*
X116063691Y-109279947D01*
X116042250Y-109281000D01*
X115529750Y-109281000D01*
X115508309Y-109279947D01*
X115487074Y-109276797D01*
X115466250Y-109271581D01*
X115446038Y-109264349D01*
X115426632Y-109255170D01*
X115408219Y-109244134D01*
X115390976Y-109231346D01*
X115375070Y-109216930D01*
X115360654Y-109201024D01*
X115347866Y-109183781D01*
X115336830Y-109165368D01*
X115327651Y-109145962D01*
X115320419Y-109125750D01*
X115315203Y-109104926D01*
X115312053Y-109083691D01*
X115311000Y-109062250D01*
X115311000Y-108624750D01*
X115312053Y-108603309D01*
X115315203Y-108582074D01*
X115320419Y-108561250D01*
X115327651Y-108541038D01*
X115336830Y-108521632D01*
X115347866Y-108503219D01*
X115360654Y-108485976D01*
X115375070Y-108470070D01*
X115390976Y-108455654D01*
X115408219Y-108442866D01*
X115426632Y-108431830D01*
X115446038Y-108422651D01*
X115466250Y-108415419D01*
X115487074Y-108410203D01*
X115508309Y-108407053D01*
X115529750Y-108406000D01*
X116042250Y-108406000D01*
X116063691Y-108407053D01*
G37*
G36*
X116063691Y-106832053D02*
G01*
X116084926Y-106835203D01*
X116105750Y-106840419D01*
X116125962Y-106847651D01*
X116145368Y-106856830D01*
X116163781Y-106867866D01*
X116181024Y-106880654D01*
X116196930Y-106895070D01*
X116211346Y-106910976D01*
X116224134Y-106928219D01*
X116235170Y-106946632D01*
X116244349Y-106966038D01*
X116251581Y-106986250D01*
X116256797Y-107007074D01*
X116259947Y-107028309D01*
X116261000Y-107049750D01*
X116261000Y-107487250D01*
X116259947Y-107508691D01*
X116256797Y-107529926D01*
X116251581Y-107550750D01*
X116244349Y-107570962D01*
X116235170Y-107590368D01*
X116224134Y-107608781D01*
X116211346Y-107626024D01*
X116196930Y-107641930D01*
X116181024Y-107656346D01*
X116163781Y-107669134D01*
X116145368Y-107680170D01*
X116125962Y-107689349D01*
X116105750Y-107696581D01*
X116084926Y-107701797D01*
X116063691Y-107704947D01*
X116042250Y-107706000D01*
X115529750Y-107706000D01*
X115508309Y-107704947D01*
X115487074Y-107701797D01*
X115466250Y-107696581D01*
X115446038Y-107689349D01*
X115426632Y-107680170D01*
X115408219Y-107669134D01*
X115390976Y-107656346D01*
X115375070Y-107641930D01*
X115360654Y-107626024D01*
X115347866Y-107608781D01*
X115336830Y-107590368D01*
X115327651Y-107570962D01*
X115320419Y-107550750D01*
X115315203Y-107529926D01*
X115312053Y-107508691D01*
X115311000Y-107487250D01*
X115311000Y-107049750D01*
X115312053Y-107028309D01*
X115315203Y-107007074D01*
X115320419Y-106986250D01*
X115327651Y-106966038D01*
X115336830Y-106946632D01*
X115347866Y-106928219D01*
X115360654Y-106910976D01*
X115375070Y-106895070D01*
X115390976Y-106880654D01*
X115408219Y-106867866D01*
X115426632Y-106856830D01*
X115446038Y-106847651D01*
X115466250Y-106840419D01*
X115487074Y-106835203D01*
X115508309Y-106832053D01*
X115529750Y-106831000D01*
X116042250Y-106831000D01*
X116063691Y-106832053D01*
G37*
G36*
X114663691Y-108407053D02*
G01*
X114684926Y-108410203D01*
X114705750Y-108415419D01*
X114725962Y-108422651D01*
X114745368Y-108431830D01*
X114763781Y-108442866D01*
X114781024Y-108455654D01*
X114796930Y-108470070D01*
X114811346Y-108485976D01*
X114824134Y-108503219D01*
X114835170Y-108521632D01*
X114844349Y-108541038D01*
X114851581Y-108561250D01*
X114856797Y-108582074D01*
X114859947Y-108603309D01*
X114861000Y-108624750D01*
X114861000Y-109062250D01*
X114859947Y-109083691D01*
X114856797Y-109104926D01*
X114851581Y-109125750D01*
X114844349Y-109145962D01*
X114835170Y-109165368D01*
X114824134Y-109183781D01*
X114811346Y-109201024D01*
X114796930Y-109216930D01*
X114781024Y-109231346D01*
X114763781Y-109244134D01*
X114745368Y-109255170D01*
X114725962Y-109264349D01*
X114705750Y-109271581D01*
X114684926Y-109276797D01*
X114663691Y-109279947D01*
X114642250Y-109281000D01*
X114129750Y-109281000D01*
X114108309Y-109279947D01*
X114087074Y-109276797D01*
X114066250Y-109271581D01*
X114046038Y-109264349D01*
X114026632Y-109255170D01*
X114008219Y-109244134D01*
X113990976Y-109231346D01*
X113975070Y-109216930D01*
X113960654Y-109201024D01*
X113947866Y-109183781D01*
X113936830Y-109165368D01*
X113927651Y-109145962D01*
X113920419Y-109125750D01*
X113915203Y-109104926D01*
X113912053Y-109083691D01*
X113911000Y-109062250D01*
X113911000Y-108624750D01*
X113912053Y-108603309D01*
X113915203Y-108582074D01*
X113920419Y-108561250D01*
X113927651Y-108541038D01*
X113936830Y-108521632D01*
X113947866Y-108503219D01*
X113960654Y-108485976D01*
X113975070Y-108470070D01*
X113990976Y-108455654D01*
X114008219Y-108442866D01*
X114026632Y-108431830D01*
X114046038Y-108422651D01*
X114066250Y-108415419D01*
X114087074Y-108410203D01*
X114108309Y-108407053D01*
X114129750Y-108406000D01*
X114642250Y-108406000D01*
X114663691Y-108407053D01*
G37*
G36*
X114663691Y-106832053D02*
G01*
X114684926Y-106835203D01*
X114705750Y-106840419D01*
X114725962Y-106847651D01*
X114745368Y-106856830D01*
X114763781Y-106867866D01*
X114781024Y-106880654D01*
X114796930Y-106895070D01*
X114811346Y-106910976D01*
X114824134Y-106928219D01*
X114835170Y-106946632D01*
X114844349Y-106966038D01*
X114851581Y-106986250D01*
X114856797Y-107007074D01*
X114859947Y-107028309D01*
X114861000Y-107049750D01*
X114861000Y-107487250D01*
X114859947Y-107508691D01*
X114856797Y-107529926D01*
X114851581Y-107550750D01*
X114844349Y-107570962D01*
X114835170Y-107590368D01*
X114824134Y-107608781D01*
X114811346Y-107626024D01*
X114796930Y-107641930D01*
X114781024Y-107656346D01*
X114763781Y-107669134D01*
X114745368Y-107680170D01*
X114725962Y-107689349D01*
X114705750Y-107696581D01*
X114684926Y-107701797D01*
X114663691Y-107704947D01*
X114642250Y-107706000D01*
X114129750Y-107706000D01*
X114108309Y-107704947D01*
X114087074Y-107701797D01*
X114066250Y-107696581D01*
X114046038Y-107689349D01*
X114026632Y-107680170D01*
X114008219Y-107669134D01*
X113990976Y-107656346D01*
X113975070Y-107641930D01*
X113960654Y-107626024D01*
X113947866Y-107608781D01*
X113936830Y-107590368D01*
X113927651Y-107570962D01*
X113920419Y-107550750D01*
X113915203Y-107529926D01*
X113912053Y-107508691D01*
X113911000Y-107487250D01*
X113911000Y-107049750D01*
X113912053Y-107028309D01*
X113915203Y-107007074D01*
X113920419Y-106986250D01*
X113927651Y-106966038D01*
X113936830Y-106946632D01*
X113947866Y-106928219D01*
X113960654Y-106910976D01*
X113975070Y-106895070D01*
X113990976Y-106880654D01*
X114008219Y-106867866D01*
X114026632Y-106856830D01*
X114046038Y-106847651D01*
X114066250Y-106840419D01*
X114087074Y-106835203D01*
X114108309Y-106832053D01*
X114129750Y-106831000D01*
X114642250Y-106831000D01*
X114663691Y-106832053D01*
G37*
G36*
X109138691Y-89082053D02*
G01*
X109159926Y-89085203D01*
X109180750Y-89090419D01*
X109200962Y-89097651D01*
X109220368Y-89106830D01*
X109238781Y-89117866D01*
X109256024Y-89130654D01*
X109271930Y-89145070D01*
X109286346Y-89160976D01*
X109299134Y-89178219D01*
X109310170Y-89196632D01*
X109319349Y-89216038D01*
X109326581Y-89236250D01*
X109331797Y-89257074D01*
X109334947Y-89278309D01*
X109336000Y-89299750D01*
X109336000Y-89812250D01*
X109334947Y-89833691D01*
X109331797Y-89854926D01*
X109326581Y-89875750D01*
X109319349Y-89895962D01*
X109310170Y-89915368D01*
X109299134Y-89933781D01*
X109286346Y-89951024D01*
X109271930Y-89966930D01*
X109256024Y-89981346D01*
X109238781Y-89994134D01*
X109220368Y-90005170D01*
X109200962Y-90014349D01*
X109180750Y-90021581D01*
X109159926Y-90026797D01*
X109138691Y-90029947D01*
X109117250Y-90031000D01*
X108679750Y-90031000D01*
X108658309Y-90029947D01*
X108637074Y-90026797D01*
X108616250Y-90021581D01*
X108596038Y-90014349D01*
X108576632Y-90005170D01*
X108558219Y-89994134D01*
X108540976Y-89981346D01*
X108525070Y-89966930D01*
X108510654Y-89951024D01*
X108497866Y-89933781D01*
X108486830Y-89915368D01*
X108477651Y-89895962D01*
X108470419Y-89875750D01*
X108465203Y-89854926D01*
X108462053Y-89833691D01*
X108461000Y-89812250D01*
X108461000Y-89299750D01*
X108462053Y-89278309D01*
X108465203Y-89257074D01*
X108470419Y-89236250D01*
X108477651Y-89216038D01*
X108486830Y-89196632D01*
X108497866Y-89178219D01*
X108510654Y-89160976D01*
X108525070Y-89145070D01*
X108540976Y-89130654D01*
X108558219Y-89117866D01*
X108576632Y-89106830D01*
X108596038Y-89097651D01*
X108616250Y-89090419D01*
X108637074Y-89085203D01*
X108658309Y-89082053D01*
X108679750Y-89081000D01*
X109117250Y-89081000D01*
X109138691Y-89082053D01*
G37*
G36*
X110713691Y-89082053D02*
G01*
X110734926Y-89085203D01*
X110755750Y-89090419D01*
X110775962Y-89097651D01*
X110795368Y-89106830D01*
X110813781Y-89117866D01*
X110831024Y-89130654D01*
X110846930Y-89145070D01*
X110861346Y-89160976D01*
X110874134Y-89178219D01*
X110885170Y-89196632D01*
X110894349Y-89216038D01*
X110901581Y-89236250D01*
X110906797Y-89257074D01*
X110909947Y-89278309D01*
X110911000Y-89299750D01*
X110911000Y-89812250D01*
X110909947Y-89833691D01*
X110906797Y-89854926D01*
X110901581Y-89875750D01*
X110894349Y-89895962D01*
X110885170Y-89915368D01*
X110874134Y-89933781D01*
X110861346Y-89951024D01*
X110846930Y-89966930D01*
X110831024Y-89981346D01*
X110813781Y-89994134D01*
X110795368Y-90005170D01*
X110775962Y-90014349D01*
X110755750Y-90021581D01*
X110734926Y-90026797D01*
X110713691Y-90029947D01*
X110692250Y-90031000D01*
X110254750Y-90031000D01*
X110233309Y-90029947D01*
X110212074Y-90026797D01*
X110191250Y-90021581D01*
X110171038Y-90014349D01*
X110151632Y-90005170D01*
X110133219Y-89994134D01*
X110115976Y-89981346D01*
X110100070Y-89966930D01*
X110085654Y-89951024D01*
X110072866Y-89933781D01*
X110061830Y-89915368D01*
X110052651Y-89895962D01*
X110045419Y-89875750D01*
X110040203Y-89854926D01*
X110037053Y-89833691D01*
X110036000Y-89812250D01*
X110036000Y-89299750D01*
X110037053Y-89278309D01*
X110040203Y-89257074D01*
X110045419Y-89236250D01*
X110052651Y-89216038D01*
X110061830Y-89196632D01*
X110072866Y-89178219D01*
X110085654Y-89160976D01*
X110100070Y-89145070D01*
X110115976Y-89130654D01*
X110133219Y-89117866D01*
X110151632Y-89106830D01*
X110171038Y-89097651D01*
X110191250Y-89090419D01*
X110212074Y-89085203D01*
X110233309Y-89082053D01*
X110254750Y-89081000D01*
X110692250Y-89081000D01*
X110713691Y-89082053D01*
G37*
G36*
X103351191Y-89082053D02*
G01*
X103372426Y-89085203D01*
X103393250Y-89090419D01*
X103413462Y-89097651D01*
X103432868Y-89106830D01*
X103451281Y-89117866D01*
X103468524Y-89130654D01*
X103484430Y-89145070D01*
X103498846Y-89160976D01*
X103511634Y-89178219D01*
X103522670Y-89196632D01*
X103531849Y-89216038D01*
X103539081Y-89236250D01*
X103544297Y-89257074D01*
X103547447Y-89278309D01*
X103548500Y-89299750D01*
X103548500Y-89812250D01*
X103547447Y-89833691D01*
X103544297Y-89854926D01*
X103539081Y-89875750D01*
X103531849Y-89895962D01*
X103522670Y-89915368D01*
X103511634Y-89933781D01*
X103498846Y-89951024D01*
X103484430Y-89966930D01*
X103468524Y-89981346D01*
X103451281Y-89994134D01*
X103432868Y-90005170D01*
X103413462Y-90014349D01*
X103393250Y-90021581D01*
X103372426Y-90026797D01*
X103351191Y-90029947D01*
X103329750Y-90031000D01*
X102892250Y-90031000D01*
X102870809Y-90029947D01*
X102849574Y-90026797D01*
X102828750Y-90021581D01*
X102808538Y-90014349D01*
X102789132Y-90005170D01*
X102770719Y-89994134D01*
X102753476Y-89981346D01*
X102737570Y-89966930D01*
X102723154Y-89951024D01*
X102710366Y-89933781D01*
X102699330Y-89915368D01*
X102690151Y-89895962D01*
X102682919Y-89875750D01*
X102677703Y-89854926D01*
X102674553Y-89833691D01*
X102673500Y-89812250D01*
X102673500Y-89299750D01*
X102674553Y-89278309D01*
X102677703Y-89257074D01*
X102682919Y-89236250D01*
X102690151Y-89216038D01*
X102699330Y-89196632D01*
X102710366Y-89178219D01*
X102723154Y-89160976D01*
X102737570Y-89145070D01*
X102753476Y-89130654D01*
X102770719Y-89117866D01*
X102789132Y-89106830D01*
X102808538Y-89097651D01*
X102828750Y-89090419D01*
X102849574Y-89085203D01*
X102870809Y-89082053D01*
X102892250Y-89081000D01*
X103329750Y-89081000D01*
X103351191Y-89082053D01*
G37*
G36*
X104926191Y-89082053D02*
G01*
X104947426Y-89085203D01*
X104968250Y-89090419D01*
X104988462Y-89097651D01*
X105007868Y-89106830D01*
X105026281Y-89117866D01*
X105043524Y-89130654D01*
X105059430Y-89145070D01*
X105073846Y-89160976D01*
X105086634Y-89178219D01*
X105097670Y-89196632D01*
X105106849Y-89216038D01*
X105114081Y-89236250D01*
X105119297Y-89257074D01*
X105122447Y-89278309D01*
X105123500Y-89299750D01*
X105123500Y-89812250D01*
X105122447Y-89833691D01*
X105119297Y-89854926D01*
X105114081Y-89875750D01*
X105106849Y-89895962D01*
X105097670Y-89915368D01*
X105086634Y-89933781D01*
X105073846Y-89951024D01*
X105059430Y-89966930D01*
X105043524Y-89981346D01*
X105026281Y-89994134D01*
X105007868Y-90005170D01*
X104988462Y-90014349D01*
X104968250Y-90021581D01*
X104947426Y-90026797D01*
X104926191Y-90029947D01*
X104904750Y-90031000D01*
X104467250Y-90031000D01*
X104445809Y-90029947D01*
X104424574Y-90026797D01*
X104403750Y-90021581D01*
X104383538Y-90014349D01*
X104364132Y-90005170D01*
X104345719Y-89994134D01*
X104328476Y-89981346D01*
X104312570Y-89966930D01*
X104298154Y-89951024D01*
X104285366Y-89933781D01*
X104274330Y-89915368D01*
X104265151Y-89895962D01*
X104257919Y-89875750D01*
X104252703Y-89854926D01*
X104249553Y-89833691D01*
X104248500Y-89812250D01*
X104248500Y-89299750D01*
X104249553Y-89278309D01*
X104252703Y-89257074D01*
X104257919Y-89236250D01*
X104265151Y-89216038D01*
X104274330Y-89196632D01*
X104285366Y-89178219D01*
X104298154Y-89160976D01*
X104312570Y-89145070D01*
X104328476Y-89130654D01*
X104345719Y-89117866D01*
X104364132Y-89106830D01*
X104383538Y-89097651D01*
X104403750Y-89090419D01*
X104424574Y-89085203D01*
X104445809Y-89082053D01*
X104467250Y-89081000D01*
X104904750Y-89081000D01*
X104926191Y-89082053D01*
G37*
G36*
X105813691Y-120482053D02*
G01*
X105834926Y-120485203D01*
X105855750Y-120490419D01*
X105875962Y-120497651D01*
X105895368Y-120506830D01*
X105913781Y-120517866D01*
X105931024Y-120530654D01*
X105946930Y-120545070D01*
X105961346Y-120560976D01*
X105974134Y-120578219D01*
X105985170Y-120596632D01*
X105994349Y-120616038D01*
X106001581Y-120636250D01*
X106006797Y-120657074D01*
X106009947Y-120678309D01*
X106011000Y-120699750D01*
X106011000Y-121212250D01*
X106009947Y-121233691D01*
X106006797Y-121254926D01*
X106001581Y-121275750D01*
X105994349Y-121295962D01*
X105985170Y-121315368D01*
X105974134Y-121333781D01*
X105961346Y-121351024D01*
X105946930Y-121366930D01*
X105931024Y-121381346D01*
X105913781Y-121394134D01*
X105895368Y-121405170D01*
X105875962Y-121414349D01*
X105855750Y-121421581D01*
X105834926Y-121426797D01*
X105813691Y-121429947D01*
X105792250Y-121431000D01*
X105354750Y-121431000D01*
X105333309Y-121429947D01*
X105312074Y-121426797D01*
X105291250Y-121421581D01*
X105271038Y-121414349D01*
X105251632Y-121405170D01*
X105233219Y-121394134D01*
X105215976Y-121381346D01*
X105200070Y-121366930D01*
X105185654Y-121351024D01*
X105172866Y-121333781D01*
X105161830Y-121315368D01*
X105152651Y-121295962D01*
X105145419Y-121275750D01*
X105140203Y-121254926D01*
X105137053Y-121233691D01*
X105136000Y-121212250D01*
X105136000Y-120699750D01*
X105137053Y-120678309D01*
X105140203Y-120657074D01*
X105145419Y-120636250D01*
X105152651Y-120616038D01*
X105161830Y-120596632D01*
X105172866Y-120578219D01*
X105185654Y-120560976D01*
X105200070Y-120545070D01*
X105215976Y-120530654D01*
X105233219Y-120517866D01*
X105251632Y-120506830D01*
X105271038Y-120497651D01*
X105291250Y-120490419D01*
X105312074Y-120485203D01*
X105333309Y-120482053D01*
X105354750Y-120481000D01*
X105792250Y-120481000D01*
X105813691Y-120482053D01*
G37*
G36*
X104238691Y-120482053D02*
G01*
X104259926Y-120485203D01*
X104280750Y-120490419D01*
X104300962Y-120497651D01*
X104320368Y-120506830D01*
X104338781Y-120517866D01*
X104356024Y-120530654D01*
X104371930Y-120545070D01*
X104386346Y-120560976D01*
X104399134Y-120578219D01*
X104410170Y-120596632D01*
X104419349Y-120616038D01*
X104426581Y-120636250D01*
X104431797Y-120657074D01*
X104434947Y-120678309D01*
X104436000Y-120699750D01*
X104436000Y-121212250D01*
X104434947Y-121233691D01*
X104431797Y-121254926D01*
X104426581Y-121275750D01*
X104419349Y-121295962D01*
X104410170Y-121315368D01*
X104399134Y-121333781D01*
X104386346Y-121351024D01*
X104371930Y-121366930D01*
X104356024Y-121381346D01*
X104338781Y-121394134D01*
X104320368Y-121405170D01*
X104300962Y-121414349D01*
X104280750Y-121421581D01*
X104259926Y-121426797D01*
X104238691Y-121429947D01*
X104217250Y-121431000D01*
X103779750Y-121431000D01*
X103758309Y-121429947D01*
X103737074Y-121426797D01*
X103716250Y-121421581D01*
X103696038Y-121414349D01*
X103676632Y-121405170D01*
X103658219Y-121394134D01*
X103640976Y-121381346D01*
X103625070Y-121366930D01*
X103610654Y-121351024D01*
X103597866Y-121333781D01*
X103586830Y-121315368D01*
X103577651Y-121295962D01*
X103570419Y-121275750D01*
X103565203Y-121254926D01*
X103562053Y-121233691D01*
X103561000Y-121212250D01*
X103561000Y-120699750D01*
X103562053Y-120678309D01*
X103565203Y-120657074D01*
X103570419Y-120636250D01*
X103577651Y-120616038D01*
X103586830Y-120596632D01*
X103597866Y-120578219D01*
X103610654Y-120560976D01*
X103625070Y-120545070D01*
X103640976Y-120530654D01*
X103658219Y-120517866D01*
X103676632Y-120506830D01*
X103696038Y-120497651D01*
X103716250Y-120490419D01*
X103737074Y-120485203D01*
X103758309Y-120482053D01*
X103779750Y-120481000D01*
X104217250Y-120481000D01*
X104238691Y-120482053D01*
G37*
G36*
X116613691Y-89082053D02*
G01*
X116634926Y-89085203D01*
X116655750Y-89090419D01*
X116675962Y-89097651D01*
X116695368Y-89106830D01*
X116713781Y-89117866D01*
X116731024Y-89130654D01*
X116746930Y-89145070D01*
X116761346Y-89160976D01*
X116774134Y-89178219D01*
X116785170Y-89196632D01*
X116794349Y-89216038D01*
X116801581Y-89236250D01*
X116806797Y-89257074D01*
X116809947Y-89278309D01*
X116811000Y-89299750D01*
X116811000Y-89812250D01*
X116809947Y-89833691D01*
X116806797Y-89854926D01*
X116801581Y-89875750D01*
X116794349Y-89895962D01*
X116785170Y-89915368D01*
X116774134Y-89933781D01*
X116761346Y-89951024D01*
X116746930Y-89966930D01*
X116731024Y-89981346D01*
X116713781Y-89994134D01*
X116695368Y-90005170D01*
X116675962Y-90014349D01*
X116655750Y-90021581D01*
X116634926Y-90026797D01*
X116613691Y-90029947D01*
X116592250Y-90031000D01*
X116154750Y-90031000D01*
X116133309Y-90029947D01*
X116112074Y-90026797D01*
X116091250Y-90021581D01*
X116071038Y-90014349D01*
X116051632Y-90005170D01*
X116033219Y-89994134D01*
X116015976Y-89981346D01*
X116000070Y-89966930D01*
X115985654Y-89951024D01*
X115972866Y-89933781D01*
X115961830Y-89915368D01*
X115952651Y-89895962D01*
X115945419Y-89875750D01*
X115940203Y-89854926D01*
X115937053Y-89833691D01*
X115936000Y-89812250D01*
X115936000Y-89299750D01*
X115937053Y-89278309D01*
X115940203Y-89257074D01*
X115945419Y-89236250D01*
X115952651Y-89216038D01*
X115961830Y-89196632D01*
X115972866Y-89178219D01*
X115985654Y-89160976D01*
X116000070Y-89145070D01*
X116015976Y-89130654D01*
X116033219Y-89117866D01*
X116051632Y-89106830D01*
X116071038Y-89097651D01*
X116091250Y-89090419D01*
X116112074Y-89085203D01*
X116133309Y-89082053D01*
X116154750Y-89081000D01*
X116592250Y-89081000D01*
X116613691Y-89082053D01*
G37*
G36*
X115038691Y-89082053D02*
G01*
X115059926Y-89085203D01*
X115080750Y-89090419D01*
X115100962Y-89097651D01*
X115120368Y-89106830D01*
X115138781Y-89117866D01*
X115156024Y-89130654D01*
X115171930Y-89145070D01*
X115186346Y-89160976D01*
X115199134Y-89178219D01*
X115210170Y-89196632D01*
X115219349Y-89216038D01*
X115226581Y-89236250D01*
X115231797Y-89257074D01*
X115234947Y-89278309D01*
X115236000Y-89299750D01*
X115236000Y-89812250D01*
X115234947Y-89833691D01*
X115231797Y-89854926D01*
X115226581Y-89875750D01*
X115219349Y-89895962D01*
X115210170Y-89915368D01*
X115199134Y-89933781D01*
X115186346Y-89951024D01*
X115171930Y-89966930D01*
X115156024Y-89981346D01*
X115138781Y-89994134D01*
X115120368Y-90005170D01*
X115100962Y-90014349D01*
X115080750Y-90021581D01*
X115059926Y-90026797D01*
X115038691Y-90029947D01*
X115017250Y-90031000D01*
X114579750Y-90031000D01*
X114558309Y-90029947D01*
X114537074Y-90026797D01*
X114516250Y-90021581D01*
X114496038Y-90014349D01*
X114476632Y-90005170D01*
X114458219Y-89994134D01*
X114440976Y-89981346D01*
X114425070Y-89966930D01*
X114410654Y-89951024D01*
X114397866Y-89933781D01*
X114386830Y-89915368D01*
X114377651Y-89895962D01*
X114370419Y-89875750D01*
X114365203Y-89854926D01*
X114362053Y-89833691D01*
X114361000Y-89812250D01*
X114361000Y-89299750D01*
X114362053Y-89278309D01*
X114365203Y-89257074D01*
X114370419Y-89236250D01*
X114377651Y-89216038D01*
X114386830Y-89196632D01*
X114397866Y-89178219D01*
X114410654Y-89160976D01*
X114425070Y-89145070D01*
X114440976Y-89130654D01*
X114458219Y-89117866D01*
X114476632Y-89106830D01*
X114496038Y-89097651D01*
X114516250Y-89090419D01*
X114537074Y-89085203D01*
X114558309Y-89082053D01*
X114579750Y-89081000D01*
X115017250Y-89081000D01*
X115038691Y-89082053D01*
G37*
G36*
X79638691Y-119182053D02*
G01*
X79659926Y-119185203D01*
X79680750Y-119190419D01*
X79700962Y-119197651D01*
X79720368Y-119206830D01*
X79738781Y-119217866D01*
X79756024Y-119230654D01*
X79771930Y-119245070D01*
X79786346Y-119260976D01*
X79799134Y-119278219D01*
X79810170Y-119296632D01*
X79819349Y-119316038D01*
X79826581Y-119336250D01*
X79831797Y-119357074D01*
X79834947Y-119378309D01*
X79836000Y-119399750D01*
X79836000Y-119912250D01*
X79834947Y-119933691D01*
X79831797Y-119954926D01*
X79826581Y-119975750D01*
X79819349Y-119995962D01*
X79810170Y-120015368D01*
X79799134Y-120033781D01*
X79786346Y-120051024D01*
X79771930Y-120066930D01*
X79756024Y-120081346D01*
X79738781Y-120094134D01*
X79720368Y-120105170D01*
X79700962Y-120114349D01*
X79680750Y-120121581D01*
X79659926Y-120126797D01*
X79638691Y-120129947D01*
X79617250Y-120131000D01*
X79179750Y-120131000D01*
X79158309Y-120129947D01*
X79137074Y-120126797D01*
X79116250Y-120121581D01*
X79096038Y-120114349D01*
X79076632Y-120105170D01*
X79058219Y-120094134D01*
X79040976Y-120081346D01*
X79025070Y-120066930D01*
X79010654Y-120051024D01*
X78997866Y-120033781D01*
X78986830Y-120015368D01*
X78977651Y-119995962D01*
X78970419Y-119975750D01*
X78965203Y-119954926D01*
X78962053Y-119933691D01*
X78961000Y-119912250D01*
X78961000Y-119399750D01*
X78962053Y-119378309D01*
X78965203Y-119357074D01*
X78970419Y-119336250D01*
X78977651Y-119316038D01*
X78986830Y-119296632D01*
X78997866Y-119278219D01*
X79010654Y-119260976D01*
X79025070Y-119245070D01*
X79040976Y-119230654D01*
X79058219Y-119217866D01*
X79076632Y-119206830D01*
X79096038Y-119197651D01*
X79116250Y-119190419D01*
X79137074Y-119185203D01*
X79158309Y-119182053D01*
X79179750Y-119181000D01*
X79617250Y-119181000D01*
X79638691Y-119182053D01*
G37*
G36*
X81213691Y-119182053D02*
G01*
X81234926Y-119185203D01*
X81255750Y-119190419D01*
X81275962Y-119197651D01*
X81295368Y-119206830D01*
X81313781Y-119217866D01*
X81331024Y-119230654D01*
X81346930Y-119245070D01*
X81361346Y-119260976D01*
X81374134Y-119278219D01*
X81385170Y-119296632D01*
X81394349Y-119316038D01*
X81401581Y-119336250D01*
X81406797Y-119357074D01*
X81409947Y-119378309D01*
X81411000Y-119399750D01*
X81411000Y-119912250D01*
X81409947Y-119933691D01*
X81406797Y-119954926D01*
X81401581Y-119975750D01*
X81394349Y-119995962D01*
X81385170Y-120015368D01*
X81374134Y-120033781D01*
X81361346Y-120051024D01*
X81346930Y-120066930D01*
X81331024Y-120081346D01*
X81313781Y-120094134D01*
X81295368Y-120105170D01*
X81275962Y-120114349D01*
X81255750Y-120121581D01*
X81234926Y-120126797D01*
X81213691Y-120129947D01*
X81192250Y-120131000D01*
X80754750Y-120131000D01*
X80733309Y-120129947D01*
X80712074Y-120126797D01*
X80691250Y-120121581D01*
X80671038Y-120114349D01*
X80651632Y-120105170D01*
X80633219Y-120094134D01*
X80615976Y-120081346D01*
X80600070Y-120066930D01*
X80585654Y-120051024D01*
X80572866Y-120033781D01*
X80561830Y-120015368D01*
X80552651Y-119995962D01*
X80545419Y-119975750D01*
X80540203Y-119954926D01*
X80537053Y-119933691D01*
X80536000Y-119912250D01*
X80536000Y-119399750D01*
X80537053Y-119378309D01*
X80540203Y-119357074D01*
X80545419Y-119336250D01*
X80552651Y-119316038D01*
X80561830Y-119296632D01*
X80572866Y-119278219D01*
X80585654Y-119260976D01*
X80600070Y-119245070D01*
X80615976Y-119230654D01*
X80633219Y-119217866D01*
X80651632Y-119206830D01*
X80671038Y-119197651D01*
X80691250Y-119190419D01*
X80712074Y-119185203D01*
X80733309Y-119182053D01*
X80754750Y-119181000D01*
X81192250Y-119181000D01*
X81213691Y-119182053D01*
G37*
G36*
X89438691Y-93482053D02*
G01*
X89459926Y-93485203D01*
X89480750Y-93490419D01*
X89500962Y-93497651D01*
X89520368Y-93506830D01*
X89538781Y-93517866D01*
X89556024Y-93530654D01*
X89571930Y-93545070D01*
X89586346Y-93560976D01*
X89599134Y-93578219D01*
X89610170Y-93596632D01*
X89619349Y-93616038D01*
X89626581Y-93636250D01*
X89631797Y-93657074D01*
X89634947Y-93678309D01*
X89636000Y-93699750D01*
X89636000Y-94212250D01*
X89634947Y-94233691D01*
X89631797Y-94254926D01*
X89626581Y-94275750D01*
X89619349Y-94295962D01*
X89610170Y-94315368D01*
X89599134Y-94333781D01*
X89586346Y-94351024D01*
X89571930Y-94366930D01*
X89556024Y-94381346D01*
X89538781Y-94394134D01*
X89520368Y-94405170D01*
X89500962Y-94414349D01*
X89480750Y-94421581D01*
X89459926Y-94426797D01*
X89438691Y-94429947D01*
X89417250Y-94431000D01*
X88979750Y-94431000D01*
X88958309Y-94429947D01*
X88937074Y-94426797D01*
X88916250Y-94421581D01*
X88896038Y-94414349D01*
X88876632Y-94405170D01*
X88858219Y-94394134D01*
X88840976Y-94381346D01*
X88825070Y-94366930D01*
X88810654Y-94351024D01*
X88797866Y-94333781D01*
X88786830Y-94315368D01*
X88777651Y-94295962D01*
X88770419Y-94275750D01*
X88765203Y-94254926D01*
X88762053Y-94233691D01*
X88761000Y-94212250D01*
X88761000Y-93699750D01*
X88762053Y-93678309D01*
X88765203Y-93657074D01*
X88770419Y-93636250D01*
X88777651Y-93616038D01*
X88786830Y-93596632D01*
X88797866Y-93578219D01*
X88810654Y-93560976D01*
X88825070Y-93545070D01*
X88840976Y-93530654D01*
X88858219Y-93517866D01*
X88876632Y-93506830D01*
X88896038Y-93497651D01*
X88916250Y-93490419D01*
X88937074Y-93485203D01*
X88958309Y-93482053D01*
X88979750Y-93481000D01*
X89417250Y-93481000D01*
X89438691Y-93482053D01*
G37*
G36*
X91013691Y-93482053D02*
G01*
X91034926Y-93485203D01*
X91055750Y-93490419D01*
X91075962Y-93497651D01*
X91095368Y-93506830D01*
X91113781Y-93517866D01*
X91131024Y-93530654D01*
X91146930Y-93545070D01*
X91161346Y-93560976D01*
X91174134Y-93578219D01*
X91185170Y-93596632D01*
X91194349Y-93616038D01*
X91201581Y-93636250D01*
X91206797Y-93657074D01*
X91209947Y-93678309D01*
X91211000Y-93699750D01*
X91211000Y-94212250D01*
X91209947Y-94233691D01*
X91206797Y-94254926D01*
X91201581Y-94275750D01*
X91194349Y-94295962D01*
X91185170Y-94315368D01*
X91174134Y-94333781D01*
X91161346Y-94351024D01*
X91146930Y-94366930D01*
X91131024Y-94381346D01*
X91113781Y-94394134D01*
X91095368Y-94405170D01*
X91075962Y-94414349D01*
X91055750Y-94421581D01*
X91034926Y-94426797D01*
X91013691Y-94429947D01*
X90992250Y-94431000D01*
X90554750Y-94431000D01*
X90533309Y-94429947D01*
X90512074Y-94426797D01*
X90491250Y-94421581D01*
X90471038Y-94414349D01*
X90451632Y-94405170D01*
X90433219Y-94394134D01*
X90415976Y-94381346D01*
X90400070Y-94366930D01*
X90385654Y-94351024D01*
X90372866Y-94333781D01*
X90361830Y-94315368D01*
X90352651Y-94295962D01*
X90345419Y-94275750D01*
X90340203Y-94254926D01*
X90337053Y-94233691D01*
X90336000Y-94212250D01*
X90336000Y-93699750D01*
X90337053Y-93678309D01*
X90340203Y-93657074D01*
X90345419Y-93636250D01*
X90352651Y-93616038D01*
X90361830Y-93596632D01*
X90372866Y-93578219D01*
X90385654Y-93560976D01*
X90400070Y-93545070D01*
X90415976Y-93530654D01*
X90433219Y-93517866D01*
X90451632Y-93506830D01*
X90471038Y-93497651D01*
X90491250Y-93490419D01*
X90512074Y-93485203D01*
X90533309Y-93482053D01*
X90554750Y-93481000D01*
X90992250Y-93481000D01*
X91013691Y-93482053D01*
G37*
G36*
X81213691Y-117382053D02*
G01*
X81234926Y-117385203D01*
X81255750Y-117390419D01*
X81275962Y-117397651D01*
X81295368Y-117406830D01*
X81313781Y-117417866D01*
X81331024Y-117430654D01*
X81346930Y-117445070D01*
X81361346Y-117460976D01*
X81374134Y-117478219D01*
X81385170Y-117496632D01*
X81394349Y-117516038D01*
X81401581Y-117536250D01*
X81406797Y-117557074D01*
X81409947Y-117578309D01*
X81411000Y-117599750D01*
X81411000Y-118112250D01*
X81409947Y-118133691D01*
X81406797Y-118154926D01*
X81401581Y-118175750D01*
X81394349Y-118195962D01*
X81385170Y-118215368D01*
X81374134Y-118233781D01*
X81361346Y-118251024D01*
X81346930Y-118266930D01*
X81331024Y-118281346D01*
X81313781Y-118294134D01*
X81295368Y-118305170D01*
X81275962Y-118314349D01*
X81255750Y-118321581D01*
X81234926Y-118326797D01*
X81213691Y-118329947D01*
X81192250Y-118331000D01*
X80754750Y-118331000D01*
X80733309Y-118329947D01*
X80712074Y-118326797D01*
X80691250Y-118321581D01*
X80671038Y-118314349D01*
X80651632Y-118305170D01*
X80633219Y-118294134D01*
X80615976Y-118281346D01*
X80600070Y-118266930D01*
X80585654Y-118251024D01*
X80572866Y-118233781D01*
X80561830Y-118215368D01*
X80552651Y-118195962D01*
X80545419Y-118175750D01*
X80540203Y-118154926D01*
X80537053Y-118133691D01*
X80536000Y-118112250D01*
X80536000Y-117599750D01*
X80537053Y-117578309D01*
X80540203Y-117557074D01*
X80545419Y-117536250D01*
X80552651Y-117516038D01*
X80561830Y-117496632D01*
X80572866Y-117478219D01*
X80585654Y-117460976D01*
X80600070Y-117445070D01*
X80615976Y-117430654D01*
X80633219Y-117417866D01*
X80651632Y-117406830D01*
X80671038Y-117397651D01*
X80691250Y-117390419D01*
X80712074Y-117385203D01*
X80733309Y-117382053D01*
X80754750Y-117381000D01*
X81192250Y-117381000D01*
X81213691Y-117382053D01*
G37*
G36*
X79638691Y-117382053D02*
G01*
X79659926Y-117385203D01*
X79680750Y-117390419D01*
X79700962Y-117397651D01*
X79720368Y-117406830D01*
X79738781Y-117417866D01*
X79756024Y-117430654D01*
X79771930Y-117445070D01*
X79786346Y-117460976D01*
X79799134Y-117478219D01*
X79810170Y-117496632D01*
X79819349Y-117516038D01*
X79826581Y-117536250D01*
X79831797Y-117557074D01*
X79834947Y-117578309D01*
X79836000Y-117599750D01*
X79836000Y-118112250D01*
X79834947Y-118133691D01*
X79831797Y-118154926D01*
X79826581Y-118175750D01*
X79819349Y-118195962D01*
X79810170Y-118215368D01*
X79799134Y-118233781D01*
X79786346Y-118251024D01*
X79771930Y-118266930D01*
X79756024Y-118281346D01*
X79738781Y-118294134D01*
X79720368Y-118305170D01*
X79700962Y-118314349D01*
X79680750Y-118321581D01*
X79659926Y-118326797D01*
X79638691Y-118329947D01*
X79617250Y-118331000D01*
X79179750Y-118331000D01*
X79158309Y-118329947D01*
X79137074Y-118326797D01*
X79116250Y-118321581D01*
X79096038Y-118314349D01*
X79076632Y-118305170D01*
X79058219Y-118294134D01*
X79040976Y-118281346D01*
X79025070Y-118266930D01*
X79010654Y-118251024D01*
X78997866Y-118233781D01*
X78986830Y-118215368D01*
X78977651Y-118195962D01*
X78970419Y-118175750D01*
X78965203Y-118154926D01*
X78962053Y-118133691D01*
X78961000Y-118112250D01*
X78961000Y-117599750D01*
X78962053Y-117578309D01*
X78965203Y-117557074D01*
X78970419Y-117536250D01*
X78977651Y-117516038D01*
X78986830Y-117496632D01*
X78997866Y-117478219D01*
X79010654Y-117460976D01*
X79025070Y-117445070D01*
X79040976Y-117430654D01*
X79058219Y-117417866D01*
X79076632Y-117406830D01*
X79096038Y-117397651D01*
X79116250Y-117390419D01*
X79137074Y-117385203D01*
X79158309Y-117382053D01*
X79179750Y-117381000D01*
X79617250Y-117381000D01*
X79638691Y-117382053D01*
G37*
G36*
X86863691Y-104707053D02*
G01*
X86884926Y-104710203D01*
X86905750Y-104715419D01*
X86925962Y-104722651D01*
X86945368Y-104731830D01*
X86963781Y-104742866D01*
X86981024Y-104755654D01*
X86996930Y-104770070D01*
X87011346Y-104785976D01*
X87024134Y-104803219D01*
X87035170Y-104821632D01*
X87044349Y-104841038D01*
X87051581Y-104861250D01*
X87056797Y-104882074D01*
X87059947Y-104903309D01*
X87061000Y-104924750D01*
X87061000Y-105362250D01*
X87059947Y-105383691D01*
X87056797Y-105404926D01*
X87051581Y-105425750D01*
X87044349Y-105445962D01*
X87035170Y-105465368D01*
X87024134Y-105483781D01*
X87011346Y-105501024D01*
X86996930Y-105516930D01*
X86981024Y-105531346D01*
X86963781Y-105544134D01*
X86945368Y-105555170D01*
X86925962Y-105564349D01*
X86905750Y-105571581D01*
X86884926Y-105576797D01*
X86863691Y-105579947D01*
X86842250Y-105581000D01*
X86329750Y-105581000D01*
X86308309Y-105579947D01*
X86287074Y-105576797D01*
X86266250Y-105571581D01*
X86246038Y-105564349D01*
X86226632Y-105555170D01*
X86208219Y-105544134D01*
X86190976Y-105531346D01*
X86175070Y-105516930D01*
X86160654Y-105501024D01*
X86147866Y-105483781D01*
X86136830Y-105465368D01*
X86127651Y-105445962D01*
X86120419Y-105425750D01*
X86115203Y-105404926D01*
X86112053Y-105383691D01*
X86111000Y-105362250D01*
X86111000Y-104924750D01*
X86112053Y-104903309D01*
X86115203Y-104882074D01*
X86120419Y-104861250D01*
X86127651Y-104841038D01*
X86136830Y-104821632D01*
X86147866Y-104803219D01*
X86160654Y-104785976D01*
X86175070Y-104770070D01*
X86190976Y-104755654D01*
X86208219Y-104742866D01*
X86226632Y-104731830D01*
X86246038Y-104722651D01*
X86266250Y-104715419D01*
X86287074Y-104710203D01*
X86308309Y-104707053D01*
X86329750Y-104706000D01*
X86842250Y-104706000D01*
X86863691Y-104707053D01*
G37*
G36*
X86863691Y-103132053D02*
G01*
X86884926Y-103135203D01*
X86905750Y-103140419D01*
X86925962Y-103147651D01*
X86945368Y-103156830D01*
X86963781Y-103167866D01*
X86981024Y-103180654D01*
X86996930Y-103195070D01*
X87011346Y-103210976D01*
X87024134Y-103228219D01*
X87035170Y-103246632D01*
X87044349Y-103266038D01*
X87051581Y-103286250D01*
X87056797Y-103307074D01*
X87059947Y-103328309D01*
X87061000Y-103349750D01*
X87061000Y-103787250D01*
X87059947Y-103808691D01*
X87056797Y-103829926D01*
X87051581Y-103850750D01*
X87044349Y-103870962D01*
X87035170Y-103890368D01*
X87024134Y-103908781D01*
X87011346Y-103926024D01*
X86996930Y-103941930D01*
X86981024Y-103956346D01*
X86963781Y-103969134D01*
X86945368Y-103980170D01*
X86925962Y-103989349D01*
X86905750Y-103996581D01*
X86884926Y-104001797D01*
X86863691Y-104004947D01*
X86842250Y-104006000D01*
X86329750Y-104006000D01*
X86308309Y-104004947D01*
X86287074Y-104001797D01*
X86266250Y-103996581D01*
X86246038Y-103989349D01*
X86226632Y-103980170D01*
X86208219Y-103969134D01*
X86190976Y-103956346D01*
X86175070Y-103941930D01*
X86160654Y-103926024D01*
X86147866Y-103908781D01*
X86136830Y-103890368D01*
X86127651Y-103870962D01*
X86120419Y-103850750D01*
X86115203Y-103829926D01*
X86112053Y-103808691D01*
X86111000Y-103787250D01*
X86111000Y-103349750D01*
X86112053Y-103328309D01*
X86115203Y-103307074D01*
X86120419Y-103286250D01*
X86127651Y-103266038D01*
X86136830Y-103246632D01*
X86147866Y-103228219D01*
X86160654Y-103210976D01*
X86175070Y-103195070D01*
X86190976Y-103180654D01*
X86208219Y-103167866D01*
X86226632Y-103156830D01*
X86246038Y-103147651D01*
X86266250Y-103140419D01*
X86287074Y-103135203D01*
X86308309Y-103132053D01*
X86329750Y-103131000D01*
X86842250Y-103131000D01*
X86863691Y-103132053D01*
G37*
G36*
X79638691Y-113182053D02*
G01*
X79659926Y-113185203D01*
X79680750Y-113190419D01*
X79700962Y-113197651D01*
X79720368Y-113206830D01*
X79738781Y-113217866D01*
X79756024Y-113230654D01*
X79771930Y-113245070D01*
X79786346Y-113260976D01*
X79799134Y-113278219D01*
X79810170Y-113296632D01*
X79819349Y-113316038D01*
X79826581Y-113336250D01*
X79831797Y-113357074D01*
X79834947Y-113378309D01*
X79836000Y-113399750D01*
X79836000Y-113912250D01*
X79834947Y-113933691D01*
X79831797Y-113954926D01*
X79826581Y-113975750D01*
X79819349Y-113995962D01*
X79810170Y-114015368D01*
X79799134Y-114033781D01*
X79786346Y-114051024D01*
X79771930Y-114066930D01*
X79756024Y-114081346D01*
X79738781Y-114094134D01*
X79720368Y-114105170D01*
X79700962Y-114114349D01*
X79680750Y-114121581D01*
X79659926Y-114126797D01*
X79638691Y-114129947D01*
X79617250Y-114131000D01*
X79179750Y-114131000D01*
X79158309Y-114129947D01*
X79137074Y-114126797D01*
X79116250Y-114121581D01*
X79096038Y-114114349D01*
X79076632Y-114105170D01*
X79058219Y-114094134D01*
X79040976Y-114081346D01*
X79025070Y-114066930D01*
X79010654Y-114051024D01*
X78997866Y-114033781D01*
X78986830Y-114015368D01*
X78977651Y-113995962D01*
X78970419Y-113975750D01*
X78965203Y-113954926D01*
X78962053Y-113933691D01*
X78961000Y-113912250D01*
X78961000Y-113399750D01*
X78962053Y-113378309D01*
X78965203Y-113357074D01*
X78970419Y-113336250D01*
X78977651Y-113316038D01*
X78986830Y-113296632D01*
X78997866Y-113278219D01*
X79010654Y-113260976D01*
X79025070Y-113245070D01*
X79040976Y-113230654D01*
X79058219Y-113217866D01*
X79076632Y-113206830D01*
X79096038Y-113197651D01*
X79116250Y-113190419D01*
X79137074Y-113185203D01*
X79158309Y-113182053D01*
X79179750Y-113181000D01*
X79617250Y-113181000D01*
X79638691Y-113182053D01*
G37*
G36*
X81213691Y-113182053D02*
G01*
X81234926Y-113185203D01*
X81255750Y-113190419D01*
X81275962Y-113197651D01*
X81295368Y-113206830D01*
X81313781Y-113217866D01*
X81331024Y-113230654D01*
X81346930Y-113245070D01*
X81361346Y-113260976D01*
X81374134Y-113278219D01*
X81385170Y-113296632D01*
X81394349Y-113316038D01*
X81401581Y-113336250D01*
X81406797Y-113357074D01*
X81409947Y-113378309D01*
X81411000Y-113399750D01*
X81411000Y-113912250D01*
X81409947Y-113933691D01*
X81406797Y-113954926D01*
X81401581Y-113975750D01*
X81394349Y-113995962D01*
X81385170Y-114015368D01*
X81374134Y-114033781D01*
X81361346Y-114051024D01*
X81346930Y-114066930D01*
X81331024Y-114081346D01*
X81313781Y-114094134D01*
X81295368Y-114105170D01*
X81275962Y-114114349D01*
X81255750Y-114121581D01*
X81234926Y-114126797D01*
X81213691Y-114129947D01*
X81192250Y-114131000D01*
X80754750Y-114131000D01*
X80733309Y-114129947D01*
X80712074Y-114126797D01*
X80691250Y-114121581D01*
X80671038Y-114114349D01*
X80651632Y-114105170D01*
X80633219Y-114094134D01*
X80615976Y-114081346D01*
X80600070Y-114066930D01*
X80585654Y-114051024D01*
X80572866Y-114033781D01*
X80561830Y-114015368D01*
X80552651Y-113995962D01*
X80545419Y-113975750D01*
X80540203Y-113954926D01*
X80537053Y-113933691D01*
X80536000Y-113912250D01*
X80536000Y-113399750D01*
X80537053Y-113378309D01*
X80540203Y-113357074D01*
X80545419Y-113336250D01*
X80552651Y-113316038D01*
X80561830Y-113296632D01*
X80572866Y-113278219D01*
X80585654Y-113260976D01*
X80600070Y-113245070D01*
X80615976Y-113230654D01*
X80633219Y-113217866D01*
X80651632Y-113206830D01*
X80671038Y-113197651D01*
X80691250Y-113190419D01*
X80712074Y-113185203D01*
X80733309Y-113182053D01*
X80754750Y-113181000D01*
X81192250Y-113181000D01*
X81213691Y-113182053D01*
G37*
G36*
X85463691Y-104707053D02*
G01*
X85484926Y-104710203D01*
X85505750Y-104715419D01*
X85525962Y-104722651D01*
X85545368Y-104731830D01*
X85563781Y-104742866D01*
X85581024Y-104755654D01*
X85596930Y-104770070D01*
X85611346Y-104785976D01*
X85624134Y-104803219D01*
X85635170Y-104821632D01*
X85644349Y-104841038D01*
X85651581Y-104861250D01*
X85656797Y-104882074D01*
X85659947Y-104903309D01*
X85661000Y-104924750D01*
X85661000Y-105362250D01*
X85659947Y-105383691D01*
X85656797Y-105404926D01*
X85651581Y-105425750D01*
X85644349Y-105445962D01*
X85635170Y-105465368D01*
X85624134Y-105483781D01*
X85611346Y-105501024D01*
X85596930Y-105516930D01*
X85581024Y-105531346D01*
X85563781Y-105544134D01*
X85545368Y-105555170D01*
X85525962Y-105564349D01*
X85505750Y-105571581D01*
X85484926Y-105576797D01*
X85463691Y-105579947D01*
X85442250Y-105581000D01*
X84929750Y-105581000D01*
X84908309Y-105579947D01*
X84887074Y-105576797D01*
X84866250Y-105571581D01*
X84846038Y-105564349D01*
X84826632Y-105555170D01*
X84808219Y-105544134D01*
X84790976Y-105531346D01*
X84775070Y-105516930D01*
X84760654Y-105501024D01*
X84747866Y-105483781D01*
X84736830Y-105465368D01*
X84727651Y-105445962D01*
X84720419Y-105425750D01*
X84715203Y-105404926D01*
X84712053Y-105383691D01*
X84711000Y-105362250D01*
X84711000Y-104924750D01*
X84712053Y-104903309D01*
X84715203Y-104882074D01*
X84720419Y-104861250D01*
X84727651Y-104841038D01*
X84736830Y-104821632D01*
X84747866Y-104803219D01*
X84760654Y-104785976D01*
X84775070Y-104770070D01*
X84790976Y-104755654D01*
X84808219Y-104742866D01*
X84826632Y-104731830D01*
X84846038Y-104722651D01*
X84866250Y-104715419D01*
X84887074Y-104710203D01*
X84908309Y-104707053D01*
X84929750Y-104706000D01*
X85442250Y-104706000D01*
X85463691Y-104707053D01*
G37*
G36*
X85463691Y-103132053D02*
G01*
X85484926Y-103135203D01*
X85505750Y-103140419D01*
X85525962Y-103147651D01*
X85545368Y-103156830D01*
X85563781Y-103167866D01*
X85581024Y-103180654D01*
X85596930Y-103195070D01*
X85611346Y-103210976D01*
X85624134Y-103228219D01*
X85635170Y-103246632D01*
X85644349Y-103266038D01*
X85651581Y-103286250D01*
X85656797Y-103307074D01*
X85659947Y-103328309D01*
X85661000Y-103349750D01*
X85661000Y-103787250D01*
X85659947Y-103808691D01*
X85656797Y-103829926D01*
X85651581Y-103850750D01*
X85644349Y-103870962D01*
X85635170Y-103890368D01*
X85624134Y-103908781D01*
X85611346Y-103926024D01*
X85596930Y-103941930D01*
X85581024Y-103956346D01*
X85563781Y-103969134D01*
X85545368Y-103980170D01*
X85525962Y-103989349D01*
X85505750Y-103996581D01*
X85484926Y-104001797D01*
X85463691Y-104004947D01*
X85442250Y-104006000D01*
X84929750Y-104006000D01*
X84908309Y-104004947D01*
X84887074Y-104001797D01*
X84866250Y-103996581D01*
X84846038Y-103989349D01*
X84826632Y-103980170D01*
X84808219Y-103969134D01*
X84790976Y-103956346D01*
X84775070Y-103941930D01*
X84760654Y-103926024D01*
X84747866Y-103908781D01*
X84736830Y-103890368D01*
X84727651Y-103870962D01*
X84720419Y-103850750D01*
X84715203Y-103829926D01*
X84712053Y-103808691D01*
X84711000Y-103787250D01*
X84711000Y-103349750D01*
X84712053Y-103328309D01*
X84715203Y-103307074D01*
X84720419Y-103286250D01*
X84727651Y-103266038D01*
X84736830Y-103246632D01*
X84747866Y-103228219D01*
X84760654Y-103210976D01*
X84775070Y-103195070D01*
X84790976Y-103180654D01*
X84808219Y-103167866D01*
X84826632Y-103156830D01*
X84846038Y-103147651D01*
X84866250Y-103140419D01*
X84887074Y-103135203D01*
X84908309Y-103132053D01*
X84929750Y-103131000D01*
X85442250Y-103131000D01*
X85463691Y-103132053D01*
G37*
G36*
X84063691Y-104707053D02*
G01*
X84084926Y-104710203D01*
X84105750Y-104715419D01*
X84125962Y-104722651D01*
X84145368Y-104731830D01*
X84163781Y-104742866D01*
X84181024Y-104755654D01*
X84196930Y-104770070D01*
X84211346Y-104785976D01*
X84224134Y-104803219D01*
X84235170Y-104821632D01*
X84244349Y-104841038D01*
X84251581Y-104861250D01*
X84256797Y-104882074D01*
X84259947Y-104903309D01*
X84261000Y-104924750D01*
X84261000Y-105362250D01*
X84259947Y-105383691D01*
X84256797Y-105404926D01*
X84251581Y-105425750D01*
X84244349Y-105445962D01*
X84235170Y-105465368D01*
X84224134Y-105483781D01*
X84211346Y-105501024D01*
X84196930Y-105516930D01*
X84181024Y-105531346D01*
X84163781Y-105544134D01*
X84145368Y-105555170D01*
X84125962Y-105564349D01*
X84105750Y-105571581D01*
X84084926Y-105576797D01*
X84063691Y-105579947D01*
X84042250Y-105581000D01*
X83529750Y-105581000D01*
X83508309Y-105579947D01*
X83487074Y-105576797D01*
X83466250Y-105571581D01*
X83446038Y-105564349D01*
X83426632Y-105555170D01*
X83408219Y-105544134D01*
X83390976Y-105531346D01*
X83375070Y-105516930D01*
X83360654Y-105501024D01*
X83347866Y-105483781D01*
X83336830Y-105465368D01*
X83327651Y-105445962D01*
X83320419Y-105425750D01*
X83315203Y-105404926D01*
X83312053Y-105383691D01*
X83311000Y-105362250D01*
X83311000Y-104924750D01*
X83312053Y-104903309D01*
X83315203Y-104882074D01*
X83320419Y-104861250D01*
X83327651Y-104841038D01*
X83336830Y-104821632D01*
X83347866Y-104803219D01*
X83360654Y-104785976D01*
X83375070Y-104770070D01*
X83390976Y-104755654D01*
X83408219Y-104742866D01*
X83426632Y-104731830D01*
X83446038Y-104722651D01*
X83466250Y-104715419D01*
X83487074Y-104710203D01*
X83508309Y-104707053D01*
X83529750Y-104706000D01*
X84042250Y-104706000D01*
X84063691Y-104707053D01*
G37*
G36*
X84063691Y-103132053D02*
G01*
X84084926Y-103135203D01*
X84105750Y-103140419D01*
X84125962Y-103147651D01*
X84145368Y-103156830D01*
X84163781Y-103167866D01*
X84181024Y-103180654D01*
X84196930Y-103195070D01*
X84211346Y-103210976D01*
X84224134Y-103228219D01*
X84235170Y-103246632D01*
X84244349Y-103266038D01*
X84251581Y-103286250D01*
X84256797Y-103307074D01*
X84259947Y-103328309D01*
X84261000Y-103349750D01*
X84261000Y-103787250D01*
X84259947Y-103808691D01*
X84256797Y-103829926D01*
X84251581Y-103850750D01*
X84244349Y-103870962D01*
X84235170Y-103890368D01*
X84224134Y-103908781D01*
X84211346Y-103926024D01*
X84196930Y-103941930D01*
X84181024Y-103956346D01*
X84163781Y-103969134D01*
X84145368Y-103980170D01*
X84125962Y-103989349D01*
X84105750Y-103996581D01*
X84084926Y-104001797D01*
X84063691Y-104004947D01*
X84042250Y-104006000D01*
X83529750Y-104006000D01*
X83508309Y-104004947D01*
X83487074Y-104001797D01*
X83466250Y-103996581D01*
X83446038Y-103989349D01*
X83426632Y-103980170D01*
X83408219Y-103969134D01*
X83390976Y-103956346D01*
X83375070Y-103941930D01*
X83360654Y-103926024D01*
X83347866Y-103908781D01*
X83336830Y-103890368D01*
X83327651Y-103870962D01*
X83320419Y-103850750D01*
X83315203Y-103829926D01*
X83312053Y-103808691D01*
X83311000Y-103787250D01*
X83311000Y-103349750D01*
X83312053Y-103328309D01*
X83315203Y-103307074D01*
X83320419Y-103286250D01*
X83327651Y-103266038D01*
X83336830Y-103246632D01*
X83347866Y-103228219D01*
X83360654Y-103210976D01*
X83375070Y-103195070D01*
X83390976Y-103180654D01*
X83408219Y-103167866D01*
X83426632Y-103156830D01*
X83446038Y-103147651D01*
X83466250Y-103140419D01*
X83487074Y-103135203D01*
X83508309Y-103132053D01*
X83529750Y-103131000D01*
X84042250Y-103131000D01*
X84063691Y-103132053D01*
G37*
G36*
X85166142Y-126732174D02*
G01*
X85189803Y-126735684D01*
X85213007Y-126741496D01*
X85235529Y-126749554D01*
X85257153Y-126759782D01*
X85277670Y-126772079D01*
X85296883Y-126786329D01*
X85314607Y-126802393D01*
X85330671Y-126820117D01*
X85344921Y-126839330D01*
X85357218Y-126859847D01*
X85367446Y-126881471D01*
X85375504Y-126903993D01*
X85381316Y-126927197D01*
X85384826Y-126950858D01*
X85386000Y-126974750D01*
X85386000Y-127462250D01*
X85384826Y-127486142D01*
X85381316Y-127509803D01*
X85375504Y-127533007D01*
X85367446Y-127555529D01*
X85357218Y-127577153D01*
X85344921Y-127597670D01*
X85330671Y-127616883D01*
X85314607Y-127634607D01*
X85296883Y-127650671D01*
X85277670Y-127664921D01*
X85257153Y-127677218D01*
X85235529Y-127687446D01*
X85213007Y-127695504D01*
X85189803Y-127701316D01*
X85166142Y-127704826D01*
X85142250Y-127706000D01*
X84229750Y-127706000D01*
X84205858Y-127704826D01*
X84182197Y-127701316D01*
X84158993Y-127695504D01*
X84136471Y-127687446D01*
X84114847Y-127677218D01*
X84094330Y-127664921D01*
X84075117Y-127650671D01*
X84057393Y-127634607D01*
X84041329Y-127616883D01*
X84027079Y-127597670D01*
X84014782Y-127577153D01*
X84004554Y-127555529D01*
X83996496Y-127533007D01*
X83990684Y-127509803D01*
X83987174Y-127486142D01*
X83986000Y-127462250D01*
X83986000Y-126974750D01*
X83987174Y-126950858D01*
X83990684Y-126927197D01*
X83996496Y-126903993D01*
X84004554Y-126881471D01*
X84014782Y-126859847D01*
X84027079Y-126839330D01*
X84041329Y-126820117D01*
X84057393Y-126802393D01*
X84075117Y-126786329D01*
X84094330Y-126772079D01*
X84114847Y-126759782D01*
X84136471Y-126749554D01*
X84158993Y-126741496D01*
X84182197Y-126735684D01*
X84205858Y-126732174D01*
X84229750Y-126731000D01*
X85142250Y-126731000D01*
X85166142Y-126732174D01*
G37*
G36*
X85166142Y-128607174D02*
G01*
X85189803Y-128610684D01*
X85213007Y-128616496D01*
X85235529Y-128624554D01*
X85257153Y-128634782D01*
X85277670Y-128647079D01*
X85296883Y-128661329D01*
X85314607Y-128677393D01*
X85330671Y-128695117D01*
X85344921Y-128714330D01*
X85357218Y-128734847D01*
X85367446Y-128756471D01*
X85375504Y-128778993D01*
X85381316Y-128802197D01*
X85384826Y-128825858D01*
X85386000Y-128849750D01*
X85386000Y-129337250D01*
X85384826Y-129361142D01*
X85381316Y-129384803D01*
X85375504Y-129408007D01*
X85367446Y-129430529D01*
X85357218Y-129452153D01*
X85344921Y-129472670D01*
X85330671Y-129491883D01*
X85314607Y-129509607D01*
X85296883Y-129525671D01*
X85277670Y-129539921D01*
X85257153Y-129552218D01*
X85235529Y-129562446D01*
X85213007Y-129570504D01*
X85189803Y-129576316D01*
X85166142Y-129579826D01*
X85142250Y-129581000D01*
X84229750Y-129581000D01*
X84205858Y-129579826D01*
X84182197Y-129576316D01*
X84158993Y-129570504D01*
X84136471Y-129562446D01*
X84114847Y-129552218D01*
X84094330Y-129539921D01*
X84075117Y-129525671D01*
X84057393Y-129509607D01*
X84041329Y-129491883D01*
X84027079Y-129472670D01*
X84014782Y-129452153D01*
X84004554Y-129430529D01*
X83996496Y-129408007D01*
X83990684Y-129384803D01*
X83987174Y-129361142D01*
X83986000Y-129337250D01*
X83986000Y-128849750D01*
X83987174Y-128825858D01*
X83990684Y-128802197D01*
X83996496Y-128778993D01*
X84004554Y-128756471D01*
X84014782Y-128734847D01*
X84027079Y-128714330D01*
X84041329Y-128695117D01*
X84057393Y-128677393D01*
X84075117Y-128661329D01*
X84094330Y-128647079D01*
X84114847Y-128634782D01*
X84136471Y-128624554D01*
X84158993Y-128616496D01*
X84182197Y-128610684D01*
X84205858Y-128607174D01*
X84229750Y-128606000D01*
X85142250Y-128606000D01*
X85166142Y-128607174D01*
G37*
G36*
X89663691Y-104707053D02*
G01*
X89684926Y-104710203D01*
X89705750Y-104715419D01*
X89725962Y-104722651D01*
X89745368Y-104731830D01*
X89763781Y-104742866D01*
X89781024Y-104755654D01*
X89796930Y-104770070D01*
X89811346Y-104785976D01*
X89824134Y-104803219D01*
X89835170Y-104821632D01*
X89844349Y-104841038D01*
X89851581Y-104861250D01*
X89856797Y-104882074D01*
X89859947Y-104903309D01*
X89861000Y-104924750D01*
X89861000Y-105362250D01*
X89859947Y-105383691D01*
X89856797Y-105404926D01*
X89851581Y-105425750D01*
X89844349Y-105445962D01*
X89835170Y-105465368D01*
X89824134Y-105483781D01*
X89811346Y-105501024D01*
X89796930Y-105516930D01*
X89781024Y-105531346D01*
X89763781Y-105544134D01*
X89745368Y-105555170D01*
X89725962Y-105564349D01*
X89705750Y-105571581D01*
X89684926Y-105576797D01*
X89663691Y-105579947D01*
X89642250Y-105581000D01*
X89129750Y-105581000D01*
X89108309Y-105579947D01*
X89087074Y-105576797D01*
X89066250Y-105571581D01*
X89046038Y-105564349D01*
X89026632Y-105555170D01*
X89008219Y-105544134D01*
X88990976Y-105531346D01*
X88975070Y-105516930D01*
X88960654Y-105501024D01*
X88947866Y-105483781D01*
X88936830Y-105465368D01*
X88927651Y-105445962D01*
X88920419Y-105425750D01*
X88915203Y-105404926D01*
X88912053Y-105383691D01*
X88911000Y-105362250D01*
X88911000Y-104924750D01*
X88912053Y-104903309D01*
X88915203Y-104882074D01*
X88920419Y-104861250D01*
X88927651Y-104841038D01*
X88936830Y-104821632D01*
X88947866Y-104803219D01*
X88960654Y-104785976D01*
X88975070Y-104770070D01*
X88990976Y-104755654D01*
X89008219Y-104742866D01*
X89026632Y-104731830D01*
X89046038Y-104722651D01*
X89066250Y-104715419D01*
X89087074Y-104710203D01*
X89108309Y-104707053D01*
X89129750Y-104706000D01*
X89642250Y-104706000D01*
X89663691Y-104707053D01*
G37*
G36*
X89663691Y-103132053D02*
G01*
X89684926Y-103135203D01*
X89705750Y-103140419D01*
X89725962Y-103147651D01*
X89745368Y-103156830D01*
X89763781Y-103167866D01*
X89781024Y-103180654D01*
X89796930Y-103195070D01*
X89811346Y-103210976D01*
X89824134Y-103228219D01*
X89835170Y-103246632D01*
X89844349Y-103266038D01*
X89851581Y-103286250D01*
X89856797Y-103307074D01*
X89859947Y-103328309D01*
X89861000Y-103349750D01*
X89861000Y-103787250D01*
X89859947Y-103808691D01*
X89856797Y-103829926D01*
X89851581Y-103850750D01*
X89844349Y-103870962D01*
X89835170Y-103890368D01*
X89824134Y-103908781D01*
X89811346Y-103926024D01*
X89796930Y-103941930D01*
X89781024Y-103956346D01*
X89763781Y-103969134D01*
X89745368Y-103980170D01*
X89725962Y-103989349D01*
X89705750Y-103996581D01*
X89684926Y-104001797D01*
X89663691Y-104004947D01*
X89642250Y-104006000D01*
X89129750Y-104006000D01*
X89108309Y-104004947D01*
X89087074Y-104001797D01*
X89066250Y-103996581D01*
X89046038Y-103989349D01*
X89026632Y-103980170D01*
X89008219Y-103969134D01*
X88990976Y-103956346D01*
X88975070Y-103941930D01*
X88960654Y-103926024D01*
X88947866Y-103908781D01*
X88936830Y-103890368D01*
X88927651Y-103870962D01*
X88920419Y-103850750D01*
X88915203Y-103829926D01*
X88912053Y-103808691D01*
X88911000Y-103787250D01*
X88911000Y-103349750D01*
X88912053Y-103328309D01*
X88915203Y-103307074D01*
X88920419Y-103286250D01*
X88927651Y-103266038D01*
X88936830Y-103246632D01*
X88947866Y-103228219D01*
X88960654Y-103210976D01*
X88975070Y-103195070D01*
X88990976Y-103180654D01*
X89008219Y-103167866D01*
X89026632Y-103156830D01*
X89046038Y-103147651D01*
X89066250Y-103140419D01*
X89087074Y-103135203D01*
X89108309Y-103132053D01*
X89129750Y-103131000D01*
X89642250Y-103131000D01*
X89663691Y-103132053D01*
G37*
G36*
X78213691Y-114682053D02*
G01*
X78234926Y-114685203D01*
X78255750Y-114690419D01*
X78275962Y-114697651D01*
X78295368Y-114706830D01*
X78313781Y-114717866D01*
X78331024Y-114730654D01*
X78346930Y-114745070D01*
X78361346Y-114760976D01*
X78374134Y-114778219D01*
X78385170Y-114796632D01*
X78394349Y-114816038D01*
X78401581Y-114836250D01*
X78406797Y-114857074D01*
X78409947Y-114878309D01*
X78411000Y-114899750D01*
X78411000Y-115412250D01*
X78409947Y-115433691D01*
X78406797Y-115454926D01*
X78401581Y-115475750D01*
X78394349Y-115495962D01*
X78385170Y-115515368D01*
X78374134Y-115533781D01*
X78361346Y-115551024D01*
X78346930Y-115566930D01*
X78331024Y-115581346D01*
X78313781Y-115594134D01*
X78295368Y-115605170D01*
X78275962Y-115614349D01*
X78255750Y-115621581D01*
X78234926Y-115626797D01*
X78213691Y-115629947D01*
X78192250Y-115631000D01*
X77754750Y-115631000D01*
X77733309Y-115629947D01*
X77712074Y-115626797D01*
X77691250Y-115621581D01*
X77671038Y-115614349D01*
X77651632Y-115605170D01*
X77633219Y-115594134D01*
X77615976Y-115581346D01*
X77600070Y-115566930D01*
X77585654Y-115551024D01*
X77572866Y-115533781D01*
X77561830Y-115515368D01*
X77552651Y-115495962D01*
X77545419Y-115475750D01*
X77540203Y-115454926D01*
X77537053Y-115433691D01*
X77536000Y-115412250D01*
X77536000Y-114899750D01*
X77537053Y-114878309D01*
X77540203Y-114857074D01*
X77545419Y-114836250D01*
X77552651Y-114816038D01*
X77561830Y-114796632D01*
X77572866Y-114778219D01*
X77585654Y-114760976D01*
X77600070Y-114745070D01*
X77615976Y-114730654D01*
X77633219Y-114717866D01*
X77651632Y-114706830D01*
X77671038Y-114697651D01*
X77691250Y-114690419D01*
X77712074Y-114685203D01*
X77733309Y-114682053D01*
X77754750Y-114681000D01*
X78192250Y-114681000D01*
X78213691Y-114682053D01*
G37*
G36*
X76638691Y-114682053D02*
G01*
X76659926Y-114685203D01*
X76680750Y-114690419D01*
X76700962Y-114697651D01*
X76720368Y-114706830D01*
X76738781Y-114717866D01*
X76756024Y-114730654D01*
X76771930Y-114745070D01*
X76786346Y-114760976D01*
X76799134Y-114778219D01*
X76810170Y-114796632D01*
X76819349Y-114816038D01*
X76826581Y-114836250D01*
X76831797Y-114857074D01*
X76834947Y-114878309D01*
X76836000Y-114899750D01*
X76836000Y-115412250D01*
X76834947Y-115433691D01*
X76831797Y-115454926D01*
X76826581Y-115475750D01*
X76819349Y-115495962D01*
X76810170Y-115515368D01*
X76799134Y-115533781D01*
X76786346Y-115551024D01*
X76771930Y-115566930D01*
X76756024Y-115581346D01*
X76738781Y-115594134D01*
X76720368Y-115605170D01*
X76700962Y-115614349D01*
X76680750Y-115621581D01*
X76659926Y-115626797D01*
X76638691Y-115629947D01*
X76617250Y-115631000D01*
X76179750Y-115631000D01*
X76158309Y-115629947D01*
X76137074Y-115626797D01*
X76116250Y-115621581D01*
X76096038Y-115614349D01*
X76076632Y-115605170D01*
X76058219Y-115594134D01*
X76040976Y-115581346D01*
X76025070Y-115566930D01*
X76010654Y-115551024D01*
X75997866Y-115533781D01*
X75986830Y-115515368D01*
X75977651Y-115495962D01*
X75970419Y-115475750D01*
X75965203Y-115454926D01*
X75962053Y-115433691D01*
X75961000Y-115412250D01*
X75961000Y-114899750D01*
X75962053Y-114878309D01*
X75965203Y-114857074D01*
X75970419Y-114836250D01*
X75977651Y-114816038D01*
X75986830Y-114796632D01*
X75997866Y-114778219D01*
X76010654Y-114760976D01*
X76025070Y-114745070D01*
X76040976Y-114730654D01*
X76058219Y-114717866D01*
X76076632Y-114706830D01*
X76096038Y-114697651D01*
X76116250Y-114690419D01*
X76137074Y-114685203D01*
X76158309Y-114682053D01*
X76179750Y-114681000D01*
X76617250Y-114681000D01*
X76638691Y-114682053D01*
G37*
G36*
X78191142Y-112757174D02*
G01*
X78214803Y-112760684D01*
X78238007Y-112766496D01*
X78260529Y-112774554D01*
X78282153Y-112784782D01*
X78302670Y-112797079D01*
X78321883Y-112811329D01*
X78339607Y-112827393D01*
X78355671Y-112845117D01*
X78369921Y-112864330D01*
X78382218Y-112884847D01*
X78392446Y-112906471D01*
X78400504Y-112928993D01*
X78406316Y-112952197D01*
X78409826Y-112975858D01*
X78411000Y-112999750D01*
X78411000Y-113912250D01*
X78409826Y-113936142D01*
X78406316Y-113959803D01*
X78400504Y-113983007D01*
X78392446Y-114005529D01*
X78382218Y-114027153D01*
X78369921Y-114047670D01*
X78355671Y-114066883D01*
X78339607Y-114084607D01*
X78321883Y-114100671D01*
X78302670Y-114114921D01*
X78282153Y-114127218D01*
X78260529Y-114137446D01*
X78238007Y-114145504D01*
X78214803Y-114151316D01*
X78191142Y-114154826D01*
X78167250Y-114156000D01*
X77679750Y-114156000D01*
X77655858Y-114154826D01*
X77632197Y-114151316D01*
X77608993Y-114145504D01*
X77586471Y-114137446D01*
X77564847Y-114127218D01*
X77544330Y-114114921D01*
X77525117Y-114100671D01*
X77507393Y-114084607D01*
X77491329Y-114066883D01*
X77477079Y-114047670D01*
X77464782Y-114027153D01*
X77454554Y-114005529D01*
X77446496Y-113983007D01*
X77440684Y-113959803D01*
X77437174Y-113936142D01*
X77436000Y-113912250D01*
X77436000Y-112999750D01*
X77437174Y-112975858D01*
X77440684Y-112952197D01*
X77446496Y-112928993D01*
X77454554Y-112906471D01*
X77464782Y-112884847D01*
X77477079Y-112864330D01*
X77491329Y-112845117D01*
X77507393Y-112827393D01*
X77525117Y-112811329D01*
X77544330Y-112797079D01*
X77564847Y-112784782D01*
X77586471Y-112774554D01*
X77608993Y-112766496D01*
X77632197Y-112760684D01*
X77655858Y-112757174D01*
X77679750Y-112756000D01*
X78167250Y-112756000D01*
X78191142Y-112757174D01*
G37*
G36*
X76316142Y-112757174D02*
G01*
X76339803Y-112760684D01*
X76363007Y-112766496D01*
X76385529Y-112774554D01*
X76407153Y-112784782D01*
X76427670Y-112797079D01*
X76446883Y-112811329D01*
X76464607Y-112827393D01*
X76480671Y-112845117D01*
X76494921Y-112864330D01*
X76507218Y-112884847D01*
X76517446Y-112906471D01*
X76525504Y-112928993D01*
X76531316Y-112952197D01*
X76534826Y-112975858D01*
X76536000Y-112999750D01*
X76536000Y-113912250D01*
X76534826Y-113936142D01*
X76531316Y-113959803D01*
X76525504Y-113983007D01*
X76517446Y-114005529D01*
X76507218Y-114027153D01*
X76494921Y-114047670D01*
X76480671Y-114066883D01*
X76464607Y-114084607D01*
X76446883Y-114100671D01*
X76427670Y-114114921D01*
X76407153Y-114127218D01*
X76385529Y-114137446D01*
X76363007Y-114145504D01*
X76339803Y-114151316D01*
X76316142Y-114154826D01*
X76292250Y-114156000D01*
X75804750Y-114156000D01*
X75780858Y-114154826D01*
X75757197Y-114151316D01*
X75733993Y-114145504D01*
X75711471Y-114137446D01*
X75689847Y-114127218D01*
X75669330Y-114114921D01*
X75650117Y-114100671D01*
X75632393Y-114084607D01*
X75616329Y-114066883D01*
X75602079Y-114047670D01*
X75589782Y-114027153D01*
X75579554Y-114005529D01*
X75571496Y-113983007D01*
X75565684Y-113959803D01*
X75562174Y-113936142D01*
X75561000Y-113912250D01*
X75561000Y-112999750D01*
X75562174Y-112975858D01*
X75565684Y-112952197D01*
X75571496Y-112928993D01*
X75579554Y-112906471D01*
X75589782Y-112884847D01*
X75602079Y-112864330D01*
X75616329Y-112845117D01*
X75632393Y-112827393D01*
X75650117Y-112811329D01*
X75669330Y-112797079D01*
X75689847Y-112784782D01*
X75711471Y-112774554D01*
X75733993Y-112766496D01*
X75757197Y-112760684D01*
X75780858Y-112757174D01*
X75804750Y-112756000D01*
X76292250Y-112756000D01*
X76316142Y-112757174D01*
G37*
G36*
X86663691Y-126732053D02*
G01*
X86684926Y-126735203D01*
X86705750Y-126740419D01*
X86725962Y-126747651D01*
X86745368Y-126756830D01*
X86763781Y-126767866D01*
X86781024Y-126780654D01*
X86796930Y-126795070D01*
X86811346Y-126810976D01*
X86824134Y-126828219D01*
X86835170Y-126846632D01*
X86844349Y-126866038D01*
X86851581Y-126886250D01*
X86856797Y-126907074D01*
X86859947Y-126928309D01*
X86861000Y-126949750D01*
X86861000Y-127387250D01*
X86859947Y-127408691D01*
X86856797Y-127429926D01*
X86851581Y-127450750D01*
X86844349Y-127470962D01*
X86835170Y-127490368D01*
X86824134Y-127508781D01*
X86811346Y-127526024D01*
X86796930Y-127541930D01*
X86781024Y-127556346D01*
X86763781Y-127569134D01*
X86745368Y-127580170D01*
X86725962Y-127589349D01*
X86705750Y-127596581D01*
X86684926Y-127601797D01*
X86663691Y-127604947D01*
X86642250Y-127606000D01*
X86129750Y-127606000D01*
X86108309Y-127604947D01*
X86087074Y-127601797D01*
X86066250Y-127596581D01*
X86046038Y-127589349D01*
X86026632Y-127580170D01*
X86008219Y-127569134D01*
X85990976Y-127556346D01*
X85975070Y-127541930D01*
X85960654Y-127526024D01*
X85947866Y-127508781D01*
X85936830Y-127490368D01*
X85927651Y-127470962D01*
X85920419Y-127450750D01*
X85915203Y-127429926D01*
X85912053Y-127408691D01*
X85911000Y-127387250D01*
X85911000Y-126949750D01*
X85912053Y-126928309D01*
X85915203Y-126907074D01*
X85920419Y-126886250D01*
X85927651Y-126866038D01*
X85936830Y-126846632D01*
X85947866Y-126828219D01*
X85960654Y-126810976D01*
X85975070Y-126795070D01*
X85990976Y-126780654D01*
X86008219Y-126767866D01*
X86026632Y-126756830D01*
X86046038Y-126747651D01*
X86066250Y-126740419D01*
X86087074Y-126735203D01*
X86108309Y-126732053D01*
X86129750Y-126731000D01*
X86642250Y-126731000D01*
X86663691Y-126732053D01*
G37*
G36*
X86663691Y-128307053D02*
G01*
X86684926Y-128310203D01*
X86705750Y-128315419D01*
X86725962Y-128322651D01*
X86745368Y-128331830D01*
X86763781Y-128342866D01*
X86781024Y-128355654D01*
X86796930Y-128370070D01*
X86811346Y-128385976D01*
X86824134Y-128403219D01*
X86835170Y-128421632D01*
X86844349Y-128441038D01*
X86851581Y-128461250D01*
X86856797Y-128482074D01*
X86859947Y-128503309D01*
X86861000Y-128524750D01*
X86861000Y-128962250D01*
X86859947Y-128983691D01*
X86856797Y-129004926D01*
X86851581Y-129025750D01*
X86844349Y-129045962D01*
X86835170Y-129065368D01*
X86824134Y-129083781D01*
X86811346Y-129101024D01*
X86796930Y-129116930D01*
X86781024Y-129131346D01*
X86763781Y-129144134D01*
X86745368Y-129155170D01*
X86725962Y-129164349D01*
X86705750Y-129171581D01*
X86684926Y-129176797D01*
X86663691Y-129179947D01*
X86642250Y-129181000D01*
X86129750Y-129181000D01*
X86108309Y-129179947D01*
X86087074Y-129176797D01*
X86066250Y-129171581D01*
X86046038Y-129164349D01*
X86026632Y-129155170D01*
X86008219Y-129144134D01*
X85990976Y-129131346D01*
X85975070Y-129116930D01*
X85960654Y-129101024D01*
X85947866Y-129083781D01*
X85936830Y-129065368D01*
X85927651Y-129045962D01*
X85920419Y-129025750D01*
X85915203Y-129004926D01*
X85912053Y-128983691D01*
X85911000Y-128962250D01*
X85911000Y-128524750D01*
X85912053Y-128503309D01*
X85915203Y-128482074D01*
X85920419Y-128461250D01*
X85927651Y-128441038D01*
X85936830Y-128421632D01*
X85947866Y-128403219D01*
X85960654Y-128385976D01*
X85975070Y-128370070D01*
X85990976Y-128355654D01*
X86008219Y-128342866D01*
X86026632Y-128331830D01*
X86046038Y-128322651D01*
X86066250Y-128315419D01*
X86087074Y-128310203D01*
X86108309Y-128307053D01*
X86129750Y-128306000D01*
X86642250Y-128306000D01*
X86663691Y-128307053D01*
G37*
G36*
X88263691Y-104707053D02*
G01*
X88284926Y-104710203D01*
X88305750Y-104715419D01*
X88325962Y-104722651D01*
X88345368Y-104731830D01*
X88363781Y-104742866D01*
X88381024Y-104755654D01*
X88396930Y-104770070D01*
X88411346Y-104785976D01*
X88424134Y-104803219D01*
X88435170Y-104821632D01*
X88444349Y-104841038D01*
X88451581Y-104861250D01*
X88456797Y-104882074D01*
X88459947Y-104903309D01*
X88461000Y-104924750D01*
X88461000Y-105362250D01*
X88459947Y-105383691D01*
X88456797Y-105404926D01*
X88451581Y-105425750D01*
X88444349Y-105445962D01*
X88435170Y-105465368D01*
X88424134Y-105483781D01*
X88411346Y-105501024D01*
X88396930Y-105516930D01*
X88381024Y-105531346D01*
X88363781Y-105544134D01*
X88345368Y-105555170D01*
X88325962Y-105564349D01*
X88305750Y-105571581D01*
X88284926Y-105576797D01*
X88263691Y-105579947D01*
X88242250Y-105581000D01*
X87729750Y-105581000D01*
X87708309Y-105579947D01*
X87687074Y-105576797D01*
X87666250Y-105571581D01*
X87646038Y-105564349D01*
X87626632Y-105555170D01*
X87608219Y-105544134D01*
X87590976Y-105531346D01*
X87575070Y-105516930D01*
X87560654Y-105501024D01*
X87547866Y-105483781D01*
X87536830Y-105465368D01*
X87527651Y-105445962D01*
X87520419Y-105425750D01*
X87515203Y-105404926D01*
X87512053Y-105383691D01*
X87511000Y-105362250D01*
X87511000Y-104924750D01*
X87512053Y-104903309D01*
X87515203Y-104882074D01*
X87520419Y-104861250D01*
X87527651Y-104841038D01*
X87536830Y-104821632D01*
X87547866Y-104803219D01*
X87560654Y-104785976D01*
X87575070Y-104770070D01*
X87590976Y-104755654D01*
X87608219Y-104742866D01*
X87626632Y-104731830D01*
X87646038Y-104722651D01*
X87666250Y-104715419D01*
X87687074Y-104710203D01*
X87708309Y-104707053D01*
X87729750Y-104706000D01*
X88242250Y-104706000D01*
X88263691Y-104707053D01*
G37*
G36*
X88263691Y-103132053D02*
G01*
X88284926Y-103135203D01*
X88305750Y-103140419D01*
X88325962Y-103147651D01*
X88345368Y-103156830D01*
X88363781Y-103167866D01*
X88381024Y-103180654D01*
X88396930Y-103195070D01*
X88411346Y-103210976D01*
X88424134Y-103228219D01*
X88435170Y-103246632D01*
X88444349Y-103266038D01*
X88451581Y-103286250D01*
X88456797Y-103307074D01*
X88459947Y-103328309D01*
X88461000Y-103349750D01*
X88461000Y-103787250D01*
X88459947Y-103808691D01*
X88456797Y-103829926D01*
X88451581Y-103850750D01*
X88444349Y-103870962D01*
X88435170Y-103890368D01*
X88424134Y-103908781D01*
X88411346Y-103926024D01*
X88396930Y-103941930D01*
X88381024Y-103956346D01*
X88363781Y-103969134D01*
X88345368Y-103980170D01*
X88325962Y-103989349D01*
X88305750Y-103996581D01*
X88284926Y-104001797D01*
X88263691Y-104004947D01*
X88242250Y-104006000D01*
X87729750Y-104006000D01*
X87708309Y-104004947D01*
X87687074Y-104001797D01*
X87666250Y-103996581D01*
X87646038Y-103989349D01*
X87626632Y-103980170D01*
X87608219Y-103969134D01*
X87590976Y-103956346D01*
X87575070Y-103941930D01*
X87560654Y-103926024D01*
X87547866Y-103908781D01*
X87536830Y-103890368D01*
X87527651Y-103870962D01*
X87520419Y-103850750D01*
X87515203Y-103829926D01*
X87512053Y-103808691D01*
X87511000Y-103787250D01*
X87511000Y-103349750D01*
X87512053Y-103328309D01*
X87515203Y-103307074D01*
X87520419Y-103286250D01*
X87527651Y-103266038D01*
X87536830Y-103246632D01*
X87547866Y-103228219D01*
X87560654Y-103210976D01*
X87575070Y-103195070D01*
X87590976Y-103180654D01*
X87608219Y-103167866D01*
X87626632Y-103156830D01*
X87646038Y-103147651D01*
X87666250Y-103140419D01*
X87687074Y-103135203D01*
X87708309Y-103132053D01*
X87729750Y-103131000D01*
X88242250Y-103131000D01*
X88263691Y-103132053D01*
G37*
D23*
X77036000Y-109956000D03*
X80336000Y-109956000D03*
D22*
G36*
X113163691Y-108407053D02*
G01*
X113184926Y-108410203D01*
X113205750Y-108415419D01*
X113225962Y-108422651D01*
X113245368Y-108431830D01*
X113263781Y-108442866D01*
X113281024Y-108455654D01*
X113296930Y-108470070D01*
X113311346Y-108485976D01*
X113324134Y-108503219D01*
X113335170Y-108521632D01*
X113344349Y-108541038D01*
X113351581Y-108561250D01*
X113356797Y-108582074D01*
X113359947Y-108603309D01*
X113361000Y-108624750D01*
X113361000Y-109062250D01*
X113359947Y-109083691D01*
X113356797Y-109104926D01*
X113351581Y-109125750D01*
X113344349Y-109145962D01*
X113335170Y-109165368D01*
X113324134Y-109183781D01*
X113311346Y-109201024D01*
X113296930Y-109216930D01*
X113281024Y-109231346D01*
X113263781Y-109244134D01*
X113245368Y-109255170D01*
X113225962Y-109264349D01*
X113205750Y-109271581D01*
X113184926Y-109276797D01*
X113163691Y-109279947D01*
X113142250Y-109281000D01*
X112629750Y-109281000D01*
X112608309Y-109279947D01*
X112587074Y-109276797D01*
X112566250Y-109271581D01*
X112546038Y-109264349D01*
X112526632Y-109255170D01*
X112508219Y-109244134D01*
X112490976Y-109231346D01*
X112475070Y-109216930D01*
X112460654Y-109201024D01*
X112447866Y-109183781D01*
X112436830Y-109165368D01*
X112427651Y-109145962D01*
X112420419Y-109125750D01*
X112415203Y-109104926D01*
X112412053Y-109083691D01*
X112411000Y-109062250D01*
X112411000Y-108624750D01*
X112412053Y-108603309D01*
X112415203Y-108582074D01*
X112420419Y-108561250D01*
X112427651Y-108541038D01*
X112436830Y-108521632D01*
X112447866Y-108503219D01*
X112460654Y-108485976D01*
X112475070Y-108470070D01*
X112490976Y-108455654D01*
X112508219Y-108442866D01*
X112526632Y-108431830D01*
X112546038Y-108422651D01*
X112566250Y-108415419D01*
X112587074Y-108410203D01*
X112608309Y-108407053D01*
X112629750Y-108406000D01*
X113142250Y-108406000D01*
X113163691Y-108407053D01*
G37*
G36*
X113163691Y-106832053D02*
G01*
X113184926Y-106835203D01*
X113205750Y-106840419D01*
X113225962Y-106847651D01*
X113245368Y-106856830D01*
X113263781Y-106867866D01*
X113281024Y-106880654D01*
X113296930Y-106895070D01*
X113311346Y-106910976D01*
X113324134Y-106928219D01*
X113335170Y-106946632D01*
X113344349Y-106966038D01*
X113351581Y-106986250D01*
X113356797Y-107007074D01*
X113359947Y-107028309D01*
X113361000Y-107049750D01*
X113361000Y-107487250D01*
X113359947Y-107508691D01*
X113356797Y-107529926D01*
X113351581Y-107550750D01*
X113344349Y-107570962D01*
X113335170Y-107590368D01*
X113324134Y-107608781D01*
X113311346Y-107626024D01*
X113296930Y-107641930D01*
X113281024Y-107656346D01*
X113263781Y-107669134D01*
X113245368Y-107680170D01*
X113225962Y-107689349D01*
X113205750Y-107696581D01*
X113184926Y-107701797D01*
X113163691Y-107704947D01*
X113142250Y-107706000D01*
X112629750Y-107706000D01*
X112608309Y-107704947D01*
X112587074Y-107701797D01*
X112566250Y-107696581D01*
X112546038Y-107689349D01*
X112526632Y-107680170D01*
X112508219Y-107669134D01*
X112490976Y-107656346D01*
X112475070Y-107641930D01*
X112460654Y-107626024D01*
X112447866Y-107608781D01*
X112436830Y-107590368D01*
X112427651Y-107570962D01*
X112420419Y-107550750D01*
X112415203Y-107529926D01*
X112412053Y-107508691D01*
X112411000Y-107487250D01*
X112411000Y-107049750D01*
X112412053Y-107028309D01*
X112415203Y-107007074D01*
X112420419Y-106986250D01*
X112427651Y-106966038D01*
X112436830Y-106946632D01*
X112447866Y-106928219D01*
X112460654Y-106910976D01*
X112475070Y-106895070D01*
X112490976Y-106880654D01*
X112508219Y-106867866D01*
X112526632Y-106856830D01*
X112546038Y-106847651D01*
X112566250Y-106840419D01*
X112587074Y-106835203D01*
X112608309Y-106832053D01*
X112629750Y-106831000D01*
X113142250Y-106831000D01*
X113163691Y-106832053D01*
G37*
G36*
X81213691Y-111282053D02*
G01*
X81234926Y-111285203D01*
X81255750Y-111290419D01*
X81275962Y-111297651D01*
X81295368Y-111306830D01*
X81313781Y-111317866D01*
X81331024Y-111330654D01*
X81346930Y-111345070D01*
X81361346Y-111360976D01*
X81374134Y-111378219D01*
X81385170Y-111396632D01*
X81394349Y-111416038D01*
X81401581Y-111436250D01*
X81406797Y-111457074D01*
X81409947Y-111478309D01*
X81411000Y-111499750D01*
X81411000Y-112012250D01*
X81409947Y-112033691D01*
X81406797Y-112054926D01*
X81401581Y-112075750D01*
X81394349Y-112095962D01*
X81385170Y-112115368D01*
X81374134Y-112133781D01*
X81361346Y-112151024D01*
X81346930Y-112166930D01*
X81331024Y-112181346D01*
X81313781Y-112194134D01*
X81295368Y-112205170D01*
X81275962Y-112214349D01*
X81255750Y-112221581D01*
X81234926Y-112226797D01*
X81213691Y-112229947D01*
X81192250Y-112231000D01*
X80754750Y-112231000D01*
X80733309Y-112229947D01*
X80712074Y-112226797D01*
X80691250Y-112221581D01*
X80671038Y-112214349D01*
X80651632Y-112205170D01*
X80633219Y-112194134D01*
X80615976Y-112181346D01*
X80600070Y-112166930D01*
X80585654Y-112151024D01*
X80572866Y-112133781D01*
X80561830Y-112115368D01*
X80552651Y-112095962D01*
X80545419Y-112075750D01*
X80540203Y-112054926D01*
X80537053Y-112033691D01*
X80536000Y-112012250D01*
X80536000Y-111499750D01*
X80537053Y-111478309D01*
X80540203Y-111457074D01*
X80545419Y-111436250D01*
X80552651Y-111416038D01*
X80561830Y-111396632D01*
X80572866Y-111378219D01*
X80585654Y-111360976D01*
X80600070Y-111345070D01*
X80615976Y-111330654D01*
X80633219Y-111317866D01*
X80651632Y-111306830D01*
X80671038Y-111297651D01*
X80691250Y-111290419D01*
X80712074Y-111285203D01*
X80733309Y-111282053D01*
X80754750Y-111281000D01*
X81192250Y-111281000D01*
X81213691Y-111282053D01*
G37*
G36*
X79638691Y-111282053D02*
G01*
X79659926Y-111285203D01*
X79680750Y-111290419D01*
X79700962Y-111297651D01*
X79720368Y-111306830D01*
X79738781Y-111317866D01*
X79756024Y-111330654D01*
X79771930Y-111345070D01*
X79786346Y-111360976D01*
X79799134Y-111378219D01*
X79810170Y-111396632D01*
X79819349Y-111416038D01*
X79826581Y-111436250D01*
X79831797Y-111457074D01*
X79834947Y-111478309D01*
X79836000Y-111499750D01*
X79836000Y-112012250D01*
X79834947Y-112033691D01*
X79831797Y-112054926D01*
X79826581Y-112075750D01*
X79819349Y-112095962D01*
X79810170Y-112115368D01*
X79799134Y-112133781D01*
X79786346Y-112151024D01*
X79771930Y-112166930D01*
X79756024Y-112181346D01*
X79738781Y-112194134D01*
X79720368Y-112205170D01*
X79700962Y-112214349D01*
X79680750Y-112221581D01*
X79659926Y-112226797D01*
X79638691Y-112229947D01*
X79617250Y-112231000D01*
X79179750Y-112231000D01*
X79158309Y-112229947D01*
X79137074Y-112226797D01*
X79116250Y-112221581D01*
X79096038Y-112214349D01*
X79076632Y-112205170D01*
X79058219Y-112194134D01*
X79040976Y-112181346D01*
X79025070Y-112166930D01*
X79010654Y-112151024D01*
X78997866Y-112133781D01*
X78986830Y-112115368D01*
X78977651Y-112095962D01*
X78970419Y-112075750D01*
X78965203Y-112054926D01*
X78962053Y-112033691D01*
X78961000Y-112012250D01*
X78961000Y-111499750D01*
X78962053Y-111478309D01*
X78965203Y-111457074D01*
X78970419Y-111436250D01*
X78977651Y-111416038D01*
X78986830Y-111396632D01*
X78997866Y-111378219D01*
X79010654Y-111360976D01*
X79025070Y-111345070D01*
X79040976Y-111330654D01*
X79058219Y-111317866D01*
X79076632Y-111306830D01*
X79096038Y-111297651D01*
X79116250Y-111290419D01*
X79137074Y-111285203D01*
X79158309Y-111282053D01*
X79179750Y-111281000D01*
X79617250Y-111281000D01*
X79638691Y-111282053D01*
G37*
G36*
X82566142Y-105007174D02*
G01*
X82589803Y-105010684D01*
X82613007Y-105016496D01*
X82635529Y-105024554D01*
X82657153Y-105034782D01*
X82677670Y-105047079D01*
X82696883Y-105061329D01*
X82714607Y-105077393D01*
X82730671Y-105095117D01*
X82744921Y-105114330D01*
X82757218Y-105134847D01*
X82767446Y-105156471D01*
X82775504Y-105178993D01*
X82781316Y-105202197D01*
X82784826Y-105225858D01*
X82786000Y-105249750D01*
X82786000Y-105737250D01*
X82784826Y-105761142D01*
X82781316Y-105784803D01*
X82775504Y-105808007D01*
X82767446Y-105830529D01*
X82757218Y-105852153D01*
X82744921Y-105872670D01*
X82730671Y-105891883D01*
X82714607Y-105909607D01*
X82696883Y-105925671D01*
X82677670Y-105939921D01*
X82657153Y-105952218D01*
X82635529Y-105962446D01*
X82613007Y-105970504D01*
X82589803Y-105976316D01*
X82566142Y-105979826D01*
X82542250Y-105981000D01*
X81629750Y-105981000D01*
X81605858Y-105979826D01*
X81582197Y-105976316D01*
X81558993Y-105970504D01*
X81536471Y-105962446D01*
X81514847Y-105952218D01*
X81494330Y-105939921D01*
X81475117Y-105925671D01*
X81457393Y-105909607D01*
X81441329Y-105891883D01*
X81427079Y-105872670D01*
X81414782Y-105852153D01*
X81404554Y-105830529D01*
X81396496Y-105808007D01*
X81390684Y-105784803D01*
X81387174Y-105761142D01*
X81386000Y-105737250D01*
X81386000Y-105249750D01*
X81387174Y-105225858D01*
X81390684Y-105202197D01*
X81396496Y-105178993D01*
X81404554Y-105156471D01*
X81414782Y-105134847D01*
X81427079Y-105114330D01*
X81441329Y-105095117D01*
X81457393Y-105077393D01*
X81475117Y-105061329D01*
X81494330Y-105047079D01*
X81514847Y-105034782D01*
X81536471Y-105024554D01*
X81558993Y-105016496D01*
X81582197Y-105010684D01*
X81605858Y-105007174D01*
X81629750Y-105006000D01*
X82542250Y-105006000D01*
X82566142Y-105007174D01*
G37*
G36*
X82566142Y-103132174D02*
G01*
X82589803Y-103135684D01*
X82613007Y-103141496D01*
X82635529Y-103149554D01*
X82657153Y-103159782D01*
X82677670Y-103172079D01*
X82696883Y-103186329D01*
X82714607Y-103202393D01*
X82730671Y-103220117D01*
X82744921Y-103239330D01*
X82757218Y-103259847D01*
X82767446Y-103281471D01*
X82775504Y-103303993D01*
X82781316Y-103327197D01*
X82784826Y-103350858D01*
X82786000Y-103374750D01*
X82786000Y-103862250D01*
X82784826Y-103886142D01*
X82781316Y-103909803D01*
X82775504Y-103933007D01*
X82767446Y-103955529D01*
X82757218Y-103977153D01*
X82744921Y-103997670D01*
X82730671Y-104016883D01*
X82714607Y-104034607D01*
X82696883Y-104050671D01*
X82677670Y-104064921D01*
X82657153Y-104077218D01*
X82635529Y-104087446D01*
X82613007Y-104095504D01*
X82589803Y-104101316D01*
X82566142Y-104104826D01*
X82542250Y-104106000D01*
X81629750Y-104106000D01*
X81605858Y-104104826D01*
X81582197Y-104101316D01*
X81558993Y-104095504D01*
X81536471Y-104087446D01*
X81514847Y-104077218D01*
X81494330Y-104064921D01*
X81475117Y-104050671D01*
X81457393Y-104034607D01*
X81441329Y-104016883D01*
X81427079Y-103997670D01*
X81414782Y-103977153D01*
X81404554Y-103955529D01*
X81396496Y-103933007D01*
X81390684Y-103909803D01*
X81387174Y-103886142D01*
X81386000Y-103862250D01*
X81386000Y-103374750D01*
X81387174Y-103350858D01*
X81390684Y-103327197D01*
X81396496Y-103303993D01*
X81404554Y-103281471D01*
X81414782Y-103259847D01*
X81427079Y-103239330D01*
X81441329Y-103220117D01*
X81457393Y-103202393D01*
X81475117Y-103186329D01*
X81494330Y-103172079D01*
X81514847Y-103159782D01*
X81536471Y-103149554D01*
X81558993Y-103141496D01*
X81582197Y-103135684D01*
X81605858Y-103132174D01*
X81629750Y-103131000D01*
X82542250Y-103131000D01*
X82566142Y-103132174D01*
G37*
M02*
